<?xml version="1.0" standalone="no"?>
<!DOCTYPE svg PUBLIC "-//W3C//DTD SVG 20010904//EN"
 "http://www.w3.org/TR/2001/REC-SVG-20010904/DTD/svg10.dtd">
<svg version="1.0" xmlns="http://www.w3.org/2000/svg"
 width="261.000000pt" height="261.000000pt" viewBox="0 0 261.000000 261.000000"
 preserveAspectRatio="xMidYMid meet">
<metadata>
Created by potrace 1.11, written by Peter Selinger 2001-2013
</metadata>
<g transform="translate(0.000000,261.000000) scale(0.100000,-0.100000)"
fill="#000000" stroke="none">
<path d="M940 2437 c-3 -3 -30 -7 -60 -10 -172 -18 -411 -136 -545 -272 -165
-167 -280 -402 -310 -634 -4 -30 -9 -63 -11 -75 -5 -25 -5 -281 0 -316 2 -14
7 -47 11 -75 16 -120 71 -283 132 -393 117 -213 315 -372 548 -442 107 -32
158 -40 292 -44 272 -8 507 84 690 273 36 37 41 46 31 60 -12 16 -114 136
-133 157 -16 18 -89 106 -101 123 -10 13 -18 10 -58 -27 -25 -23 -69 -57 -98
-75 -104 -64 -149 -78 -268 -83 -218 -8 -378 94 -470 300 -79 178 -98 447 -46
656 17 65 21 78 47 135 72 160 212 279 364 309 42 9 144 10 183 2 51 -10 138
-45 165 -66 14 -11 28 -20 32 -20 4 0 28 -18 54 -40 l48 -39 131 157 131 157
-42 38 c-115 105 -285 194 -432 226 -73 16 -274 28 -285 18z"/>
<path d="M2262 788 c-73 -11 -123 -39 -174 -98 -56 -65 -78 -130 -74 -223 3
-88 28 -149 86 -207 53 -53 115 -81 192 -85 165 -9 298 110 312 278 17 205
-146 365 -342 335z"/>
</g>
</svg>
