<?xml version="1.0" encoding="UTF-8" standalone="no"?>
<svg width="599px" height="899px" viewBox="0 0 599 899" version="1.1" xmlns="http://www.w3.org/2000/svg" xmlns:xlink="http://www.w3.org/1999/xlink" xmlns:sketch="http://www.bohemiancoding.com/sketch/ns">
    <!-- Generator: Sketch 3.4.4 (17249) - http://www.bohemiancoding.com/sketch -->
    <title>holy_mountain</title>
    <desc>Created with Sketch.</desc>
    <defs>
        <path id="path-1" d="M0.144110855,898.856813 L598.75843,898.856813 L598.75843,0.935334873 L0.144110855,0.935334873"></path>
        <path id="path-3" d="M0.144110855,898.856813 L598.75843,898.856813 L598.75843,0.935334873 L0.144110855,0.935334873"></path>
        <path id="path-5" d="M0.144110855,898.856813 L598.75843,898.856813 L598.75843,0.935334873 L0.144110855,0.935334873"></path>
        <path id="path-7" d="M0.144110855,898.856813 L598.75843,898.856813 L598.75843,0.935334873 L0.144110855,0.935334873"></path>
    </defs>
    <g id="Welcome" stroke="none" stroke-width="1" fill="none" fill-rule="evenodd" sketch:type="MSPage">
        <g id="Posters---HD" sketch:type="MSArtboardGroup" transform="translate(-420.000000, -1353.000000)">
            <g id="holy_mountain" sketch:type="MSLayerGroup" transform="translate(420.000000, 1352.265625)">
                <path d="M0.144110855,898.856813 L598.75843,898.856813 L598.75843,0.935334873 L0.144110855,0.935334873 L0.144110855,898.856813 Z" id="Fill-1" fill="#1B75BB" sketch:type="MSShapeGroup"></path>
                <g id="Group-28">
                    <g id="Group-4">
                        <mask id="mask-2" sketch:name="Clip 3" fill="white">
                            <use xlink:href="#path-1"></use>
                        </mask>
                        <g id="Clip-3"></g>
                        <path d="M202.261524,54.3489145 C201.72388,61.4616166 201.829192,68.6602309 202.682771,75.9336721 C205.527575,100.169238 213.585312,122.63806 226.486005,143.238984 C231.094781,150.598337 232.922494,158.41358 233.677691,166.694411 C235.183926,183.19649 232.174226,198.865774 224.357598,213.524896 C223.354365,215.406651 223.598245,216.689792 224.866143,218.358152 C246.660139,247.037598 274.293395,267.933672 307.898938,280.92582 C310.627344,281.980323 313.33358,283.09164 316.050901,284.176628 L317.099861,284.176628 C319.467991,271.145681 321.678152,258.081478 324.276305,245.096259 C325.434734,239.302725 326.967298,233.45515 331.145127,228.89903 C335.503095,224.144758 336.715566,218.743372 335.667991,212.434365 C334.341894,204.450069 338.2994,199.293949 346.242125,197.401109 C352.265681,195.964157 358.232425,196.841293 364.226882,197.238984 C370.03843,197.624203 375.737737,197.524434 380.96037,194.377552 C386.134503,191.261155 387.625497,185.998337 384.726651,180.695335 C384.182079,179.700416 383.595935,178.727667 383.080462,177.717506 C380.985312,173.615889 381.827806,170.312425 385.63843,167.783557 C387.018568,166.869007 388.504018,166.108268 389.861986,165.163233 C392.009792,163.670855 393.279076,161.523048 393.090624,158.937367 C392.943741,156.921201 392.170531,154.952148 391.555289,152.477321 C391.854596,152.256998 392.676305,151.648684 393.502171,151.045912 C396.118337,149.135058 396.844434,147.060693 395.939584,143.972009 C395.620878,142.885635 395.188545,141.829746 394.900323,140.735058 C393.876305,136.844065 395.813487,132.890716 399.514642,131.597875 C400.890624,131.117044 402.406559,130.970162 403.873995,130.834365 C406.225497,130.614042 408.779307,130.259307 410.672148,128.723972 C412.420878,127.307806 413.564065,124.539215 412.531732,122.437136 C411.110023,119.543834 408.678152,116.858383 406.857367,114.195104 C402.073995,107.198799 397.607945,99.9586143 392.431039,93.2671594 C388.208868,87.8061894 387.076767,82.7304388 391.129885,76.8149654 C393.085081,73.9618476 393.553441,70.7151963 392.64582,67.2800924 C389.435196,55.1345958 386.573764,42.8879446 383.015335,30.8449885 C379.124342,17.6796305 372.502171,5.94429561 361.257367,-2.35177829 C354.827806,-7.09635104 347.896628,-11.3074365 340.771455,-14.9337644 C325.215797,-22.8515473 308.676305,-27.7208314 291.179307,-28.9042032 C271.78254,-30.2150577 253.907252,-25.1212933 237.473072,-15.1346882 C213.682309,-0.677875289 204.265219,27.8616166 202.261524,54.3489145" id="Fill-2" fill="#FEFEFE" sketch:type="MSShapeGroup" mask="url(#mask-2)"></path>
                    </g>
                    <path d="M215.013395,835.426836 C215.013395,835.426836 203.645266,799.795427 209.458199,775.760785 L218.042494,797.701663 L224.62448,825.068868 L224.62448,842.389885 L215.013395,835.426836 Z" id="Fill-5" fill="#FEFEFE" sketch:type="MSShapeGroup"></path>
                    <path d="M234.25552,755.659261 C234.25552,755.659261 233.958984,766.129469 234.383002,768.496212 L232.014873,768.025081 L229.128499,752.321155 L230.282771,750.474042 L234.25552,755.659261 Z" id="Fill-7" fill="#FEFEFE" sketch:type="MSShapeGroup"></path>
                    <path d="M208.219538,743.430624 C208.219538,743.430624 210.189977,782.517921 209.242171,784.740554 L219.543326,787.309607 L221.621848,754.514688 L214.920693,740.657875 L208.219538,743.430624 Z" id="Fill-9" fill="#FEFEFE" sketch:type="MSShapeGroup"></path>
                    <path d="M209.199076,766.3994 C209.199076,766.3994 208.898383,773.879307 209.199076,776.898707 C209.499769,779.919492 214.920554,778.648822 214.920554,778.648822 L216.213395,764.908406 L209.199076,766.3994 Z" id="Fill-11" fill="#FEFEFE" sketch:type="MSShapeGroup"></path>
                    <path d="M383.845912,835.426836 C383.845912,835.426836 395.214042,799.795427 389.401109,775.760785 L380.816813,797.701663 L374.234827,825.068868 L374.234827,842.389885 L383.845912,835.426836 Z" id="Fill-13" fill="#FEFEFE" sketch:type="MSShapeGroup"></path>
                    <path d="M390.639908,743.430624 C390.639908,743.430624 388.669469,782.517921 389.617275,784.740554 L379.31612,787.309607 L377.237598,754.514688 L383.938753,740.657875 L390.639908,743.430624 Z" id="Fill-15" fill="#FEFEFE" sketch:type="MSShapeGroup"></path>
                    <path d="M389.660231,766.3994 C389.660231,766.3994 389.960924,773.879307 389.660231,776.898707 C389.359538,779.919492 383.938753,778.648822 383.938753,778.648822 L382.645912,764.908406 L389.660231,766.3994 Z" id="Fill-17" fill="#FEFEFE" sketch:type="MSShapeGroup"></path>
                    <g id="Group-21">
                        <mask id="mask-4" sketch:name="Clip 20" fill="white">
                            <use xlink:href="#path-3"></use>
                        </mask>
                        <g id="Clip-20"></g>
                        <path d="M605.212102,375.476536 C602.928499,371.721339 596.329885,369.218799 596.329885,369.218799 C589.98485,368.218337 586.433349,365.714411 586.433349,365.714411 C581.864758,360.207714 572.220416,354.701016 572.217644,354.69963 C565.186697,348.929654 555.443972,354.422494 547.761755,351.416952 C540.636582,348.627575 537.452286,339.261755 534.708637,332.852979 C533.076305,329.042356 532.120185,325.98 528.816721,323.147667 C525.736351,320.51903 520.214411,318.171686 516.159908,317.907021 C513.471686,317.731039 511.454134,319.385543 509.419954,320.94582 C508.916952,321.331039 505.290624,325.040508 504.71418,324.914411 C501.849977,324.286697 499.006559,323.553672 496.163141,322.834503 C490.231039,321.332425 487.196397,319.670993 481.655058,323.424804 C478.571917,325.514411 475.55806,327.401709 472.97515,330.092702 C473.393626,329.657598 467.830115,320.049284 467.309099,319.000323 C465.216721,314.785081 463.024573,310.597552 460.129885,306.853441 C453.033811,297.673303 443.80933,308.929192 436.6994,314.150439 C429.930346,312.337968 421.300323,311.602171 414.450901,313.341201 C412.210254,313.910716 398.996397,320.498245 397.620416,318.656674 C385.892009,302.965219 370.685543,289.047436 357.229192,274.808176 C347.990855,265.030808 333.193164,266.334734 320.21903,265.342587 C312.604711,266.093626 272.508637,227.295935 272.508637,227.295935 C270.477229,224.293164 264.894319,223.791547 264.894319,223.791547 C259.311409,223.291316 237.994088,206.520416 237.994088,206.520416 C231.141894,203.266836 225.558984,208.524111 225.558984,208.524111 C221.091547,214.030808 215.446282,218.815566 210.322032,223.704249 C202.893395,230.793395 195.401016,237.818799 187.882309,244.813718 C183.442587,248.943048 177.079538,252.694088 175.067529,258.617875 C174.283233,260.929192 173.633349,263.32642 173.069376,265.698707 C172.937737,266.251594 172.781155,268.995242 172.264296,269.347206 C168.966374,271.600323 161.352055,273.351824 161.352055,273.351824 C149.063834,276.720416 139.467991,290.247436 132.30679,299.761524 C123.708637,311.183695 116.088776,323.329192 108.984388,335.70194 C103.297552,345.608176 100.929423,351.48485 90.5866975,357.486236 C75.7086374,366.117644 76.2767667,388.621109 59.6749192,395.363834 C54.3525173,397.525497 52.3044804,400.177691 49.3072517,404.530115 C46.5552887,408.529192 42.9428176,408.558291 38.1358891,408.295012 C21.2776905,407.372148 25.9585219,407.372148 21.2776905,407.372148 C15.3095612,407.372148 14.5585219,415.855289 12.8638337,419.948591 C11.5044804,423.236813 9.61163972,426.193857 7.40009238,428.983233 C6.17930716,430.524111 -1.20221709,435.333811 -1.20221709,437.100554 L-1.20221709,901.13612 L605.212102,901.13612 C605.212102,901.13612 607.49709,379.231732 605.212102,375.476536" id="Fill-19" fill="#0D0E0E" sketch:type="MSShapeGroup" mask="url(#mask-4)"></path>
                    </g>
                    <g id="Group-24">
                        <mask id="mask-6" sketch:name="Clip 23" fill="white">
                            <use xlink:href="#path-5"></use>
                        </mask>
                        <g id="Clip-23"></g>
                        <path d="M494.003695,718.800277 C520.215242,672.851085 539.362587,626.012286 539.983372,568.606282 C540.863279,487.182263 407.005081,474.853857 407.005081,474.853857 C337.557506,469.410901 341.627252,460.421986 341.627252,460.421986 C333.645727,440.759169 407.570439,418.31806 407.570439,418.31806 C508.283141,387.767945 505.625404,364.157321 505.625404,364.157321 C505.867898,361.52037 503.961201,359.609515 501.893764,358.33746 C498.818938,356.444619 495.146882,355.480185 491.649423,354.738845 C487.216628,353.799353 482.69515,353.221524 478.181986,352.844619 C473.727021,352.471871 469.26097,352.216905 464.792148,352.128222 C457.818014,351.991039 451.042032,352.419215 444.116397,353.150855 C441.169053,353.462633 438.218938,353.759169 435.267436,354.016905 C430.743187,354.41321 426.200924,354.748545 421.657275,354.774873 C419.200462,354.78873 416.71455,354.736074 414.281293,354.35224 C413.26836,354.191501 412.272055,353.964249 411.30485,353.624758 C410.925173,353.490346 410.552425,353.336536 410.174134,353.195196 C410.142263,353.182725 410.103464,353.175797 410.074365,353.157783 C399.191224,346.728222 435.505774,337.768406 435.505774,337.768406 C465.964434,326.195196 401.481755,313.761478 401.481755,313.761478 L399.105312,314.330993 L398.201848,318.776259 C448.72933,327.321755 419.283603,335.360092 419.279446,335.361478 C415.1806,336.420139 413.618938,336.905127 410.828176,337.712979 C404.612009,339.510208 398.436028,341.451547 392.326559,343.586882 C386.100693,345.762402 379.700231,347.967021 373.945497,351.231686 C371.560739,352.585497 366.525173,355.463557 366.43649,358.726836 C366.382448,360.704203 368.74642,361.423372 370.290069,361.834919 C374.681293,363.004434 379.427252,363.064018 383.937644,363.267714 C393.476674,363.701432 403.079446,362.870023 412.628176,362.829838 C421.69746,362.792425 430.906697,362.688499 439.920554,363.838614 C442.712702,364.194734 445.012933,364.785035 447.527945,365.93515 C447.527945,365.93515 465.331178,374.084342 430.944111,390.306513 C430.944111,390.306513 382.115473,411.050162 365.743649,414.219215 C365.743649,414.219215 252.42679,451.694965 260.420785,485.839538 C264.464203,503.113441 291.24388,506.651085 305.699307,509.031686 C343.798614,515.307436 392.235104,513.938383 407.804619,558.332841 C407.804619,558.334226 420.290993,593.943464 380.697921,649.460785 C324.465589,714.808129 257.386143,779.035843 183.595843,823.913903 C131.164434,855.799815 38.365358,912.070947 -24.9422633,891.016905 C-3.68036952,913.627067 18.47806,935.450162 40.230485,957.59612 C46.2332564,963.70836 78.4517321,1005.20952 86.4180139,1004.61229 C86.4277136,1004.61229 198.652656,996.201201 198.652656,996.201201 L244.08776,967.757321 C294.212009,979.956859 364.812471,992.814596 360.769053,967.200277 C356.857275,942.417367 380.588453,908.38642 391.557506,888.055704 C411.439261,851.202125 433.418938,815.362864 456.040185,780.136074 C469.416166,759.305127 482.401386,739.139307 494.003695,718.800277" id="Fill-22" fill="#1B75BB" sketch:type="MSShapeGroup" mask="url(#mask-6)"></path>
                    </g>
                    <g id="Group-27">
                        <mask id="mask-8" sketch:name="Clip 26" fill="white">
                            <use xlink:href="#path-7"></use>
                        </mask>
                        <g id="Clip-26"></g>
                        <path d="M390.321617,35.2510393 L392.770115,35.2510393 L392.770115,-41.5822171 L384.296674,-41.5822171 C374.725774,-71.3092379 351.169192,-98.704157 297.144249,-100.181293 L297.144249,-100.218707 C297.032009,-100.215935 296.930855,-100.203464 296.82,-100.200693 C296.704988,-100.203464 296.606605,-100.215935 296.494365,-100.218707 L296.494365,-100.181293 C242.469423,-98.704157 218.912841,-71.3092379 209.34194,-41.5822171 L203.316998,-41.5822171 L203.316998,35.2510393 C177.950716,38.3702079 27.3410162,58.0316397 61.6380139,81.23903 C61.6380139,81.23903 138.573811,119.159584 296.82,113.598845 C455.063418,119.159584 532.0006,81.23903 532.0006,81.23903 C566.297598,58.0316397 415.687898,38.3702079 390.321617,35.2510393" id="Fill-25" fill="#FEFEFE" sketch:type="MSShapeGroup" mask="url(#mask-8)"></path>
                    </g>
                </g>
            </g>
        </g>
    </g>
</svg>