<?xml version="1.0" encoding="UTF-8" standalone="no"?>
<svg width="243px" height="244px" viewBox="0 0 243 244" version="1.1" xmlns="http://www.w3.org/2000/svg" xmlns:xlink="http://www.w3.org/1999/xlink" xmlns:sketch="http://www.bohemiancoding.com/sketch/ns">
    <!-- Generator: Sketch 3.4.4 (17249) - http://www.bohemiancoding.com/sketch -->
    <title>Aprendo</title>
    <desc>Created with Sketch.</desc>
    <defs></defs>
    <g id="Welcome" stroke="none" stroke-width="1" fill="none" fill-rule="evenodd" sketch:type="MSPage">
        <g id="Artboard-38" sketch:type="MSArtboardGroup" transform="translate(-80.000000, -125.000000)">
            <g id="Page-1" sketch:type="MSLayerGroup" transform="translate(80.000000, 125.000000)">
                <g id="Aprendo" sketch:type="MSShapeGroup">
                    <path d="M205.682296,243.347934 L37.4091483,243.347934 C16.8842402,243.347934 0.0911335937,226.554827 0.0911335937,206.029919 L0.0911335937,37.7598807 C0.0911335937,17.2349726 16.8842402,0.441865976 37.4091483,0.441865976 L205.682296,0.441865976 C226.207204,0.441865976 243.000311,17.2349726 243.000311,37.7598807 L243.000311,206.029919 C243.000311,226.554827 226.207204,243.347934 205.682296,243.347934" id="Fill-52" fill="#EE3931"></path>
                    <path d="M168.015047,57.6724623 C167.806688,57.6724623 167.598329,57.678682 167.38997,57.6849017 L72.4653803,61.7463456 C68.6496133,61.908057 65.1261708,63.5469398 62.5418983,66.3582303 C59.9607356,69.1726305 58.6297264,72.8204665 58.7914378,76.6331237 L60.8128302,123.868401 C61.1486924,131.748722 67.791299,137.896864 75.7027181,137.539233 L170.627308,133.480899 C178.501409,133.145037 184.634003,126.465113 184.298141,118.587902 L182.276748,71.3588442 C181.950216,63.6837725 175.687009,57.6724623 168.015047,57.6724623 M75.0776414,149.484108 C60.9932006,149.484108 49.4930324,138.453525 48.8928344,124.378414 L46.8714419,77.1462464 C46.5728978,70.1460088 49.0172278,63.4474251 53.7566156,58.2882096 C58.4928937,53.1289941 64.9551299,50.121784 71.9553675,49.8232399 L166.879958,45.7649058 C181.421544,45.1398291 193.580997,56.3912105 194.199854,70.8457215 L196.218137,118.080999 C196.836994,132.52618 185.585612,144.782038 171.140431,145.400895 L76.212731,149.459229 C75.8302213,149.474779 75.4539313,149.484108 75.0776414,149.484108" id="Fill-54" fill="#FFFFFF"></path>
                    <path d="M89.3191287,102.911537 C89.3346779,103.266058 89.3626664,103.617469 89.4030943,103.956441 C89.4435221,104.298523 89.5305975,104.606396 89.6612105,104.876952 C89.7918236,105.147508 89.9753038,105.362086 90.2116512,105.517578 C90.4511085,105.67307 90.7745313,105.741486 91.1819196,105.725937 C91.6981522,105.704168 92.1117602,105.567335 92.4227436,105.324768 C92.7368369,105.079091 92.9762942,104.712131 93.1411154,104.223887 C93.3059366,103.735643 93.4054513,103.123005 93.448989,102.385975 C93.4894169,101.652054 93.4925267,100.77819 93.4645382,99.7612742 C93.4458792,99.3538859 93.3899022,98.8811911 93.2934973,98.3525192 C93.2002023,97.8207375 93.0509302,97.3200541 92.8456811,96.8566888 C92.640432,96.3871038 92.3636568,95.9952646 92.021575,95.6811713 C91.6794932,95.367078 91.250336,95.217806 90.7341034,95.2395748 C90.3267151,95.2582338 90.009512,95.3546387 89.7856039,95.5318992 C89.5616958,95.7029401 89.3968746,95.9268482 89.2880304,96.194294 C89.182296,96.4648496 89.1232091,96.7665036 89.1107698,97.1023657 C89.0983305,97.4413377 89.0983305,97.7803096 89.1138796,98.1223914 L89.3191287,102.911537 Z M99.7339647,105.517578 C99.7588433,106.071129 99.7619532,106.61535 99.7432942,107.150241 C99.727745,107.688243 99.6313401,108.170267 99.4509697,108.599424 C99.2705993,109.031691 98.9876044,109.383102 98.6019849,109.656768 C98.2194752,109.933543 97.6690345,110.082815 96.9568824,110.113913 C96.2322909,110.145012 95.6600814,110.048607 95.2433636,109.821589 C94.8235359,109.591461 94.5063328,109.311576 94.294864,108.969494 C94.0802854,108.630522 93.9434527,108.269782 93.881256,107.887272 C93.8190593,107.507872 93.7817413,107.187559 93.769302,106.920113 C93.6666774,107.308843 93.5174054,107.706902 93.3152661,108.11118 C93.1162367,108.512349 92.8519008,108.882419 92.5222583,109.212061 C92.1926159,109.544814 91.7914472,109.824699 91.3187523,110.048607 C90.8460575,110.272515 90.2862873,110.400018 89.6394417,110.428007 C88.9148502,110.455995 88.1840391,110.37203 87.4501182,110.163671 C86.7130874,109.955312 86.0444729,109.591461 85.441165,109.05968 C84.8347473,108.531008 84.3340639,107.828185 83.9328953,106.954322 C83.5317266,106.080458 83.3047087,104.988906 83.2487317,103.682776 L83.0030547,97.9482407 C82.9470777,96.6327807 83.0808006,95.5163501 83.4073332,94.6113882 C83.730756,93.7095362 84.1692427,92.9693956 84.7290129,92.397186 C85.2856733,91.8249765 85.9200795,91.4051488 86.6353415,91.137703 C87.3506034,90.8671474 88.0720851,90.7178754 88.7966765,90.686777 C89.4435221,90.6587885 90.009512,90.7334245 90.5008659,90.9106851 C90.9891099,91.0879457 91.4120474,91.3274029 91.7696784,91.6290569 C92.1241995,91.9307108 92.4196338,92.2759025 92.6559812,92.661522 C92.8892188,93.0502513 93.0758089,93.4358708 93.2095318,93.8277099 C93.1846531,93.168425 93.2499596,92.6179843 93.4178907,92.1732779 C93.5827119,91.7285716 93.8035102,91.3740504 94.0865051,91.1066047 C94.3632804,90.8360491 94.6835933,90.6432393 95.0412243,90.5281754 C95.3988553,90.4162214 95.7564863,90.347805 96.1141172,90.3353657 C96.7702923,90.3073772 97.3051839,90.4131116 97.7125722,90.6525688 C98.1168507,90.8920261 98.430944,91.2154489 98.6548521,91.6228372 C98.8756503,92.0271157 99.0280322,92.5060302 99.1119977,93.0502513 C99.1928534,93.5944723 99.2488305,94.1511327 99.2705993,94.7171226 L99.7339647,105.517578 Z" id="Fill-56" fill="#FFFFFF"></path>
                    <path d="M122.295192,96.7043069 C122.279643,96.3622251 122.251655,96.0232531 122.211227,95.6905008 C122.170799,95.3515288 122.086834,95.0560946 121.95622,94.7979783 C121.825607,94.539862 121.642127,94.3315031 121.40578,94.1760114 C121.166322,94.0236295 120.8429,93.9521033 120.435511,93.9707623 C119.922389,93.9925311 119.505671,94.1760114 119.191578,94.521203 C118.874374,94.8632848 118.634917,95.2768928 118.470096,95.7589172 C118.305275,96.2409415 118.19954,96.7540642 118.149783,97.2889558 C118.100026,97.8269572 118.081367,98.299652 118.103135,98.7070403 C118.159112,99.7208464 118.236858,100.59471 118.342593,101.322411 C118.445217,102.053222 118.600709,102.65342 118.805958,103.126115 C119.011207,103.60192 119.278653,103.944002 119.611405,104.16169 C119.944157,104.379379 120.367095,104.475783 120.883328,104.454015 C121.290716,104.438465 121.607919,104.342061 121.831827,104.1648 C122.055735,103.990649 122.220556,103.763631 122.326291,103.480636 C122.435135,103.200751 122.494222,102.886658 122.506661,102.541466 C122.515991,102.199385 122.515991,101.847973 122.500441,101.493452 L122.295192,96.7043069 Z M111.544494,86.2677021 C111.519616,85.6986024 111.525835,85.141942 111.563153,84.5915013 C111.600471,84.0410606 111.709316,83.5559264 111.895906,83.1329889 C112.082496,82.7069415 112.368601,82.3555302 112.75422,82.0849746 C113.13673,81.8113092 113.659182,81.6589273 114.318467,81.6309388 C115.00574,81.5998404 115.556181,81.7055748 115.976009,81.9450321 C116.398946,82.1844893 116.716149,82.511022 116.940057,82.9153004 C117.160856,83.3226888 117.316347,83.7953836 117.397203,84.3427145 C117.481169,84.8869356 117.534036,85.4404861 117.558914,86.0095858 L117.848129,92.773476 C117.950754,92.3723073 118.100026,91.9711387 118.299055,91.5637504 C118.501194,91.1625817 118.76553,90.7925114 119.095173,90.4628689 C119.424815,90.1301166 119.825984,89.8564512 120.298679,89.6387628 C120.771373,89.4210743 121.331144,89.296681 121.977989,89.2686924 C122.702581,89.2375941 123.433392,89.3246695 124.167313,89.5330284 C124.904344,89.7382775 125.572958,90.1052379 126.176266,90.6276901 C126.779574,91.1470325 127.283367,91.8467453 127.681426,92.7206088 C128.082595,93.5944723 128.312722,94.6891341 128.368699,96.0108138 L128.614376,101.745349 C128.670353,103.051479 128.53663,104.15858 128.210098,105.063542 C127.886675,105.968504 127.445078,106.708645 126.888418,107.287074 C126.331758,107.868613 125.697351,108.288441 124.982089,108.558996 C124.266828,108.829552 123.545346,108.975714 122.820754,109.009922 C122.177019,109.034801 121.604809,108.957055 121.116565,108.773575 C120.625211,108.590095 120.202274,108.347527 119.847753,108.045874 C119.490122,107.74422 119.194687,107.399028 118.96145,107.013408 C118.725102,106.624679 118.541622,106.245279 118.407899,105.865879 C118.420339,106.130215 118.407899,106.456748 118.379911,106.839258 C118.348812,107.224877 118.243078,107.594948 118.062708,107.952578 C117.879227,108.310209 117.586903,108.621193 117.188844,108.882419 C116.790785,109.143645 116.227905,109.292917 115.503314,109.320906 C114.791162,109.348894 114.231391,109.249379 113.827113,109.006812 C113.419725,108.767355 113.105631,108.440823 112.891053,108.027215 C112.676474,107.610497 112.536532,107.137802 112.474335,106.60602 C112.412138,106.074238 112.368601,105.530017 112.343722,104.979577 L111.544494,86.2677021 Z" id="Fill-58" fill="#FFFFFF"></path>
                    <path d="M146.255224,101.15137 C146.264553,101.359729 146.295652,101.627175 146.348519,101.947488 C146.401386,102.270911 146.50712,102.581894 146.665722,102.886658 C146.824323,103.188312 147.051341,103.446428 147.343666,103.661007 C147.63599,103.872476 148.027829,103.965771 148.516073,103.947112 C149.094503,103.922233 149.548539,103.838267 149.868852,103.692105 C150.195384,103.542833 150.431732,103.353133 150.581004,103.116786 C150.727166,102.880438 150.814241,102.603663 150.84223,102.29268 C150.867108,101.981696 150.873328,101.652054 150.857779,101.309972 C150.851559,101.142041 150.873328,100.943011 150.923085,100.722213 C150.972843,100.501415 151.106566,100.293056 151.321144,100.090917 C151.538833,99.8918873 151.865365,99.7177366 152.300742,99.5746842 C152.736119,99.4316318 153.336317,99.3414466 154.104446,99.3103482 C154.801049,99.2792499 155.34527,99.3352269 155.733999,99.4782793 C156.122729,99.6182219 156.411943,99.7954824 156.601643,100.003841 C156.788233,100.21531 156.900187,100.436108 156.934396,100.663126 C156.971714,100.896364 156.990373,101.076734 156.996592,101.207347 C157.03391,102.050112 156.937505,102.799583 156.707378,103.446428 C156.47725,104.099493 156.153827,104.665483 155.740219,105.153727 C155.323501,105.641971 154.838367,106.055579 154.287926,106.394551 C153.734376,106.736633 153.140397,107.010299 152.509101,107.224877 C151.877805,107.436346 151.234069,107.594948 150.577894,107.703792 C149.921719,107.809526 149.290422,107.877942 148.684005,107.902821 C147.64221,107.949469 146.628404,107.849954 145.639477,107.616716 C144.653659,107.380369 143.767356,106.98542 142.983678,106.42254 C142.199999,105.86277 141.559374,105.125739 141.05558,104.217667 C140.554897,103.306486 140.278122,102.199385 140.219035,100.893254 L140.023115,96.2658202 C139.970248,95.0125569 140.072873,93.9458836 140.330989,93.0626906 C140.592215,92.1794976 140.946736,91.4362471 141.394552,90.8360491 C141.845478,90.235851 142.358601,89.7631561 142.94014,89.4117448 C143.518569,89.0634434 144.109438,88.7991074 144.709636,88.6125174 C145.309834,88.4290371 145.882044,88.3046437 146.426265,88.2455569 C146.973596,88.1802504 147.443181,88.1398225 147.83813,88.1242733 C149.010537,88.074516 150.043002,88.1273832 150.926195,88.2890946 C151.812498,88.4476961 152.577517,88.6809337 153.224363,88.9825877 C153.874318,89.2842416 154.41232,89.6449824 154.847697,90.0523708 C155.279964,90.4659788 155.625155,90.9013556 155.883272,91.3678308 C156.141388,91.8311961 156.327978,92.2976713 156.449261,92.7703662 C156.567435,93.2399512 156.635852,93.6784379 156.654511,94.088936 C156.66073,94.2972949 156.65762,94.5460817 156.645181,94.8290766 C156.629632,95.1151814 156.539447,95.3919567 156.374625,95.6531828 C156.206694,95.9206286 155.936139,96.1538662 155.559849,96.3528956 C155.186669,96.551925 154.648667,96.6700987 153.952064,96.6980872 C153.700168,96.7105265 153.386074,96.7136364 153.009784,96.7105265 C152.633494,96.7074167 152.263424,96.6514397 151.902683,96.551925 C151.541943,96.4461906 151.230959,96.2720399 150.972843,96.0325826 C150.708507,95.7931254 150.568564,95.4448239 150.549905,94.9814585 C150.534356,94.6673652 150.506368,94.3594916 150.45972,94.0671672 C150.413073,93.7686231 150.307338,93.5136166 150.139407,93.2959282 C149.971476,93.0782398 149.722689,92.9103087 149.396157,92.7828055 C149.066514,92.6584121 148.609369,92.6086548 148.030939,92.6335334 C147.542695,92.6521924 147.160186,92.7485973 146.88341,92.9196382 C146.606635,93.0906791 146.401386,93.2959282 146.267663,93.5416051 C146.13083,93.7841722 146.049975,94.0391787 146.021986,94.3035146 C145.993998,94.5709604 145.984668,94.8104176 145.993998,95.0187765 L146.255224,101.15137 Z" id="Fill-60" fill="#FFFFFF"></path>
                    <path d="M45.5432316,209.245799 L52.8202444,209.245799 L49.4305248,196.983721 L48.9298414,196.983721 L45.5432316,209.245799 Z M59.9137771,211.491099 C59.9417656,212.526674 59.9821934,213.587128 60.0257311,214.66935 C60.0723786,215.754682 60.0941475,216.799587 60.0941475,217.804063 L60.0941475,218.491337 C60.0941475,219.069766 60.0754885,219.632646 60.0381705,220.173757 C59.9977426,220.714869 59.8795689,221.203113 59.6836493,221.63538 C59.4846199,222.070756 59.1705266,222.419058 58.7444793,222.677174 C58.3184319,222.93529 57.715124,223.065904 56.9376654,223.065904 C56.1446576,223.065904 55.5320202,222.93529 55.1059728,222.677174 C54.6799255,222.419058 54.3627224,222.076976 54.1574733,221.647819 C53.9522242,221.221772 53.8309407,220.733528 53.7905128,220.186197 C53.7531948,219.635756 53.7345358,219.069766 53.7345358,218.491337 L53.7345358,215.285097 L44.5822927,215.285097 L44.5822927,218.491337 C44.5822927,219.069766 44.5636337,219.635756 44.5232058,220.186197 C44.4858878,220.733528 44.3646043,221.221772 44.1593552,221.647819 C43.9541061,222.076976 43.636903,222.419058 43.2108557,222.677174 C42.7816985,222.93529 42.1721709,223.065904 41.3791631,223.065904 C40.5861553,223.065904 39.9735179,222.93529 39.5474705,222.677174 C39.1214232,222.419058 38.8073299,222.070756 38.6114103,221.63538 C38.4123809,221.203113 38.297317,220.714869 38.2662187,220.173757 C38.2351204,219.632646 38.222681,219.069766 38.222681,218.491337 L38.222681,217.804063 C38.222681,217.334478 38.222681,216.827575 38.2320105,216.295794 C38.24134,215.760902 38.2506695,215.219791 38.2662187,214.66935 C38.2817679,214.118909 38.297317,213.577798 38.3128662,213.033577 C38.3284154,212.492466 38.3439646,211.979343 38.3564039,211.491099 C39.1214232,208.835301 39.9206507,206.148404 40.760306,203.424188 C41.5999614,200.699973 42.3991888,198.006857 43.1642081,195.335509 C43.31659,194.772629 43.5000703,194.225298 43.711539,193.699736 C43.9261176,193.174174 44.2091125,192.717028 44.5605239,192.328299 C44.9088253,191.939569 45.3597513,191.625476 45.910192,191.389129 C46.4575229,191.152781 47.1603455,191.034608 48.0124402,191.034608 L50.3012784,191.034608 C51.1409338,191.034608 51.8375367,191.152781 52.3973069,191.389129 C52.9508575,191.625476 53.4048933,191.939569 53.7563046,192.328299 C54.1077159,192.717028 54.3876011,193.174174 54.5928501,193.699736 C54.7980992,194.225298 54.9846893,194.772629 55.1526204,195.335509 L59.9137771,211.491099 Z" id="Fill-62" fill="#FFFFFF"></path>
                    <path d="M75.1050079,204.990923 C75.8669174,204.944276 76.5541908,204.763905 77.1637184,204.440482 C77.4249445,204.30365 77.6737312,204.129499 77.9194082,203.91492 C78.1619753,203.703452 78.3827735,203.439116 78.5818029,203.125022 C78.7808324,202.814039 78.9363241,202.443969 79.051388,202.017921 C79.1664518,201.588764 79.2224289,201.10052 79.2224289,200.550079 C79.2224289,200.033847 79.1664518,199.579811 79.051388,199.191082 C78.9363241,198.802352 78.7901619,198.46649 78.6035718,198.186605 C78.4232014,197.90361 78.2148425,197.664153 77.9878245,197.462014 C77.7608066,197.266094 77.5213494,197.098163 77.2787823,196.96133 C76.6972432,196.669006 76.0503976,196.494855 75.3320258,196.432658 L71.9920635,196.432658 L71.9920635,204.990923 L75.1050079,204.990923 Z M71.9920635,210.436243 L71.9920635,217.850089 C71.9920635,218.506264 71.9734045,219.14689 71.9360865,219.771967 C71.8987685,220.397044 71.7681554,220.953704 71.5473572,221.441948 C71.3265589,221.930192 70.9782574,222.322031 70.5055626,222.620575 C70.0328677,222.919119 69.351814,223.065282 68.468621,223.065282 C67.6134165,223.065282 66.9541315,222.919119 66.4907662,222.620575 C66.024291,222.322031 65.685319,221.930192 65.4707404,221.441948 C65.2561619,220.953704 65.1317685,220.397044 65.0944505,219.771967 C65.0571324,219.14689 65.0384734,218.506264 65.0384734,217.850089 L65.0384734,196.249178 C65.0384734,195.596113 65.0571324,194.952377 65.0944505,194.3273 C65.1317685,193.702224 65.2561619,193.145563 65.4707404,192.657319 C65.685319,192.169075 66.024291,191.777236 66.4907662,191.478692 C66.9541315,191.183258 67.6134165,191.033986 68.468621,191.033986 L76.0192993,191.033986 C77.9100787,191.124171 79.6049385,191.52223 81.1007689,192.225052 C81.738285,192.529816 82.3602519,192.909216 82.9635598,193.369471 C83.5668677,193.823507 84.107979,194.386387 84.5868935,195.048782 C85.0689178,195.714287 85.4545373,196.501075 85.7437519,197.409146 C86.0329665,198.314108 86.1791288,199.362123 86.1791288,200.550079 C86.1791288,202.185852 85.9241223,203.616376 85.4109996,204.841651 C84.9009868,206.070036 84.1608461,207.099391 83.1936876,207.929717 C82.2234192,208.763152 81.0416821,209.388229 79.6453664,209.808057 C78.2521605,210.227884 76.6754744,210.436243 74.9215277,210.436243 L71.9920635,210.436243 Z" id="Fill-64" fill="#FFFFFF"></path>
                    <path d="M99.8166863,204.990923 C100.578596,204.959825 101.265869,204.779454 101.875397,204.440482 C102.133513,204.30365 102.38541,204.129499 102.631087,203.91492 C102.873654,203.703452 103.094452,203.436006 103.293481,203.112583 C103.492511,202.79538 103.648002,202.4222 103.763066,201.993043 C103.87813,201.566995 103.934107,201.069422 103.934107,200.506542 C103.934107,200.002748 103.87813,199.558042 103.763066,199.169313 C103.648002,198.780583 103.50184,198.441612 103.31525,198.149287 C103.13177,197.860072 102.923411,197.617505 102.687064,197.415366 C102.450716,197.219447 102.211259,197.057735 101.965582,196.936452 C101.387153,196.647237 100.730978,196.479306 100.000166,196.432658 L96.7037419,196.432658 L96.7037419,204.990923 L99.8166863,204.990923 Z M89.7936895,196.249178 C89.7936895,195.596113 89.8123485,194.952377 89.8496665,194.3273 C89.8900943,193.702224 90.0144877,193.145563 90.2290663,192.657319 C90.4436449,192.169075 90.7826169,191.777236 91.249092,191.478692 C91.7124574,191.183258 92.3717423,191.033986 93.2269468,191.033986 L100.777625,191.033986 C102.652855,191.124171 104.332166,191.52223 105.809337,192.225052 C106.434414,192.529816 107.050161,192.906106 107.653469,193.357032 C108.253667,193.804848 108.791669,194.361509 109.267473,195.027013 C109.737059,195.689408 110.119568,196.473086 110.408783,197.371828 C110.701107,198.27368 110.84416,199.318585 110.84416,200.506542 C110.84416,200.752219 110.822391,201.075641 110.775743,201.47992 C110.729096,201.884198 110.632691,202.325795 110.477199,202.807819 C110.324817,203.286734 110.119568,203.784307 109.858342,204.30365 C109.600226,204.822992 109.258144,205.317456 108.828987,205.79326 C108.402939,206.262845 107.880487,206.701332 107.26474,207.096281 C106.645883,207.49434 105.918182,207.811543 105.078526,208.05722 C105.613418,208.271799 106.154529,208.551684 106.70186,208.893765 C107.252301,209.235847 107.746764,209.674334 108.191471,210.209225 C108.633067,210.744117 108.993808,211.384743 109.276803,212.131103 C109.559798,212.877464 109.69974,213.745107 109.69974,214.740254 L109.69974,217.986922 C109.69974,218.170402 109.746388,218.322784 109.836573,218.444067 C109.929868,218.565351 110.020053,218.671085 110.113348,218.76749 C110.477199,219.131341 110.691778,219.445434 110.753974,219.71288 C110.813061,219.980326 110.84416,220.201124 110.84416,220.365945 C110.84416,220.900837 110.738425,221.351763 110.523847,221.715613 C110.312378,222.082574 110.032493,222.381118 109.687301,222.608136 C109.345219,222.838264 108.95649,223.003085 108.521113,223.09949 C108.088846,223.199004 107.64103,223.248762 107.183884,223.248762 C106.680091,223.248762 106.166968,223.171016 105.650736,223.009305 C105.131394,222.847593 104.658699,222.617465 104.232651,222.309592 C103.803494,222.007938 103.458303,221.625428 103.190857,221.168282 C102.923411,220.711137 102.789688,220.185575 102.789688,219.588487 L102.789688,214.740254 C102.789688,214.06853 102.743041,213.449673 102.652855,212.883683 C102.56267,212.320803 102.38541,211.832559 102.127293,211.418951 C101.869177,211.011563 101.508436,210.68814 101.051291,210.461122 C100.594145,210.230994 100.000166,210.11593 99.2662455,210.11593 L96.7037419,210.11593 L96.7037419,217.756794 C96.7037419,218.428518 96.6850829,219.084693 96.6477648,219.725319 C96.607337,220.365945 96.4829436,220.935045 96.268365,221.429509 C96.0568963,221.927082 95.7117046,222.322031 95.2390098,222.620575 C94.7663149,222.919119 94.0977005,223.065282 93.2269468,223.065282 C92.3717423,223.065282 91.7124574,222.919119 91.249092,222.620575 C90.7826169,222.322031 90.4436449,221.927082 90.2290663,221.429509 C90.0144877,220.935045 89.8900943,220.365945 89.8496665,219.725319 C89.8123485,219.084693 89.7936895,218.428518 89.7936895,217.756794 L89.7936895,196.249178 Z" id="Fill-66" fill="#FFFFFF"></path>
                    <path d="M128.28038,191.033053 C128.889908,191.033053 129.508765,191.057931 130.133841,191.101469 C130.758918,191.148117 131.324908,191.27873 131.825591,191.490198 C132.329385,191.704777 132.742993,192.0282 133.063306,192.463577 C133.383619,192.898953 133.54222,193.505371 133.54222,194.28283 C133.54222,195.060288 133.383619,195.666706 133.063306,196.102083 C132.742993,196.53746 132.329385,196.860883 131.825591,197.072351 C131.324908,197.29004 130.758918,197.417543 130.133841,197.461081 C129.508765,197.507728 128.889908,197.532607 128.28038,197.532607 L122.83506,197.532607 L122.83506,203.755386 L125.717876,203.755386 C126.327404,203.755386 126.940041,203.777155 127.558898,203.811363 C128.177755,203.851791 128.725086,203.973074 129.207111,204.181433 C129.686025,204.383572 130.080974,204.697666 130.385738,205.114384 C130.690502,205.537321 130.842884,206.12197 130.842884,206.86833 C130.842884,207.63024 130.690502,208.214889 130.385738,208.628497 C130.080974,209.042105 129.686025,209.349978 129.207111,209.555227 C128.725086,209.760476 128.177755,209.88487 127.558898,209.922188 C126.940041,209.959506 126.327404,209.978165 125.717876,209.978165 L122.83506,209.978165 L122.83506,216.567904 L128.28038,216.567904 C128.889908,216.567904 129.508765,216.592783 130.133841,216.636321 C130.758918,216.682968 131.324908,216.807361 131.825591,217.012611 C132.329385,217.220969 132.742993,217.541282 133.063306,217.976659 C133.383619,218.412036 133.54222,219.009124 133.54222,219.771034 C133.54222,220.564042 133.377399,221.182899 133.050866,221.624495 C132.721224,222.066092 132.307616,222.395734 131.803823,222.607203 C131.300029,222.824891 130.737149,222.952395 130.108963,222.995932 C129.483886,223.04258 128.874358,223.067458 128.28038,223.067458 L119.311617,223.067458 C118.456413,223.067458 117.797128,222.915077 117.330653,222.607203 C116.867287,222.305549 116.525205,221.90438 116.313737,221.409917 C116.099158,220.912343 115.971655,220.352573 115.934337,219.727496 C115.897019,219.09931 115.87836,218.458684 115.87836,217.802509 L115.87836,196.294893 C115.87836,195.638718 115.897019,194.998092 115.934337,194.373015 C115.971655,193.747938 116.099158,193.188168 116.313737,192.690594 C116.525205,192.196131 116.867287,191.794962 117.330653,191.490198 C117.797128,191.188544 118.456413,191.033053 119.311617,191.033053 L128.28038,191.033053 Z" id="Fill-68" fill="#FFFFFF"></path>
                    <path d="M156.193011,213.594591 L156.743452,213.594591 L156.743452,194.605942 C156.743452,194.114588 156.77455,193.654332 156.833637,193.218955 C156.895834,192.786688 157.029557,192.407289 157.234806,192.086976 C157.440055,191.763553 157.747928,191.508546 158.149097,191.318846 C158.553376,191.129147 159.106926,191.032742 159.809749,191.032742 C160.587207,191.032742 161.199845,191.129147 161.650771,191.318846 C162.098587,191.508546 162.440669,191.763553 162.670796,192.086976 C162.897814,192.407289 163.043977,192.786688 163.103063,193.218955 C163.16526,193.654332 163.193249,194.114588 163.193249,194.605942 L163.193249,217.805307 C163.193249,218.473922 163.177699,219.123877 163.137272,219.748954 C163.099954,220.377141 162.97867,220.933801 162.773421,221.431374 C162.565062,221.928948 162.2292,222.323897 161.765835,222.619331 C161.299359,222.917875 160.649404,223.067147 159.809749,223.067147 L156.786989,223.067147 C156.071728,223.067147 155.474639,222.927205 154.992615,222.64421 C154.510591,222.361215 154.112532,222.019133 153.792219,221.614855 C153.471906,221.210576 153.21379,220.787639 153.02409,220.342932 C152.83439,219.901336 152.685118,219.528156 152.579383,219.223392 L145.669331,200.505298 L145.11889,200.505298 L145.11889,219.497057 C145.11889,219.985301 145.087792,220.445557 145.028705,220.880934 C144.966508,221.316311 144.832785,221.692601 144.627536,222.012914 C144.422287,222.336336 144.117523,222.591343 143.713245,222.781043 C143.305857,222.973852 142.755416,223.067147 142.052593,223.067147 C141.259586,223.067147 140.634509,222.973852 140.177363,222.781043 C139.720217,222.591343 139.375026,222.336336 139.148008,222.012914 C138.91788,221.692601 138.771718,221.316311 138.712631,220.880934 C138.650434,220.445557 138.622446,219.985301 138.622446,219.497057 L138.622446,196.297692 C138.622446,195.641516 138.641105,194.997781 138.678423,194.360265 C138.715741,193.728968 138.843244,193.166088 139.054713,192.668515 C139.269291,192.174051 139.608263,191.775992 140.074739,191.480558 C140.538104,191.182014 141.200499,191.032742 142.052593,191.032742 L145.072243,191.032742 C145.837262,191.032742 146.459229,191.182014 146.938143,191.480558 C147.420168,191.775992 147.812007,192.102525 148.116771,192.450826 C148.452633,192.864434 148.720079,193.337129 148.919108,193.868911 L156.193011,213.594591 Z" id="Fill-70" fill="#FFFFFF"></path>
                    <path d="M176.374904,196.387255 L176.374904,217.621205 L179.351016,217.621205 C180.004081,217.590107 180.59184,217.440835 181.111182,217.164059 C181.325761,217.055215 181.53723,216.912163 181.751808,216.728683 C181.963277,216.545202 182.156087,216.327514 182.324018,216.075617 C182.491949,215.823721 182.625672,215.522067 182.725187,215.173765 C182.824701,214.822354 182.871349,214.418076 182.871349,213.95782 L182.871349,200.461138 C182.871349,199.957345 182.824701,199.512639 182.725187,199.123909 C182.625672,198.73207 182.491949,198.396208 182.324018,198.103883 C182.156087,197.814669 181.963277,197.572102 181.751808,197.369963 C181.53723,197.174043 181.325761,197.012332 181.111182,196.891048 C180.59184,196.601833 180.004081,196.433902 179.351016,196.387255 L176.374904,196.387255 Z M179.531386,191.03212 C180.918373,191.03212 182.212064,191.20938 183.40935,191.560792 C184.606636,191.912203 185.651541,192.434655 186.547173,193.128148 C187.436586,193.821641 188.139409,194.686175 188.649421,195.72486 C189.159434,196.760435 189.417551,197.97638 189.417551,199.363366 L189.417551,213.550432 C189.417551,214.738389 189.286937,215.786403 189.028821,216.694474 C188.767595,217.602546 188.428623,218.386224 188.008795,219.051729 C187.588968,219.714124 187.113163,220.280114 186.578272,220.743479 C186.04649,221.209954 185.505379,221.589354 184.954938,221.875459 C183.642588,222.578281 182.156087,222.97634 180.492325,223.066525 L172.898109,223.066525 C172.027356,223.066525 171.355631,222.917253 170.882937,222.621819 C170.410242,222.323275 170.06816,221.928326 169.853581,221.430753 C169.639003,220.936289 169.514609,220.376519 169.477291,219.751442 C169.439973,219.126365 169.418205,218.47641 169.418205,217.804685 L169.418205,196.250422 C169.418205,195.594247 169.439973,194.953621 169.477291,194.328544 C169.514609,193.703468 169.639003,193.146807 169.853581,192.658563 C170.06816,192.170319 170.410242,191.77848 170.882937,191.479936 C171.355631,191.181392 172.027356,191.03212 172.898109,191.03212 L179.531386,191.03212 Z" id="Fill-72" fill="#FFFFFF"></path>
                    <path d="M201.361492,214.645404 C201.39259,215.211394 201.520094,215.708968 201.750221,216.135015 C201.946141,216.517525 202.250905,216.859607 202.655183,217.16437 C203.056352,217.469134 203.631671,217.621516 204.381141,217.621516 C205.115062,217.621516 205.677943,217.469134 206.076001,217.16437 C206.47095,216.859607 206.769494,216.517525 206.965414,216.135015 C207.179993,215.708968 207.310606,215.211394 207.357253,214.645404 L207.357253,199.727528 C207.310606,199.177087 207.179993,198.682624 206.965414,198.244137 C206.769494,197.874067 206.47095,197.535095 206.076001,197.221001 C205.677943,196.910018 205.115062,196.754526 204.381141,196.754526 C203.631671,196.754526 203.056352,196.910018 202.655183,197.221001 C202.250905,197.535095 201.946141,197.874067 201.750221,198.244137 C201.520094,198.682624 201.39259,199.177087 201.361492,199.727528 L201.361492,214.645404 Z M193.764166,200.094489 C193.764166,198.632866 193.978745,197.382713 194.404792,196.353358 C194.83084,195.324002 195.37817,194.465688 196.040565,193.778415 C196.70296,193.091141 197.436881,192.55314 198.239218,192.16441 C199.038446,191.775681 199.815904,191.483357 200.571594,191.284327 C201.327284,191.088408 202.008338,190.967124 202.617865,190.920477 C203.230503,190.873829 203.681429,190.85206 203.970643,190.85206 L204.748102,190.85206 C205.037317,190.85206 205.488243,190.873829 206.09777,190.920477 C206.707298,190.967124 207.385242,191.088408 208.134712,191.284327 C208.881072,191.483357 209.655421,191.775681 210.454648,192.16441 C211.256986,192.55314 211.981577,193.091141 212.631533,193.778415 C213.278378,194.465688 213.81016,195.324002 214.233097,196.353358 C214.649815,197.382713 214.861284,198.632866 214.861284,200.094489 L214.861284,213.777761 C214.861284,215.28603 214.649815,216.567282 214.233097,217.621516 C213.81016,218.67264 213.278378,219.549614 212.631533,220.252436 C211.981577,220.952149 211.256986,221.508809 210.454648,221.913088 C209.655421,222.317366 208.881072,222.61591 208.134712,222.81494 C207.385242,223.010859 206.707298,223.135253 206.09777,223.1819 C205.488243,223.228548 205.037317,223.250317 204.748102,223.250317 L203.970643,223.250317 C203.681429,223.250317 203.230503,223.228548 202.617865,223.1819 C202.008338,223.135253 201.327284,223.010859 200.571594,222.81494 C199.815904,222.61591 199.038446,222.317366 198.239218,221.913088 C197.436881,221.508809 196.70296,220.952149 196.040565,220.252436 C195.37817,219.549614 194.83084,218.67264 194.404792,217.621516 C193.978745,216.567282 193.764166,215.28603 193.764166,213.777761 L193.764166,200.094489 Z" id="Fill-74" fill="#FFFFFF"></path>
                </g>
            </g>
        </g>
    </g>
</svg>