<?xml version="1.0" encoding="UTF-8" standalone="no"?>
<svg width="243px" height="243px" viewBox="0 0 243 243" version="1.1" xmlns="http://www.w3.org/2000/svg" xmlns:xlink="http://www.w3.org/1999/xlink" xmlns:sketch="http://www.bohemiancoding.com/sketch/ns">
    <!-- Generator: Sketch 3.4.4 (17249) - http://www.bohemiancoding.com/sketch -->
    <title>Creo</title>
    <desc>Created with Sketch.</desc>
    <defs></defs>
    <g id="Welcome" stroke="none" stroke-width="1" fill="none" fill-rule="evenodd" sketch:type="MSPage">
        <g id="Artboard-38" sketch:type="MSArtboardGroup" transform="translate(-648.000000, -126.000000)">
            <g id="Page-1" sketch:type="MSLayerGroup" transform="translate(80.000000, 125.000000)">
                <g id="Creo" transform="translate(567.188178, 1.000000)" sketch:type="MSShapeGroup">
                    <path d="M206.416443,242.915708 L38.1432954,242.915708 C17.6183873,242.915708 0.825280653,226.122601 0.825280653,205.597693 L0.825280653,37.3276552 C0.825280653,16.8027471 17.6183873,0.00964048713 38.1432954,0.00964048713 L206.416443,0.00964048713 C226.941351,0.00964048713 243.734458,16.8027471 243.734458,37.3276552 L243.734458,205.597693 C243.734458,226.122601 226.941351,242.915708 206.416443,242.915708" id="Fill-1" fill="#EE3931"></path>
                    <path d="M155.639998,94.6758033 C161.066659,89.118529 163.85929,79.6148745 163.399035,69.6136466 C161.060439,18.6994352 87.1458915,16.9579278 81.4237959,66.3825285 C80.1301047,77.5281756 82.9134066,88.5214407 88.9247168,94.6758033 C109.368769,115.6081 86.4306295,122.661205 108.933392,122.661205 L135.251922,122.661205 C158.451288,122.661205 134.990696,115.813349 155.639998,94.6758033" id="Fill-4" fill="#FFFFFF"></path>
                    <path d="M103.663156,125.133834 L140.43073,125.133834 C143.24202,125.133834 145.543298,127.432002 145.543298,130.246402 C145.543298,133.057692 143.24202,135.35897 140.43073,135.35897 L103.663156,135.35897 C100.848755,135.35897 98.5505877,133.057692 98.5505877,130.246402 C98.5505877,127.432002 100.848755,125.133834 103.663156,125.133834" id="Fill-6" fill="#FFFFFF"></path>
                    <path d="M103.663156,137.228292 L140.43073,137.228292 C143.24202,137.228292 145.543298,139.529569 145.543298,142.34086 C145.543298,145.15215 143.24202,147.453428 140.43073,147.453428 L103.663156,147.453428 C100.848755,147.453428 98.5505877,145.15215 98.5505877,142.34086 C98.5505877,139.529569 100.848755,137.228292 103.663156,137.228292" id="Fill-8" fill="#FFFFFF"></path>
                    <path d="M103.663156,149.325548 L140.43073,149.325548 C143.24202,149.325548 145.543298,151.623716 145.543298,154.438116 C145.543298,157.249406 143.24202,159.550684 140.43073,159.550684 L103.663156,159.550684 C100.848755,159.550684 98.5505877,157.249406 98.5505877,154.438116 C98.5505877,151.623716 100.848755,149.325548 103.663156,149.325548" id="Fill-10" fill="#FFFFFF"></path>
                    <path d="M92.5035144,190.418591 C94.1828251,190.418591 95.6257883,190.611401 96.8386238,190.9908 C98.0514593,191.37331 99.0745949,191.867774 99.9049207,192.477301 C100.735247,193.086829 101.403861,193.777212 101.907654,194.548451 C102.411447,195.31969 102.797067,196.100259 103.064513,196.893266 C103.328849,197.686274 103.506109,198.448184 103.586965,199.182105 C103.67404,199.916026 103.714468,200.547322 103.714468,201.082214 C103.714468,201.309231 103.695809,201.589117 103.658491,201.915649 C103.618063,202.245292 103.48745,202.559385 103.257322,202.867259 C103.027195,203.172022 102.666454,203.430139 102.16888,203.644717 C101.674417,203.856186 100.968484,203.96192 100.054193,203.96192 C99.749429,203.96192 99.3669193,203.946371 98.9097736,203.905943 C98.4526279,203.868625 98.0110314,203.769111 97.5818743,203.607399 C97.1558269,203.448798 96.7888665,203.21867 96.4841027,202.923236 C96.1793389,202.624691 96.026957,202.211084 96.026957,201.676192 C96.026957,200.852086 95.9771996,200.111945 95.8776849,199.45577 C95.7781702,198.799595 95.6009097,198.246044 95.3396835,197.785789 C95.0815673,197.328643 94.7239363,196.977232 94.2636808,196.731555 C93.8065351,196.488988 93.2187764,196.367704 92.5035144,196.367704 C91.7571541,196.367704 91.1787249,196.523196 90.7744464,196.83418 C90.3701679,197.148273 90.0778435,197.487245 89.8943632,197.857315 C89.6797847,198.295802 89.5585011,198.790265 89.5274028,199.340706 L89.5274028,213.848084 C89.5585011,214.519809 89.6797847,215.104458 89.8943632,215.611361 C90.0778435,216.052957 90.3701679,216.457236 90.7744464,216.821086 C91.1787249,217.188047 91.7571541,217.371527 92.5035144,217.371527 C93.2187764,217.371527 93.8065351,217.222255 94.2636808,216.923711 C94.7239363,216.628277 95.0815673,216.227108 95.3396835,215.726424 C95.6009097,215.222631 95.7781702,214.641092 95.8776849,213.984917 C95.9771996,213.328742 96.026957,212.641469 96.026957,211.926207 C96.026957,211.699189 96.064275,211.462841 96.1420209,211.214055 C96.2166569,210.971487 96.3939175,210.747579 96.6675829,210.54233 C96.9412483,210.333971 97.3455268,210.16604 97.8804184,210.029208 C98.4122001,209.892375 99.1399014,209.820849 100.054193,209.820849 C100.968484,209.820849 101.674417,209.923473 102.16888,210.131832 C102.666454,210.333971 103.027195,210.570319 103.257322,210.837765 C103.48745,211.10521 103.618063,211.363327 103.658491,211.615223 C103.695809,211.86712 103.714468,212.031941 103.714468,212.109687 C103.714468,213.788998 103.431473,215.284828 102.868593,216.606508 C102.302603,217.925078 101.506485,219.041508 100.47713,219.958909 C99.447775,220.873201 98.2193903,221.572913 96.7919763,222.051828 C95.3676721,222.530743 93.8003154,222.7702 92.0930163,222.7702 C91.816241,222.7702 91.3715347,222.748431 90.7526776,222.704893 C90.1338205,222.658246 89.4465471,222.533852 88.6815278,222.337933 C87.9196183,222.138903 87.1328301,221.840359 86.327383,221.44541 C85.5157162,221.050461 84.7817952,220.496911 84.1162906,219.784759 C83.4538959,219.075716 82.9096748,218.192523 82.4805176,217.13207 C82.0544703,216.071616 81.8398917,214.777925 81.8398917,213.254106 L81.8398917,200.485125 C81.8398917,199.234972 81.9922736,198.127871 82.3001472,197.170042 C82.6018012,196.205993 83.0029699,195.372557 83.5005434,194.663515 C83.9950071,193.954473 84.5641068,193.357385 85.2047327,192.87847 C85.8453586,192.399555 86.5015337,191.998387 87.173258,191.674964 C88.7281753,190.944153 90.5038908,190.524325 92.5035144,190.418591" id="Fill-12" fill="#FFFFFF"></path>
                    <path d="M118.451041,204.558698 C119.212951,204.527599 119.900224,204.347229 120.509752,204.008257 C120.767868,203.871424 121.019764,203.697273 121.265441,203.482695 C121.508008,203.271226 121.728807,203.00378 121.927836,202.680358 C122.126865,202.363154 122.282357,201.989974 122.397421,201.560817 C122.512485,201.13477 122.568462,200.637196 122.568462,200.074316 C122.568462,199.570523 122.512485,199.125817 122.397421,198.737087 C122.282357,198.348358 122.136195,198.009386 121.949605,197.717062 C121.766125,197.427847 121.557766,197.18528 121.321418,196.983141 C121.085071,196.787221 120.845614,196.62551 120.599937,196.504226 C120.021507,196.215011 119.365332,196.04708 118.634521,196.000433 L115.338097,196.000433 L115.338097,204.558698 L118.451041,204.558698 Z M108.428044,195.816953 C108.428044,195.163887 108.446703,194.520152 108.484021,193.895075 C108.524449,193.269998 108.648843,192.713338 108.863421,192.225094 C109.078,191.73685 109.416972,191.345011 109.883447,191.046466 C110.346812,190.751032 111.006097,190.60176 111.861302,190.60176 L119.41198,190.60176 C121.28721,190.691945 122.966521,191.090004 124.443692,191.792827 C125.068769,192.097591 125.684516,192.473881 126.287824,192.924807 C126.888022,193.372623 127.426024,193.929283 127.901828,194.594788 C128.371413,195.257182 128.753923,196.040861 129.043138,196.939603 C129.335462,197.841455 129.478514,198.886359 129.478514,200.074316 C129.478514,200.319993 129.456746,200.643416 129.410098,201.047694 C129.363451,201.451973 129.267046,201.893569 129.111554,202.375594 C128.959172,202.854508 128.753923,203.352082 128.492697,203.871424 C128.234581,204.390767 127.892499,204.88523 127.463342,205.361035 C127.037294,205.83062 126.514842,206.269107 125.899095,206.664056 C125.280238,207.062114 124.552536,207.379318 123.712881,207.624994 C124.247773,207.839573 124.788884,208.119458 125.336215,208.46154 C125.886655,208.803622 126.381119,209.242108 126.825826,209.777 C127.267422,210.311892 127.628163,210.952517 127.911158,211.698878 C128.194153,212.445238 128.334095,213.312882 128.334095,214.308029 L128.334095,217.554696 C128.334095,217.738176 128.380743,217.890558 128.470928,218.011842 C128.564223,218.133125 128.654408,218.23886 128.747703,218.335265 C129.111554,218.699115 129.326132,219.013209 129.388329,219.280654 C129.447416,219.5481 129.478514,219.768898 129.478514,219.93372 C129.478514,220.468611 129.37278,220.919537 129.158201,221.283388 C128.946733,221.650348 128.666848,221.948892 128.321656,222.17591 C127.979574,222.406038 127.590845,222.570859 127.155468,222.667264 C126.723201,222.766779 126.275385,222.816536 125.818239,222.816536 C125.314446,222.816536 124.801323,222.73879 124.285091,222.577079 C123.765748,222.415368 123.293053,222.18524 122.867006,221.877366 C122.437849,221.575712 122.092657,221.193203 121.825212,220.736057 C121.557766,220.278911 121.424043,219.753349 121.424043,219.156261 L121.424043,214.308029 C121.424043,213.636305 121.377395,213.017448 121.28721,212.451458 C121.197025,211.888578 121.019764,211.400334 120.761648,210.986726 C120.503532,210.579337 120.142791,210.255915 119.685645,210.028897 C119.2285,209.798769 118.634521,209.683705 117.9006,209.683705 L115.338097,209.683705 L115.338097,217.324568 C115.338097,217.996293 115.319438,218.652468 115.28212,219.293094 C115.241692,219.93372 115.117298,220.502819 114.90272,220.997283 C114.691251,221.494857 114.346059,221.889806 113.873365,222.18835 C113.40067,222.486894 112.732055,222.633056 111.861302,222.633056 C111.006097,222.633056 110.346812,222.486894 109.883447,222.18835 C109.416972,221.889806 109.078,221.494857 108.863421,220.997283 C108.648843,220.502819 108.524449,219.93372 108.484021,219.293094 C108.446703,218.652468 108.428044,217.996293 108.428044,217.324568 L108.428044,195.816953 Z" id="Fill-14" fill="#FFFFFF"></path>
                    <path d="M146.915046,190.600827 C147.524573,190.600827 148.14343,190.625706 148.768507,190.669244 C149.393584,190.715891 149.959574,190.846504 150.460257,191.057973 C150.96405,191.272551 151.377658,191.595974 151.697971,192.031351 C152.018284,192.466728 152.176886,193.073146 152.176886,193.850604 C152.176886,194.628063 152.018284,195.234481 151.697971,195.669857 C151.377658,196.105234 150.96405,196.428657 150.460257,196.640126 C149.959574,196.857814 149.393584,196.985318 148.768507,197.028855 C148.14343,197.075503 147.524573,197.100381 146.915046,197.100381 L141.469725,197.100381 L141.469725,203.32316 L144.352542,203.32316 C144.96207,203.32316 145.574707,203.344929 146.193564,203.379137 C146.812421,203.419565 147.359752,203.540849 147.841776,203.749208 C148.320691,203.951347 148.71564,204.26544 149.020404,204.682158 C149.325168,205.105096 149.477549,205.689744 149.477549,206.436105 C149.477549,207.198014 149.325168,207.782663 149.020404,208.196271 C148.71564,208.609879 148.320691,208.917753 147.841776,209.123002 C147.359752,209.328251 146.812421,209.452644 146.193564,209.489962 C145.574707,209.52728 144.96207,209.545939 144.352542,209.545939 L141.469725,209.545939 L141.469725,216.135679 L146.915046,216.135679 C147.524573,216.135679 148.14343,216.160557 148.768507,216.204095 C149.393584,216.250743 149.959574,216.375136 150.460257,216.580385 C150.96405,216.788744 151.377658,217.109057 151.697971,217.544434 C152.018284,217.979811 152.176886,218.576899 152.176886,219.338808 C152.176886,220.131816 152.012065,220.750673 151.685532,221.19227 C151.35589,221.633866 150.942282,221.963509 150.438488,222.174977 C149.934695,222.392666 149.371815,222.520169 148.743628,222.563707 C148.118552,222.610354 147.509024,222.635233 146.915046,222.635233 L137.946283,222.635233 C137.091078,222.635233 136.431793,222.482851 135.965318,222.174977 C135.501953,221.873323 135.159871,221.472155 134.948402,220.977691 C134.733824,220.480118 134.606321,219.920347 134.569003,219.295271 C134.531685,218.667084 134.513026,218.026458 134.513026,217.370283 L134.513026,195.862667 C134.513026,195.206492 134.531685,194.565866 134.569003,193.940789 C134.606321,193.315713 134.733824,192.755943 134.948402,192.258369 C135.159871,191.763905 135.501953,191.362737 135.965318,191.057973 C136.431793,190.756319 137.091078,190.600827 137.946283,190.600827 L146.915046,190.600827 Z" id="Fill-16" fill="#FFFFFF"></path>
                    <path d="M163.845918,214.213179 C163.877016,214.779169 164.00452,215.276742 164.234647,215.70279 C164.430567,216.085299 164.735331,216.427381 165.139609,216.732145 C165.540778,217.036909 166.116097,217.189291 166.865567,217.189291 C167.599488,217.189291 168.162368,217.036909 168.560427,216.732145 C168.955376,216.427381 169.25392,216.085299 169.44984,215.70279 C169.664419,215.276742 169.795032,214.779169 169.841679,214.213179 L169.841679,199.295303 C169.795032,198.744862 169.664419,198.250398 169.44984,197.811912 C169.25392,197.441841 168.955376,197.102869 168.560427,196.788776 C168.162368,196.477793 167.599488,196.322301 166.865567,196.322301 C166.116097,196.322301 165.540778,196.477793 165.139609,196.788776 C164.735331,197.102869 164.430567,197.441841 164.234647,197.811912 C164.00452,198.250398 163.877016,198.744862 163.845918,199.295303 L163.845918,214.213179 Z M156.248592,199.662263 C156.248592,198.200641 156.463171,196.950487 156.889218,195.921132 C157.315265,194.891777 157.862596,194.033463 158.524991,193.346189 C159.187386,192.658916 159.921307,192.120914 160.723644,191.732185 C161.522872,191.343456 162.30033,191.051131 163.05602,190.852102 C163.81171,190.656182 164.492764,190.534899 165.102291,190.488251 C165.714929,190.441604 166.165855,190.419835 166.455069,190.419835 L167.232528,190.419835 C167.521743,190.419835 167.972669,190.441604 168.582196,190.488251 C169.191724,190.534899 169.869668,190.656182 170.619138,190.852102 C171.365498,191.051131 172.139847,191.343456 172.939074,191.732185 C173.741412,192.120914 174.466003,192.658916 175.115959,193.346189 C175.762804,194.033463 176.294586,194.891777 176.717523,195.921132 C177.134241,196.950487 177.34571,198.200641 177.34571,199.662263 L177.34571,213.345535 C177.34571,214.853805 177.134241,216.135057 176.717523,217.189291 C176.294586,218.240415 175.762804,219.117388 175.115959,219.820211 C174.466003,220.519923 173.741412,221.076584 172.939074,221.480862 C172.139847,221.885141 171.365498,222.183685 170.619138,222.382714 C169.869668,222.578634 169.191724,222.703027 168.582196,222.749675 C167.972669,222.796322 167.521743,222.818091 167.232528,222.818091 L166.455069,222.818091 C166.165855,222.818091 165.714929,222.796322 165.102291,222.749675 C164.492764,222.703027 163.81171,222.578634 163.05602,222.382714 C162.30033,222.183685 161.522872,221.885141 160.723644,221.480862 C159.921307,221.076584 159.187386,220.519923 158.524991,219.820211 C157.862596,219.117388 157.315265,218.240415 156.889218,217.189291 C156.463171,216.135057 156.248592,214.853805 156.248592,213.345535 L156.248592,199.662263 Z" id="Fill-18" fill="#FFFFFF"></path>
                </g>
            </g>
        </g>
    </g>
</svg>