<?xml version="1.0" encoding="UTF-8" standalone="no"?>
<svg width="244px" height="244px" viewBox="0 0 244 244" version="1.1" xmlns="http://www.w3.org/2000/svg" xmlns:xlink="http://www.w3.org/1999/xlink" xmlns:sketch="http://www.bohemiancoding.com/sketch/ns">
    <!-- Generator: Sketch 3.4.4 (17249) - http://www.bohemiancoding.com/sketch -->
    <title>Juego</title>
    <desc>Created with Sketch.</desc>
    <defs></defs>
    <g id="Welcome" stroke="none" stroke-width="1" fill="none" fill-rule="evenodd" sketch:type="MSPage">
        <g id="Artboard-38" sketch:type="MSArtboardGroup" transform="translate(-597.000000, -608.000000)">
            <g id="Page-1" sketch:type="MSLayerGroup" transform="translate(80.000000, 125.000000)">
                <g id="Juego" transform="translate(517.000000, 483.000000)" sketch:type="MSShapeGroup">
                    <path d="M206.478147,243.122702 L38.2049989,243.122702 C17.6800908,243.122702 0.886984191,226.329596 0.886984191,205.804688 L0.886984191,37.5346494 C0.886984191,17.0097413 17.6800908,0.216634651 38.2049989,0.216634651 L206.478147,0.216634651 C227.003055,0.216634651 243.796162,17.0097413 243.796162,37.5346494 L243.796162,205.804688 C243.796162,226.329596 227.003055,243.122702 206.478147,243.122702" id="Fill-20" fill="#EE3931"></path>
                    <path d="M167.184765,117.857944 C170.48119,118.451923 173.522608,116.43364 174.129026,113.24295 C174.747883,109.983843 172.602097,106.877118 169.308782,106.270701 C166.059005,105.670503 162.834107,107.878485 162.296105,111.075395 C161.758104,114.262975 163.928768,117.270185 167.184765,117.857944 M154.12035,116.797491 C150.783498,116.184853 147.679883,118.283992 147.104564,121.543098 C146.551013,124.69958 148.740336,127.781426 151.959015,128.375405 C155.221232,128.978713 158.461679,126.783169 159.01212,123.598699 C159.556341,120.442217 157.367018,117.397689 154.12035,116.797491 M148.140138,108.646614 C148.718568,105.390617 146.495036,102.293222 143.189282,101.749001 C139.961274,101.220329 136.842109,103.372335 136.27301,106.522597 C135.7008,109.694628 137.862135,112.745376 141.115022,113.348684 C144.498522,113.976871 147.558599,111.9306 148.140138,108.646614 M158.362165,91.3372751 C155.084399,90.7899442 152.05542,92.898412 151.504979,96.1108711 C150.948319,99.3419892 153.237157,102.479812 156.508703,102.983606 C159.742931,103.478069 162.871425,101.294965 163.409426,98.1602521 C163.966086,94.9446832 161.711456,91.8970453 158.362165,91.3372751 M93.9388319,95.3582912 C94.0321269,94.8202898 94.1160925,94.3382654 94.200058,93.8562411 C94.7660479,90.5909148 95.3413673,87.3286983 95.8886982,84.0602622 C96.1530341,82.4897958 95.7052179,81.8149617 94.1876187,81.5319667 C92.2533016,81.1681161 90.309655,80.8664621 88.372228,80.511941 C87.0101205,80.2600444 86.3259569,80.8571326 86.1051586,82.1694828 C85.6449031,84.9247962 85.1566591,87.6801097 84.6808544,90.4323132 C84.500484,91.4834373 84.3170038,92.5314516 84.124194,93.6603215 C80.5478843,93.0414644 77.1799335,92.4910237 73.8275318,91.865947 C72.4467653,91.6078307 71.7626017,92.1520517 71.5386936,93.4644019 C71.3303347,94.6896767 71.1250856,95.9149516 70.9011775,97.1371165 C70.064632,101.708573 70.0117648,101.329174 74.42462,102.078644 C77.0555401,102.52646 79.6864601,102.983606 82.4106752,103.4563 C81.7234017,107.439998 81.0952152,111.215338 80.4048319,114.975128 C80.1560451,116.331015 80.6131908,117.046277 81.9690787,117.263966 C83.9624826,117.584279 85.9496669,117.954349 87.939961,118.287101 C89.2460915,118.5079 90.02666,117.997887 90.2443484,116.648219 C90.5117942,114.962688 90.8227777,113.280268 91.1119923,111.597847 C91.4789528,109.47694 91.8459132,107.356033 92.2284229,105.15427 C96.0566292,105.816665 99.670257,106.454181 103.290104,107.063708 C104.910328,107.334264 105.479428,106.929986 105.771752,105.34397 C106.098285,103.562035 106.403049,101.77388 106.701593,99.985725 C107.012576,98.1260439 106.614518,97.5569442 104.751727,97.2304116 C101.234504,96.6146643 97.714171,96.0113564 93.9388319,95.3582912 M154.518409,146.210306 C129.201246,141.834769 103.884083,137.453012 78.5669197,133.074365 C78.2466067,132.921983 77.9418429,132.722953 77.6059808,132.623439 C71.6226591,130.822844 66.4136862,127.722339 62.2744964,123.042038 C53.5109826,113.137215 51.4273935,101.683695 54.913518,89.1230729 C59.5720502,72.3424056 75.8862423,62.0084254 93.052529,64.947219 C116.690382,68.990004 140.322014,73.0825462 163.947427,77.2092967 C178.268216,79.7127135 189.255261,91.0978178 191.270434,105.52434 C191.640504,108.16148 191.578308,110.860816 191.71514,113.532164 C191.326411,115.780575 190.937682,118.025875 190.548952,120.271176 C190.337484,120.840276 190.119795,121.406265 189.920766,121.978475 C185.32754,135.22948 176.321459,143.402125 162.361412,145.728282 C159.789579,146.157439 157.13378,146.064144 154.518409,146.210306" id="Fill-22" fill="#FFFFFF"></path>
                    <path d="M83.9618607,211.999167 C82.28255,211.999167 80.8395868,211.809467 79.6236415,211.426957 C78.4139158,211.044448 77.3907802,210.549984 76.5604544,209.940456 C75.7270187,209.330929 75.0615142,208.640546 74.557721,207.869307 C74.0539278,207.101178 73.6683083,206.317499 73.4008625,205.524491 C73.1365266,204.731484 72.959266,203.969574 72.8753005,203.238763 C72.7913349,202.504842 72.7509071,201.870436 72.7509071,201.335544 C72.7509071,201.108526 72.7695661,200.828641 72.8068841,200.502109 C72.8442021,200.172466 72.977925,199.858373 73.2080528,199.553609 C73.4350707,199.245735 73.7989213,198.987619 74.293385,198.77615 C74.7909585,198.561572 75.4937812,198.455837 76.4111824,198.455837 C76.7159461,198.455837 77.095346,198.471387 77.5524916,198.511814 C78.0127472,198.552242 78.4543437,198.648647 78.880391,198.810359 C79.3095482,198.97207 79.6765086,199.202198 79.9812724,199.506962 C80.2860362,199.811725 80.4384181,200.225333 80.4384181,200.741566 C80.4384181,201.568782 80.4881755,202.305813 80.5876902,202.961988 C80.684095,203.618163 80.8644654,204.174823 81.1225817,204.631969 C81.3838078,205.089115 81.7414388,205.443636 82.1985845,205.686203 C82.65884,205.92877 83.2434889,206.050053 83.9618607,206.050053 C84.708221,206.050053 85.2835403,205.897672 85.6878188,205.592908 C86.0920973,205.288144 86.3875316,204.942952 86.567902,204.563553 C86.7824806,204.137505 86.9037642,203.639932 86.9348625,203.077052 L86.9348625,186.280835 L80.9422113,186.280835 C80.3326837,186.280835 79.7200463,186.252847 79.1105187,186.19065 C78.5009912,186.131563 77.9474406,185.99473 77.4529769,185.777042 C76.9554034,185.565573 76.5511249,185.24215 76.2401415,184.819213 C75.9260482,184.390056 75.7705564,183.811627 75.7705564,183.077706 C75.7705564,182.331345 75.9260482,181.737367 76.2401415,181.29577 C76.5511249,180.851064 76.9554034,180.521422 77.4529769,180.300623 C77.9474406,180.076715 78.5009912,179.936773 79.1105187,179.874576 C79.7200463,179.812379 80.3326837,179.784391 80.9422113,179.784391 L90.2748248,179.784391 C91.1455785,179.784391 91.8359618,179.936773 92.3459746,180.241536 C92.8559875,180.5463 93.241607,180.947469 93.5028331,181.441933 C93.7609494,181.939506 93.9288804,182.499276 94.0035165,183.124353 C94.0812623,183.74943 94.1216902,184.390056 94.1216902,185.046231 L94.1216902,202.436426 C94.1216902,204.022441 93.8915624,205.36278 93.4344167,206.463661 C92.9741612,207.561433 92.3988418,208.463285 91.7053487,209.175437 C91.0118556,209.88137 90.2499461,210.428701 89.4165105,210.8081 C88.5861847,211.19061 87.7931768,211.470495 87.037487,211.644646 C86.2849071,211.818797 85.6225123,211.924531 85.0596323,211.952519 C84.4936424,211.983618 84.1297917,211.999167 83.9618607,211.999167" id="Fill-24" fill="#FFFFFF"></path>
                    <path d="M100.710808,185.000516 C100.710808,184.344341 100.745016,183.703715 100.813432,183.078639 C100.881849,182.453562 101.04045,181.896901 101.292347,181.408657 C101.547353,180.920413 101.923643,180.528574 102.427436,180.23003 C102.92812,179.931486 103.624723,179.782214 104.507916,179.782214 C105.391109,179.782214 106.090821,179.931486 106.603944,180.23003 C107.113957,180.528574 107.493357,180.920413 107.745253,181.408657 C107.99715,181.896901 108.155752,182.453562 108.214838,183.078639 C108.277035,183.703715 108.305024,184.344341 108.305024,185.000516 L108.305024,203.031337 C108.351671,203.703061 108.488504,204.29704 108.718632,204.816382 C108.808817,205.0434 108.93321,205.267308 109.085592,205.478777 C109.237974,205.690246 109.415235,205.883055 109.623593,206.050986 C109.828843,206.218917 110.07141,206.35264 110.354405,206.449045 C110.6374,206.55167 110.960822,206.598317 111.327783,206.598317 C111.691633,206.598317 112.021276,206.55167 112.310491,206.449045 C112.599705,206.35264 112.848492,206.218917 113.053741,206.050986 C113.2621,205.883055 113.43936,205.690246 113.591742,205.478777 C113.744124,205.267308 113.865408,205.0434 113.958703,204.816382 C114.185721,204.29704 114.316334,203.703061 114.347432,203.031337 L114.347432,185.000516 C114.347432,184.344341 114.378531,183.703715 114.440727,183.078639 C114.499814,182.453562 114.655306,181.896901 114.907202,181.408657 C115.159099,180.920413 115.538499,180.528574 116.039182,180.23003 C116.542975,179.931486 117.245798,179.782214 118.14454,179.782214 C119.030843,179.782214 119.724336,179.931486 120.228129,180.23003 C120.728813,180.528574 121.108213,180.920413 121.360109,181.408657 C121.612006,181.896901 121.770607,182.453562 121.839024,183.078639 C121.90744,183.703715 121.944758,184.344341 121.944758,185.000516 L121.944758,202.434249 C121.944758,204.020264 121.689752,205.407251 121.176629,206.598317 C120.666616,207.789384 119.942025,208.784531 119.002855,209.583758 C118.066794,210.386096 116.944144,210.989404 115.641123,211.393682 C114.334993,211.797961 112.898249,212.0001 111.327783,212.0001 C109.738657,212.0001 108.298804,211.788631 107.002003,211.368803 C105.705202,210.952086 104.588771,210.336338 103.649601,209.530891 C102.713541,208.719224 101.98895,207.720968 101.475827,206.533011 C100.965814,205.341944 100.710808,203.976727 100.710808,202.434249 L100.710808,185.000516 Z" id="Fill-26" fill="#FFFFFF"></path>
                    <path d="M140.705768,179.783147 C141.315295,179.783147 141.934153,179.808026 142.559229,179.851563 C143.184306,179.898211 143.750296,180.028824 144.250979,180.240293 C144.754773,180.454871 145.168381,180.778294 145.488693,181.213671 C145.809006,181.649048 145.967608,182.255465 145.967608,183.032924 C145.967608,183.810383 145.809006,184.4168 145.488693,184.852177 C145.168381,185.287554 144.754773,185.610977 144.250979,185.822446 C143.750296,186.040134 143.184306,186.167637 142.559229,186.211175 C141.934153,186.257822 141.315295,186.282701 140.705768,186.282701 L135.260448,186.282701 L135.260448,192.50548 L138.143264,192.50548 C138.752792,192.50548 139.365429,192.527249 139.984286,192.561457 C140.603143,192.601885 141.150474,192.723168 141.632499,192.931527 C142.111413,193.133667 142.506362,193.44776 142.811126,193.864478 C143.11589,194.287415 143.268272,194.872064 143.268272,195.618424 C143.268272,196.380334 143.11589,196.964983 142.811126,197.378591 C142.506362,197.792199 142.111413,198.100072 141.632499,198.305321 C141.150474,198.510571 140.603143,198.634964 139.984286,198.672282 C139.365429,198.7096 138.752792,198.728259 138.143264,198.728259 L135.260448,198.728259 L135.260448,205.317998 L140.705768,205.317998 C141.315295,205.317998 141.934153,205.342877 142.559229,205.386415 C143.184306,205.433062 143.750296,205.557456 144.250979,205.762705 C144.754773,205.971064 145.168381,206.291377 145.488693,206.726753 C145.809006,207.16213 145.967608,207.759219 145.967608,208.521128 C145.967608,209.314136 145.802787,209.932993 145.476254,210.374589 C145.146612,210.816186 144.733004,211.145828 144.22921,211.357297 C143.725417,211.574986 143.162537,211.702489 142.534351,211.746026 C141.909274,211.792674 141.299746,211.817553 140.705768,211.817553 L131.737005,211.817553 C130.881801,211.817553 130.222516,211.665171 129.75604,211.357297 C129.292675,211.055643 128.950593,210.654474 128.739125,210.160011 C128.524546,209.662437 128.397043,209.102667 128.359725,208.47759 C128.322407,207.849404 128.303748,207.208778 128.303748,206.552603 L128.303748,185.044987 C128.303748,184.388812 128.322407,183.748186 128.359725,183.123109 C128.397043,182.498032 128.524546,181.938262 128.739125,181.440689 C128.950593,180.946225 129.292675,180.545056 129.75604,180.240293 C130.222516,179.938639 130.881801,179.783147 131.737005,179.783147 L140.705768,179.783147 Z" id="Fill-28" fill="#FFFFFF"></path>
                    <path d="M172.188178,209.712195 C172.188178,209.908114 172.169519,210.141352 172.129091,210.399468 C172.091773,210.657584 171.995368,210.906371 171.833657,211.142719 C171.671946,211.379066 171.441818,211.581205 171.137054,211.746026 C170.82918,211.917067 170.418682,211.997923 169.89934,211.997923 C169.320911,211.997923 168.863765,211.920177 168.527903,211.758466 C168.192041,211.596754 167.937034,211.400835 167.759774,211.164487 C167.585623,210.92814 167.470559,210.682463 167.417692,210.421237 C167.364825,210.163121 167.336836,209.923663 167.336836,209.712195 L167.336836,208.340758 C166.606025,209.42298 165.669965,210.303063 164.534875,210.981007 C163.396676,211.662061 162.00036,211.997923 160.336599,211.997923 C160.047384,211.997923 159.596458,211.979264 158.98693,211.932616 C158.377403,211.885969 157.690129,211.761576 156.92822,211.565656 C156.163201,211.366627 155.379522,211.071192 154.570965,210.673134 C153.762408,210.278185 153.025378,209.724634 152.362983,209.012482 C151.700588,208.306549 151.153257,207.420247 150.72721,206.359793 C150.298053,205.299339 150.086584,204.005648 150.086584,202.481829 L150.086584,189.669311 C150.086584,188.416048 150.238966,187.312056 150.54373,186.351117 C150.848493,185.390179 151.249662,184.553633 151.744126,183.847701 C152.238589,183.135548 152.807689,182.54157 153.448315,182.059546 C154.088941,181.580631 154.745116,181.179463 155.41684,180.85915 C156.971758,180.125229 158.750583,179.708511 160.747097,179.599667 C162.441957,179.599667 163.891139,179.792476 165.094645,180.171876 C166.298151,180.554386 167.324397,181.048849 168.160942,181.658377 C169.000598,182.271014 169.672322,182.958288 170.176115,183.732637 C170.679908,184.503876 171.068638,185.284444 171.342303,186.074342 C171.615969,186.86735 171.796339,187.629259 171.880304,188.36629 C171.96427,189.097101 172.004698,189.728398 172.004698,190.263289 C172.004698,190.490307 171.986039,190.770192 171.948721,191.099835 C171.911403,191.426367 171.77768,191.740461 171.547552,192.035895 C171.320534,192.334439 170.956684,192.586336 170.45911,192.791585 C169.964646,192.996834 169.258714,193.099458 168.344423,193.099458 C168.02411,193.099458 167.63227,193.080799 167.165795,193.043481 C166.69932,193.006163 166.254614,192.909759 165.828566,192.757377 C165.399409,192.604995 165.035559,192.381087 164.730795,192.082543 C164.422921,191.783998 164.273649,191.37661 164.273649,190.860378 C164.273649,190.036271 164.220782,189.299241 164.124377,188.652395 C164.024862,188.00244 163.844492,187.448889 163.583266,186.991743 C163.32515,186.534598 162.967519,186.189406 162.510373,185.949949 C162.053227,185.713601 161.465469,185.595428 160.747097,185.595428 C160.000736,185.595428 159.425417,185.74781 159.021139,186.055683 C158.61686,186.357337 158.324536,186.696309 158.137946,187.06016 C157.926477,187.489317 157.805193,187.974451 157.774095,188.524892 L157.774095,203.169103 C157.774095,203.657347 157.86117,204.114492 158.035321,204.54054 C158.212582,204.969697 158.458259,205.342877 158.778571,205.66008 C159.101994,205.983503 159.478284,206.2354 159.913661,206.41577 C160.345928,206.59925 160.824843,206.689435 161.344185,206.689435 C161.950603,206.689435 162.507263,206.555713 163.001727,206.291377 C163.4993,206.023931 163.944007,205.6663 164.342065,205.215374 C164.737014,204.764448 165.091536,204.254435 165.402519,203.685335 C165.716612,203.110016 165.996497,202.512928 166.239065,201.884741 L164.043521,201.884741 C163.598815,201.841203 163.210086,201.726139 162.874224,201.542659 C162.56946,201.390277 162.298904,201.163259 162.062557,200.855386 C161.826209,200.553732 161.708036,200.133904 161.708036,199.599013 C161.708036,199.020583 161.826209,198.572767 162.062557,198.258674 C162.298904,197.94769 162.56946,197.717563 162.874224,197.562071 C163.210086,197.39414 163.598815,197.294625 164.043521,197.263527 L169.992635,197.263527 C170.098369,197.263527 170.26941,197.285296 170.505758,197.322614 C170.742105,197.359932 170.987782,197.468776 171.239679,197.652256 C171.491575,197.838846 171.712373,198.109402 171.902073,198.467033 C172.091773,198.824664 172.188178,199.322237 172.188178,199.962863 L172.188178,209.712195 Z" id="Fill-30" fill="#FFFFFF"></path>
                    <path d="M184.087027,203.395499 C184.118125,203.961489 184.245629,204.459062 184.475756,204.885109 C184.671676,205.267619 184.97644,205.609701 185.380718,205.914465 C185.781887,206.219228 186.357206,206.37161 187.106676,206.37161 C187.840597,206.37161 188.403477,206.219228 188.801536,205.914465 C189.196485,205.609701 189.495029,205.267619 189.690949,204.885109 C189.905528,204.459062 190.036141,203.961489 190.082788,203.395499 L190.082788,188.477622 C190.036141,187.927182 189.905528,187.432718 189.690949,186.994231 C189.495029,186.624161 189.196485,186.285189 188.801536,185.971096 C188.403477,185.660112 187.840597,185.50462 187.106676,185.50462 C186.357206,185.50462 185.781887,185.660112 185.380718,185.971096 C184.97644,186.285189 184.671676,186.624161 184.475756,186.994231 C184.245629,187.432718 184.118125,187.927182 184.087027,188.477622 L184.087027,203.395499 Z M176.489701,188.844583 C176.489701,187.382961 176.70428,186.132807 177.130327,185.103452 C177.556374,184.074097 178.103705,183.215782 178.7661,182.528509 C179.428495,181.841235 180.162416,181.303234 180.964753,180.914505 C181.763981,180.525775 182.541439,180.233451 183.297129,180.034421 C184.052819,179.838502 184.733873,179.717218 185.3434,179.670571 C185.956038,179.623923 186.406964,179.602154 186.696178,179.602154 L187.473637,179.602154 C187.762852,179.602154 188.213778,179.623923 188.823305,179.670571 C189.432833,179.717218 190.110777,179.838502 190.860247,180.034421 C191.606607,180.233451 192.380956,180.525775 193.180183,180.914505 C193.982521,181.303234 194.707112,181.841235 195.357068,182.528509 C196.003913,183.215782 196.535695,184.074097 196.958632,185.103452 C197.37535,186.132807 197.586819,187.382961 197.586819,188.844583 L197.586819,202.527855 C197.586819,204.036125 197.37535,205.317376 196.958632,206.37161 C196.535695,207.422734 196.003913,208.299708 195.357068,209.00253 C194.707112,209.702243 193.982521,210.258904 193.180183,210.663182 C192.380956,211.067461 191.606607,211.366005 190.860247,211.565034 C190.110777,211.760954 189.432833,211.885347 188.823305,211.931995 C188.213778,211.978642 187.762852,212.000411 187.473637,212.000411 L186.696178,212.000411 C186.406964,212.000411 185.956038,211.978642 185.3434,211.931995 C184.733873,211.885347 184.052819,211.760954 183.297129,211.565034 C182.541439,211.366005 181.763981,211.067461 180.964753,210.663182 C180.162416,210.258904 179.428495,209.702243 178.7661,209.00253 C178.103705,208.299708 177.556374,207.422734 177.130327,206.37161 C176.70428,205.317376 176.489701,204.036125 176.489701,202.527855 L176.489701,188.844583 Z" id="Fill-32" fill="#FFFFFF"></path>
                </g>
            </g>
        </g>
    </g>
</svg>