<?xml version="1.0" encoding="UTF-8" standalone="no"?>
<svg width="243px" height="244px" viewBox="0 0 243 244" version="1.1" xmlns="http://www.w3.org/2000/svg" xmlns:xlink="http://www.w3.org/1999/xlink" xmlns:sketch="http://www.bohemiancoding.com/sketch/ns">
    <!-- Generator: Sketch 3.4.4 (17249) - http://www.bohemiancoding.com/sketch -->
    <title>Leo</title>
    <desc>Created with Sketch.</desc>
    <defs></defs>
    <g id="Welcome" stroke="none" stroke-width="1" fill="none" fill-rule="evenodd" sketch:type="MSPage">
        <g id="Artboard-38" sketch:type="MSArtboardGroup" transform="translate(-323.000000, -608.000000)">
            <g id="Page-1" sketch:type="MSLayerGroup" transform="translate(80.000000, 125.000000)">
                <g id="Leo" transform="translate(243.000000, 483.000000)" sketch:type="MSShapeGroup">
                    <path d="M205.588364,243.122702 L37.3183257,243.122702 C16.7934176,243.122702 0.000310983456,226.329596 0.000310983456,205.804688 L0.000310983456,37.5346494 C0.000310983456,17.0097413 16.7934176,0.216634651 37.3183257,0.216634651 L205.588364,0.216634651 C226.113272,0.216634651 242.906379,17.0097413 242.906379,37.5346494 L242.906379,205.804688 C242.906379,226.329596 226.113272,243.122702 205.588364,243.122702" id="Fill-34" fill="#EE3931"></path>
                    <path d="M104.953807,51.0813997 C114.018974,51.0813997 121.364403,57.6213818 121.364403,65.6882926 L121.364403,157.786043 C121.364403,149.722242 114.018974,143.17915 104.953807,143.17915 L54.2603934,143.17915 C52.6277302,143.17915 51.3060506,141.85747 51.3060506,140.227917 L51.3060506,54.0357425 C51.3060506,52.4061892 52.6277302,51.0813997 54.2603934,51.0813997 L104.953807,51.0813997 Z" id="Fill-36" fill="#FFFFFF"></path>
                    <path d="M137.6419,53.312706 C128.523865,53.312706 121.134898,59.8495782 121.134898,67.9195989 L121.134898,160.017349 C121.134898,151.950439 128.523865,145.410456 137.6419,145.410456 L186.090012,145.410456 C189.13454,145.410456 191.600639,142.944358 191.600639,139.902939 L191.600639,58.8233328 C191.600639,55.7788048 189.13454,53.312706 186.090012,53.312706 L137.6419,53.312706 Z" id="Fill-38" fill="#FFFFFF"></path>
                    <path d="M99.0504076,57.9777688 C107.117318,57.9777688 113.657301,64.5177509 113.657301,72.5846617 L113.657301,164.682412 C113.657301,156.615501 107.117318,150.075519 99.0504076,150.075519 L56.5856167,150.075519 C53.6685919,150.075519 51.3051176,147.712045 51.3051176,144.79813 L51.3051176,62.1325078 C51.3051176,59.8374499 53.1647987,57.9777688 55.4598566,57.9777688 L99.0504076,57.9777688 Z" id="Fill-40" fill="#FFFFFF"></path>
                    <path d="M143.854727,57.9777688 C135.787816,57.9777688 129.247834,64.5177509 129.247834,72.5846617 L129.247834,164.682412 C129.247834,156.615501 135.787816,150.075519 143.854727,150.075519 L185.221746,150.075519 C188.745189,150.075519 191.600017,147.220691 191.600017,143.697249 L191.600017,62.1325078 C191.600017,59.8374499 189.740336,57.9777688 187.445278,57.9777688 L143.854727,57.9777688 Z" id="Fill-42" fill="#FFFFFF"></path>
                    <path d="M114.804518,165.113124 L128.105281,165.113124 C128.948046,165.113124 129.6291,164.428961 129.6291,163.589305 L129.6291,67.3492552 C129.6291,65.8565347 128.422484,64.646809 126.929763,64.646809 L115.980036,64.646809 C114.490425,64.646809 113.2807,65.8565347 113.2807,67.3492552 L113.2807,163.589305 C113.2807,164.428961 113.961753,165.113124 114.804518,165.113124" id="Fill-44" fill="#EE3931"></path>
                    <path d="M91.4698749,196.070283 C91.4698749,195.414108 91.5009732,194.773482 91.5600601,194.148406 C91.6222568,193.523329 91.7715288,192.963559 92.0078762,192.465985 C92.2442237,191.971521 92.5894153,191.570353 93.0496708,191.265589 C93.5068165,190.960825 94.1381129,190.808443 94.9497797,190.808443 C95.8174236,190.808443 96.4953675,190.960825 96.9836115,191.265589 C97.4718556,191.570353 97.8294865,191.971521 98.0596143,192.465985 C98.2866322,192.963559 98.4296846,193.523329 98.4825518,194.148406 C98.535419,194.773482 98.5634075,195.414108 98.5634075,196.070283 L98.5634075,216.113167 L103.047789,216.113167 C103.672866,216.113167 104.291723,216.144265 104.90125,216.206462 C105.510778,216.265549 106.054999,216.411711 106.537023,216.638729 C107.019048,216.868857 107.404667,217.204719 107.690772,217.646316 C107.983096,218.087912 108.126149,218.69122 108.126149,219.456239 C108.126149,220.233698 107.983096,220.846335 107.690772,221.294151 C107.404667,221.748187 107.019048,222.084049 106.537023,222.314177 C106.054999,222.544305 105.510778,222.690467 104.90125,222.749554 C104.291723,222.811751 103.672866,222.839739 103.047789,222.839739 L96.5482347,222.839739 C95.7427875,222.839739 95.0244158,222.811751 94.399339,222.749554 C93.7742623,222.690467 93.2424806,222.544305 92.8102136,222.314177 C92.3748367,222.084049 92.0420844,221.748187 91.8119567,221.294151 C91.5849387,220.846335 91.4698749,220.233698 91.4698749,219.456239 L91.4698749,196.070283 Z" id="Fill-46" fill="#FFFFFF"></path>
                    <path d="M125.150938,190.807199 C125.760466,190.807199 126.379323,190.832078 127.004399,190.875616 C127.629476,190.922263 128.195466,191.052876 128.696149,191.264345 C129.199943,191.478924 129.613551,191.802346 129.933864,192.237723 C130.254177,192.6731 130.412778,193.279518 130.412778,194.056976 C130.412778,194.834435 130.254177,195.440853 129.933864,195.87623 C129.613551,196.311607 129.199943,196.635029 128.696149,196.846498 C128.195466,197.064186 127.629476,197.19169 127.004399,197.235227 C126.379323,197.281875 125.760466,197.306754 125.150938,197.306754 L119.705618,197.306754 L119.705618,203.529533 L122.588434,203.529533 C123.197962,203.529533 123.810599,203.551301 124.429456,203.58551 C125.048314,203.625937 125.595644,203.747221 126.077669,203.95558 C126.556583,204.157719 126.951532,204.471812 127.256296,204.88853 C127.56106,205.311468 127.713442,205.896117 127.713442,206.642477 C127.713442,207.404386 127.56106,207.989035 127.256296,208.402643 C126.951532,208.816251 126.556583,209.124125 126.077669,209.329374 C125.595644,209.534623 125.048314,209.659016 124.429456,209.696334 C123.810599,209.733652 123.197962,209.752311 122.588434,209.752311 L119.705618,209.752311 L119.705618,216.342051 L125.150938,216.342051 C125.760466,216.342051 126.379323,216.36693 127.004399,216.410467 C127.629476,216.457115 128.195466,216.581508 128.696149,216.786757 C129.199943,216.995116 129.613551,217.315429 129.933864,217.750806 C130.254177,218.186183 130.412778,218.783271 130.412778,219.545181 C130.412778,220.338188 130.247957,220.957045 129.921424,221.398642 C129.591782,221.840238 129.178174,222.169881 128.674381,222.38135 C128.170587,222.599038 127.607707,222.726541 126.979521,222.770079 C126.354444,222.816726 125.744916,222.841605 125.150938,222.841605 L116.182175,222.841605 C115.326971,222.841605 114.667686,222.689223 114.201211,222.38135 C113.737845,222.079696 113.395763,221.678527 113.184295,221.184063 C112.969716,220.68649 112.842213,220.12672 112.804895,219.501643 C112.767577,218.873456 112.748918,218.23283 112.748918,217.576655 L112.748918,196.069039 C112.748918,195.412864 112.767577,194.772238 112.804895,194.147162 C112.842213,193.522085 112.969716,192.962315 113.184295,192.464741 C113.395763,191.970277 113.737845,191.569109 114.201211,191.264345 C114.667686,190.962691 115.326971,190.807199 116.182175,190.807199 L125.150938,190.807199 Z" id="Fill-48" fill="#FFFFFF"></path>
                    <path d="M142.082121,214.419551 C142.11322,214.985541 142.240723,215.483115 142.470851,215.909162 C142.66677,216.291672 142.971534,216.633753 143.375812,216.938517 C143.776981,217.243281 144.352301,217.395663 145.101771,217.395663 C145.835692,217.395663 146.398572,217.243281 146.796631,216.938517 C147.19158,216.633753 147.490124,216.291672 147.686043,215.909162 C147.900622,215.483115 148.031235,214.985541 148.077882,214.419551 L148.077882,199.501675 C148.031235,198.951234 147.900622,198.45677 147.686043,198.018284 C147.490124,197.648213 147.19158,197.309241 146.796631,196.995148 C146.398572,196.684165 145.835692,196.528673 145.101771,196.528673 C144.352301,196.528673 143.776981,196.684165 143.375812,196.995148 C142.971534,197.309241 142.66677,197.648213 142.470851,198.018284 C142.240723,198.45677 142.11322,198.951234 142.082121,199.501675 L142.082121,214.419551 Z M134.484795,199.868635 C134.484795,198.407013 134.699374,197.15686 135.125421,196.127504 C135.551469,195.098149 136.0988,194.239835 136.761194,193.552561 C137.423589,192.865288 138.15751,192.327286 138.959847,191.938557 C139.759075,191.549828 140.536534,191.257503 141.292223,191.058474 C142.047913,190.862554 142.728967,190.741271 143.338494,190.694623 C143.951132,190.647976 144.402058,190.626207 144.691273,190.626207 L145.468731,190.626207 C145.757946,190.626207 146.208872,190.647976 146.818399,190.694623 C147.427927,190.741271 148.105871,190.862554 148.855341,191.058474 C149.601701,191.257503 150.37605,191.549828 151.175278,191.938557 C151.977615,192.327286 152.702206,192.865288 153.352162,193.552561 C153.999007,194.239835 154.530789,195.098149 154.953727,196.127504 C155.370444,197.15686 155.581913,198.407013 155.581913,199.868635 L155.581913,213.551907 C155.581913,215.060177 155.370444,216.341429 154.953727,217.395663 C154.530789,218.446787 153.999007,219.32376 153.352162,220.026583 C152.702206,220.726296 151.977615,221.282956 151.175278,221.687235 C150.37605,222.091513 149.601701,222.390057 148.855341,222.589087 C148.105871,222.785006 147.427927,222.9094 146.818399,222.956047 C146.208872,223.002695 145.757946,223.024463 145.468731,223.024463 L144.691273,223.024463 C144.402058,223.024463 143.951132,223.002695 143.338494,222.956047 C142.728967,222.9094 142.047913,222.785006 141.292223,222.589087 C140.536534,222.390057 139.759075,222.091513 138.959847,221.687235 C138.15751,221.282956 137.423589,220.726296 136.761194,220.026583 C136.0988,219.32376 135.551469,218.446787 135.125421,217.395663 C134.699374,216.341429 134.484795,215.060177 134.484795,213.551907 L134.484795,199.868635 Z" id="Fill-50" fill="#FFFFFF"></path>
                </g>
            </g>
        </g>
    </g>
</svg>