<?xml version="1.0" encoding="UTF-8" standalone="no"?>
<svg width="1125px" height="284px" viewBox="0 0 1125 284" version="1.1" xmlns="http://www.w3.org/2000/svg" xmlns:xlink="http://www.w3.org/1999/xlink" xmlns:sketch="http://www.bohemiancoding.com/sketch/ns">
    <!-- Generator: Sketch 3.4.4 (17249) - http://www.bohemiancoding.com/sketch -->
    <title>Logo</title>
    <desc>Created with Sketch.</desc>
    <defs>
        <path id="path-1" d="M0,0.238888889 L1124.97404,0.238888889 L1124.97404,284 L0,284"></path>
    </defs>
    <g id="Welcome" stroke="none" stroke-width="1" fill="none" fill-rule="evenodd" sketch:type="MSPage">
        <g id="Zum-Zum---HD" sketch:type="MSArtboardGroup" transform="translate(-158.000000, -1734.000000)">
            <g id="Logo" sketch:type="MSLayerGroup" transform="translate(158.000000, 1734.000000)">
                <path d="M154.664712,168.454556 C140.812788,182.587 125.936827,197.525444 111.060865,212.420556 C110.290673,213.706111 111.831058,216.161667 113.111827,214.624778 L135.681058,199.799 C154.15125,204.164111 167.489712,219.408778 167.489712,240.728778 C167.489712,261.020333 149.019519,282.169889 126.707019,282.169889 L41.5531731,282.169889 C18.9810577,282.169889 0.000288461539,263.371889 0.000288461539,240.766333 C0.000288461539,227.919444 6.15317308,217.106333 14.6195192,209.401667 L55.4022115,167.648556 C56.9397115,166.363 54.88875,163.979667 53.3483654,164.751 L32.3166346,179.617222 C14.1060577,175.246333 0.510865385,158.459 0.510865385,138.678778 C0.510865385,116.333222 18.9810577,97.229 41.5531731,97.229 L125.936827,97.229 C165.949327,97.229 178.771442,144.312111 154.664712,168.454556" id="Fill-1" fill="#EE3931" sketch:type="MSShapeGroup"></path>
                <path d="M456.015,249.961378 C444.219808,249.961378 432.418846,238.917156 421.390962,226.327378 L413.440962,216.565822 C412.414038,215.543156 410.619808,216.308711 411.643846,217.597156 L436.523654,251.758267 C434.215962,272.569822 416.963077,282.5856 397.212115,282.5856 C376.947692,282.5856 357.133269,264.348044 357.133269,242.253822 L357.133269,141.050267 C357.133269,103.5496 405.162115,85.5633778 429.528462,116.390711 L456.237115,150.808933 L483.865962,116.390711 C508.235192,85.5633778 556.379423,103.5496 556.379423,141.050267 L556.379423,242.253822 C556.379423,264.348044 536.464038,282.5856 516.199615,282.5856 C496.194808,282.5856 479.184231,272.569822 476.876538,251.758267 L501.713077,217.597156 C502.483269,216.565822 500.922692,215.543156 499.898654,216.565822 L491.420769,226.327378 C480.649615,239.174267 468.069808,250.218489 456.015,249.961378" id="Fill-3" fill="#EE3931" sketch:type="MSShapeGroup"></path>
                <path d="M724.355769,170.069444 C710.506731,184.193222 695.627885,198.906333 680.751923,213.807222 C679.981731,215.089889 681.522115,217.435667 682.802885,215.895889 L705.375,201.015222 C723.845192,205.380333 737.180769,219.827667 737.180769,241.147667 C737.180769,261.445 718.713462,281.797222 696.398077,281.797222 L611.244231,281.797222 C588.672115,281.797222 569.691346,263.761889 569.691346,241.159222 C569.691346,228.315222 575.85,217.883444 584.310577,210.178778 L625.096154,168.616333 C626.633654,167.333667 624.579808,165.045667 623.042308,165.817 L602.010577,180.729444 C583.8,176.361444 570.204808,160.042111 570.204808,140.264778 C570.204808,117.913444 588.672115,99.2887778 611.244231,99.2887778 L695.627885,99.2887778 C735.640385,99.2887778 748.468269,145.921222 724.355769,170.069444" id="Fill-5" fill="#0099D6" sketch:type="MSShapeGroup"></path>
                <path d="M743.489135,196.4086 L743.489135,141.178822 C743.489135,118.579044 762.351635,99.8272667 785.180481,99.8272667 C807.752596,99.8272667 826.101635,118.579044 826.101635,141.178822 L826.101635,191.529267 C826.101635,194.611711 828.844904,197.948378 832.179519,197.948378 C835.257404,197.948378 838.251635,194.611711 838.251635,191.529267 L838.251635,141.178822 C838.251635,118.579044 855.902596,99.8272667 878.728558,99.8272667 C900.533365,99.8272667 918.438173,118.579044 918.438173,141.178822 L918.438173,196.4086 C918.438173,244.185044 878.670865,283.999711 830.962212,283.999711 C782.999712,283.999711 743.489135,244.185044 743.489135,196.4086" id="Fill-7" fill="#0099D6" sketch:type="MSShapeGroup"></path>
                <g id="Group-11">
                    <mask id="mask-2" sketch:name="Clip 10" fill="white">
                        <use xlink:href="#path-1"></use>
                    </mask>
                    <g id="Clip-10"></g>
                    <path d="M1025.7075,251.119533 C1013.90942,251.119533 1002.11423,240.075311 991.083462,227.4942 L983.130577,217.729756 C982.106538,216.701311 980.312308,217.472644 981.336346,218.755311 L1006.21615,252.9222 C1003.90558,273.727978 987.319038,283.746644 967.570962,283.746644 C947.309423,283.746644 928.158462,265.5062 928.158462,243.417756 L928.158462,142.208422 C928.158462,104.704867 975.523846,86.7215333 999.890192,117.554644 L1026.26423,151.972867 L1053.17481,117.554644 C1077.54692,86.7215333 1124.97577,104.704867 1124.97577,142.208422 L1124.97577,243.417756 C1124.97577,265.5062 1105.60846,283.746644 1085.34692,283.746644 C1065.33923,283.746644 1048.60269,273.727978 1046.29212,252.9222 L1071.27,218.755311 C1072.03731,217.729756 1070.54596,216.701311 1069.52192,217.729756 L1061.07865,227.4942 C1050.31038,240.332422 1037.76231,251.379533 1025.7075,251.119533" id="Fill-9" fill="#0099D6" sketch:type="MSShapeGroup" mask="url(#mask-2)"></path>
                </g>
                <path d="M400.180096,70.7066889 C397.110865,70.4553556 394.30125,71.7033556 392.362788,73.7891333 C382.967596,65.7638 361.941635,51.9664667 341.397404,67.9015778 C341.397404,67.9015778 324.231058,39.5586889 339.055096,18.8049111 C340.52625,20.0644667 342.415673,20.9109111 344.507019,21.0842444 C349.791635,21.5118 354.470481,17.5655778 354.903173,12.2355778 C355.33875,6.91135556 351.360865,2.26602222 346.070481,1.83557778 C340.75125,1.40513333 336.115673,5.34557778 335.682981,10.6726889 C335.593558,11.7704667 335.706058,12.7902444 335.971442,13.7869111 C321.805096,17.9324667 297.049327,29.0720222 291.184904,57.3715778 C291.184904,57.3715778 271.586827,26.4315778 237.095481,42.6498 C235.595481,39.7811333 232.774327,37.7184667 229.295481,37.4324667 C224.005096,37.0020222 219.340673,40.9453556 218.907981,46.2695778 C218.475288,51.5764667 222.441635,56.2506889 227.729135,56.6840222 C233.05125,57.1173556 237.689712,53.1422444 238.119519,47.8353556 C238.145481,47.5233556 237.712788,47.2373556 237.732981,46.9571333 C249.144519,48.7684667 267.228173,60.4366889 267.228173,114.947133 L267.228173,122.152022 L267.228173,122.877133 L267.228173,190.3818 C267.228173,193.464244 265.442596,196.800911 262.367596,196.800911 C259.030096,196.800911 257.507019,193.464244 257.507019,190.3818 L257.507019,140.031356 C257.507019,117.431578 239.155096,98.6769111 216.585865,98.6769111 C193.757019,98.6769111 174.891635,117.431578 174.891635,140.031356 L174.891635,195.261133 C174.891635,243.034689 214.402212,282.855133 262.367596,282.855133 C310.073365,282.855133 349.840673,243.034689 349.840673,195.261133 L349.840673,138.170911 C349.840673,138.104467 349.514712,80.0782444 389.809904,80.0782444 C389.645481,85.1742444 393.479135,89.5595778 398.616635,89.9784667 C403.935865,90.4118 408.603173,86.4684667 409.032981,81.1413556 C409.465673,75.8171333 405.496442,71.1371333 400.180096,70.7066889" id="Fill-12" fill="#EE3931" sketch:type="MSShapeGroup"></path>
                <path d="M410.876827,80.6407111 C410.876827,86.4560444 406.172019,91.1649333 400.365288,91.1649333 C394.561442,91.1649333 389.85375,86.4560444 389.85375,80.6407111 C389.85375,74.8282667 394.561442,70.1164889 400.365288,70.1164889 C406.172019,70.1164889 410.876827,74.8282667 410.876827,80.6407111" id="Fill-14" fill="#0099D6" sketch:type="MSShapeGroup"></path>
                <path d="M238.184712,47.2650889 C238.184712,53.0775333 233.479904,57.7922 227.673173,57.7922 C221.869327,57.7922 217.161635,53.0775333 217.161635,47.2650889 C217.161635,41.4497556 221.869327,36.7350889 227.673173,36.7350889 C233.479904,36.7350889 238.184712,41.4497556 238.184712,47.2650889" id="Fill-16" fill="#0099D6" sketch:type="MSShapeGroup"></path>
                <path d="M356.364519,10.7639778 C356.364519,16.5793111 351.656827,21.2939778 345.852981,21.2939778 C340.04625,21.2939778 335.341442,16.5793111 335.341442,10.7639778 C335.341442,4.95442222 340.04625,0.239755556 345.852981,0.239755556 C351.656827,0.239755556 356.364519,4.95442222 356.364519,10.7639778" id="Fill-18" fill="#0099D6" sketch:type="MSShapeGroup"></path>
            </g>
        </g>
    </g>
</svg>