<?xml version="1.0" encoding="UTF-8" standalone="no"?>
<svg width="244px" height="244px" viewBox="0 0 244 244" version="1.1" xmlns="http://www.w3.org/2000/svg" xmlns:xlink="http://www.w3.org/1999/xlink" xmlns:sketch="http://www.bohemiancoding.com/sketch/ns">
    <!-- Generator: Sketch 3.4.4 (17249) - http://www.bohemiancoding.com/sketch -->
    <title>Mas</title>
    <desc>Created with Sketch.</desc>
    <defs></defs>
    <g id="Welcome" stroke="none" stroke-width="1" fill="none" fill-rule="evenodd" sketch:type="MSPage">
        <g id="Artboard-38" sketch:type="MSArtboardGroup" transform="translate(-872.000000, -608.000000)">
            <g id="Page-1" sketch:type="MSLayerGroup" transform="translate(80.000000, 125.000000)">
                <g id="Mas" transform="translate(792.000000, 483.000000)" sketch:type="MSShapeGroup">
                    <path d="M206.366686,243.122702 L38.0966478,243.122702 C17.5717398,243.122702 0.778633134,226.329596 0.778633134,205.804688 L0.778633134,37.5346494 C0.778633134,17.0097413 17.5717398,0.216634651 38.0966478,0.216634651 L206.366686,0.216634651 C226.891594,0.216634651 243.684701,17.0097413 243.684701,37.5346494 L243.684701,205.804688 C243.684701,226.329596 226.891594,243.122702 206.366686,243.122702" id="Fill-86" fill="#EE3931"></path>
                    <path d="M91.4688725,113.976249 C88.7975246,113.976249 86.2692291,113.817647 83.8715466,113.494224 C81.4800839,113.170802 79.3405177,112.436881 77.455958,111.283132 C75.5651785,110.135603 74.0693481,108.474951 72.9653568,106.313616 C71.8613656,104.152281 71.3109249,101.182389 71.3109249,97.4070502 C71.3109249,93.3580456 71.8613656,90.1797947 72.9653568,87.8785171 C74.0693481,85.5803494 75.5434097,83.87616 77.3844318,82.7690589 C79.2254538,81.6650676 81.3432511,80.9746844 83.7378238,80.7010189 C86.1292865,80.4211338 88.6171542,80.2843011 91.195207,80.2843011 L104.722987,80.2843011 L104.722987,66.7534109 C104.722987,64.4521334 104.86293,62.1042083 105.139705,59.7096357 C105.41648,57.3181729 106.106864,55.1786067 107.210855,53.2878273 C108.314846,51.4032676 110.015926,49.8607896 112.320313,48.6635033 C114.618481,47.4693268 117.793622,46.8691288 121.845736,46.8691288 C125.527781,46.8691288 128.475904,47.4693268 130.683886,48.6635033 C132.894979,49.8607896 134.571179,51.4032676 135.721818,53.2878273 C136.875567,55.1786067 137.609488,57.3181729 137.932911,59.7096357 C138.253224,62.1042083 138.414935,64.4521334 138.414935,66.7534109 L138.414935,80.2843011 L152.2226,80.2843011 C154.523878,80.2843011 156.871803,80.4211338 159.266376,80.7010189 C161.660948,80.9746844 163.797405,81.6650676 165.688184,82.7690589 C167.572744,83.87616 169.118332,85.5803494 170.312508,87.8785171 C171.509794,90.1797947 172.109992,93.3580456 172.109992,97.4070502 C172.109992,101.182389 171.509794,104.152281 170.312508,106.313616 C169.118332,108.474951 167.572744,110.135603 165.688184,111.283132 C163.797405,112.436881 161.660948,113.170802 159.266376,113.494224 C156.871803,113.817647 154.523878,113.976249 152.2226,113.976249 L138.414935,113.976249 L138.414935,127.783914 C138.414935,130.361967 138.253224,132.849835 137.932911,135.241297 C137.609488,137.63587 136.875567,139.753667 135.721818,141.59158 C134.571179,143.435711 132.894979,144.906663 130.683886,146.010655 C128.475904,147.114646 125.527781,147.668196 121.845736,147.668196 C117.793622,147.668196 114.618481,147.114646 112.320313,146.010655 C110.015926,144.906663 108.314846,143.435711 107.210855,141.59158 C106.106864,139.753667 105.41648,137.63587 105.139705,135.241297 C104.86293,132.849835 104.722987,130.361967 104.722987,127.783914 L104.722987,113.976249 L94.2304056,113.976249 L91.4688725,113.976249 Z" id="Fill-88" fill="#FFFFFF"></path>
                    <path d="M99.4717207,204.403707 C99.0301242,204.403707 98.6507244,204.319741 98.3397409,204.15181 C98.0287575,203.983879 97.755092,203.772411 97.5280741,203.511185 C97.2979464,203.253068 97.1051366,202.960744 96.9434252,202.643541 C96.7848237,202.320118 96.6511008,202.006025 96.5453664,201.704371 L92.1978177,189.165518 L91.6007295,189.165518 L91.6007295,208.247463 C91.6007295,208.735707 91.5696311,209.192852 91.5105443,209.622009 C91.4483476,210.044947 91.3146247,210.427457 91.1093756,210.753989 C90.9041265,211.080522 90.5962529,211.338638 90.1950842,211.531448 C89.7908057,211.724258 89.2372552,211.817553 88.5344326,211.817553 C87.7414248,211.817553 87.116348,211.724258 86.6592023,211.531448 C86.2020567,211.338638 85.8599749,211.080522 85.6298471,210.753989 C85.4028292,210.427457 85.256667,210.044947 85.1944703,209.622009 C85.1353834,209.192852 85.1042851,208.735707 85.1042851,208.247463 L85.1042851,185.001449 C85.1042851,184.345274 85.1229441,183.704648 85.1602621,183.079571 C85.1975801,182.451385 85.3250833,181.897834 85.5396619,181.40648 C85.7511307,180.918236 86.0901026,180.526397 86.5565778,180.230963 C87.023053,179.932419 87.6792281,179.783147 88.5344326,179.783147 L91.647377,179.783147 C92.1667193,179.783147 92.605206,179.804916 92.962837,179.842234 C93.320468,179.879552 93.6532203,180.007055 93.9579841,180.230963 C94.2627478,180.451761 94.5644018,180.806282 94.8629459,181.294526 C95.1583802,181.78277 95.4880227,182.473154 95.8456536,183.362566 C96.2032846,184.255089 96.6200024,185.393288 97.0926973,186.774055 C97.5653921,188.154821 98.1469312,189.849681 98.8310948,191.864854 L99.4250732,193.696547 L99.9755139,193.696547 L100.706325,191.407708 C101.334512,189.485831 101.866293,187.862497 102.311,186.534598 C102.752596,185.206698 103.141326,184.115146 103.477188,183.250612 C103.81305,182.389188 104.114704,181.723684 104.382149,181.260318 C104.646485,180.793843 104.92948,180.451761 105.228024,180.230963 C105.523459,180.007055 105.846882,179.879552 106.201403,179.842234 C106.549704,179.804916 106.978861,179.783147 107.479545,179.783147 L110.819507,179.783147 C111.674712,179.783147 112.333996,179.932419 112.800472,180.230963 C113.266947,180.526397 113.602809,180.918236 113.817388,181.40648 C114.031966,181.897834 114.159469,182.451385 114.196787,183.079571 C114.234105,183.704648 114.252764,184.345274 114.252764,185.001449 L114.252764,208.247463 C114.252764,208.735707 114.221666,209.192852 114.162579,209.622009 C114.100382,210.044947 113.95733,210.427457 113.727202,210.753989 C113.497075,211.080522 113.154993,211.338638 112.697847,211.531448 C112.240701,211.724258 111.615625,211.817553 110.819507,211.817553 C110.119794,211.817553 109.566244,211.724258 109.161965,211.531448 C108.757687,211.338638 108.452923,211.080522 108.247674,210.753989 C108.042425,210.427457 107.905592,210.044947 107.846505,209.622009 C107.784309,209.192852 107.75632,208.735707 107.75632,208.247463 L107.75632,189.165518 L107.115694,189.165518 L102.811683,201.704371 C102.690399,202.006025 102.553567,202.320118 102.401185,202.643541 C102.248803,202.960744 102.059103,203.253068 101.828975,203.511185 C101.601957,203.772411 101.334512,203.983879 101.026638,204.15181 C100.721874,204.319741 100.358024,204.403707 99.9288664,204.403707 L99.4717207,204.403707 Z" id="Fill-90" fill="#FFFFFF"></path>
                    <path d="M127.021434,197.995582 L134.298447,197.995582 L130.908727,185.733504 L130.408044,185.733504 L127.021434,197.995582 Z M141.39198,200.240882 C141.419968,201.276457 141.460396,202.336911 141.503934,203.419133 C141.550581,204.504466 141.57235,205.54937 141.57235,206.553847 L141.57235,207.24112 C141.57235,207.819549 141.553691,208.382429 141.516373,208.923541 C141.475945,209.464652 141.357771,209.952896 141.161852,210.385163 C140.962822,210.82054 140.648729,211.168841 140.222682,211.426957 C139.796634,211.685074 139.193327,211.815687 138.415868,211.815687 C137.62286,211.815687 137.010223,211.685074 136.584175,211.426957 C136.158128,211.168841 135.840925,210.826759 135.635676,210.397602 C135.430427,209.971555 135.309143,209.483311 135.268715,208.93598 C135.231397,208.385539 135.212738,207.819549 135.212738,207.24112 L135.212738,204.034881 L126.060495,204.034881 L126.060495,207.24112 C126.060495,207.819549 126.041836,208.385539 126.001408,208.93598 C125.96409,209.483311 125.842807,209.971555 125.637558,210.397602 C125.432309,210.826759 125.115106,211.168841 124.689058,211.426957 C124.259901,211.685074 123.650373,211.815687 122.857366,211.815687 C122.064358,211.815687 121.45172,211.685074 121.025673,211.426957 C120.599626,211.168841 120.285532,210.82054 120.089613,210.385163 C119.890583,209.952896 119.77552,209.464652 119.744421,208.923541 C119.713323,208.382429 119.700884,207.819549 119.700884,207.24112 L119.700884,206.553847 C119.700884,206.084262 119.700884,205.577359 119.710213,205.045577 C119.719543,204.510685 119.728872,203.969574 119.744421,203.419133 C119.75997,202.868693 119.77552,202.327581 119.791069,201.78336 C119.806618,201.242249 119.822167,200.729127 119.834606,200.240882 C120.599626,197.585084 121.398853,194.898187 122.238509,192.173972 C123.078164,189.449757 123.877391,186.75664 124.642411,184.085292 C124.794793,183.522412 124.978273,182.975081 125.189742,182.449519 C125.40432,181.923957 125.687315,181.466811 126.038726,181.078082 C126.387028,180.689353 126.837954,180.375259 127.388395,180.138912 C127.935725,179.902564 128.638548,179.784391 129.490643,179.784391 L131.779481,179.784391 C132.619136,179.784391 133.315739,179.902564 133.875509,180.138912 C134.42906,180.375259 134.883096,180.689353 135.234507,181.078082 C135.585918,181.466811 135.865804,181.923957 136.071053,182.449519 C136.276302,182.975081 136.462892,183.522412 136.630823,184.085292 L141.39198,200.240882 Z" id="Fill-92" fill="#FFFFFF"></path>
                    <path d="M152.372494,187.836996 C152.388044,188.477622 152.574634,189.056052 152.932265,189.566064 C153.289896,190.076077 153.7657,190.561211 154.353459,191.018357 C154.938108,191.475503 155.606722,191.920209 156.353083,192.355586 C157.102553,192.790963 157.867572,193.248109 158.65436,193.730133 C159.438039,194.212157 160.206168,194.734609 160.952528,195.29438 C161.701998,195.86037 162.370613,196.500995 162.967701,197.219367 C163.561679,197.934629 164.040594,198.746296 164.407554,199.645038 C164.774515,200.54378 164.973544,201.566916 165.004642,202.708225 L165.004642,202.894815 C165.004642,204.144969 164.849151,205.236521 164.544387,206.166361 C164.239623,207.096202 163.835345,207.895429 163.331551,208.567154 C162.827758,209.238878 162.239999,209.792428 161.571385,210.224695 C160.899661,210.663182 160.193728,211.008374 159.453588,211.26649 C158.713447,211.527716 157.967087,211.711196 157.211397,211.816931 C156.455707,211.922665 155.743555,211.984862 155.071831,212.000411 L154.844813,212.000411 C153.548012,212.000411 152.409812,211.872908 151.433324,211.611682 C150.456836,211.353565 149.620291,211.005264 148.917468,210.569887 C148.217755,210.13451 147.633107,209.636937 147.166631,209.070947 C146.703266,208.504957 146.333196,207.923418 146.05642,207.32322 C145.782755,206.716802 145.583726,206.119714 145.462442,205.522626 C145.341159,204.928647 145.278962,204.371987 145.278962,203.852644 C145.278962,203.320863 145.372257,202.854387 145.555737,202.459438 C145.736107,202.06138 145.978675,201.737957 146.274109,201.48606 C146.572653,201.234164 146.914735,201.047574 147.306574,200.92629 C147.695303,200.805006 148.099582,200.7397 148.528739,200.7397 C148.926798,200.7397 149.331076,200.805006 149.754014,200.92629 C150.170732,201.047574 150.553241,201.234164 150.895323,201.48606 C151.240515,201.737957 151.52351,202.05827 151.744308,202.446999 C151.965106,202.835728 152.08328,203.289764 152.098829,203.809107 C152.126818,204.953526 152.388044,205.734094 152.876288,206.153922 C153.364532,206.57375 154.064244,206.782109 154.981646,206.782109 C155.438791,206.769669 155.861729,206.710582 156.250458,206.611068 C156.639187,206.511553 156.97194,206.337402 157.245605,206.085506 C157.519271,205.833609 157.740069,205.497747 157.89867,205.077919 C158.060382,204.658091 158.138128,204.12942 158.138128,203.488794 C158.138128,202.692676 157.957757,201.977414 157.600126,201.336788 C157.242495,200.696162 156.77291,200.102184 156.194481,199.554853 C155.612942,199.004412 154.950547,198.48196 154.204187,197.987496 C153.454717,197.489923 152.692807,196.992349 151.915349,196.497886 C151.13789,196.003422 150.37909,195.48408 149.63895,194.942968 C148.898809,194.398747 148.230195,193.810989 147.636216,193.170363 C147.042238,192.529737 146.563323,191.817585 146.205693,191.040126 C145.848062,190.262667 145.661471,189.379474 145.645922,188.387437 L145.645922,188.023586 C145.661471,186.387813 145.87916,185.031926 146.298988,183.946593 C146.718815,182.864371 147.334562,182.002947 148.152449,181.362321 C148.967226,180.721695 149.971702,180.267659 151.159659,180.000213 C152.350726,179.735877 153.715943,179.602154 155.255311,179.602154 L155.852399,179.602154 C157.254935,179.602154 158.442891,179.751427 159.41938,180.0593 C160.395868,180.364064 161.207534,180.752793 161.85749,181.225488 C162.504335,181.698183 163.014348,182.229965 163.387528,182.827053 C163.763818,183.421031 164.040594,184.0119 164.224074,184.587219 C164.407554,185.168758 164.522618,185.70987 164.566156,186.213663 C164.615913,186.717456 164.637682,187.121734 164.637682,187.426498 C164.637682,187.883644 164.550607,188.297252 164.373346,188.673542 C164.199195,189.046722 163.962848,189.363925 163.664304,189.622041 C163.36576,189.880158 163.014348,190.085407 162.61007,190.231569 C162.208901,190.371512 161.767305,190.446148 161.29772,190.446148 C160.930759,190.446148 160.563799,190.371512 160.196838,190.231569 C159.829878,190.085407 159.503345,189.895707 159.21413,189.668689 C158.924916,189.441671 158.688568,189.177335 158.505088,188.878791 C158.321608,188.580247 158.231423,188.281703 158.231423,187.973829 C158.231423,186.726785 158.004405,185.852922 157.556589,185.367788 C157.105663,184.879544 156.446378,184.633867 155.575624,184.633867 C155.162016,184.633867 154.763957,184.658745 154.375228,184.702283 C153.986499,184.748931 153.641307,184.876434 153.345873,185.078573 C153.047329,185.286932 152.810981,185.604135 152.633721,186.030182 C152.45957,186.45934 152.372494,187.059538 152.372494,187.836996" id="Fill-94" fill="#FFFFFF"></path>
                </g>
            </g>
        </g>
    </g>
</svg>