<?xml version="1.0" encoding="UTF-8" standalone="no"?>
<svg width="244px" height="243px" viewBox="0 0 244 243" version="1.1" xmlns="http://www.w3.org/2000/svg" xmlns:xlink="http://www.w3.org/1999/xlink" xmlns:sketch="http://www.bohemiancoding.com/sketch/ns">
    <!-- Generator: Sketch 3.4.4 (17249) - http://www.bohemiancoding.com/sketch -->
    <title>Soy</title>
    <desc>Created with Sketch.</desc>
    <defs></defs>
    <g id="Welcome" stroke="none" stroke-width="1" fill="none" fill-rule="evenodd" sketch:type="MSPage">
        <g id="Artboard-38" sketch:type="MSArtboardGroup" transform="translate(-375.000000, -126.000000)">
            <g id="Page-1" sketch:type="MSLayerGroup" transform="translate(80.000000, 125.000000)">
                <g id="Soy" transform="translate(294.306051, 1.000000)" sketch:type="MSShapeGroup">
                    <path d="M206.52666,242.915708 L38.2566222,242.915708 C17.7317141,242.915708 0.938607445,226.122601 0.938607445,205.597693 L0.938607445,37.3276552 C0.938607445,16.8027471 17.7317141,0.00964048713 38.2566222,0.00964048713 L206.52666,0.00964048713 C227.051568,0.00964048713 243.844675,16.8027471 243.844675,37.3276552 L243.844675,205.597693 C243.844675,226.122601 227.051568,242.915708 206.52666,242.915708" id="Fill-76" fill="#EE3931"></path>
                    <path d="M158.044651,110.148474 C148.108729,120.084396 135.056753,125.053911 122.004778,125.053911 C108.955912,125.053911 95.9039364,120.084396 85.9680149,110.148474 C84.4162075,108.596667 84.4162075,106.077701 85.9680149,104.525893 C87.5229322,102.970976 90.0387884,102.970976 91.5937057,104.525893 C108.361934,121.294121 135.650732,121.294121 152.42207,104.525893 C153.973877,102.970976 156.492843,102.970976 158.044651,104.525893 C159.596458,106.077701 159.596458,108.596667 158.044651,110.148474 M93.3476523,73.1383331 C94.1686487,72.2675794 95.4343513,71.8322026 97.1540898,71.8322026 C98.8924874,71.8322026 100.15508,72.2675794 100.941868,73.1383331 C101.731766,74.0059769 102.123605,75.2499108 102.123605,76.8670247 C102.123605,78.5432256 101.731766,79.793379 100.941868,80.6112655 C100.15508,81.429152 98.8924874,81.8396502 97.1540898,81.8396502 C95.4343513,81.8396502 94.1686487,81.4011635 93.3476523,80.5335197 C92.5297659,79.662766 92.1223775,78.440601 92.1223775,76.8670247 C92.1223775,75.2499108 92.5297659,74.0059769 93.3476523,73.1383331 M143.885574,73.0761364 C144.70346,72.2053827 145.972273,71.7731157 147.688901,71.7731157 C149.427299,71.7731157 150.689892,72.2053827 151.47979,73.0761364 C152.266578,73.9468901 152.661527,75.1908239 152.661527,76.804828 C152.661527,78.4810289 152.266578,79.7311824 151.47979,80.5490688 C150.689892,81.3669553 149.427299,81.7774535 147.688901,81.7774535 C145.972273,81.7774535 144.70346,81.3420767 143.885574,80.4744328 C143.064577,79.6036791 142.657189,78.3815142 142.657189,76.804828 C142.657189,75.1908239 143.064577,73.9468901 143.885574,73.0761364 M122.34375,26.0834264 C86.7392539,26.0834264 57.8737695,54.9458009 57.8737695,90.5534066 C57.8737695,126.157902 86.7392539,155.020277 122.34375,155.020277 C157.948246,155.020277 186.81062,126.157902 186.81062,90.5534066 C186.81062,54.9458009 157.948246,26.0834264 122.34375,26.0834264" id="Fill-78" fill="#FFFFFF"></path>
                    <path d="M96.9084129,198.654988 C96.9239621,199.295614 97.1105522,199.874043 97.4681831,200.384056 C97.8258141,200.894069 98.3016188,201.379203 98.8893775,201.836348 C99.4740264,202.293494 100.142641,202.7382 100.889001,203.173577 C101.638471,203.608954 102.403491,204.0661 103.190279,204.548124 C103.973957,205.030149 104.742086,205.552601 105.488446,206.112371 C106.237917,206.678361 106.906531,207.318987 107.503619,208.037359 C108.097598,208.75262 108.576512,209.564287 108.943473,210.46303 C109.310433,211.361772 109.509463,212.384907 109.540561,213.526217 L109.540561,213.712807 C109.540561,214.96296 109.385069,216.054512 109.080305,216.984353 C108.775542,217.914193 108.371263,218.713421 107.86747,219.385145 C107.363677,220.056869 106.775918,220.61042 106.107304,221.042687 C105.435579,221.481173 104.729647,221.826365 103.989506,222.084481 C103.249366,222.345707 102.503005,222.529188 101.747315,222.634922 C100.991626,222.740656 100.279474,222.802853 99.6077493,222.818402 L99.3807314,222.818402 C98.0839304,222.818402 96.9457309,222.690899 95.9692429,222.429673 C94.9927548,222.171557 94.1562093,221.823255 93.4533867,221.387878 C92.7536739,220.952501 92.169025,220.454928 91.7025499,219.888938 C91.2391845,219.322948 90.8691142,218.741409 90.5923389,218.141211 C90.3186735,217.534793 90.1196441,216.937705 89.9983605,216.340617 C89.877077,215.746638 89.8148803,215.189978 89.8148803,214.670636 C89.8148803,214.138854 89.9081753,213.672379 90.0916556,213.27743 C90.272026,212.879371 90.5145931,212.555948 90.8100273,212.304052 C91.1085715,212.052155 91.4506533,211.865565 91.8424924,211.744281 C92.2312217,211.622998 92.6355002,211.557691 93.0646574,211.557691 C93.4627162,211.557691 93.8669947,211.622998 94.2899322,211.744281 C94.70665,211.865565 95.0891597,212.052155 95.4312415,212.304052 C95.7764331,212.555948 96.0594281,212.876261 96.2802263,213.26499 C96.5010246,213.65372 96.6191983,214.107756 96.6347475,214.627098 C96.662736,215.771517 96.9239621,216.552086 97.4122061,216.971913 C97.9004501,217.391741 98.6001629,217.6001 99.5175641,217.6001 C99.9747098,217.58766 100.397647,217.528574 100.786377,217.429059 C101.175106,217.329544 101.507858,217.155393 101.781524,216.903497 C102.055189,216.6516 102.275987,216.315738 102.434589,215.89591 C102.5963,215.476083 102.674046,214.947411 102.674046,214.306785 C102.674046,213.510667 102.493676,212.795405 102.136045,212.15478 C101.778414,211.514154 101.308829,210.920175 100.7304,210.372844 C100.148861,209.822404 99.4864658,209.299951 98.7401055,208.805488 C97.9906353,208.307914 97.2287259,207.810341 96.4512672,207.315877 C95.6738086,206.821413 94.915009,206.302071 94.1748683,205.76096 C93.4347277,205.216739 92.7661133,204.62898 92.1721349,203.988354 C91.5781565,203.347728 91.099242,202.635576 90.741611,201.858117 C90.38398,201.080659 90.1973899,200.197466 90.1818408,199.205428 L90.1818408,198.841578 C90.1973899,197.205805 90.4150784,195.849917 90.834906,194.764585 C91.2547337,193.682362 91.8704809,192.820938 92.6883674,192.180312 C93.5031441,191.539686 94.5076206,191.08565 95.6955774,190.818205 C96.8866441,190.553869 98.2518614,190.420146 99.7912295,190.420146 L100.388318,190.420146 C101.790853,190.420146 102.97881,190.569418 103.955298,190.877291 C104.931786,191.182055 105.743453,191.570785 106.393408,192.043479 C107.040254,192.516174 107.550267,193.047956 107.923447,193.645044 C108.299737,194.239023 108.576512,194.829891 108.759992,195.405211 C108.943473,195.98675 109.058537,196.527861 109.102074,197.031654 C109.151832,197.535447 109.1736,197.939726 109.1736,198.24449 C109.1736,198.701635 109.086525,199.115243 108.909264,199.491533 C108.735114,199.864713 108.498766,200.181916 108.200222,200.440033 C107.901678,200.698149 107.550267,200.903398 107.145988,201.04956 C106.74482,201.189503 106.303223,201.264139 105.833638,201.264139 C105.466678,201.264139 105.099717,201.189503 104.732757,201.04956 C104.365796,200.903398 104.039264,200.713698 103.750049,200.48668 C103.460834,200.259662 103.224487,199.995326 103.041007,199.696782 C102.857526,199.398238 102.767341,199.099694 102.767341,198.79182 C102.767341,197.544777 102.540323,196.670913 102.092507,196.185779 C101.641581,195.697535 100.982296,195.451858 100.111543,195.451858 C99.6979345,195.451858 99.2998757,195.476737 98.9111464,195.520274 C98.522417,195.566922 98.1772254,195.694425 97.8817911,195.896564 C97.583247,196.104923 97.3468996,196.422126 97.169639,196.848174 C96.9954883,197.277331 96.9084129,197.877529 96.9084129,198.654988" id="Fill-80" fill="#FFFFFF"></path>
                    <path d="M120.979154,214.213179 C121.010253,214.779169 121.137756,215.276742 121.367884,215.70279 C121.563803,216.085299 121.868567,216.427381 122.272846,216.732145 C122.674014,217.036909 123.249334,217.189291 123.998804,217.189291 C124.732725,217.189291 125.295605,217.036909 125.693664,216.732145 C126.088613,216.427381 126.387157,216.085299 126.583076,215.70279 C126.797655,215.276742 126.928268,214.779169 126.974915,214.213179 L126.974915,199.295303 C126.928268,198.744862 126.797655,198.250398 126.583076,197.811912 C126.387157,197.441841 126.088613,197.102869 125.693664,196.788776 C125.295605,196.477793 124.732725,196.322301 123.998804,196.322301 C123.249334,196.322301 122.674014,196.477793 122.272846,196.788776 C121.868567,197.102869 121.563803,197.441841 121.367884,197.811912 C121.137756,198.250398 121.010253,198.744862 120.979154,199.295303 L120.979154,214.213179 Z M113.381829,199.662263 C113.381829,198.200641 113.596407,196.950487 114.022454,195.921132 C114.448502,194.891777 114.995833,194.033463 115.658227,193.346189 C116.320622,192.658916 117.054543,192.120914 117.85688,191.732185 C118.656108,191.343456 119.433567,191.051131 120.189256,190.852102 C120.944946,190.656182 121.626,190.534899 122.235528,190.488251 C122.848165,190.441604 123.299091,190.419835 123.588306,190.419835 L124.365764,190.419835 C124.654979,190.419835 125.105905,190.441604 125.715432,190.488251 C126.32496,190.534899 127.002904,190.656182 127.752374,190.852102 C128.498734,191.051131 129.273083,191.343456 130.072311,191.732185 C130.874648,192.120914 131.599239,192.658916 132.249195,193.346189 C132.89604,194.033463 133.427822,194.891777 133.85076,195.921132 C134.267477,196.950487 134.478946,198.200641 134.478946,199.662263 L134.478946,213.345535 C134.478946,214.853805 134.267477,216.135057 133.85076,217.189291 C133.427822,218.240415 132.89604,219.117388 132.249195,219.820211 C131.599239,220.519923 130.874648,221.076584 130.072311,221.480862 C129.273083,221.885141 128.498734,222.183685 127.752374,222.382714 C127.002904,222.578634 126.32496,222.703027 125.715432,222.749675 C125.105905,222.796322 124.654979,222.818091 124.365764,222.818091 L123.588306,222.818091 C123.299091,222.818091 122.848165,222.796322 122.235528,222.749675 C121.626,222.703027 120.944946,222.578634 120.189256,222.382714 C119.433567,222.183685 118.656108,221.885141 117.85688,221.480862 C117.054543,221.076584 116.320622,220.519923 115.658227,219.820211 C114.995833,219.117388 114.448502,218.240415 114.022454,217.189291 C113.596407,216.135057 113.381829,214.853805 113.381829,213.345535 L113.381829,199.662263 Z" id="Fill-82" fill="#FFFFFF"></path>
                    <path d="M151.77709,217.462645 C151.77709,218.103271 151.745992,218.731458 151.683795,219.350315 C151.624708,219.969172 151.478546,220.519613 151.251528,221.010966 C151.0214,221.49921 150.676209,221.89105 150.222173,222.189594 C149.765027,222.485028 149.13684,222.6343 148.343833,222.6343 C147.535276,222.6343 146.903979,222.485028 146.446834,222.189594 C145.986578,221.89105 145.641386,221.49921 145.405039,221.010966 C145.168691,220.519613 145.019419,219.969172 144.957223,219.350315 C144.898136,218.731458 144.867038,218.103271 144.867038,217.462645 L144.867038,209.498359 L138.04717,197.326466 C137.68332,196.68584 137.328799,196.057654 136.996046,195.441907 C136.660184,194.82305 136.492253,194.204192 136.492253,193.576006 C136.492253,193.165508 136.610427,192.74879 136.846774,192.328962 C137.083122,191.909135 137.515389,191.517295 138.140465,191.150335 C138.824629,190.786484 139.468365,190.599894 140.062343,190.599894 C140.519489,190.599894 140.936207,190.705629 141.309387,190.910878 C141.682567,191.116127 142.021539,191.386682 142.326303,191.722544 C142.631066,192.058407 142.904732,192.434697 143.150409,192.854524 C143.392976,193.277462 143.613774,193.697289 143.812804,194.126447 L147.976872,202.868192 L148.710793,202.868192 L152.874862,194.126447 C153.073891,193.697289 153.294689,193.277462 153.537256,192.854524 C153.782933,192.434697 154.056599,192.058407 154.361362,191.722544 C154.666126,191.386682 155.008208,191.116127 155.381388,190.910878 C155.754568,190.705629 156.171286,190.599894 156.628432,190.599894 C156.948745,190.599894 157.259728,190.646542 157.564492,190.736727 C157.869256,190.833132 158.198898,190.966855 158.55031,191.150335 C159.144288,191.517295 159.567226,191.909135 159.819122,192.328962 C160.071019,192.74879 160.198522,193.165508 160.198522,193.576006 C160.198522,193.849671 160.074129,194.297488 159.831561,194.913235 C159.585885,195.532092 159.190936,196.337539 158.640495,197.326466 L151.77709,209.498359 L151.77709,217.462645 Z" id="Fill-84" fill="#FFFFFF"></path>
                </g>
            </g>
        </g>
    </g>
</svg>