<?xml version="1.0" encoding="UTF-8" standalone="no"?>
<svg width="1051px" height="548px" viewBox="0 0 1051 548" version="1.1" xmlns="http://www.w3.org/2000/svg" xmlns:xlink="http://www.w3.org/1999/xlink" xmlns:sketch="http://www.bohemiancoding.com/sketch/ns">
    <!-- Generator: Sketch 3.4.4 (17249) - http://www.bohemiancoding.com/sketch -->
    <title>Page 1</title>
    <desc>Created with Sketch.</desc>
    <defs>
        <path id="path-1" d="M0,0.431 L1050.188,0.431 L1050.188,548 L0,548"></path>
    </defs>
    <g id="Welcome" stroke="none" stroke-width="1" fill="none" fill-rule="evenodd" sketch:type="MSPage">
        <g id="Motion---HD" sketch:type="MSArtboardGroup" transform="translate(-194.000000, -1185.000000)">
            <g id="Page-1" sketch:type="MSLayerGroup" transform="translate(194.500000, 1185.000000)">
                <g id="Group-9" transform="translate(531.000000, 0.000000)" sketch:type="MSShapeGroup">
                    <path d="M244.6663,275.2851 C244.6203,275.2591 244.5733,275.2351 244.5293,275.2071 C244.5723,275.2361 244.6213,275.2581 244.6663,275.2851" id="Fill-1" fill="#DF8ABB"></path>
                    <path d="M339.7028,218.9847 L297.3698,272.5587 C294.7758,275.8417 290.8428,277.2717 287.0738,276.8577 C278.1668,276.9027 257.8868,276.8597 245.9138,275.6877 C245.5838,275.6557 245.2718,275.5677 244.9788,275.4437 C245.0678,275.4847 245.1458,275.5407 245.2398,275.5747 C261.5608,281.6157 325.6688,308.6527 360.8148,371.8037 C362.5058,374.8407 367.1188,373.6407 367.0788,370.1647 L366.6438,332.4357 C366.6128,329.7647 369.5738,328.1407 371.8098,329.6027 L407.4308,352.8947 C409.6958,354.3757 412.6858,352.6967 412.5968,349.9927 C411.8938,328.7587 395.0208,262.7387 339.7028,218.9847" id="Fill-3" fill="#DF8ABB"></path>
                    <path d="M287.0734,276.8575 C284.1754,276.5395 281.3734,275.1315 279.3514,272.6305 C271.3644,262.7515 263.1414,253.5095 254.7564,244.8375 C247.2494,257.6025 242.3544,267.7605 243.0794,272.9725 C243.2114,273.9215 243.7604,274.7215 244.5294,275.2065 C244.5734,275.2355 244.6204,275.2595 244.6664,275.2855 C244.7684,275.3425 244.8704,275.3975 244.9784,275.4435 C245.2714,275.5675 245.5834,275.6555 245.9134,275.6885 C257.8874,276.8595 278.1674,276.9025 287.0734,276.8575" id="Fill-5" fill="#4C0629"></path>
                    <path d="M279.3512,272.6304 C281.3732,275.1314 284.1752,276.5394 287.0732,276.8574 C290.8432,277.2714 294.7762,275.8414 297.3702,272.5584 L349.6212,205.3914 L365.9282,184.7544 C369.6792,180.0074 367.3402,174.5154 364.6522,169.0944 C346.9552,133.3914 233.2012,18.1854 19.1212,0.4844 C15.0922,0.1514 11.0922,1.3624 10.3312,4.8054 C10.3312,4.8054 1.3102,101.9414 1.3092,101.9454 C0.5472,109.4374 -1.3188,119.4884 8.6212,120.7804 C55.2312,126.8374 161.6282,148.5334 254.7562,244.8374 C263.1422,253.5094 271.3642,262.7514 279.3512,272.6304" id="Fill-7" fill="#ECB7DC"></path>
                </g>
                <path d="M1013.5267,449.234 C1012.0787,450.321 1010.6277,450.139 1008.8157,448.509 C991.7897,432.93 960.8127,440.356 964.9777,470.971 C968.2397,494.159 996.6797,528.214 1013.5267,545.425 C1015.5207,547.599 1017.5117,546.694 1017.6937,543.613 C1020.0497,519.882 1032.0037,493.616 1042.5117,477.492 C1063.7057,445.067 1036.7147,431.298 1013.5267,449.234" id="Fill-10" fill="#ECB7DC" sketch:type="MSShapeGroup"></path>
                <path d="M86.4574,209.1626 C87.5044,209.9486 88.5534,209.8166 89.8634,208.6386 C102.1754,197.3736 124.5734,202.7426 121.5614,224.8806 C119.2024,241.6466 98.6384,266.2706 86.4574,278.7156 C85.0154,280.2866 83.5754,279.6326 83.4444,277.4046 C81.7414,260.2456 73.0974,241.2536 65.4994,229.5946 C50.1744,206.1496 69.6914,196.1936 86.4574,209.1626" id="Fill-12" fill="#ECB7DC" sketch:type="MSShapeGroup"></path>
                <g id="Group-16">
                    <mask id="mask-2" sketch:name="Clip 15" fill="white">
                        <use xlink:href="#path-1"></use>
                    </mask>
                    <g id="Clip-15"></g>
                    <path d="M16.1917,117.0061 C15.7167,117.3771 15.2317,117.3261 14.6177,116.7951 C8.8447,111.7191 -1.4233,114.3951 0.1647,124.5641 C1.4037,132.2651 11.0987,143.4211 16.8227,149.0431 C17.5007,149.7541 18.1587,149.4391 18.1987,148.4121 C18.8277,140.4931 22.6367,131.6661 26.0307,126.2271 C32.8767,115.2891 23.7967,110.8801 16.1917,117.0061" id="Fill-14" fill="#ECB7DC" sketch:type="MSShapeGroup" mask="url(#mask-2)"></path>
                </g>
                <path d="M372.9598,214.4825 C373.7878,214.0365 374.4248,214.2255 374.8708,215.0515 L385.3288,234.3935 C385.7538,235.1795 386.4538,235.3885 387.2398,234.9635 L396.4558,229.9795 C397.2828,229.5335 397.9198,229.7235 398.3658,230.5495 L400.8688,235.1785 C401.3158,236.0045 401.1268,236.6415 400.2998,237.0885 L383.9748,245.9155 C383.1888,246.3395 382.4878,246.1315 382.0638,245.3465 L367.7628,218.8945 C367.3148,218.0685 367.5468,217.4095 368.3318,216.9855 L372.9598,214.4825 Z" id="Fill-17" fill="#ECB7DC" sketch:type="MSShapeGroup"></path>
                <path d="M410.3944,209.3868 C409.5434,207.2978 408.8144,206.3788 405.9434,207.5458 C403.0724,208.7148 403.1924,209.8838 404.0414,211.9718 L405.9724,216.7138 C406.3094,217.5398 406.9824,217.8238 407.8094,217.4878 L411.5504,215.9648 C412.4034,215.5668 412.6614,214.9548 412.3074,214.0838 L410.3944,209.3868 Z M425.3864,224.7848 C425.7764,225.7428 425.5534,226.4418 424.6834,226.7958 L419.8114,228.7798 C418.9854,229.1168 418.3294,228.8768 417.9744,228.0058 L416.4334,224.2198 C416.0794,223.3508 415.4674,223.0928 414.5974,223.4478 L410.8564,224.9698 C410.0294,225.3068 409.7284,225.9368 410.0824,226.8068 L411.6234,230.5928 C411.9774,231.4618 411.7194,232.0738 410.8484,232.4278 L405.9764,234.4118 C405.1504,234.7488 404.4584,234.4208 404.0694,233.4648 L396.5594,215.0188 C394.3284,209.5368 392.8244,203.3528 402.6124,199.3678 C412.4024,195.3828 415.6454,200.8578 417.8764,206.3398 L425.3864,224.7848 Z" id="Fill-19" fill="#ECB7DC" sketch:type="MSShapeGroup"></path>
                <path d="M430.9647,200.313 C430.7097,199.409 430.1297,199.084 429.2267,199.338 L422.8947,201.119 C422.0357,201.362 421.3987,201.004 421.1567,200.146 L419.7327,195.081 C419.4777,194.175 419.8477,193.583 420.7067,193.341 L443.8597,186.828 C444.7637,186.574 445.3437,186.898 445.5987,187.803 L447.0237,192.868 C447.2647,193.727 446.9527,194.352 446.0477,194.605 L439.7177,196.387 C438.8587,196.628 438.4877,197.221 438.7417,198.125 L444.6957,219.288 C444.9387,220.147 444.6257,220.771 443.7217,221.027 L438.6557,222.451 C437.7977,222.693 437.1597,222.335 436.9187,221.476 L430.9647,200.313 Z" id="Fill-21" fill="#ECB7DC" sketch:type="MSShapeGroup"></path>
                <path d="M472.1776,181.7466 C473.1046,181.5916 473.6456,181.9776 473.7996,182.9046 L474.6666,188.0936 C474.8146,188.9736 474.4366,189.5606 473.5096,189.7146 L462.2966,191.5906 C461.4166,191.7376 460.9846,192.2856 461.1386,193.2126 L461.3866,194.6946 C461.5336,195.5756 462.1286,196.0006 463.0096,195.8526 L470.1916,194.6526 C471.1166,194.4966 471.6576,194.8836 471.8136,195.8096 L472.6806,200.9996 C472.8276,201.8796 472.4496,202.4666 471.5236,202.6216 L464.3416,203.8226 C463.4606,203.9686 463.0296,204.5176 463.1836,205.4436 L463.4316,206.9276 C463.5786,207.8076 464.1736,208.2316 465.0546,208.0846 L476.2666,206.2096 C477.1936,206.0556 477.7346,206.4406 477.8886,207.3686 L478.7566,212.5586 C478.9116,213.4836 478.5256,214.0246 477.5986,214.1806 L458.1386,217.4326 C457.2586,217.5806 456.6626,217.1556 456.5166,216.2756 L451.5596,186.6226 C451.4056,185.6946 451.8366,185.1456 452.7176,184.9996 L472.1776,181.7466 Z" id="Fill-23" fill="#ECB7DC" sketch:type="MSShapeGroup"></path>
                <path d="M487.0526,180.4009 C487.9896,180.3399 488.4896,180.7789 488.5486,181.7149 L489.9666,203.6509 C490.0256,204.5429 490.5736,205.0249 491.4636,204.9669 L501.9156,204.2919 C502.8546,204.2319 503.3526,204.6689 503.4136,205.6069 L503.7526,210.8569 C503.8136,211.7949 503.3746,212.2939 502.4376,212.3539 L483.9236,213.5509 C483.0316,213.6079 482.4836,213.1259 482.4256,212.2339 L480.4876,182.2359 C480.4266,181.2999 480.9116,180.7979 481.8026,180.7399 L487.0526,180.4009 Z" id="Fill-25" fill="#ECB7DC" sketch:type="MSShapeGroup"></path>
                <path d="M508.7166,179.5596 C509.5156,179.5776 510.0256,179.9166 510.2906,180.6736 L513.5786,189.4846 C513.7576,189.9116 514.0396,189.9166 514.2366,189.4976 L517.8996,180.8376 C518.1966,180.0916 518.7206,179.7736 519.5196,179.7906 L526.2366,179.9346 C527.3156,179.9586 527.7716,180.6256 527.2806,181.6026 L518.4706,200.2086 C518.3726,200.3936 518.3686,200.5816 518.3646,200.7706 L518.1406,211.2436 C518.1206,212.1356 517.6406,212.6426 516.7006,212.6226 L510.1256,212.4816 C509.2336,212.4626 508.7286,211.9346 508.7466,211.0416 L508.9716,200.5686 C508.9756,200.3806 508.9806,200.1936 508.8896,200.0026 L500.8386,181.0346 C500.3896,180.0386 500.8736,179.3916 501.9536,179.4146 L508.7166,179.5596 Z" id="Fill-27" fill="#ECB7DC" sketch:type="MSShapeGroup"></path>
                <path d="M555.784,193.3433 C555.966,192.4213 555.596,191.8693 554.674,191.6873 L548.221,190.4163 C547.345,190.2433 546.938,189.6373 547.11,188.7613 L548.128,183.5983 C548.309,182.6763 548.907,182.3153 549.783,182.4883 L573.383,187.1383 C574.305,187.3213 574.676,187.8723 574.493,188.7933 L573.476,193.9573 C573.304,194.8323 572.742,195.2483 571.82,195.0673 L565.367,193.7953 C564.492,193.6233 563.894,193.9833 563.713,194.9053 L559.462,216.4783 C559.289,217.3533 558.728,217.7693 557.806,217.5883 L552.644,216.5703 C551.768,216.3983 551.361,215.7903 551.534,214.9143 L555.784,193.3433 Z" id="Fill-29" fill="#ECB7DC" sketch:type="MSShapeGroup"></path>
                <path d="M586.8416,190.9918 C587.6926,191.2618 588.0286,191.9098 587.7586,192.7618 L584.2076,203.9538 C583.9386,204.8058 584.2756,205.4548 585.1256,205.7238 L589.4236,207.0878 C590.3206,207.3718 590.9236,207.0218 591.1936,206.1698 L594.7436,194.9758 C595.0136,194.1258 595.6616,193.7898 596.5136,194.0588 L601.5286,195.6498 C602.4236,195.9328 602.7296,196.5228 602.4456,197.4188 L593.3566,226.0768 C593.0866,226.9268 592.4836,227.2778 591.5876,226.9928 L586.5716,225.4028 C585.7216,225.1328 585.3846,224.4838 585.6546,223.6348 L587.8996,216.5588 C588.1836,215.6628 587.8776,215.0738 586.9816,214.7898 L582.6826,213.4268 C581.8316,213.1558 581.1966,213.4488 580.9136,214.3438 L578.6696,221.4188 C578.4006,222.2688 577.7956,222.6188 576.9006,222.3358 L571.8856,220.7448 C571.0346,220.4748 570.6976,219.8258 570.9686,218.9758 L580.0576,190.3188 C580.3416,189.4218 580.9306,189.1168 581.8256,189.4008 L586.8416,190.9918 Z" id="Fill-31" fill="#ECB7DC" sketch:type="MSShapeGroup"></path>
                <path d="M618.9402,215.2027 C619.8552,213.1427 620.0132,211.9787 617.1792,210.7207 C614.3452,209.4617 613.5872,210.3587 612.6712,212.4197 L610.5932,217.0987 C610.2312,217.9157 610.4942,218.5977 611.3102,218.9597 L615.0022,220.5987 C615.8802,220.9377 616.5002,220.6987 616.8812,219.8407 L618.9402,215.2027 Z M618.2422,236.6867 C617.8222,237.6317 617.1642,237.9557 616.3042,237.5757 L611.4972,235.4407 C610.6802,235.0777 610.3982,234.4377 610.7802,233.5797 L612.4392,229.8447 C612.8202,228.9857 612.5822,228.3657 611.7232,227.9837 L608.0302,226.3457 C607.2142,225.9827 606.5522,226.2027 606.1702,227.0607 L604.5112,230.7957 C604.1302,231.6557 603.5102,231.8927 602.6522,231.5127 L597.8432,229.3767 C597.0272,229.0137 596.7842,228.2897 597.2032,227.3457 L605.2872,209.1407 C607.6902,203.7307 611.1032,198.3577 620.7632,202.6487 C630.4232,206.9387 628.7272,213.0727 626.3262,218.4827 L618.2422,236.6867 Z" id="Fill-33" fill="#ECB7DC" sketch:type="MSShapeGroup"></path>
                <path d="M638.8348,223.2066 C639.3068,222.3936 639.1358,221.7506 638.3228,221.2806 L632.6328,217.9816 C631.8608,217.5336 631.6728,216.8276 632.1208,216.0546 L634.7598,211.5036 C635.2308,210.6896 635.9128,210.5426 636.6858,210.9916 L657.4948,223.0546 C658.3078,223.5246 658.4788,224.1666 658.0068,224.9796 L655.3678,229.5316 C654.9198,230.3046 654.2558,230.5156 653.4418,230.0446 L647.7528,226.7466 C646.9798,226.2976 646.2968,226.4456 645.8258,227.2586 L634.7998,246.2786 C634.3518,247.0516 633.6868,247.2636 632.8728,246.7916 L628.3208,244.1526 C627.5498,243.7056 627.3608,242.9986 627.8088,242.2266 L638.8348,223.2066 Z" id="Fill-35" fill="#ECB7DC" sketch:type="MSShapeGroup"></path>
                <path d="M681.5975,240.6324 C682.3355,241.2134 682.4145,241.8734 681.8345,242.6114 L663.2555,266.2544 C662.7045,266.9564 662.0155,267.0724 661.2775,266.4914 L657.2125,263.2984 C656.5115,262.7464 656.4245,262.0204 656.9765,261.3184 L675.5545,237.6764 C676.1355,236.9374 676.8315,236.8874 677.5345,237.4394 L681.5975,240.6324 Z" id="Fill-37" fill="#ECB7DC" sketch:type="MSShapeGroup"></path>
                <path d="M704.3443,229.1585 C651.1143,182.7505 581.5123,154.6435 505.3453,154.6435 C401.3163,154.6435 309.5323,207.0765 254.9813,286.9565" id="Stroke-39" stroke="#3D021D" stroke-width="6.555" stroke-linecap="round" stroke-linejoin="round" sketch:type="MSShapeGroup"></path>
                <path d="M384.1892,267.6787 C418.4532,245.4947 459.3032,232.6137 503.1612,232.6137" id="Stroke-41" stroke="#3D021D" stroke-width="6.555" stroke-linecap="round" stroke-linejoin="round" sketch:type="MSShapeGroup"></path>
                <path d="M631.2999,273.9489 C643.8869,283.0329 655.4709,293.4199 665.8549,304.9129" id="Stroke-43" stroke="#3D021D" stroke-width="6.555" stroke-linecap="round" stroke-linejoin="round" sketch:type="MSShapeGroup"></path>
                <g id="Group-49" transform="translate(151.000000, 246.000000)" fill="#E3F0FC" sketch:type="MSShapeGroup">
                    <path d="M48.7431,273.1908 C48.2281,273.1908 47.7101,273.1848 47.1941,273.1728 C42.7901,273.0718 39.2301,271.9618 36.8981,269.9638 C34.9911,268.3298 34.0131,266.1888 34.0681,263.7708 C34.2771,254.6278 45.5281,249.6948 56.0081,249.6948 C56.3221,249.6948 56.6381,249.6978 56.9571,249.7058 C67.9891,249.9588 78.8361,251.6888 89.9761,254.9828 C78.3271,267.2258 64.7951,273.1908 48.7431,273.1908 M136.1921,172.1128 C138.7261,159.7438 140.7931,147.4368 142.4871,134.6588 C156.7041,23.4458 176.7011,9.1838 192.5331,9.1838 C192.7301,9.1838 192.9301,9.1858 193.1281,9.1908 C202.8271,9.4118 212.9521,20.0928 212.2821,49.4028 C211.7541,72.4668 204.2591,98.2118 191.7201,120.0378 C181.8841,137.1568 164.4251,159.5918 136.1921,172.1128 M224.8511,257.8798 L219.8961,256.5198 C219.0441,256.2858 218.1301,256.4248 217.3851,256.9038 C216.6411,257.3828 216.1351,258.1548 215.9951,259.0288 C214.1291,270.5848 205.6681,276.4438 190.8471,276.4438 C190.4081,276.4438 189.9621,276.4398 189.5081,276.4288 C169.8701,275.9798 153.4211,268.7948 136.0071,261.1898 C126.9871,257.2508 117.6951,253.1918 107.3511,249.7228 C118.3691,233.8528 127.1161,211.8098 134.0151,182.5578 C190.5041,161.2628 222.1301,98.5848 223.2431,49.9028 C223.5601,36.0558 221.2651,24.1838 216.6051,15.5688 C211.3841,5.9178 203.4211,0.6978 193.5771,0.4728 C193.1801,0.4638 192.7881,0.4588 192.3941,0.4588 C176.6471,0.4588 165.6771,8.4048 156.8251,26.2258 C146.8051,46.3968 138.8591,80.5648 131.8231,133.7278 C129.6231,149.3448 127.2171,163.3448 124.4781,176.4558 C113.4861,179.8698 101.8391,181.5998 89.8281,181.5998 C88.8721,181.5998 87.9101,181.5888 86.9441,181.5668 C62.2941,181.0028 42.1201,173.4918 28.6031,159.8468 C17.0431,148.1768 10.8841,132.6478 11.2621,116.1228 C11.8631,89.8858 30.0131,63.3198 63.4481,64.0778 C71.5431,64.2618 76.8691,65.7088 81.2571,68.9138 C81.9331,69.4078 82.7791,69.6098 83.6061,69.4708 C84.4321,69.3338 85.1681,68.8698 85.6481,68.1838 L88.7421,63.7648 C89.2451,63.0448 89.4221,62.1458 89.2281,61.2898 C89.0341,60.4328 88.4871,59.6978 87.7221,59.2648 C80.3611,55.1028 72.6501,53.0658 63.4561,52.8558 C62.9151,52.8428 62.3821,52.8378 61.8471,52.8378 C44.1331,52.8378 28.7771,59.4998 17.4371,72.1028 C7.0881,83.6058 1.1811,98.9768 0.8061,115.3838 C0.3671,134.5418 7.4721,152.4518 20.8131,165.8168 C36.1601,181.1908 58.9581,189.6538 86.7441,190.2898 C99.1871,190.5748 110.7241,189.2658 122.0571,186.3028 C115.5631,212.3388 107.2941,232.1528 96.8651,246.6778 C84.3391,243.1718 71.4871,241.3098 57.6561,240.9948 C57.1461,240.9828 56.6451,240.9778 56.1481,240.9778 C33.9681,240.9778 23.6051,252.4068 23.3621,263.0268 C23.1601,271.8498 30.2361,281.5128 46.2461,281.8798 C46.9411,281.8958 47.6311,281.9038 48.3241,281.9038 C69.3951,281.9028 86.4731,274.2168 100.4641,258.4228 C108.5831,261.2418 116.5811,264.5248 124.3361,267.7068 C144.5841,276.0158 165.5211,284.6078 189.3081,285.1518 C189.8821,285.1648 190.4441,285.1718 191.0011,285.1718 L191.0071,285.1718 C215.3691,285.1698 225.6341,272.8298 227.1171,261.2818 C227.3151,259.7418 226.3491,258.2908 224.8511,257.8798" id="Fill-45"></path>
                    <path d="M253.6934,201.2604 C247.7594,213.5794 241.1334,220.5554 235.2404,220.5554 L235.0664,220.5524 C230.1564,220.4404 226.4964,217.5164 223.8774,211.6124 C221.2704,205.7324 220.0124,197.3684 220.2394,187.4214 C220.4534,178.1084 222.0374,167.6764 224.6594,157.7734 C224.1744,181.3374 235.1804,197.5964 253.6934,201.2604 M234.8754,158.0824 C235.3524,137.2544 245.6424,116.0344 255.2654,116.0344 L255.4124,116.0354 C258.2484,116.1004 267.4534,118.3884 266.8424,145.0984 C266.5074,159.7034 262.8634,177.8054 257.2594,192.9314 C248.8674,191.6314 234.2494,185.4434 234.8754,158.0824 M346.8224,102.4224 C347.0884,102.8714 347.8154,104.6274 347.6864,110.2904 C347.3074,126.8524 342.8314,147.9664 335.2534,169.3514 C334.1624,163.2634 333.6734,156.0154 333.8534,148.1274 C334.4284,123.0034 341.3824,102.7344 346.8224,102.4224 M402.5844,119.6524 L402.7044,119.6534 C403.8064,119.6794 404.2394,120.0754 404.4924,120.4194 C405.0004,121.1064 405.2614,122.3174 405.2264,123.8274 C404.9464,136.0774 390.6064,149.9604 378.5024,158.3724 C384.9684,135.8374 394.8414,119.6524 402.5844,119.6524 M424.3264,193.9664 L421.3374,192.4914 C419.8474,191.7554 418.0444,192.3164 417.2374,193.7674 C407.0994,211.9424 398.2314,224.0454 387.9114,224.0454 L387.5974,224.0424 C382.4404,223.9244 378.7014,221.2704 376.1684,215.9294 C373.6904,210.7054 372.4944,203.0024 372.7084,193.6534 C372.8624,186.9264 373.7544,179.4164 375.4354,170.7294 C387.5664,165.0094 397.8594,157.2974 405.2404,148.3904 C411.8724,140.3854 415.7694,131.7024 415.9324,124.5694 C416.0224,120.6284 414.9724,117.2644 412.8944,114.8424 C411.3244,113.0134 408.3604,110.8064 403.1584,110.6884 L402.7834,110.6844 C392.4194,110.6844 382.1874,120.4974 373.9724,138.3164 C370.0714,146.7804 366.9594,156.3774 364.8514,166.1064 C364.8404,166.1314 364.8264,166.1544 364.8154,166.1794 C358.7594,181.0454 351.4524,187.6994 346.7894,187.6994 L346.7884,187.6994 C344.0414,187.6364 341.6974,186.0514 339.6534,182.8624 C351.3194,155.1894 358.2284,129.0814 358.6414,111.0404 C358.7534,106.1214 357.9704,102.0954 356.3134,99.0764 C354.4604,95.6984 351.5754,93.7964 348.1904,93.7194 L347.9254,93.7164 C331.7454,93.7164 325.1334,125.9814 324.6374,147.6674 C324.3134,161.8174 326.1834,174.6014 329.7874,183.0734 C325.1144,194.2944 319.8264,204.4954 314.2474,213.0904 C313.6164,183.5434 312.7144,153.5954 312.0334,132.6864 L313.5524,126.7244 C314.5884,122.9534 314.8154,119.1814 314.8594,117.2704 C314.9124,114.9864 314.5824,113.1544 314.3814,112.2644 C314.0664,110.8694 312.8424,109.8684 311.4124,109.8364 L306.1794,109.7164 C304.5994,109.6304 303.2494,110.8274 303.0244,112.3854 C301.7144,121.4474 301.3184,131.6514 301.1114,140.4964 C298.9134,148.1844 296.1884,156.0514 292.7854,164.5304 C292.7854,164.5314 292.7844,164.5324 292.7844,164.5344 C286.8344,179.1844 278.3214,188.9354 268.8854,192.1724 C274.3274,177.8604 277.6924,161.3284 278.0234,146.8504 C278.2704,136.0624 276.7254,126.8624 273.5574,120.2454 C269.7484,112.2914 263.6254,107.9934 255.8504,107.8164 L255.4544,107.8124 C242.2624,107.8124 231.7464,122.7674 227.1524,140.2304 C227.0464,140.1934 226.9374,140.1614 226.8264,140.1344 L222.1144,139.0294 C220.6114,138.6774 219.0754,139.4794 218.5064,140.9144 C213.1614,154.3904 209.9034,170.5254 209.5684,185.1834 C209.2934,197.1954 210.9994,207.5404 214.5024,215.0994 C218.7044,224.1654 225.4014,229.0604 233.8704,229.2534 L234.3114,229.2584 C245.5244,229.2584 256.3014,219.5514 264.7804,201.8684 C279.6204,200.5254 292.5624,188.6334 300.5104,168.9124 C300.5114,168.9104 300.5114,168.9094 300.5114,168.9074 C300.5134,168.9034 300.5154,168.9004 300.5174,168.8964 C300.8554,168.0444 301.1914,167.1944 301.5234,166.3494 C302.0824,185.8534 303.1284,207.3814 304.1354,226.7304 C304.2204,228.3584 305.5454,229.6464 307.1754,229.6834 L310.6654,229.7634 C310.6894,229.7644 310.7124,229.7644 310.7364,229.7644 C311.4404,229.7644 312.1244,229.5264 312.6764,229.0864 C318.6104,224.3674 327.0524,210.6704 335.6024,192.0044 C338.4924,194.8674 341.7914,196.3134 345.5914,196.3994 L345.9224,196.4044 C351.4144,196.4044 356.9564,193.4124 361.9004,188.0984 C361.8614,188.9564 361.8234,189.8134 361.8044,190.6594 C361.2014,217.0334 370.3484,232.3764 386.8994,232.7544 C387.0874,232.7594 387.2734,232.7614 387.4594,232.7614 C402.7334,232.7614 413.7734,218.9894 425.6494,198.3124 C426.0774,197.5654 426.1784,196.6764 425.9284,195.8524 C425.6774,195.0294 425.0974,194.3464 424.3264,193.9664" id="Fill-47"></path>
                </g>
                <g id="Group-54" transform="translate(460.000000, 229.000000)" fill="#E3F0FC" sketch:type="MSShapeGroup">
                    <path d="M265.6351,7.8974 C265.2281,6.8134 264.4881,5.8964 263.2861,5.3334 C258.8641,3.2624 255.8311,8.3974 254.3991,11.7034 C226.8351,75.3564 226.4741,150.1764 188.3491,208.1254 C185.2511,212.8344 181.8091,217.5034 177.0691,220.5554 C172.3291,223.6064 166.0041,224.7614 161.0141,222.1384 C154.8591,218.9034 152.6011,211.2774 151.7541,204.3764 C148.6621,179.1984 156.2981,154.1134 162.7461,129.5804 C169.1931,105.0464 174.4871,78.8394 166.9021,54.6334 C159.1831,29.9994 137.9311,10.3574 113.0461,3.4894 C88.1621,-3.3786 60.3861,2.2924 39.4761,17.4314 C18.5671,32.5704 4.6531,56.6574 0.7951,82.1824 C0.4141,84.7044 0.1541,87.4164 1.3151,89.6874 C2.4751,91.9584 5.6051,93.3854 7.6781,91.8994 C9.2731,90.7554 9.5591,88.5434 9.7651,86.5914 C13.1981,54.1304 34.9121,23.3164 65.7401,12.5874 C96.5681,1.8574 134.8371,14.2574 150.6191,42.8304 C163.4731,66.1034 160.6041,94.7754 154.4621,120.6434 C148.3211,146.5114 139.2081,172.3224 140.7101,198.8674 C141.3641,210.4284 145.0121,223.2054 155.1381,228.8234 C167.6501,235.7664 183.8271,228.0204 192.6381,216.7454 C201.4481,205.4694 205.5911,191.2894 212.9171,178.9964 C207.8831,215.9824 202.6251,253.7224 186.0421,287.1634 C180.3421,298.6564 171.1711,310.8124 158.3421,310.9204 C146.9571,311.0164 137.2071,299.9844 137.2871,288.5994 C137.3681,277.2134 146.0501,266.8694 156.8561,263.2834 C160.0461,262.2244 163.9821,261.1264 164.8101,257.8694 C165.5601,254.9204 162.8891,251.9514 159.9051,251.3514 C156.9221,250.7514 153.8721,251.8874 151.1531,253.2564 C138.8051,259.4724 129.1341,271.6984 127.9521,285.4734 C126.7711,299.2484 135.2811,313.8254 148.5121,317.8344 C159.7561,321.2414 172.2841,316.8374 181.0821,309.0504 C189.8791,301.2634 195.5121,290.5424 200.0521,279.7064 C218.8921,234.7364 221.7901,185.0014 230.2401,136.9824 C232.6831,123.0984 235.6091,109.2984 239.0071,95.6154 C242.4221,81.8644 246.3141,68.2324 250.6741,54.7504 C255.0361,41.2654 259.8981,27.9574 265.1491,14.7934 C265.9481,12.7874 266.4321,10.0214 265.6351,7.8974" id="Fill-50"></path>
                    <path d="M289.8044,205.9837 C283.6844,218.8567 276.7714,226.1587 270.5894,226.1587 L270.4054,226.1567 C265.3474,226.0397 261.4254,222.9237 258.7504,216.8917 C256.0954,210.9057 254.8144,202.4057 255.0454,192.3127 C255.2864,181.7757 257.2614,169.8277 260.4964,158.7947 C260.4134,159.9497 260.3584,161.1007 260.3314,162.2467 C259.7774,186.4917 270.7194,202.5577 289.8044,205.9837 M269.8094,162.7147 C270.2944,141.5047 280.8834,119.8937 290.7914,119.8937 L290.9494,119.8947 C294.9384,119.9867 297.8954,122.5577 299.9874,127.7557 C302.0894,132.9757 303.0894,140.5417 302.8814,149.6367 C302.5414,164.5157 298.8064,182.9817 293.0684,198.3447 C270.8374,195.3637 269.6324,170.4607 269.8094,162.7147 M409.1674,170.2957 C408.3724,169.7387 407.3494,169.4187 406.2904,169.3937 C406.2684,169.3927 406.2474,169.3927 406.2264,169.3927 C405.1194,169.3927 404.1184,170.0627 403.6984,171.0917 C396.1904,189.4747 380.5694,227.7267 372.0464,227.7477 C372.0304,227.7377 370.4814,226.5927 370.6764,218.1027 C371.0754,200.6207 378.3484,166.4287 385.3814,133.3617 C386.4324,128.4167 387.4804,123.4907 388.5014,118.6387 C388.6684,117.8437 388.4734,117.0167 387.9684,116.3807 C387.4644,115.7437 386.7034,115.3647 385.8914,115.3467 L380.8634,115.2317 C379.5804,115.1617 378.4194,116.0947 378.1354,117.3647 C374.3104,134.4487 370.3104,152.5217 367.1374,169.1867 C363.3754,183.8397 357.4904,198.7647 350.9854,210.1477 C343.8204,222.6877 338.0814,227.1377 335.2874,227.1377 L335.2874,227.1377 C332.3054,227.0687 332.1644,219.1257 332.2424,215.7137 C332.6014,200.0207 338.6144,172.9657 344.9804,144.3227 C346.9204,135.5927 348.9264,126.5647 350.7874,117.7787 C350.9554,116.9847 350.7604,116.1557 350.2564,115.5187 C349.7524,114.8817 348.9894,114.5017 348.1774,114.4837 L343.1484,114.3687 C341.8554,114.3017 340.7004,115.2357 340.4194,116.5087 C339.5144,120.5997 338.5964,124.7137 337.6794,128.8267 C334.6054,142.5977 331.4874,156.5737 328.9234,169.6177 C322.7064,184.8027 313.7494,194.7747 303.8374,197.7707 C309.4914,183.1937 312.9974,166.2167 313.3374,151.3827 C313.8874,127.3177 305.6754,112.7547 291.3714,112.4287 L290.9814,112.4237 C277.7464,112.4237 267.2164,127.6317 262.7024,145.2877 C262.4864,145.1677 262.2534,145.0787 262.0074,145.0207 L257.2534,143.9057 C255.9354,143.5957 254.5904,144.2997 254.0914,145.5577 C248.7174,159.1067 245.4414,175.3317 245.1044,190.0727 C244.4814,217.2867 253.4954,233.7487 269.2174,234.1087 L269.6514,234.1147 C280.8404,234.1147 291.6224,224.3267 300.1184,206.5047 C309.3684,205.7367 317.8934,200.8507 324.9424,192.5147 C323.8884,199.8617 323.2154,206.5357 323.0844,212.2317 C322.9274,219.1237 323.5534,224.3207 324.9984,228.1177 C327.3054,234.1767 331.3504,235.5297 334.3384,235.5987 L334.5754,235.6017 C341.0794,235.6007 351.2384,228.2877 361.2784,208.8647 C361.1554,210.5937 361.0694,212.2687 361.0324,213.8547 C360.8794,220.5487 361.4294,225.5697 362.7144,229.2027 C364.7904,235.0727 368.5284,236.3807 371.2974,236.4437 L371.5874,236.4467 C385.1274,236.4457 394.3174,215.4487 410.7214,175.2127 C410.8464,174.9057 410.9144,174.5777 410.9224,174.2457 L410.9344,173.7427 C410.9664,172.3607 410.3224,171.1037 409.1674,170.2957" id="Fill-52"></path>
                </g>
                <path d="M587.9163,34.6436 C587.5453,36.0056 587.2533,37.5176 587.0423,39.1776 C586.9943,39.5306 586.8723,40.2486 586.6813,41.3296 C586.4883,42.4126 586.2623,43.3806 585.9983,44.2376 C585.1213,47.3106 583.6993,52.2216 581.8723,58.9646 C580.3213,64.7006 578.8303,70.6586 577.4123,76.8316 C575.9903,83.0066 574.8553,88.6686 573.9583,93.8186 C574.3013,94.3006 574.8973,94.7986 575.7423,95.3156 C576.5103,95.7836 577.0493,96.2376 577.3543,96.6746 C577.2753,97.1236 577.1323,97.4626 576.9233,97.6926 C576.7123,97.9226 576.3653,98.2196 575.8813,98.5846 C575.3093,98.9516 574.7673,99.3936 574.2603,99.9086 C573.8313,99.6776 573.0603,99.4856 571.9393,99.3356 C571.3493,99.3126 570.3493,99.3316 568.9373,99.4016 C567.4833,99.4746 566.2793,99.4896 565.3293,99.4436 C564.3813,99.3966 563.4813,99.2276 562.6333,98.9316 C562.5543,98.8866 562.4633,98.7196 562.3593,98.4276 C562.2543,98.1356 562.2353,97.7876 562.2973,97.3866 C562.3843,96.8336 562.6533,96.3456 563.1053,95.9206 C563.1613,95.5686 563.2593,95.3526 563.4013,95.2696 C563.5433,95.1856 563.7653,95.1346 564.0673,95.1176 C564.4553,95.0956 564.7403,95.0536 564.9223,94.9936 C565.3843,94.7686 565.7283,94.5016 565.9513,94.1906 C566.4143,93.7186 566.7163,93.0566 566.8613,92.2036 C566.9283,91.8006 566.9633,91.3396 566.9663,90.8176 C566.9683,90.2956 566.9673,89.9326 566.9583,89.7356 C566.9413,88.8406 566.9543,88.2676 566.9993,88.0156 C567.2703,86.4586 567.7173,84.1696 568.3653,81.1486 C568.7973,78.9336 569.2413,76.7176 569.6983,74.5006 C569.7033,74.2506 569.7503,73.7856 569.8413,73.1076 C569.9313,72.4296 570.0593,71.6876 570.2213,70.8806 C571.1623,66.2186 572.1553,61.5496 573.2023,56.8766 C575.1793,48.0596 577.3473,39.2266 579.7133,30.3806 C578.8353,30.3986 578.1733,30.3286 577.7353,30.1616 C577.2973,29.9966 577.1693,29.5596 577.3603,28.8476 C577.6373,27.8066 577.9183,26.7656 578.2023,25.7246 C578.3253,25.2676 578.5513,25.0346 578.8773,25.0276 C579.0183,25.0236 579.4523,25.1276 580.1793,25.3406 C580.9083,25.5526 581.6663,25.6526 582.4553,25.6386 C582.9663,25.6306 584.0863,25.5116 585.8123,25.2916 C586.1963,25.2386 586.8923,25.1546 587.8913,25.0476 C588.8943,24.9396 589.7653,24.8846 590.5053,24.8836 C592.0773,24.8806 593.1873,25.1116 593.8413,25.5676 C594.0903,25.9726 594.1293,26.4756 593.9543,27.0796 C593.7223,27.8856 593.2033,28.6146 592.3973,29.2686 C591.5903,29.9226 590.7083,30.2496 589.7433,30.2536 C588.9913,31.4656 588.3803,32.9306 587.9163,34.6436" id="Fill-55" fill="#4C0629" sketch:type="MSShapeGroup"></path>
                <path d="M653.983,57.3707 C654.151,57.0087 654.453,56.4597 654.897,55.7227 C655.392,54.8997 655.781,54.1707 656.068,53.5337 C656.351,52.8977 656.532,52.2247 656.61,51.5137 C656.47,50.9897 655.919,50.5537 654.954,50.2117 C654.115,49.9137 653.062,49.6747 651.794,49.4957 C650.341,49.2007 649.339,48.9627 648.791,48.7757 C647.943,49.4307 647.129,50.4137 646.357,51.7257 C645.74,52.7747 645.153,53.9917 644.601,55.3757 C643.955,56.8347 643.472,57.8497 643.145,58.4187 C638.191,67.0567 633.479,75.7547 629.002,84.5027 C627.092,88.2327 625.225,91.9717 623.401,95.7187 C622.945,96.6557 622.492,97.5927 622.042,98.5307 C621.571,99.5117 621.073,100.4097 620.548,101.2227 C620.004,102.1797 619.616,102.9057 619.385,103.3997 C618.985,104.2487 618.773,104.9517 618.741,105.5057 C618.717,105.7537 618.803,105.9597 619,106.1237 C619.195,106.2857 619.373,106.4177 619.531,106.5177 C619.689,106.6177 619.806,106.6807 619.886,106.7057 C620.518,107.0047 620.974,107.3387 621.254,107.7097 C621.535,108.0787 621.497,108.6437 621.144,109.4037 C621.023,109.4677 620.793,109.5747 620.452,109.7237 C620.112,109.8737 619.707,109.9907 619.242,110.0747 C618.773,110.1587 618.363,110.1467 618.007,110.0367 C614.295,108.8917 610.556,107.7837 606.791,106.7157 C606.229,106.5557 605.982,106.2207 606.052,105.7057 C606.122,105.1907 606.366,104.4577 606.789,103.5087 C607.231,103.6327 607.955,103.5827 608.962,103.3627 C609.969,103.1407 610.692,103.0967 611.134,103.2257 C612.946,99.2877 614.802,95.3577 616.706,91.4367 C617.867,89.0137 618.68,87.3047 619.122,86.3067 C619.718,84.9957 620.626,83.1087 621.861,80.6497 C623.736,76.9687 625.653,73.2957 627.611,69.6317 C628.832,67.3187 630.07,65.0097 631.324,62.7037 C631.831,61.7727 632.341,60.8427 632.853,59.9127 C634.756,56.4587 636.205,53.7437 637.162,51.7537 C638.12,49.7657 638.854,47.7287 639.358,45.6437 C638.509,45.0057 637.485,44.4947 636.283,44.1147 L635.962,44.0137 C633.856,43.3507 631.845,43.2927 629.946,43.8357 C628.046,44.3787 626.548,45.6357 625.466,47.5977 C625.195,48.0887 624.952,48.6667 624.738,49.3277 C624.646,49.4057 624.417,49.4807 624.054,49.5547 C623.688,49.6287 623.356,49.6207 623.054,49.5327 C622.58,49.3947 622.262,49.0677 622.092,48.5517 C622.385,48.0157 622.832,47.0067 623.447,45.5257 C624.338,43.4507 624.917,42.1927 625.167,41.7457 C625.915,40.4067 626.715,39.3947 627.564,38.7087 C629.541,38.3597 631.343,38.2007 632.962,38.2287 C634.583,38.2557 636.324,38.5627 638.183,39.1507 C639.52,39.5757 641.77,40.2387 644.909,41.1707 C647.428,41.8467 649.815,42.5757 652.067,43.3547 C655.21,44.4407 657.723,45.5237 659.616,46.5777 C661.508,47.6327 662.354,48.8477 662.171,50.2087 C661.72,52.0007 661.031,53.6497 660.106,55.1587 C659.233,56.5807 658.257,57.6467 657.171,58.3607 C656.086,59.0727 654.966,59.2207 653.806,58.8067 C653.729,58.5157 653.788,58.0367 653.983,57.3707" id="Fill-57" fill="#4C0629" sketch:type="MSShapeGroup"></path>
                <path d="M661.1346,109.9824 C662.9576,108.0314 664.4456,106.3694 665.5906,104.9884 C667.0696,103.4274 668.3786,101.7984 669.5186,100.0984 C670.6546,98.4004 671.9786,96.2484 673.5086,93.6484 C674.0356,92.7534 674.7786,91.6574 675.7486,90.3604 C675.9006,90.1064 676.2006,89.6614 676.6566,89.0264 C677.1116,88.3924 677.5186,87.7794 677.8786,87.1844 C678.2386,86.5914 678.6356,85.8944 679.0776,85.0934 C679.5186,84.2934 679.8496,83.6734 680.0726,83.2344 C680.9566,81.4764 681.6706,80.1764 682.1996,79.3304 C682.3336,78.3214 682.7306,76.8874 683.4066,75.0334 C684.1346,73.0964 684.5666,71.5934 684.6966,70.5254 C684.8016,69.9284 684.9086,69.3304 685.0146,68.7334 C685.3576,66.7894 685.5496,65.2384 685.5926,64.0774 C685.6326,62.9164 685.3606,61.9194 684.7746,61.0874 C683.9636,60.7514 683.1826,60.3774 682.4236,59.9594 C681.5866,59.5104 680.7386,59.1134 679.8836,58.7684 C677.8376,59.5454 676.0086,60.4864 674.4026,61.5804 C672.7956,62.6774 671.0406,64.1034 669.1546,65.8664 C667.8756,66.8034 666.8066,67.8374 665.9536,68.9644 C665.0986,70.0934 664.1456,71.5394 663.0996,73.3064 C661.1466,75.9424 659.2046,78.9514 657.2866,82.3314 C653.8186,88.4434 650.7436,95.3424 648.0896,103.0104 C648.0436,103.7214 647.9266,104.4584 647.7396,105.2214 C647.5526,105.9854 647.4416,106.4904 647.4066,106.7374 C647.1666,107.7414 647.0046,108.5264 646.9216,109.0914 C646.8406,109.6584 646.8616,110.1734 646.9926,110.6354 C647.3026,110.7494 647.4736,110.8884 647.5016,111.0554 C647.5306,111.2214 647.4706,111.5374 647.3266,112.0034 C647.1806,112.4684 647.1576,112.8754 647.2556,113.2224 C647.5166,114.1474 648.3376,114.8634 649.7166,115.3774 C650.9036,115.8194 652.1676,115.9974 653.5136,115.9124 C654.8576,115.8264 655.8666,115.4484 656.5436,114.7714 C657.7896,113.5334 659.3136,111.9344 661.1346,109.9824 M658.4586,119.3564 C657.4696,119.8534 656.6116,120.1954 655.8806,120.3784 C652.8616,121.1304 650.1286,121.0544 647.6546,120.1354 C645.1796,119.2174 643.2486,117.6294 641.8566,115.3514 C640.4666,113.0744 639.7816,110.6544 639.8246,108.0854 C639.9176,104.4994 640.2996,100.9064 640.9826,97.3074 C641.6696,94.7974 642.5716,92.3204 643.7006,89.8774 C644.8276,87.4364 646.3606,84.4174 648.3346,80.8304 C648.6486,80.2624 649.0536,79.4394 649.5566,78.3624 C650.1066,77.1984 650.5446,76.3334 650.8636,75.7654 C651.4276,74.7624 652.0866,73.7664 652.8466,72.7794 C653.0366,72.5314 653.5686,71.8564 654.4496,70.7564 C655.3286,69.6554 655.9986,68.7154 656.4556,67.9344 C656.7916,67.5314 657.4166,66.7584 658.3386,65.6194 C659.1936,64.5094 659.9246,63.6444 660.5226,63.0194 C661.1206,62.3964 661.7466,61.9654 662.3906,61.7294 C663.2346,61.2494 664.5536,60.4454 666.3606,59.3244 C668.8126,57.8124 670.8436,56.6804 672.4336,55.9114 C674.0226,55.1434 675.7476,54.6184 677.6086,54.3394 C679.4666,54.0634 681.3046,54.2894 683.1036,55.0224 C683.9216,55.3544 684.5266,55.6574 684.9186,55.9254 C687.3696,56.9324 689.0496,58.1244 689.9796,59.4864 C690.9096,60.8474 691.3486,62.7584 691.3116,65.2144 C692.3276,67.3194 692.5716,70.0104 692.0706,73.2854 C691.5706,76.5614 690.4016,79.8864 688.5956,83.2764 C687.6556,85.0634 686.3046,87.3634 684.5626,90.1844 C683.9896,91.1104 683.4196,92.0384 682.8546,92.9664 C680.2286,97.2694 677.7356,100.7954 675.3356,103.5414 C670.6906,109.0984 665.9746,113.8034 661.1276,117.6724 C660.3356,118.2984 659.4466,118.8584 658.4586,119.3564" id="Fill-59" fill="#4C0629" sketch:type="MSShapeGroup"></path>
                <path d="M714.1572,74.2859 C713.6832,74.4389 713.3432,74.5739 713.1302,74.6909 C712.9182,74.8059 712.7132,75.0069 712.5122,75.2929 C709.8142,79.1239 706.9332,83.0909 703.8882,87.2039 C700.8432,91.3179 699.0812,93.7979 698.5072,94.6069 C695.3812,98.9189 692.8532,102.5709 690.8652,105.5409 C688.8752,108.5129 686.9532,111.5769 685.0962,114.7329 C682.7702,118.6879 680.8842,122.1939 679.4022,125.2399 C679.3552,125.3239 679.3082,125.4089 679.2602,125.4939 C678.9752,126.0009 678.8712,126.3129 678.9462,126.4249 C679.0202,126.5379 679.3372,126.7449 679.8992,127.0499 C680.3882,127.3219 680.7922,127.5179 681.1142,127.6369 C681.4362,127.7549 681.7622,127.8899 682.0892,128.0399 C682.1982,128.0889 682.4392,128.2109 682.8082,128.4069 C683.1782,128.6019 683.6852,128.8199 684.3262,129.0629 C684.7252,129.2469 685.1242,129.4309 685.5222,129.6159 C687.0092,127.0089 688.5192,124.4079 690.0522,121.8139 C691.0782,120.0769 692.1142,118.3439 693.1602,116.6129 C693.7192,116.3939 694.1992,116.3799 694.6032,116.5719 C694.8962,116.7109 695.1092,116.9069 695.2392,117.1559 C695.3712,117.4079 695.4462,117.5919 695.4692,117.7099 C695.7522,119.1879 695.1182,121.1919 693.6002,123.7339 C692.9542,124.8169 692.2442,125.8969 691.4732,126.9729 C690.5652,128.3579 689.9462,129.3469 689.6062,129.9329 C689.4602,130.1839 689.2652,130.6779 689.0232,131.4179 C688.5272,132.6739 688.2112,133.4309 688.0662,133.6819 C687.6352,134.4359 687.1532,134.9269 686.6152,135.1529 C684.7772,134.7129 682.9972,134.1269 681.2752,133.3939 C680.1312,132.9229 678.4732,132.1979 676.2872,131.2289 C674.1352,130.2749 672.3592,129.5449 670.9652,129.0249 C669.5702,128.5049 668.1462,128.1229 666.6922,127.8819 C666.5132,127.2829 666.2872,126.7699 666.0172,126.3429 C665.7452,125.9149 665.5842,125.5599 665.5292,125.2759 C665.4772,124.9909 665.5652,124.6339 665.7942,124.2049 C666.0902,123.6469 666.4762,123.3729 666.9482,123.3869 C667.4192,123.3989 668.0442,123.5679 668.8252,123.8969 C669.6702,123.5159 670.3332,123.0089 670.8172,122.3729 C671.3022,121.7359 671.9782,120.6289 672.8532,119.0519 C674.9842,116.3749 677.1592,113.2549 679.3942,109.6919 C681.6302,106.1299 684.1822,101.9699 687.0992,97.2239 C687.3832,96.7629 687.6682,96.3009 687.9532,95.8399 C690.3522,91.9589 692.8032,88.0939 695.3062,84.2459 C697.1742,81.3759 698.7302,78.8999 699.9542,76.8099 C701.1792,74.7209 702.1142,72.6859 702.7522,70.7009 C703.0072,70.3309 703.1122,70.0269 703.0682,69.7899 C703.0232,69.5529 702.8842,69.1909 702.6502,68.7039 C702.3252,68.1219 702.0992,67.5849 701.9712,67.0939 C702.5682,66.2269 703.1672,65.3619 703.7692,64.4969 C704.2062,64.6949 704.6412,64.8939 705.0752,65.0929 C706.3412,65.6749 707.9702,66.2929 709.9622,66.9569 C710.4212,67.1199 711.2412,67.4239 712.4152,67.8739 C713.5872,68.3229 714.6212,68.7659 715.5192,69.2009 C716.6082,69.7289 717.3742,70.1589 717.8212,70.4869 C718.2562,70.7559 718.4782,70.9739 718.4862,71.1429 C718.4962,71.3129 718.3732,71.5539 718.1202,71.8679 C717.8652,72.1829 717.6682,72.4419 717.5222,72.6439 C716.4252,73.3669 715.3062,73.9129 714.1572,74.2859" id="Fill-61" fill="#4C0629" sketch:type="MSShapeGroup"></path>
                <path d="M735.8592,90.117 C735.1992,91.037 734.5412,91.958 733.8872,92.88 C732.4252,94.864 731.1932,96.663 730.1832,98.277 C729.0492,99.99 728.2332,101.208 727.7232,101.928 C727.1832,102.688 726.3642,103.987 725.2792,105.83 C724.0202,107.913 722.9062,109.681 721.9142,111.131 C718.9992,115.4 716.1502,119.694 713.3682,124.009 C712.8412,124.824 712.4022,125.697 712.0462,126.625 C711.6902,127.554 711.4792,128.11 711.4112,128.291 C710.7902,130.087 710.1872,131.455 709.6012,132.397 C709.1152,133.173 708.4902,133.957 707.7212,134.75 C707.1232,135.413 706.7652,135.849 706.6392,136.055 C706.3362,136.548 706.2362,137.09 706.3352,137.683 C706.6862,137.866 707.3702,137.951 708.3912,137.947 C709.3672,137.863 710.0652,137.935 710.4802,138.156 C710.7352,137.747 711.0132,137.488 711.3152,137.377 C711.6162,137.265 711.8652,137.235 712.0662,137.288 C712.2662,137.34 712.3992,137.385 712.4702,137.423 C712.9222,137.665 713.3112,137.657 713.6382,137.397 C713.9642,137.136 714.1922,136.905 714.3202,136.702 C716.4072,135.538 718.2742,133.946 719.9262,131.92 C721.5772,129.894 723.5412,127.172 725.8482,123.765 C726.1742,123.284 726.8412,122.442 727.8602,121.242 C729.4082,119.341 730.3722,118.138 730.7342,117.619 C731.7352,116.186 732.4592,114.845 732.8982,113.592 C733.7992,112.321 734.7062,111.053 735.6182,109.787 C736.0752,108.875 736.9282,107.242 738.1952,104.889 C740.0152,101.51 741.3582,98.814 742.1872,96.79 C743.0132,94.768 743.3452,92.779 743.1622,90.824 C743.0682,89.987 742.7552,89.333 742.2202,88.864 C741.6832,88.397 740.7172,87.771 739.3102,86.993 C738.3722,87.259 737.2172,88.299 735.8592,90.117 M695.7362,135.703 C696.1612,135.913 696.6742,135.897 697.2732,135.659 C697.8712,135.42 698.3682,135.399 698.7572,135.593 C701.6512,130.725 704.6242,125.882 707.6802,121.065 C709.0312,118.934 710.2612,116.818 711.3642,114.715 C712.4682,112.615 713.1322,111.373 713.3372,110.988 C714.7582,108.173 715.9082,106.14 716.7592,104.883 C719.0922,101.438 720.9662,98.622 722.3342,96.42 C723.7012,94.218 724.7212,92.133 725.3712,90.156 C726.6092,88.431 727.8592,86.711 729.1192,84.995 C728.6322,84.738 727.8202,84.533 726.6842,84.382 C725.7582,84.23 725.1622,84.088 724.8982,83.951 C724.1442,83.561 724.2872,82.644 725.3392,81.2 C725.5722,80.88 725.8432,80.673 726.1452,80.58 C726.4462,80.488 726.8892,80.401 727.4742,80.317 C728.3452,80.271 729.0482,80.17 729.5882,80.008 C730.3112,79.778 731.0352,79.549 731.7592,79.321 C733.2322,79.323 734.5572,79.544 735.7362,79.981 C736.9122,80.42 738.3072,81.076 739.9112,81.957 C740.4702,82.265 741.1512,82.584 741.9562,82.919 C742.4922,83.188 743.0262,83.458 743.5602,83.728 C744.3022,84.143 745.0742,84.689 745.8772,85.367 C745.9782,85.37 746.1562,85.399 746.4052,85.455 C746.6532,85.511 746.8422,85.662 746.9712,85.904 C747.0712,86.524 747.3752,87.598 747.8782,89.126 C747.9452,89.447 748.0922,89.938 748.3142,90.603 C748.5352,91.267 748.6702,91.838 748.7192,92.317 C749.3792,93.433 749.6402,94.687 749.5042,96.076 C749.3712,97.465 749.0452,99.166 748.5372,101.18 C747.8642,103.887 747.1822,106.19 746.4922,108.092 C745.8012,109.993 744.7642,112.109 743.3962,114.446 C743.0882,114.966 742.7802,115.487 742.4742,116.008 C742.3082,116.303 741.8072,117.158 740.9792,118.576 C740.1502,119.993 739.2882,121.333 738.3892,122.594 C736.9002,124.684 735.3032,126.539 733.5962,128.162 C731.9742,130.503 730.0402,132.561 727.7982,134.347 C725.5542,136.132 723.4182,137.609 721.3762,138.773 C719.3342,139.936 716.6222,141.389 713.2652,143.16 C712.7592,143.157 711.9512,143.235 710.8422,143.401 C709.0702,143.591 707.5272,143.651 706.2022,143.578 C704.8782,143.503 703.4862,143.088 702.0222,142.336 C701.3072,141.968 700.5912,141.602 699.8732,141.237 C698.5512,141.318 697.2002,141.106 695.8122,140.605 C694.4252,140.102 692.8992,139.445 691.2332,138.637 C691.0032,137.457 690.8602,136.456 690.8112,135.632 C690.7622,134.807 690.9052,134.102 691.2452,133.517 C692.7482,134.239 694.2442,134.968 695.7362,135.703" id="Fill-63" fill="#4C0629" sketch:type="MSShapeGroup"></path>
                <path d="M814.2542,135.6797 C813.6202,136.1807 813.1142,136.2817 812.7382,135.9797 C811.8132,135.2407 810.8852,134.5027 809.9532,133.7677 C808.8862,134.4507 806.1612,136.2627 801.8742,139.2807 C798.7932,141.5447 796.1652,143.4757 793.9562,145.0537 C791.7482,146.6347 789.5752,148.0147 787.4262,149.1947 C786.5602,149.3787 785.8162,149.6977 785.1912,150.1497 C784.5672,150.6037 783.9252,151.2357 783.2672,152.0457 C782.7732,152.6837 782.2832,153.3237 781.7932,153.9637 C780.9642,155.1187 780.2422,156.0857 779.6232,156.8647 C779.2002,157.0827 778.6972,157.5647 778.1122,158.3087 C777.6442,158.9037 777.0042,159.8407 776.2002,161.1267 C775.9992,161.4477 775.7692,161.8057 775.5132,162.2017 C775.2542,162.5987 774.9802,162.9827 774.6922,163.3567 C774.2022,163.9927 773.3232,165.0727 772.0672,166.6037 C770.7512,168.2097 769.7632,169.4687 769.0892,170.3727 C766.8732,173.3527 765.8232,175.5437 765.8922,176.9247 C766.0132,177.0127 766.2582,177.2047 766.6252,177.5017 C766.9912,177.7977 767.2942,178.1497 767.5332,178.5567 C767.7712,178.9627 767.7792,179.3177 767.5582,179.6207 C767.4792,179.7927 767.3262,180.1317 767.0992,180.6327 C766.8752,181.1347 766.6262,181.5747 766.3522,181.9537 C765.8882,182.5977 765.4632,182.8657 765.0802,182.7587 C763.8972,182.3547 762.7442,181.7487 761.6202,180.9407 C760.9512,180.4587 760.1222,179.7497 759.1272,178.8157 C758.3832,178.1727 757.8582,177.7467 757.5502,177.5307 C756.0742,176.4937 754.5902,175.4627 753.0962,174.4397 C753.0402,173.6607 753.2102,172.9807 753.6132,172.4017 C754.0152,171.8227 754.6102,171.4027 755.3942,171.1427 C755.8322,171.0447 756.2222,171.0837 756.5612,171.2627 C756.8052,171.3737 757.1462,171.5817 757.5812,171.8837 C758.0482,172.2087 758.4342,172.4347 758.7382,172.5617 C759.0422,172.6877 759.3832,172.6817 759.7592,172.5457 C761.7262,169.8217 763.7222,167.1107 765.7472,164.4117 C769.7642,158.9927 772.9942,154.2247 775.3342,150.0567 C777.6742,145.8927 778.6892,142.2447 778.2872,139.0917 C779.0992,137.2087 780.0372,134.6197 781.1052,131.3267 C781.2792,130.7737 781.4522,130.2207 781.6262,129.6687 C782.8172,126.9867 783.8852,124.8007 784.8252,123.1077 C785.7612,121.4137 787.0232,119.6497 788.6152,117.8217 C787.8142,117.2547 787.1832,116.7237 786.7252,116.2267 C786.2692,115.7287 786.2282,115.2597 786.6102,114.8197 C787.4342,113.7457 788.2872,113.1767 789.1592,113.1097 C790.0352,113.0457 790.9242,113.3337 791.8292,113.9767 C792.3992,114.3817 793.0872,114.9907 793.8912,115.8057 C794.3922,116.3457 794.8752,116.7827 795.3402,117.1197 C795.9712,117.5767 796.8822,118.2987 798.0702,119.2897 C798.9602,120.1237 799.8792,120.8927 800.8272,121.6007 C800.8282,122.3827 800.6772,123.0337 800.3692,123.5547 C800.0632,124.0767 799.6022,124.6777 798.9892,125.3597 C798.7292,125.1647 798.4112,124.8537 798.0362,124.4257 C797.6602,123.9977 797.3252,123.6747 797.0312,123.4577 C796.4072,122.9977 795.7702,122.8297 795.1232,122.9517 C794.7422,123.6867 794.1762,124.5087 793.4302,125.4207 C792.6822,126.3337 792.1702,126.9847 791.8862,127.3717 C791.5072,127.8677 790.9422,128.7037 790.1932,129.8787 C790.0382,130.1217 789.8582,130.3907 789.6572,130.6887 C789.4532,130.9857 789.2122,131.2987 788.9302,131.6277 C787.6072,134.1017 786.5622,136.6087 785.7862,139.1457 C785.0112,141.6827 784.6492,143.7947 784.6892,145.4777 C785.5352,145.5667 786.3572,145.4197 787.1612,145.0397 C787.9672,144.6587 789.0792,144.0177 790.5082,143.1237 C791.5952,142.3897 792.6392,141.7437 793.6422,141.1857 C795.6782,140.0927 797.7772,138.6937 799.9552,136.9887 C802.1292,135.2857 803.9822,133.6337 805.5062,132.0257 C805.7972,131.7057 805.9122,131.3857 805.8512,131.0657 C805.7892,130.7447 805.5832,130.2687 805.2342,129.6367 C804.8532,128.9807 804.5902,128.3877 804.4482,127.8557 C804.3052,127.3247 804.3462,126.7527 804.5772,126.1427 C805.3572,125.2897 806.7892,125.6507 808.8422,127.2407 C809.8032,127.9857 810.7132,128.7867 811.5662,129.6417 C812.5822,130.5637 813.2912,131.1887 813.7032,131.5167 C813.9562,131.7177 814.3552,131.8827 814.8992,132.0097 C815.4082,132.1737 815.7742,132.3437 815.9942,132.5207 C816.3082,132.7737 816.4432,133.1577 816.3952,133.6737 C815.6022,134.5087 814.8902,135.1787 814.2542,135.6797" id="Fill-65" fill="#4C0629" sketch:type="MSShapeGroup"></path>
                <path d="M796.1924,190.1455 C798.1554,188.7035 799.7754,187.4595 801.0464,186.4025 C802.6374,185.2525 804.1024,183.9955 805.4444,182.6275 C806.7834,181.2595 808.3824,179.4985 810.2614,177.3535 C810.9074,176.6155 811.7834,175.7335 812.8944,174.7145 C813.0794,174.5045 813.4344,174.1465 813.9634,173.6435 C814.4904,173.1395 814.9724,172.6445 815.4124,172.1555 C815.8524,171.6685 816.3474,171.0895 816.9034,170.4225 C817.4574,169.7535 817.8784,169.2335 818.1674,168.8625 C819.3194,167.3745 820.2204,166.2885 820.8614,165.5975 C821.2084,164.6525 821.8784,163.3615 822.8794,161.7305 C823.9434,160.0305 824.6614,158.6815 825.0214,157.6785 C825.2514,157.1265 825.4804,156.5745 825.7114,156.0215 C826.4564,154.2235 826.9854,152.7685 827.2954,151.6565 C827.6044,150.5435 827.6144,149.5135 827.3184,148.5675 C826.7164,148.0475 826.1474,147.4975 825.6104,146.9105 C825.0114,146.2735 824.3934,145.6845 823.7564,145.1445 C821.8514,145.4015 820.0924,145.8675 818.4834,146.5355 C816.8734,147.2065 815.0634,148.1585 813.0644,149.4035 C811.7694,149.9975 810.6304,150.7375 809.6494,151.6195 C808.6674,152.5005 807.5294,153.6665 806.2414,155.1195 C803.9854,157.1915 801.6574,159.6245 799.2694,162.4235 C794.9524,167.4835 790.7984,173.3985 786.8504,180.1625 C786.6514,180.8385 786.3874,181.5235 786.0584,182.2155 C785.7304,182.9085 785.5244,183.3695 785.4394,183.6005 C785.0134,184.5125 784.7014,185.2325 784.5054,185.7595 C784.3104,186.2875 784.2134,186.7915 784.2194,187.2725 C784.4534,187.4595 784.5644,187.6375 784.5514,187.8055 C784.5374,187.9735 784.4184,188.2645 784.1944,188.6795 C783.9674,189.0945 783.8574,189.4825 783.8624,189.8435 C783.8734,190.8035 784.4004,191.7035 785.4374,192.5445 C786.3314,193.2685 787.3474,193.7545 788.4914,194.0065 C789.6334,194.2565 790.5614,194.1405 791.2784,193.6515 C792.5964,192.7605 794.2314,191.5875 796.1924,190.1455 M791.8554,198.5665 C790.9194,198.8035 790.1244,198.9225 789.4734,198.9195 C786.7844,198.8995 784.5224,198.1465 782.6574,196.6395 C780.7934,195.1315 779.5304,193.1085 778.8734,190.5525 C778.2174,187.9995 778.1824,185.4825 778.7934,183.0065 C779.6724,179.5565 780.8004,176.1755 782.1874,172.8625 C783.3284,170.6055 784.6474,168.4335 786.1504,166.3515 C787.6514,164.2695 789.6264,161.7305 792.1064,158.7505 C792.5004,158.2795 793.0314,157.5835 793.7004,156.6665 C794.4304,155.6765 794.9974,154.9485 795.3974,154.4785 C796.1024,153.6465 796.8874,152.8475 797.7544,152.0795 C797.9704,151.8875 798.5744,151.3665 799.5694,150.5195 C800.5664,149.6725 801.3474,148.9285 801.9134,148.2855 C802.2904,147.9785 802.9954,147.3845 804.0364,146.5105 C805.0124,145.6465 805.8304,144.9895 806.4804,144.5335 C807.1294,144.0775 807.7554,143.8145 808.3544,143.7445 C809.1754,143.4875 810.4734,143.0335 812.2564,142.3915 C814.6744,141.5295 816.6514,140.9295 818.1714,140.5735 C819.6894,140.2175 821.2654,140.1285 822.8974,140.3105 C824.5254,140.4935 826.0174,141.1565 827.3554,142.2995 C827.9644,142.8185 828.4014,143.2565 828.6664,143.6095 C830.4874,145.1735 831.6164,146.7305 832.0734,148.2695 C832.5304,149.8075 832.4454,151.7615 831.8324,154.1275 C832.1884,156.4075 831.7534,159.0685 830.5634,162.1175 C829.3704,165.1665 827.6094,168.1055 825.3044,170.9535 C824.1014,172.4575 822.4314,174.3605 820.3194,176.6725 C819.6244,177.4315 818.9334,178.1915 818.2454,178.9535 C815.0544,182.4875 812.1604,185.2995 809.5274,187.3765 C804.3744,191.6315 799.3734,195.0385 794.4604,197.5925 C793.6604,198.0045 792.7924,198.3275 791.8554,198.5665" id="Fill-67" fill="#4C0629" sketch:type="MSShapeGroup"></path>
                <path d="M811.2435,211.4246 C811.7765,211.9216 812.4875,212.1806 813.3765,212.2026 C815.0215,212.1806 816.7915,211.5006 818.7055,210.1656 C820.6225,208.8296 822.3565,207.3836 823.9055,205.8176 C825.4575,204.2526 827.2865,202.3146 829.4135,200.0106 C834.1835,194.8476 839.0775,189.7566 844.0975,184.7436 C844.8205,184.0206 845.6555,183.2426 846.6065,182.4146 C847.5585,181.5856 848.2155,181.0236 848.5775,180.7246 C850.2205,179.3346 851.3725,178.3396 852.0135,177.7246 C853.1945,176.5936 853.9535,175.6336 854.2865,174.8376 C854.3805,174.2696 854.3885,173.7806 854.3105,173.3716 C854.2325,172.9636 854.1355,172.6666 854.0185,172.4836 C853.9005,172.3006 853.8145,172.1806 853.7605,172.1266 C853.9645,171.9326 854.1735,171.6286 854.3875,171.2126 C854.6005,170.7966 854.7445,170.5266 854.8215,170.4026 C855.1455,169.6676 855.3965,169.2216 855.5695,169.0606 C855.7745,168.8676 855.9875,168.8816 856.2105,169.1026 C857.0135,169.9036 857.9485,170.7416 859.0115,171.6176 C859.3405,171.9516 859.9085,172.4756 860.7105,173.1946 C861.5115,173.9136 862.1505,174.5556 862.6325,175.1186 C863.5995,176.1856 864.1045,177.1866 864.1505,178.1136 C864.1995,179.0426 863.9445,179.7576 863.3945,180.2616 C862.9455,180.6716 862.4385,180.8486 861.8705,180.7946 C860.2705,180.7436 858.3055,181.6686 856.0095,183.5796 C855.3135,184.1336 854.2245,185.1166 852.7515,186.5356 C851.6485,187.6006 850.5035,188.6866 849.3175,189.7966 C848.1325,190.9076 847.0335,191.8366 846.0155,192.5846 C842.6915,195.9056 839.4225,199.2606 836.2075,202.6496 C835.8595,203.0166 835.5125,203.3846 835.1655,203.7516 C832.0425,207.0646 829.2485,209.7736 826.7475,211.8656 C824.2485,213.9576 821.5905,215.6606 818.7685,216.9846 C816.6285,218.0186 814.4935,218.6606 812.3515,218.9146 C810.2075,219.1656 808.4195,218.6216 806.9605,217.2646 C806.7225,217.0436 806.4835,216.8516 806.2415,216.6906 C806.0005,216.5286 805.5725,216.1646 804.9605,215.6006 C803.9605,214.2486 803.4285,212.6996 803.3725,210.9506 C803.3165,209.2026 803.5285,207.2516 804.0145,205.0966 C804.3015,203.9956 804.7055,202.9846 805.2305,202.0646 C805.7545,201.1436 806.5375,199.9436 807.5855,198.4666 C808.9025,196.6726 809.8785,195.1586 810.5035,193.9146 C818.1715,184.9726 826.1925,176.2186 834.5685,167.6756 C835.0285,167.2056 835.7145,166.5606 836.6355,165.7446 C837.2955,165.1066 837.9585,164.4686 838.6225,163.8336 C839.2905,163.1666 839.9505,162.4286 840.6025,161.6196 C840.8775,161.2936 840.9965,160.9406 840.9675,160.5576 C840.9355,160.1746 840.8345,159.7096 840.6605,159.1626 C840.4045,158.4766 840.2785,157.9106 840.2845,157.4636 C840.2855,157.0186 840.5405,156.5456 841.0485,156.0486 C841.7395,155.9776 842.3265,156.0686 842.8055,156.3186 C843.2835,156.5686 843.7945,156.9136 844.3325,157.3516 C844.8725,157.7906 845.3025,158.1296 845.6235,158.3656 C847.1925,159.6466 848.0425,160.3596 848.1845,160.4956 C849.5825,161.8266 850.2155,163.0946 850.0975,164.2906 C850.0685,164.5896 849.9165,164.8686 849.6455,165.1286 C848.9965,165.7466 847.7055,166.1976 845.7725,166.4966 C843.7305,168.4806 841.7095,170.4776 839.7085,172.4866 C836.6645,175.5416 833.6665,178.6246 830.7145,181.7346 C827.1835,185.4836 823.7195,189.2696 820.3205,193.0936 C817.7285,195.9906 815.6505,198.4696 814.0575,200.5116 C812.4675,202.5526 811.0835,204.6226 809.8995,206.7136 C809.8065,208.9326 810.2555,210.5016 811.2435,211.4246" id="Fill-69" fill="#4C0629" sketch:type="MSShapeGroup"></path>
                <path d="M242.3672,128.6505 C249.3062,146.4215 247.8132,141.9085 253.1152,155.6695 L237.0382,167.6715 C231.1052,152.2455 232.8322,158.6585 225.4342,139.3635 C219.6652,143.4675 215.5152,146.4475 208.9232,151.2285 C228.7772,204.5715 231.4442,211.0825 247.8892,256.0445 C252.8112,252.2255 258.8922,247.0225 265.2082,242.7915 C258.8332,225.4225 254.9432,215.0355 248.0862,196.8485 L264.5462,184.6635 C270.9242,201.4305 276.1502,214.2485 282.0452,230.4255 C288.5732,226.0685 294.7852,221.1785 300.9432,216.7275 C287.3442,178.5835 278.8012,157.6655 261.8012,114.5885 C254.9372,118.4535 249.3122,123.5765 242.3672,128.6505" id="Fill-71" fill="#ECCFDE" sketch:type="MSShapeGroup"></path>
                <path d="M340.6616,137.0681 C336.1136,139.8601 331.5836,142.6321 327.0746,145.3521 C324.9946,131.7261 322.8356,118.0391 320.5996,104.2871 C327.5656,115.5201 334.2536,126.4161 340.6616,137.0681 M294.6906,75.2121 C301.6916,118.8361 306.2246,148.5401 312.0926,191.1631 C318.7196,186.8521 325.3586,182.9251 332.0806,178.3231 C330.8836,170.2371 331.2666,172.8971 330.0086,164.7651 C336.5286,160.6031 343.0896,156.3431 349.6946,152.0811 C353.4336,158.3321 353.1006,157.6861 356.6366,163.8011 C364.7786,159.2001 371.8736,155.9581 379.1806,151.8111 C361.2256,121.6471 343.1636,94.6061 319.7576,60.5881 C311.1646,64.7011 303.8116,69.7621 294.6906,75.2121" id="Fill-73" fill="#ECCFDE" sketch:type="MSShapeGroup"></path>
                <path d="M390.89,25.4209 C393.834,50.9439 396.403,77.7689 398.633,102.9089 C388.088,81.8449 375.375,59.3629 362.726,37.8129 C354.32,41.8549 345.967,46.0239 337.667,50.1629 C359.624,83.0799 379.326,111.9989 395.953,142.9589 C404.081,139.3149 411.739,137.1479 419.372,133.7959 C418.801,95.0349 417.608,56.9909 415.761,17.4599 C407.413,20.2359 399.136,21.9429 390.89,25.4209" id="Fill-75" fill="#ECCFDE" sketch:type="MSShapeGroup"></path>
                <path d="M503.7458,104.0945 C494.0548,102.1375 484.4448,101.6125 474.9138,102.2415 C473.2858,92.7495 471.5488,83.2475 469.7008,73.7375 C478.2168,72.8925 486.7918,72.8745 495.4268,73.8675 C494.3958,67.4515 493.3178,61.0335 492.1928,54.6155 C483.3858,53.8655 474.6378,54.1015 465.9498,55.1375 C464.0048,45.8335 461.9548,36.5235 459.7998,27.2085 C469.9248,25.7235 480.1268,25.2055 490.4048,25.9325 C489.1628,19.4815 487.8748,13.0325 486.5408,6.5835 C467.3158,5.7555 448.3498,8.9935 429.6378,14.5745 C439.8518,51.2725 448.3708,87.7435 455.1948,124.0065 C471.9308,120.0715 488.9288,119.3325 506.1918,123.4105 C505.4228,116.9775 504.6078,110.5385 503.7458,104.0945" id="Fill-77" fill="#ECCFDE" sketch:type="MSShapeGroup"></path>
            </g>
        </g>
    </g>
</svg>