<?xml version="1.0" encoding="UTF-8" standalone="no"?>
<svg width="348px" height="104px" viewBox="0 0 348 104" version="1.1" xmlns="http://www.w3.org/2000/svg" xmlns:xlink="http://www.w3.org/1999/xlink" xmlns:sketch="http://www.bohemiancoding.com/sketch/ns">
    <!-- Generator: Sketch 3.5.1 (25234) - http://www.bohemiancoding.com/sketch -->
    <title>PAILA</title>
    <desc>Created with Sketch.</desc>
    <defs></defs>
    <g id="Welcome" stroke="none" stroke-width="1" fill="none" fill-rule="evenodd" sketch:type="MSPage">
        <g id="Paila---HD" sketch:type="MSArtboardGroup" transform="translate(-551.000000, -2899.000000)" fill="#FFFFFF">
            <g id="Logo" sketch:type="MSLayerGroup" transform="translate(389.000000, 2181.734375)">
                <path d="M166.52,720.2 C163.64,720.344 162.2,721.784 162.2,724.664 L162.2,816.68 C162.2,819.416 163.784,821 166.52,821 L182.648,821 C185.528,821 186.968,819.56 186.968,816.68 L186.968,793.64 C186.968,790.76 188.552,789.32 191.288,789.32 L198.2,789.32 C223.832,789.32 234.2,778.376 234.2,754.76 C234.2,731.144 223.832,720.2 198.2,720.2 L166.52,720.2 Z M191.288,764.552 C188.552,764.552 186.968,762.968 186.968,760.232 L186.968,749.288 C186.968,746.408 188.552,744.968 191.288,744.968 L199.064,744.968 C205.976,744.968 209.432,745.832 209.432,754.76 C209.432,763.688 205.976,764.552 199.064,764.552 L191.288,764.552 Z M312.968,816.104 C312.968,819.272 311.528,821 308.648,821 L292.52,821 C289.784,821 288.2,819.56 288.2,816.68 L288.2,804.152 C288.2,801.272 286.76,799.832 283.88,799.832 L271.496,799.832 C268.76,799.832 267.176,801.272 267.176,804.152 L267.176,816.68 C267.176,819.56 265.736,821 262.856,821 L246.728,821 C243.992,821 242.408,819.272 242.408,816.104 L242.408,755.048 C242.408,736.904 245.288,717.608 277.688,717.608 C310.088,717.608 312.968,736.904 312.968,755.048 L312.968,816.104 Z M288.2,755.048 C288.2,748.136 287.192,744.68 277.688,744.68 C268.184,744.68 267.176,748.136 267.176,755.048 L267.176,770.744 C267.176,773.48 268.76,775.064 271.496,775.064 L283.88,775.064 C286.76,774.92 288.2,773.48 288.2,770.6 L288.2,755.048 Z M346.808,720.2 C349.688,720.2 351.128,721.64 351.128,724.52 L351.128,816.68 C351.128,819.416 349.688,821 346.808,821 L330.968,821 C328.232,821 326.648,819.416 326.648,816.68 L326.648,724.52 C326.648,721.64 328.232,720.2 330.968,720.2 L346.808,720.2 Z M385.976,720.2 C388.856,720.2 390.296,721.64 390.296,724.52 L390.296,791.912 C390.296,794.648 391.88,796.232 394.616,796.232 L426.728,796.232 C429.608,796.232 431.048,797.672 431.048,800.552 L431.048,816.68 C431.048,819.56 429.608,821 426.728,821 L369.848,821 C367.112,821 365.528,819.416 365.528,816.68 L365.528,724.52 C365.528,721.64 367.112,720.2 369.848,720.2 L385.976,720.2 Z M509.816,816.104 C509.816,819.272 508.376,821 505.496,821 L489.368,821 C486.632,821 485.048,819.56 485.048,816.68 L485.048,804.152 C485.048,801.272 483.608,799.832 480.728,799.832 L468.344,799.832 C465.608,799.832 464.024,801.272 464.024,804.152 L464.024,816.68 C464.024,819.56 462.584,821 459.704,821 L443.576,821 C440.84,821 439.256,819.272 439.256,816.104 L439.256,755.048 C439.256,736.904 442.136,717.608 474.536,717.608 C506.936,717.608 509.816,736.904 509.816,755.048 L509.816,816.104 Z M485.048,755.048 C485.048,748.136 484.04,744.68 474.536,744.68 C465.032,744.68 464.024,748.136 464.024,755.048 L464.024,770.744 C464.024,773.48 465.608,775.064 468.344,775.064 L480.728,775.064 C483.608,774.92 485.048,773.48 485.048,770.6 L485.048,755.048 Z" id="PAILA" sketch:type="MSShapeGroup"></path>
            </g>
        </g>
    </g>
</svg>