<?xml version="1.0" encoding="UTF-8" standalone="no"?>
<svg width="181px" height="253px" viewBox="0 0 181 253" version="1.1" xmlns="http://www.w3.org/2000/svg" xmlns:xlink="http://www.w3.org/1999/xlink" xmlns:sketch="http://www.bohemiancoding.com/sketch/ns">
    <!-- Generator: Sketch 3.5.2 (25235) - http://www.bohemiancoding.com/sketch -->
    <title>1</title>
    <desc>Created with Sketch.</desc>
    <defs></defs>
    <g id="Welcome" stroke="none" stroke-width="1" fill="none" fill-rule="evenodd" sketch:type="MSPage">
        <g id="Relevé---HD" sketch:type="MSArtboardGroup" transform="translate(-136.000000, -1221.000000)">
            <g id="1" sketch:type="MSLayerGroup" transform="translate(136.133650, 1221.945406)">
                <path d="M168,252 L12,252 C5.373,252 0,245.553 0,237.6 L0,14.4 C0,6.447 5.373,0 12,0 L168,0 C174.627,0 180,6.447 180,14.4 L180,237.6 C180,245.553 174.627,252 168,252" id="Fill-1" fill="#DAB27A" sketch:type="MSShapeGroup"></path>
                <path d="M163.1749,18.48 C163.8949,18.48 164.4939,18.081 164.4939,17.211 L164.4939,16.332 L161.8559,16.332 L161.8559,17.211 C161.8559,18.081 162.4459,18.48 163.1749,18.48 M163.1749,19.37 C162.2449,19.37 161.4959,18.61 161.4959,17.221 L161.4959,16.332 L160.2459,16.332 C159.2469,16.332 159.0769,16.452 159.0769,17.281 L158.8669,17.281 L158.8669,14.583 L159.0769,14.583 C159.0769,15.412 159.2469,15.532 160.2459,15.532 L163.4949,15.532 C164.4939,15.532 164.6539,15.412 164.6539,14.583 L164.8639,14.583 L164.8639,17.221 C164.8639,18.61 164.1049,19.37 163.1749,19.37" id="Fill-3" fill="#221F20" sketch:type="MSShapeGroup"></path>
                <path d="M160.6866,21.8629 C160.4666,20.9139 160.1366,20.4829 159.6966,20.4829 C159.3766,20.4829 159.1876,20.7039 159.1876,20.9529 C159.1876,21.1629 159.2566,21.4029 159.6666,21.8629 L160.6866,21.8629 Z M158.7566,22.5619 C158.7566,22.1729 158.9776,21.9319 159.3366,21.8829 C158.8976,21.3929 158.7376,21.0329 158.7376,20.6339 C158.7376,20.1439 159.0466,19.7339 159.5776,19.7339 C160.4266,19.7339 160.7956,20.7229 160.9966,21.8629 C161.7466,21.8629 162.0456,21.7619 162.0456,21.1929 C162.0456,20.9639 161.8856,20.6239 161.5656,20.6239 C161.3666,20.6239 161.2156,20.4729 161.2156,20.2839 C161.2156,20.0839 161.3666,19.9339 161.5656,19.9339 C162.0456,19.9339 162.3656,20.5629 162.3656,21.2029 C162.3656,22.1729 161.9556,22.5719 161.0056,22.5719 L159.4976,22.5719 C159.2476,22.5719 159.1076,22.6519 159.1076,22.8019 C159.1076,22.9019 159.1876,23.0119 159.2566,23.0819 L159.0676,23.2219 C158.8676,23.0319 158.7566,22.7819 158.7566,22.5619 L158.7566,22.5619 Z" id="Fill-5" fill="#221F20" sketch:type="MSShapeGroup"></path>
                <path d="M158.6973,25.0836 C158.6973,24.3946 159.4073,24.0146 158.6973,24.0146 L158.6973,23.8136 L160.1563,23.8136 L160.1563,24.0146 C159.7073,24.0146 159.0373,24.3946 159.0373,25.1136 C159.0373,25.4336 159.2663,25.6736 159.5473,25.6736 C159.7973,25.6736 159.9763,25.4636 160.1563,25.1136 L160.4563,24.5636 C160.7163,24.0736 161.1353,23.8946 161.4563,23.8946 C161.9953,23.8946 162.3653,24.3946 162.3653,24.9136 C162.3653,25.6626 161.8453,25.8126 162.3653,25.8126 L162.3653,26.0226 L161.2063,26.0226 L161.2063,25.8126 C161.6263,25.8126 162.0463,25.5136 162.0463,25.0036 C162.0463,24.6636 161.8653,24.4936 161.6153,24.4936 C161.3763,24.4936 161.2463,24.6636 161.0063,25.1036 L160.7463,25.5836 C160.4963,26.0226 160.1463,26.2726 159.7873,26.2726 C159.1273,26.2726 158.6973,25.7326 158.6973,25.0836" id="Fill-7" fill="#221F20" sketch:type="MSShapeGroup"></path>
                <path d="M158.6973,28.313 C158.6973,27.624 159.4073,27.244 158.6973,27.244 L158.6973,27.043 L160.1563,27.043 L160.1563,27.244 C159.7073,27.244 159.0373,27.624 159.0373,28.343 C159.0373,28.663 159.2663,28.903 159.5473,28.903 C159.7973,28.903 159.9763,28.693 160.1563,28.343 L160.4563,27.793 C160.7163,27.303 161.1353,27.124 161.4563,27.124 C161.9953,27.124 162.3653,27.624 162.3653,28.143 C162.3653,28.892 161.8453,29.042 162.3653,29.042 L162.3653,29.252 L161.2063,29.252 L161.2063,29.042 C161.6263,29.042 162.0463,28.743 162.0463,28.233 C162.0463,27.893 161.8653,27.723 161.6153,27.723 C161.3763,27.723 161.2463,27.893 161.0063,28.333 L160.7463,28.813 C160.4963,29.252 160.1463,29.502 159.7873,29.502 C159.1273,29.502 158.6973,28.962 158.6973,28.313" id="Fill-9" fill="#221F20" sketch:type="MSShapeGroup"></path>
                <path d="M163.5342,33.0328 L162.9452,31.6638 L163.0142,31.6128 L163.8852,32.5428 C164.0342,32.7128 164.1242,32.8128 164.1242,32.9828 C164.1242,33.1728 163.9542,33.2618 163.8342,33.2618 C163.6842,33.2618 163.5742,33.1128 163.5342,33.0328 L163.5342,33.0328 Z M161.1562,32.8428 C161.4752,32.9528 161.9662,32.7828 161.9662,32.1228 C161.9662,31.6928 161.6452,31.3238 161.1562,31.1828 L161.1562,32.8428 Z M159.1172,32.4228 C159.1172,32.7528 159.3062,33.2318 159.5772,33.5218 L159.3562,33.7018 C158.9872,33.3518 158.6972,32.7428 158.6972,32.1738 C158.6972,31.0738 159.5262,30.3238 160.5362,30.3238 C161.5962,30.3238 162.3652,31.2438 162.3652,32.1738 C162.3652,33.0618 161.6452,33.7718 160.7862,33.5318 L160.7862,31.1238 C159.8462,31.0038 159.1172,31.3928 159.1172,32.4228 L159.1172,32.4228 Z" id="Fill-11" fill="#221F20" sketch:type="MSShapeGroup"></path>
                <path d="M115.2847,142.5293 C113.2817,143.5303 103.4687,160.3243 103.4687,160.3243 C101.9657,158.2263 99.6637,159.3513 99.6637,159.3513 C97.0647,160.4303 98.1797,166.2253 98.1797,166.2253 C97.9787,169.6293 95.6587,171.1673 95.6587,171.1673 C95.5567,171.2453 95.4777,171.3183 95.3817,171.3943 C96.2677,165.6193 95.4097,157.9193 93.9187,152.6513 C93.9187,152.6513 91.4307,142.0863 92.0177,139.9013 C106.9387,144.2413 115.2847,142.5293 115.2847,142.5293 M162.8987,85.3243 C160.2577,85.4533 157.6207,85.6723 154.9757,85.7253 C153.4447,85.7553 151.9497,85.5143 150.4317,85.3243 C144.8447,84.7353 140.9347,84.4113 135.3477,83.8223 C132.1817,83.4883 129.0097,83.1863 125.8477,82.8193 C120.5937,82.2113 116.3047,79.7463 111.7487,77.5443 C107.6217,75.5503 102.9567,74.5153 98.3447,73.9643 C97.8037,73.8993 97.2687,73.8333 96.7357,73.7683 C94.4127,71.8703 94.2827,69.1453 94.3517,67.9843 C97.1447,66.5893 99.2397,63.6543 100.0607,60.0473 C100.2907,60.0643 100.5237,60.0703 100.7617,60.0523 C103.2507,59.8583 105.1107,57.6833 104.9167,55.1943 C104.7237,52.7043 102.5477,50.8443 100.0587,51.0383 C99.8497,51.0543 99.6477,51.0893 99.4487,51.1323 C97.6617,46.3783 93.6827,43.1863 89.3177,43.5263 C83.7427,43.9603 79.9767,52.9723 80.5217,59.9643 C80.8377,64.0213 82.5407,66.4983 84.9997,67.7843 C85.0927,68.8283 85.1127,71.9423 82.4027,73.9593 C81.5957,74.1343 81.0607,74.2793 80.3577,74.4603 C73.1197,76.3303 66.2567,79.4773 59.3427,82.2933 C57.6817,82.9693 55.8897,83.2223 54.0967,83.1733 C48.4807,83.0203 43.1537,84.7613 37.7767,86.0433 C35.0657,86.6903 32.3207,87.5473 29.5527,87.9053 C28.0447,88.1603 26.4007,88.5883 24.8697,88.6243 C22.8117,88.6713 20.7517,88.6293 18.6957,88.5703 C17.1617,88.5273 15.5957,88.7073 14.7717,90.1833 C14.0837,91.4143 14.1757,92.9733 14.4817,94.3013 C14.6947,95.2243 14.7827,96.5583 15.7027,97.0813 C16.7107,97.6543 17.9007,96.7933 18.9437,97.2583 C19.7737,97.6293 21.2777,97.8213 22.1657,97.5803 C23.1107,97.3233 23.8037,96.5193 24.5317,95.9173 C25.2917,95.2883 25.3387,95.2803 26.3217,95.0393 C26.4907,94.9973 28.5147,94.1773 29.5857,93.7733 C33.6067,92.4113 36.8027,92.1263 40.4207,92.1263 C46.9407,91.5243 55.0987,92.0593 61.1907,89.5903 C64.5957,88.2103 67.0457,86.9963 70.6167,86.0643 C76.6227,84.4983 74.7597,89.9693 75.1117,94.5003 C75.3897,98.0773 76.3927,101.6883 77.0217,105.2193 C78.9877,116.2523 73.6687,126.8863 74.3767,137.7153 C74.3767,137.7153 74.9347,145.5503 76.6987,151.1093 C78.3467,156.3013 79.9947,161.4933 81.6417,166.6843 C83.0557,171.1413 84.6167,175.4463 85.1787,180.1093 C86.4627,190.7503 87.9597,201.3693 89.3567,211.9963 C89.7597,215.4313 83.2817,217.3343 82.6077,217.5223 C82.5667,217.5293 82.5287,217.5353 82.4877,217.5423 C78.2227,218.6843 77.7917,219.6133 77.7587,220.7083 C77.7437,221.1943 78.1437,221.7943 78.6297,221.8003 L95.3117,221.8003 C99.7817,221.8003 99.7167,220.0493 98.5847,217.0153 C98.5847,217.0153 96.0277,204.7693 97.0507,198.6673 C98.6777,193.5713 97.3157,183.9673 96.1967,177.9983 C105.6007,175.4713 109.8777,166.1603 109.8777,166.1603 C110.8787,163.5573 128.3017,146.9353 128.3027,146.9343 C130.6917,144.8643 131.6377,141.8733 131.4267,138.7803 C131.2897,136.7713 131.0857,134.2443 129.4837,132.8643 C127.7037,131.3293 124.6827,130.3013 122.6027,129.1793 C117.2847,126.3123 111.7067,123.1843 105.7677,121.8273 C104.0737,121.4413 102.7617,120.1093 102.4197,118.4053 C100.7857,110.2583 99.6507,102.2313 103.1277,94.1513 C104.8487,90.1503 105.6147,85.4113 110.6037,86.2833 C116.3147,87.2823 124.2557,90.9973 130.1807,91.3783 C137.7377,91.8653 143.1937,89.6943 150.4317,91.3383 C150.4317,91.2563 152.4757,91.9033 152.7097,91.9503 C153.7017,92.1493 154.8427,92.4013 155.6287,92.9963 C156.3827,93.5673 157.1097,94.3403 158.0647,94.5563 C158.9617,94.7583 160.4557,94.5013 161.2687,94.0953 C162.2917,93.5853 163.5167,94.3943 164.4997,93.7783 C165.3967,93.2163 165.4257,91.8793 165.5997,90.9483 C166.0397,88.5803 165.6217,85.9223 162.8987,85.3243" id="Fill-13" fill="#221F20" sketch:type="MSShapeGroup"></path>
                <path d="M78.7008,81.4659 C78.7008,81.4659 77.6218,89.5789 69.8088,87.2279 C66.0058,87.5039 73.6118,130.0979 73.6118,130.0979 C80.3878,127.1939 92.0978,143.0639 92.0978,143.0639 L95.1028,140.7379 C95.1028,140.7379 87.9408,131.6129 104.2728,121.1679 C104.2728,121.1679 128.2358,122.2149 117.5188,102.7159 C114.6588,97.5129 116.9548,89.3999 113.2488,89.6999 C103.6208,90.4779 101.6158,81.4659 101.6158,81.4659 C101.6158,81.4659 89.5128,92.2779 78.7008,81.4659" id="Fill-15" fill="#DAB27A" sketch:type="MSShapeGroup"></path>
                <path d="M77.6221,73.3987 C77.6221,73.3987 80.1691,82.5257 78.3421,85.7067" id="Stroke-17" stroke="#DAB27A" stroke-width="1.659" sketch:type="MSShapeGroup"></path>
                <path d="M101.1043,73.3987 C101.1043,73.3987 102.0803,80.4447 101.1043,84.1507" id="Stroke-19" stroke="#DAB27A" stroke-width="1.659" sketch:type="MSShapeGroup"></path>
            </g>
        </g>
    </g>
</svg>