<?xml version="1.0" encoding="UTF-8" standalone="no"?>
<svg width="181px" height="253px" viewBox="0 0 181 253" version="1.1" xmlns="http://www.w3.org/2000/svg" xmlns:xlink="http://www.w3.org/1999/xlink" xmlns:sketch="http://www.bohemiancoding.com/sketch/ns">
    <!-- Generator: Sketch 3.5.2 (25235) - http://www.bohemiancoding.com/sketch -->
    <title>10</title>
    <desc>Created with Sketch.</desc>
    <defs></defs>
    <g id="Welcome" stroke="none" stroke-width="1" fill="none" fill-rule="evenodd" sketch:type="MSPage">
        <g id="Relevé---HD" sketch:type="MSArtboardGroup" transform="translate(-136.000000, -2186.000000)">
            <g id="10" sketch:type="MSLayerGroup" transform="translate(136.133650, 2186.328218)">
                <path d="M168,252 L12,252 C5.373,252 0,245.553 0,237.6 L0,14.4 C0,6.447 5.373,0 12,0 L168,0 C174.627,0 180,6.447 180,14.4 L180,237.6 C180,245.553 174.627,252 168,252" id="Fill-1" fill="#DAB27A" sketch:type="MSShapeGroup"></path>
                <path d="M104.4208,103.3111 C105.0058,100.0311 106.4338,94.4211 109.2528,92.1571 C115.8498,86.8581 120.3888,79.3571 123.5778,71.6171 C125.5538,66.8221 128.3438,61.4451 128.0108,56.1101 C127.5748,49.1141 125.8408,42.3051 124.5978,35.4301 C123.6408,30.1351 122.5798,26.6161 117.8628,23.5201 C115.6058,22.0401 112.8338,21.2041 111.1138,24.0281 C109.7138,26.3291 110.8608,29.3511 113.3668,30.3371 C115.0828,31.0131 116.6978,31.5551 117.5668,33.5631 C120.0818,39.3761 121.0938,49.1751 120.7068,55.3761 C117.0168,69.8901 105.0708,79.1191 105.0708,79.1191 C95.9678,75.1821 89.3258,79.1191 89.3258,79.1191 L80.4078,60.8521 C77.2708,54.5791 77.8248,50.7051 77.8248,50.7051 L84.0968,31.3311 L90.5558,28.3791 C93.3238,26.7191 88.7108,23.3971 88.7108,23.3971 C83.3598,20.0761 78.9318,27.8261 78.9318,27.8261 L71.3668,48.1211 C68.4148,55.6861 71.3668,60.2991 71.3668,60.2991 L81.5148,84.4691 C77.7418,97.6011 79.6478,121.0961 80.4658,129.2131 C80.6908,133.0611 81.7118,145.3801 85.9608,159.1871 C84.0768,165.3361 82.8078,171.4211 81.6048,178.0091 C79.7878,187.9511 78.3778,197.9601 76.9718,207.9661 C76.9718,207.9661 73.0888,209.3961 73.6508,213.8921 C74.1428,217.8311 79.0428,221.3711 76.1388,225.7761 C76.1388,225.7761 74.3978,228.6111 75.8088,229.4981 C75.8088,229.4981 76.4888,229.9141 77.3808,229.8311 C78.3968,229.7381 79.6888,228.9951 80.5788,226.2161 C80.5788,226.2161 81.5248,221.1321 82.5318,215.5151 C83.5258,209.9711 84.5788,203.9091 84.8418,201.6981 C87.2378,194.4671 90.7978,186.2701 93.9808,179.4541 C95.9938,185.8121 100.6528,201.0861 101.6548,209.3591 C101.9678,211.9441 101.0158,215.6271 98.3868,216.7821 C96.8078,217.4771 94.9728,217.8211 93.3208,218.3231 C93.1738,218.3681 93.0278,218.4121 92.8818,218.4571 C92.8818,218.4571 88.1998,219.7001 88.7088,221.6361 C88.7088,221.6361 88.7018,221.6811 88.7308,221.7541 C88.8428,222.1341 89.5758,223.3061 94.4248,223.0171 C95.2488,223.0401 96.1888,223.0421 97.2688,223.0171 L104.5638,223.0171 L110.5578,223.0171 C112.7368,223.0171 113.2998,219.9881 112.6218,218.4181 C112.3868,217.8721 112.0398,217.3631 111.6318,216.9151 C111.2418,216.4861 110.8808,216.1701 110.7148,215.5991 C110.3728,214.4261 110.0898,213.0821 110.1598,211.8551 C111.6558,185.5161 103.9598,174.5041 103.9598,174.5041 C103.7178,170.7711 103.1248,166.9321 102.3208,163.1481 C107.2828,155.5781 113.4258,146.8991 114.0398,138.1791 C114.6548,129.4501 107.2708,123.8701 105.0918,115.9691 C103.9568,111.8541 103.6698,107.5211 104.4208,103.3111" id="Fill-3" fill="#221F20" sketch:type="MSShapeGroup"></path>
                <path d="M88.7149,80.6383 C92.3469,78.0443 93.4509,72.4763 93.4509,72.4763 L102.8849,73.0413 C102.8849,73.0413 101.7649,77.6403 105.7399,80.2353 L88.7149,80.6383 Z" id="Fill-5" fill="#221F20" sketch:type="MSShapeGroup"></path>
                <path d="M88.6439,64.4841 C88.3259,71.4901 92.6539,74.3671 98.2409,74.6201 C103.8269,74.8741 108.6139,69.4001 108.9319,62.3951 C109.2499,55.3891 104.9789,49.5041 99.3919,49.2511 C93.8059,48.9971 88.9619,57.4781 88.6439,64.4841" id="Fill-7" fill="#221F20" sketch:type="MSShapeGroup"></path>
                <path d="M113.4406,62.7458 C113.3276,65.2398 111.2136,67.1698 108.7196,67.0568 C106.2256,66.9438 104.2956,64.8298 104.4086,62.3358 C104.5216,59.8418 106.6356,57.9118 109.1296,58.0248 C111.6236,58.1378 113.5536,60.2518 113.4406,62.7458" id="Fill-9" fill="#221F20" sketch:type="MSShapeGroup"></path>
                <path d="M79.6616,134.7962 C79.6616,134.7962 86.5026,147.2422 88.9266,150.5612 C88.9266,150.5612 92.9056,125.1852 113.9576,124.8392 L108.9486,94.1392 C108.9486,94.1392 103.5856,92.2032 104.4036,84.2602 C104.4036,84.2602 94.0416,89.0222 89.6346,80.9322 C89.6346,80.9322 80.6296,84.5972 78.5286,94.9842 L70.0546,95.6602 L79.6616,134.7962 Z" id="Fill-11" fill="#DAB27A" sketch:type="MSShapeGroup"></path>
                <path d="M89.4757,77.2676 C89.4757,77.2676 90.0007,78.6506 89.3257,84.5966" id="Stroke-13" stroke="#DAB27A" stroke-width="1.659" sketch:type="MSShapeGroup"></path>
                <path d="M105.0703,77.2676 C105.0703,77.2676 103.3093,85.7036 103.4473,89.0226" id="Stroke-15" stroke="#DAB27A" stroke-width="1.659" sketch:type="MSShapeGroup"></path>
                <path d="M164.248,21.4234 L164.248,21.2134 L164.448,21.1634 C164.977,21.0244 165.207,20.9244 165.207,20.0044 L165.207,18.6944 L160.979,18.6944 C159.98,18.6944 159.811,18.8244 159.811,19.6544 L159.601,19.6544 L159.601,16.9454 L159.811,16.9454 C159.811,17.7764 159.98,17.9054 160.979,17.9054 L165.207,17.9054 L165.207,16.5964 C165.207,15.6774 164.977,15.5764 164.448,15.4374 L164.248,15.3874 L164.248,15.1774 L165.598,15.2674 L165.598,21.3334 L164.248,21.4234 Z" id="Fill-17" fill="#221F20" sketch:type="MSShapeGroup"></path>
                <path d="M161.8896,23.5894 C162.2086,23.6994 162.6996,23.5294 162.6996,22.8694 C162.6996,22.4404 162.3786,22.0704 161.8896,21.9304 L161.8896,23.5894 Z M159.8506,23.1694 C159.8506,23.4994 160.0396,23.9794 160.3106,24.2694 L160.0896,24.4484 C159.7206,24.0994 159.4306,23.4894 159.4306,22.9204 C159.4306,21.8204 160.2596,21.0704 161.2696,21.0704 C162.3286,21.0704 163.0986,21.9904 163.0986,22.9204 C163.0986,23.8094 162.3786,24.5194 161.5196,24.2784 L161.5196,21.8704 C160.5796,21.7504 159.8506,22.1404 159.8506,23.1694 L159.8506,23.1694 Z" id="Fill-19" fill="#221F20" sketch:type="MSShapeGroup"></path>
                <path d="M163.0985,28.0806 C163.0985,28.9796 162.4585,29.3796 161.6095,29.3796 L160.9795,29.3796 C159.9805,29.3796 159.8105,29.4996 159.8105,30.1696 L159.6005,30.1696 L159.6005,27.8806 L159.8105,27.8806 C159.8105,28.5296 159.9805,28.6696 160.9795,28.6696 L161.5595,28.6696 C162.2085,28.6696 162.6285,28.4396 162.6285,27.8406 C162.6285,27.2906 162.1785,26.6906 161.6295,26.6906 L160.9795,26.6906 C159.9505,26.6906 159.8105,26.7706 159.8105,27.3906 L159.6005,27.3906 L159.6005,25.1916 L159.8105,25.1916 C159.8105,25.8516 159.9805,25.9806 160.9795,25.9806 L161.4795,25.9806 C162.4795,25.9806 162.6385,25.8516 162.6385,25.1916 L162.8485,25.1916 L163.0985,26.5206 C162.9985,26.5706 162.5885,26.6606 162.3785,26.6906 C162.7185,26.9606 163.0985,27.4206 163.0985,28.0806" id="Fill-21" fill="#221F20" sketch:type="MSShapeGroup"></path>
                <path d="M161.9091,33.7994 C162.3791,33.6184 162.6991,33.2394 162.6991,32.7894 C162.6991,32.0104 162.0691,31.6504 161.2691,31.6504 C160.4701,31.6504 159.8301,32.0104 159.8301,32.7894 C159.8301,33.2394 160.1501,33.6184 160.6201,33.7994 L161.9091,33.7994 Z M164.1381,33.7994 C165.1381,33.7994 165.3071,33.6794 165.3071,33.0094 L165.5171,33.0094 L165.7671,34.5084 L161.0591,34.5084 C160.0601,34.5084 159.8901,34.6384 159.8901,35.2984 L159.6801,35.2984 L159.4301,33.9694 C159.5301,33.9184 159.8811,33.8394 160.0401,33.8094 C159.6901,33.5284 159.4301,33.1294 159.4301,32.5794 C159.4301,31.6304 160.2601,30.8404 161.2691,30.8404 C162.2791,30.8404 163.0981,31.6304 163.0981,32.5794 C163.0981,33.0794 162.8791,33.4994 162.5091,33.7994 L164.1381,33.7994 Z" id="Fill-23" fill="#221F20" sketch:type="MSShapeGroup"></path>
                <path d="M164.2577,38.8004 L163.6677,37.4304 L163.7377,37.3804 L164.6077,38.3104 C164.7577,38.4804 164.8477,38.5794 164.8477,38.7494 C164.8477,38.9404 164.6777,39.0294 164.5577,39.0294 C164.4077,39.0294 164.2977,38.8794 164.2577,38.8004 L164.2577,38.8004 Z M159.4307,39.1794 C159.5297,39.1294 159.8907,39.0494 160.0707,39.0204 C159.8107,38.7704 159.4307,38.2904 159.4307,37.7104 C159.4307,36.7904 160.0797,36.4714 160.9297,36.4714 L161.5597,36.4714 C162.5587,36.4714 162.7287,36.3514 162.7287,35.6814 L162.9287,35.6814 L162.9287,37.1814 L160.9797,37.1814 C160.3297,37.1814 159.9097,37.4014 159.9097,37.9404 C159.9097,38.3304 160.2797,39.0204 160.8997,39.0204 L161.5597,39.0204 C162.5587,39.0204 162.7287,38.8904 162.7287,38.2204 L162.9287,38.2204 L162.9287,39.7194 L161.0597,39.7194 C160.0607,39.7194 159.8907,39.8494 159.8907,40.5194 L159.6807,40.5194 L159.4307,39.1794 Z" id="Fill-25" fill="#221F20" sketch:type="MSShapeGroup"></path>
            </g>
        </g>
    </g>
</svg>