<?xml version="1.0" encoding="UTF-8" standalone="no"?>
<svg width="181px" height="253px" viewBox="0 0 181 253" version="1.1" xmlns="http://www.w3.org/2000/svg" xmlns:xlink="http://www.w3.org/1999/xlink" xmlns:sketch="http://www.bohemiancoding.com/sketch/ns">
    <!-- Generator: Sketch 3.5.2 (25235) - http://www.bohemiancoding.com/sketch -->
    <title>2</title>
    <desc>Created with Sketch.</desc>
    <defs></defs>
    <g id="Welcome" stroke="none" stroke-width="1" fill="none" fill-rule="evenodd" sketch:type="MSPage">
        <g id="Relevé---HD" sketch:type="MSArtboardGroup" transform="translate(-387.000000, -1221.000000)">
            <g id="2" sketch:type="MSLayerGroup" transform="translate(387.133650, 1221.945406)">
                <path d="M168,252 L12,252 C5.373,252 0,245.553 0,237.6 L0,14.4 C0,6.447 5.373,0 12,0 L168,0 C174.627,0 180,6.447 180,14.4 L180,237.6 C180,245.553 174.627,252 168,252" id="Fill-1" fill="#DAB27A" sketch:type="MSShapeGroup"></path>
                <path d="M163.7239,17.0611 L161.3149,16.0221 L161.3149,18.1111 L163.7239,17.0611 Z M159.8359,15.3821 C159.2959,15.1421 159.0769,15.3321 159.0769,16.1621 L158.8669,16.1621 L158.8669,13.8231 L159.0769,13.8231 C159.0769,14.6631 159.2459,14.7121 159.9459,15.0221 L165.0339,17.2211 L165.0339,17.3511 L159.9459,19.5601 C159.2459,19.8701 159.0769,19.9191 159.0769,20.7491 L158.8669,20.7491 L158.8669,17.9811 L159.0769,17.9811 C159.0769,18.8101 159.2869,18.9991 159.8359,18.7601 L160.9459,18.2811 L160.9459,15.8621 L159.8359,15.3821 Z" id="Fill-3" fill="#221F20" sketch:type="MSShapeGroup"></path>
                <path d="M161.2747,23.691 C161.2747,23.501 161.4447,23.341 161.6347,23.341 C161.8447,23.341 161.9647,23.221 161.9647,23.021 C161.9647,22.792 161.5947,22.252 160.7957,22.252 L160.2457,22.252 C159.2467,22.252 159.0767,22.372 159.0767,23.042 L158.8667,23.042 L158.8667,20.753 L159.0767,20.753 C159.0767,21.412 159.2467,21.542 160.2457,21.542 L160.7457,21.542 C161.7457,21.542 161.9047,21.412 161.9047,20.753 L162.1147,20.753 L162.3647,22.082 C162.2647,22.131 161.8547,22.221 161.6447,22.252 C162.0457,22.452 162.3647,22.901 162.3647,23.301 C162.3647,23.851 161.9947,24.09 161.7457,24.09 C161.5247,24.09 161.2747,24.001 161.2747,23.691" id="Fill-5" fill="#221F20" sketch:type="MSShapeGroup"></path>
                <path d="M160.6858,26.7623 C160.4658,25.8133 160.1358,25.3823 159.6958,25.3823 C159.3758,25.3823 159.1868,25.6033 159.1868,25.8533 C159.1868,26.0623 159.2558,26.3023 159.6658,26.7623 L160.6858,26.7623 Z M158.7558,27.4613 C158.7558,27.0723 158.9768,26.8313 159.3358,26.7823 C158.8968,26.2923 158.7368,25.9323 158.7368,25.5333 C158.7368,25.0433 159.0458,24.6333 159.5768,24.6333 C160.4258,24.6333 160.7948,25.6223 160.9958,26.7623 C161.7458,26.7623 162.0448,26.6613 162.0448,26.0923 C162.0448,25.8633 161.8848,25.5233 161.5648,25.5233 C161.3658,25.5233 161.2148,25.3723 161.2148,25.1833 C161.2148,24.9833 161.3658,24.8333 161.5648,24.8333 C162.0448,24.8333 162.3648,25.4623 162.3648,26.1023 C162.3648,27.0723 161.9548,27.4713 161.0048,27.4713 L159.4968,27.4713 C159.2468,27.4713 159.1068,27.5513 159.1068,27.7013 C159.1068,27.8013 159.1868,27.9113 159.2558,27.9813 L159.0668,28.1213 C158.8668,27.9313 158.7558,27.6813 158.7558,27.4613 L158.7558,27.4613 Z" id="Fill-7" fill="#221F20" sketch:type="MSShapeGroup"></path>
                <path d="M159.8958,29.813 C159.4168,29.993 159.0958,30.363 159.0958,30.823 C159.0958,31.602 159.7358,31.961 160.5358,31.961 C161.3348,31.961 161.9648,31.602 161.9648,30.823 C161.9648,30.363 161.6448,29.993 161.1748,29.813 L159.8958,29.813 Z M158.6968,29.313 L158.6968,29.103 L163.4038,29.103 C164.4038,29.103 164.5738,28.973 164.5738,28.314 L164.7838,28.314 L165.0338,29.813 L161.7748,29.813 C162.1448,30.113 162.3648,30.533 162.3648,31.032 C162.3648,31.982 161.5448,32.761 160.5358,32.761 C159.5258,32.761 158.6968,31.982 158.6968,31.032 C158.6968,30.502 158.9568,30.042 159.3668,29.752 L158.6968,29.313 Z" id="Fill-9" fill="#221F20" sketch:type="MSShapeGroup"></path>
                <path d="M161.1555,36.2515 C161.4745,36.3615 161.9655,36.1915 161.9655,35.5315 C161.9655,35.1025 161.6445,34.7325 161.1555,34.5925 L161.1555,36.2515 Z M159.1165,35.8315 C159.1165,36.1615 159.3055,36.6415 159.5765,36.9315 L159.3555,37.1105 C158.9865,36.7615 158.6965,36.1515 158.6965,35.5825 C158.6965,34.4825 159.5255,33.7325 160.5355,33.7325 C161.5945,33.7325 162.3645,34.6525 162.3645,35.5825 C162.3645,36.4715 161.6445,37.1815 160.7855,36.9405 L160.7855,34.5325 C159.8455,34.4125 159.1165,34.8025 159.1165,35.8315 L159.1165,35.8315 Z" id="Fill-11" fill="#221F20" sketch:type="MSShapeGroup"></path>
                <path d="M158.6965,39.1724 C158.6965,38.4834 159.4065,38.1034 158.6965,38.1034 L158.6965,37.9024 L160.1555,37.9024 L160.1555,38.1034 C159.7065,38.1034 159.0365,38.4834 159.0365,39.2024 C159.0365,39.5224 159.2655,39.7624 159.5465,39.7624 C159.7965,39.7624 159.9755,39.5524 160.1555,39.2024 L160.4555,38.6524 C160.7155,38.1624 161.1345,37.9834 161.4555,37.9834 C161.9945,37.9834 162.3645,38.4834 162.3645,39.0024 C162.3645,39.7514 161.8445,39.9014 162.3645,39.9014 L162.3645,40.1114 L161.2055,40.1114 L161.2055,39.9014 C161.6255,39.9014 162.0455,39.6024 162.0455,39.0924 C162.0455,38.7524 161.8645,38.5824 161.6145,38.5824 C161.3755,38.5824 161.2455,38.7524 161.0055,39.1924 L160.7455,39.6724 C160.4955,40.1114 160.1455,40.3614 159.7865,40.3614 C159.1265,40.3614 158.6965,39.8214 158.6965,39.1724" id="Fill-13" fill="#221F20" sketch:type="MSShapeGroup"></path>
                <path d="M161.175,44.1412 C161.645,43.9602 161.965,43.5812 161.965,43.1312 C161.965,42.3522 161.335,41.9922 160.535,41.9922 C159.736,41.9922 159.096,42.3522 159.096,43.1312 C159.096,43.5812 159.416,43.9602 159.896,44.1412 L161.175,44.1412 Z M156.577,45.6402 L156.367,45.6402 L156.367,43.3512 L156.577,43.3512 C156.577,44.0212 156.738,44.1412 157.737,44.1412 L159.296,44.1412 C158.926,43.8412 158.696,43.4212 158.696,42.9212 C158.696,41.9722 159.526,41.1822 160.535,41.1822 C161.545,41.1822 162.364,41.9722 162.364,42.9212 C162.364,43.4512 162.105,43.9112 161.695,44.2012 L162.364,44.6402 L162.364,44.8502 L157.737,44.8502 C156.738,44.8502 156.577,44.9802 156.577,45.6402 L156.577,45.6402 Z" id="Fill-15" fill="#221F20" sketch:type="MSShapeGroup"></path>
                <path d="M158.6965,49.3599 C158.7965,49.3099 159.1565,49.2299 159.3365,49.2009 C159.0765,48.9509 158.6965,48.4709 158.6965,47.8909 C158.6965,46.9709 159.3455,46.6519 160.1955,46.6519 L160.8255,46.6519 C161.8245,46.6519 161.9945,46.5319 161.9945,45.8619 L162.1945,45.8619 L162.1945,47.3619 L160.2455,47.3619 C159.5955,47.3619 159.1755,47.5819 159.1755,48.1209 C159.1755,48.5109 159.5465,49.2009 160.1655,49.2009 L160.8255,49.2009 C161.8245,49.2009 161.9945,49.0709 161.9945,48.4009 L162.1945,48.4009 L162.1945,49.8999 L160.3255,49.8999 C159.3265,49.8999 159.1565,50.0299 159.1565,50.6999 L158.9465,50.6999 L158.6965,49.3599 Z" id="Fill-17" fill="#221F20" sketch:type="MSShapeGroup"></path>
                <path d="M161.1555,53.8902 C161.4745,54.0002 161.9655,53.8302 161.9655,53.1702 C161.9655,52.7412 161.6445,52.3712 161.1555,52.2312 L161.1555,53.8902 Z M159.1165,53.4702 C159.1165,53.8002 159.3055,54.2802 159.5765,54.5702 L159.3555,54.7492 C158.9865,54.4002 158.6965,53.7902 158.6965,53.2212 C158.6965,52.1212 159.5255,51.3712 160.5355,51.3712 C161.5945,51.3712 162.3645,52.2912 162.3645,53.2212 C162.3645,54.1102 161.6445,54.8202 160.7855,54.5792 L160.7855,52.1712 C159.8455,52.0512 159.1165,52.4412 159.1165,53.4702 L159.1165,53.4702 Z" id="Fill-19" fill="#221F20" sketch:type="MSShapeGroup"></path>
                <path d="M161.9651,60.1509 C161.9651,59.6909 161.6451,59.3209 161.1851,59.1309 L159.8961,59.1309 C159.4161,59.3209 159.0961,59.6909 159.0961,60.1509 C159.0961,60.9209 159.7361,61.2799 160.5351,61.2799 C161.3351,61.2799 161.9651,60.9209 161.9651,60.1509 M156.5771,59.9209 L156.3671,59.9209 L156.3671,57.6309 L156.5771,57.6309 C156.5771,58.3009 156.7371,58.4219 157.7371,58.4219 L160.7451,58.4219 C161.7451,58.4219 161.9041,58.3009 161.9041,57.6309 L162.1141,57.6309 L162.3641,58.9709 C162.2651,59.0209 161.9141,59.0909 161.7551,59.1209 C162.1051,59.4109 162.3641,59.8109 162.3641,60.3599 C162.3641,61.3099 161.5451,62.0889 160.5351,62.0889 C159.5261,62.0889 158.6961,61.3099 158.6961,60.3599 C158.6961,59.8609 158.9261,59.4309 159.2961,59.1309 L157.7371,59.1309 C156.7371,59.1309 156.5771,59.2609 156.5771,59.9209" id="Fill-21" fill="#221F20" sketch:type="MSShapeGroup"></path>
                <path d="M161.1555,65.5699 C161.4745,65.6799 161.9655,65.5099 161.9655,64.8499 C161.9655,64.4209 161.6445,64.0509 161.1555,63.9109 L161.1555,65.5699 Z M159.1165,65.1499 C159.1165,65.4799 159.3055,65.9599 159.5765,66.2499 L159.3555,66.4289 C158.9865,66.0799 158.6965,65.4699 158.6965,64.9009 C158.6965,63.8009 159.5255,63.0509 160.5355,63.0509 C161.5945,63.0509 162.3645,63.9709 162.3645,64.9009 C162.3645,65.7899 161.6445,66.4999 160.7855,66.2589 L160.7855,63.8509 C159.8455,63.7309 159.1165,64.1209 159.1165,65.1499 L159.1165,65.1499 Z" id="Fill-23" fill="#221F20" sketch:type="MSShapeGroup"></path>
                <path d="M162.3645,70.0601 C162.3645,70.9591 161.7245,71.3591 160.8755,71.3591 L160.2455,71.3591 C159.2465,71.3591 159.0765,71.4791 159.0765,72.1491 L158.8665,72.1491 L158.8665,69.8601 L159.0765,69.8601 C159.0765,70.5091 159.2465,70.6491 160.2455,70.6491 L160.8255,70.6491 C161.4745,70.6491 161.8945,70.4191 161.8945,69.8201 C161.8945,69.2701 161.4445,68.6701 160.8955,68.6701 L160.2455,68.6701 C159.2165,68.6701 159.0765,68.7501 159.0765,69.3701 L158.8665,69.3701 L158.8665,67.1711 L159.0765,67.1711 C159.0765,67.8311 159.2465,67.9601 160.2455,67.9601 L160.7455,67.9601 C161.7455,67.9601 161.9045,67.8311 161.9045,67.1711 L162.1145,67.1711 L162.3645,68.5001 C162.2645,68.5501 161.8545,68.6401 161.6445,68.6701 C161.9845,68.9401 162.3645,69.4001 162.3645,70.0601" id="Fill-25" fill="#221F20" sketch:type="MSShapeGroup"></path>
                <path d="M160.4456,73.6304 C159.6456,73.6304 159.1166,74.0204 159.1166,74.8404 C159.1166,75.1694 159.2656,75.5794 159.5766,75.9094 L159.3556,76.0794 C158.9466,75.6994 158.6966,75.1594 158.6966,74.5904 C158.6966,73.4814 159.4466,72.8204 160.4456,72.8204 C161.6256,72.8204 162.3646,73.7904 162.3646,74.5904 C162.3646,75.4194 162.0146,75.7794 161.6446,75.7794 C161.4846,75.7794 161.2156,75.6794 161.2156,75.3394 C161.2156,75.1194 161.3946,74.9494 161.6146,74.9494 C161.9446,74.9494 162.0456,74.7704 162.0456,74.5904 C162.0456,74.0604 161.3656,73.6304 160.4456,73.6304" id="Fill-27" fill="#221F20" sketch:type="MSShapeGroup"></path>
                <path d="M158.8665,79.0894 L159.0765,79.0894 C159.0765,79.7194 159.2165,79.7994 160.2455,79.7994 L160.8255,79.7994 C161.4745,79.7994 161.8945,79.5594 161.8945,79.0394 C161.8945,78.5394 161.4655,77.9604 160.8955,77.9604 L160.2455,77.9604 C159.2065,77.9604 159.0765,78.0394 159.0765,78.5894 L158.8665,78.5894 L158.8665,76.4604 L159.0765,76.4604 C159.0765,77.1304 159.2465,77.2504 160.2455,77.2504 L163.4035,77.2504 C164.4035,77.2504 164.5735,77.1304 164.5735,76.4604 L164.7835,76.4604 L165.0335,77.9604 L161.6445,77.9604 C161.9845,78.2394 162.3645,78.6904 162.3645,79.2694 C162.3645,80.1894 161.7245,80.4984 160.8755,80.4984 L160.2455,80.4984 C159.2465,80.4984 159.0765,80.6284 159.0765,81.2984 L158.8665,81.2984 L158.8665,79.0894 Z" id="Fill-29" fill="#221F20" sketch:type="MSShapeGroup"></path>
                <path d="M163.5334,84.6793 L162.9444,83.3103 L163.0134,83.2593 L163.8844,84.1893 C164.0334,84.3593 164.1234,84.4593 164.1234,84.6293 C164.1234,84.8193 163.9534,84.9083 163.8334,84.9083 C163.6834,84.9083 163.5734,84.7593 163.5334,84.6793 L163.5334,84.6793 Z M161.1554,84.4893 C161.4744,84.5993 161.9654,84.4293 161.9654,83.7693 C161.9654,83.3393 161.6444,82.9703 161.1554,82.8293 L161.1554,84.4893 Z M159.1164,84.0693 C159.1164,84.3993 159.3054,84.8783 159.5764,85.1683 L159.3554,85.3483 C158.9864,84.9983 158.6964,84.3893 158.6964,83.8203 C158.6964,82.7203 159.5254,81.9703 160.5354,81.9703 C161.5954,81.9703 162.3644,82.8903 162.3644,83.8203 C162.3644,84.7083 161.6444,85.4183 160.7854,85.1783 L160.7854,82.7703 C159.8454,82.6503 159.1164,83.0393 159.1164,84.0693 L159.1164,84.0693 Z" id="Fill-31" fill="#221F20" sketch:type="MSShapeGroup"></path>
                <path d="M90.2566,128.2634 C90.2346,128.3114 90.2166,128.3624 90.1946,128.4114 L91.0466,118.9244 C91.8326,122.0384 91.6136,125.3524 90.2566,128.2634 L90.2566,128.2634 Z M97.9936,239.6964 C100.6736,236.9404 100.3736,232.1384 100.0536,230.3844 C99.4206,226.9144 100.9876,226.3814 103.2446,224.4974 C104.9996,223.0324 105.6986,221.7614 104.1906,219.6574 C102.8646,217.8074 99.8406,216.6304 100.5966,213.9284 C103.5466,203.3954 105.5146,191.8254 103.5126,180.9184 C102.7926,176.9964 102.1396,174.4144 102.4746,170.2384 C103.1136,162.2614 107.6126,153.0374 107.5306,145.0294 L107.7496,140.9834 C107.7496,140.9834 107.7656,139.8244 107.7656,139.8234 C107.7916,137.8934 108.3526,135.6594 109.1436,133.8334 C109.9716,131.9224 111.6176,130.5714 112.4656,128.7874 C113.4006,126.8244 113.7296,124.2704 114.2386,122.1734 C116.3956,113.2914 117.8916,104.1914 118.2796,95.0514 C118.3826,92.6154 118.4026,90.1754 118.3156,87.7374 C118.1346,82.6834 120.8776,77.9094 122.0806,73.1354 C122.5676,71.2004 122.3146,68.7924 122.2936,66.8214 C122.2046,58.7024 121.0976,50.4484 118.3156,42.7924 C117.6076,40.8424 116.7846,38.9324 115.8266,37.0914 L116.4666,36.6844 C117.3046,35.9064 118.9556,35.3884 119.5106,33.9634 C120.2536,32.0554 119.4386,30.0044 117.8916,28.7754 C115.7146,27.0464 114.7566,25.3214 114.7556,22.8384 C114.7546,20.3224 116.0236,15.5074 113.9256,13.9704 C109.4656,10.7034 108.3396,18.6674 108.3766,22.9414 C108.3766,22.9414 107.8576,30.1914 108.6406,37.0914 C108.6406,37.0914 112.3646,67.7804 110.8236,70.6054 C110.8236,70.6054 107.5276,78.4384 107.3146,83.9594 C107.3146,83.9594 98.1116,101.2944 98.8826,110.2824 L98.8716,112.8424 C95.1326,109.7884 91.5996,99.2094 92.0416,94.0054 L97.8316,67.5444 C97.8316,67.5444 99.3656,62.2874 94.4026,55.8604 L81.4276,38.5164 C80.5286,37.2034 79.5356,36.3344 78.4166,35.2884 C76.4846,33.4814 74.6686,31.5564 72.7906,29.6954 C69.9496,27.4534 68.2786,30.0184 67.0236,32.0744 C66.5306,32.8824 65.6586,33.8974 65.9496,34.9144 C66.2696,36.0294 67.7216,36.2464 68.1416,37.3094 C68.4756,38.1554 69.4146,39.3454 70.2176,39.7944 C71.0716,40.2714 72.1296,40.1824 73.0716,40.2614 C74.0546,40.3444 75.1466,40.2664 76.0166,40.7814 C76.0946,40.8274 76.3336,41.0744 76.5986,41.3684 L88.6526,58.5234 C88.6526,58.5234 91.1066,62.4074 89.8636,69.3104 C88.4446,73.9394 87.0266,78.5684 85.6076,83.1974 C85.1536,84.6784 85.0966,86.7724 83.1106,86.9254 C79.4176,86.1284 78.4406,81.4764 78.1956,79.6094 C80.2286,77.6654 81.1776,74.7814 80.2956,70.7564 C80.1826,70.2384 80.0336,69.7174 79.8686,69.1954 C79.8896,69.1904 79.9096,69.1924 79.9296,69.1884 C82.3686,68.6534 83.9126,66.2434 83.3786,63.8044 C82.8436,61.3654 80.4336,59.8214 77.9946,60.3564 C77.0656,60.5594 76.2686,61.0384 75.6646,61.6844 C73.1536,58.7834 70.0346,56.9274 67.1216,57.5654 C61.6586,58.7624 58.4466,65.2854 59.9476,72.1354 C61.1946,77.8314 65.3086,81.9464 69.7986,82.4894 C70.2546,83.8594 70.8706,86.9404 68.4576,89.5584 C68.0036,89.6824 67.5256,89.6824 66.9636,89.4544 C65.4726,88.8454 64.0736,88.0554 62.6516,87.3084 C60.3746,86.1124 58.1836,84.7564 56.0916,83.2624 C52.9816,81.0404 49.6366,78.4774 47.5556,75.2094 C47.4946,75.1124 47.4346,75.0154 47.3766,74.9174 C45.2586,69.0774 43.4696,59.3894 44.2456,53.1034 L45.0216,50.5704 C45.4836,49.6704 46.0376,48.6424 46.8246,48.0484 C47.5796,47.4794 48.5216,46.9904 48.9896,46.1304 C49.4296,45.3234 49.5896,43.8154 49.4216,42.9224 C49.2096,41.7994 50.3226,40.8414 49.9986,39.7274 C49.7026,38.7114 48.4246,38.3174 47.5756,37.8974 C45.4186,36.8274 42.7466,36.5034 41.4286,38.9594 C40.8316,41.5354 40.3216,44.1324 39.6516,46.6904 C39.3786,47.7284 38.7426,49.3714 38.3826,50.8344 C37.7366,53.1064 37.7816,55.5534 37.9486,57.8954 C38.3376,63.3314 37.8896,68.9094 39.2336,74.2404 C40.5026,79.2774 43.6666,83.6304 46.9096,87.5944 C49.5206,90.7864 52.4126,93.7474 55.5066,96.4714 C57.3726,98.1144 59.3156,99.6644 61.3166,101.1374 C63.1186,102.4644 64.9066,103.4314 66.0126,105.4774 C66.0126,105.4774 69.4136,120.7804 78.0736,130.2964 C79.4946,131.8564 84.6786,138.2374 86.1066,140.3344 C85.2166,148.5554 86.3286,157.1914 87.7556,165.0524 C88.6126,169.7744 89.7046,174.4554 90.9996,179.0754 C91.3836,180.4434 91.9866,181.8544 92.2376,183.2494 C92.9246,187.0664 92.0016,190.9874 92.0456,194.8284 C92.1096,200.3654 92.4616,205.8804 91.9016,211.4304 C91.4616,215.7974 91.3516,220.1934 91.4666,224.5814 C91.5546,227.9494 92.5736,236.6454 94.7206,239.6964 L97.9936,239.6964 Z" id="Fill-33" fill="#221F20" sketch:type="MSShapeGroup"></path>
                <path d="M66.013,105.4775 L59.579,111.4075 L81.989,145.1135 C81.989,145.1135 84.587,154.1195 86.112,145.7795 C87.638,137.4395 109.642,137.7515 109.642,137.7515 C110.017,134.8475 112.646,131.6465 112.646,131.6465 C102.985,129.0645 98.872,112.8425 98.872,112.8425 L95.499,99.4455 L92.176,97.3285 C87.194,96.9405 83.484,90.8715 83.484,90.8715 C83.484,90.8715 77.049,100.9315 67.714,95.5385 C67.714,95.5385 68.227,103.0585 66.013,105.4775" id="Fill-35" fill="#DAB27A" sketch:type="MSShapeGroup"></path>
                <path d="M83.0313,85.5817 C83.0313,85.5817 82.7743,88.0707 83.4843,92.8417" id="Stroke-37" stroke="#DAB27A" stroke-width="1.659" sketch:type="MSShapeGroup"></path>
                <path d="M67.714,88.1746 C67.714,88.1746 68.482,93.3626 68.653,98.1836" id="Stroke-39" stroke="#DAB27A" stroke-width="1.659" sketch:type="MSShapeGroup"></path>
            </g>
        </g>
    </g>
</svg>