<?xml version="1.0" encoding="UTF-8" standalone="no"?>
<svg width="181px" height="253px" viewBox="0 0 181 253" version="1.1" xmlns="http://www.w3.org/2000/svg" xmlns:xlink="http://www.w3.org/1999/xlink" xmlns:sketch="http://www.bohemiancoding.com/sketch/ns">
    <!-- Generator: Sketch 3.5.2 (25235) - http://www.bohemiancoding.com/sketch -->
    <title>3</title>
    <desc>Created with Sketch.</desc>
    <defs></defs>
    <g id="Welcome" stroke="none" stroke-width="1" fill="none" fill-rule="evenodd" sketch:type="MSPage">
        <g id="Relevé---HD" sketch:type="MSArtboardGroup" transform="translate(-136.000000, -1864.000000)">
            <g id="3" sketch:type="MSLayerGroup" transform="translate(136.133650, 1864.867281)">
                <path d="M168,252 L12,252 C5.373,252 0,245.553 0,237.6 L0,14.4 C0,6.447 5.373,0 12,0 L168,0 C174.627,0 180,6.447 180,14.4 L180,237.6 C180,245.553 174.627,252 168,252" id="Fill-1" fill="#DAB27A" sketch:type="MSShapeGroup"></path>
                <path d="M163.8241,20.5289 L163.8241,20.3189 L164.0241,20.2689 C164.5531,20.1299 164.7831,20.0299 164.7831,19.1099 L164.7831,17.7999 L160.5551,17.7999 C159.5561,17.7999 159.3871,17.9299 159.3871,18.7599 L159.1771,18.7599 L159.1771,16.0509 L159.3871,16.0509 C159.3871,16.8819 159.5561,17.0109 160.5551,17.0109 L164.7831,17.0109 L164.7831,15.7019 C164.7831,14.7829 164.5531,14.6819 164.0241,14.5429 L163.8241,14.4929 L163.8241,14.2829 L165.1741,14.3729 L165.1741,20.4389 L163.8241,20.5289 Z" id="Fill-3" fill="#221F20" sketch:type="MSShapeGroup"></path>
                <path d="M161.4657,22.6949 C161.7847,22.8049 162.2757,22.6349 162.2757,21.9749 C162.2757,21.5459 161.9547,21.1759 161.4657,21.0359 L161.4657,22.6949 Z M159.4267,22.2749 C159.4267,22.6049 159.6157,23.0849 159.8867,23.3749 L159.6657,23.5539 C159.2967,23.2049 159.0067,22.5949 159.0067,22.0259 C159.0067,20.9259 159.8357,20.1759 160.8457,20.1759 C161.9047,20.1759 162.6747,21.0959 162.6747,22.0259 C162.6747,22.9149 161.9547,23.6249 161.0957,23.3839 L161.0957,20.9759 C160.1557,20.8559 159.4267,21.2459 159.4267,22.2749 L159.4267,22.2749 Z" id="Fill-5" fill="#221F20" sketch:type="MSShapeGroup"></path>
                <path d="M162.6747,27.1861 C162.6747,28.0851 162.0347,28.4851 161.1857,28.4851 L160.5557,28.4851 C159.5567,28.4851 159.3867,28.6051 159.3867,29.2751 L159.1767,29.2751 L159.1767,26.9861 L159.3867,26.9861 C159.3867,27.6351 159.5567,27.7751 160.5557,27.7751 L161.1357,27.7751 C161.7847,27.7751 162.2047,27.5451 162.2047,26.9461 C162.2047,26.3961 161.7547,25.7961 161.2057,25.7961 L160.5557,25.7961 C159.5267,25.7961 159.3867,25.8761 159.3867,26.4961 L159.1767,26.4961 L159.1767,24.2971 L159.3867,24.2971 C159.3867,24.9571 159.5567,25.0861 160.5557,25.0861 L161.0557,25.0861 C162.0557,25.0861 162.2147,24.9571 162.2147,24.2971 L162.4247,24.2971 L162.6747,25.6261 C162.5747,25.6761 162.1647,25.7661 161.9547,25.7961 C162.2947,26.0661 162.6747,26.5261 162.6747,27.1861" id="Fill-7" fill="#221F20" sketch:type="MSShapeGroup"></path>
                <path d="M161.4853,32.9048 C161.9553,32.7238 162.2753,32.3448 162.2753,31.8948 C162.2753,31.1158 161.6453,30.7558 160.8453,30.7558 C160.0463,30.7558 159.4063,31.1158 159.4063,31.8948 C159.4063,32.3448 159.7263,32.7238 160.1963,32.9048 L161.4853,32.9048 Z M163.7143,32.9048 C164.7143,32.9048 164.8833,32.7848 164.8833,32.1148 L165.0933,32.1148 L165.3433,33.6138 L160.6353,33.6138 C159.6363,33.6138 159.4663,33.7438 159.4663,34.4038 L159.2563,34.4038 L159.0063,33.0748 C159.1063,33.0238 159.4573,32.9448 159.6163,32.9148 C159.2663,32.6338 159.0063,32.2348 159.0063,31.6848 C159.0063,30.7358 159.8363,29.9458 160.8453,29.9458 C161.8553,29.9458 162.6743,30.7358 162.6743,31.6848 C162.6743,32.1848 162.4553,32.6048 162.0853,32.9048 L163.7143,32.9048 Z" id="Fill-9" fill="#221F20" sketch:type="MSShapeGroup"></path>
                <path d="M163.8339,37.9058 L163.2439,36.5358 L163.3139,36.4858 L164.1839,37.4158 C164.3339,37.5858 164.4239,37.6848 164.4239,37.8548 C164.4239,38.0458 164.2539,38.1348 164.1339,38.1348 C163.9839,38.1348 163.8739,37.9848 163.8339,37.9058 L163.8339,37.9058 Z M159.0069,38.2848 C159.1059,38.2348 159.4669,38.1548 159.6469,38.1258 C159.3869,37.8758 159.0069,37.3958 159.0069,36.8158 C159.0069,35.8958 159.6559,35.5768 160.5059,35.5768 L161.1359,35.5768 C162.1349,35.5768 162.3049,35.4568 162.3049,34.7868 L162.5049,34.7868 L162.5049,36.2868 L160.5559,36.2868 C159.9059,36.2868 159.4859,36.5068 159.4859,37.0458 C159.4859,37.4358 159.8559,38.1258 160.4759,38.1258 L161.1359,38.1258 C162.1349,38.1258 162.3049,37.9958 162.3049,37.3258 L162.5049,37.3258 L162.5049,38.8248 L160.6359,38.8248 C159.6369,38.8248 159.4669,38.9548 159.4669,39.6248 L159.2569,39.6248 L159.0069,38.2848 Z" id="Fill-11" fill="#221F20" sketch:type="MSShapeGroup"></path>
                <path d="M99.9457,65.4995 C100.6097,65.3105 101.6157,66.0365 101.8097,66.1105 C102.6307,66.4215 103.5717,66.7995 104.1607,67.4215 C104.7237,68.0165 105.2357,68.7805 106.0207,69.1025 C108.6757,70.1885 113.3027,69.2035 113.6167,65.7335 C114.0057,61.4315 108.1277,60.5565 105.0697,60.1115 C103.7537,59.9205 101.5447,60.2465 100.3667,60.3815 C100.3667,60.3815 99.9477,65.4905 99.9457,65.4995" id="Fill-13" fill="#221F20" sketch:type="MSShapeGroup"></path>
                <path d="M104.2987,60.3923 C100.1207,59.6183 95.9117,61.5563 92.1867,63.4813 C88.2197,65.5313 84.3597,67.7743 80.5477,70.0993 C78.6057,71.2843 76.4867,72.4163 75.0817,74.2393 C73.9847,75.6633 73.4027,77.4073 72.8637,79.1223 C70.6637,86.1243 68.8677,93.2523 67.4867,100.4603 C66.7027,104.5473 64.9977,107.8003 63.1257,111.2603 C59.7787,117.4453 58.7827,126.9933 59.3457,135.3023 C59.8417,142.6303 62.9407,149.8233 69.7717,154.7103 C62.1337,158.5643 54.6927,162.8103 47.4907,167.4273 C45.0597,168.9853 42.5707,170.6723 41.3077,173.3313 C40.6877,174.6373 40.4647,176.1243 40.7947,177.5313 C41.4857,180.4743 44.0097,181.2623 46.3487,181.9373 C62.3547,186.5573 78.3597,191.1773 94.3657,195.7963 C96.3657,196.3743 99.5427,196.0723 99.1327,193.8773 C98.8947,192.6043 97.3577,190.9643 94.1947,190.6533 C89.8697,190.2273 89.7617,187.0603 88.1787,183.9113 C86.8707,181.3093 84.7467,179.8553 82.3327,181.4843 C81.4517,182.0783 80.8057,183.1783 79.7447,183.2393 C79.1677,183.2733 78.6307,182.9733 78.1307,182.6843 C73.2877,179.8743 68.4447,177.0643 63.6017,174.2543 C71.9857,173.7913 80.1877,170.4893 86.5547,165.0153 C87.6437,164.0783 88.7227,163.0553 90.0797,162.5843 C91.2097,162.1923 92.4357,162.2193 93.6317,162.2063 C105.6797,162.0753 117.2177,157.4723 128.0457,152.1883 C130.0557,151.2073 132.0967,150.1683 133.6357,148.5463 C136.8167,145.1923 137.2027,140.1683 137.8257,135.5883 C139.9237,120.1793 146.5757,105.6393 148.3527,90.1903 C148.5427,88.5333 148.6287,86.6823 147.3487,85.4723 C146.4957,84.6663 145.1287,84.5613 144.3647,85.4523 C143.7437,86.1753 143.9777,87.0673 144.0837,87.9053 C144.4097,90.4983 143.3407,93.2253 141.3387,94.9043 C138.7907,97.0423 136.5177,97.6483 136.5757,101.3743 C136.5757,101.3743 136.7707,103.8933 138.5337,104.2563 C137.9877,109.0203 132.7937,114.1603 130.7027,118.1543 C126.8457,125.5243 124.4007,131.3033 125.0887,139.4703 C117.5057,142.7223 110.6987,143.2553 102.4707,143.8673 C102.4707,143.8673 96.1067,137.0003 86.9047,139.9193 C84.8057,140.5853 84.3117,140.7633 82.5157,138.6113 C81.4437,137.3263 81.2007,135.5433 81.7027,133.9473 C83.6937,127.6243 89.0927,123.8783 94.0637,119.7463 C94.0637,119.7463 106.0017,106.4473 107.5067,102.1363 C107.5067,102.1363 115.3147,87.6853 123.0187,74.2253 C124.2297,72.1083 125.8227,69.9173 125.8657,67.3783 C125.8657,67.3783 125.4537,58.0763 123.0217,54.3173 C120.8097,50.8993 114.4737,53.0993 115.2587,57.2723 C116.0757,61.6073 121.9937,63.5593 119.8287,68.9023 C119.3207,70.1583 118.6197,71.3263 117.8847,72.4613 C115.4047,76.2893 112.9247,80.1183 110.4447,83.9463 C106.8827,89.4463 103.3117,94.9583 99.1857,100.0483 C96.5177,103.3393 93.2797,106.6363 89.0897,107.2623 C86.3727,103.1603 81.0137,102.1183 76.1787,102.2743 C77.9207,95.3233 79.6617,88.3723 81.4037,81.4203 C81.6887,80.2843 81.9817,79.1263 82.6067,78.1353 C83.4047,76.8693 84.6717,75.9843 85.9037,75.1353 C88.5407,73.3173 91.1777,71.4993 93.8147,69.6823 C95.1337,68.7733 96.4517,67.8643 97.7707,66.9553 C98.8637,66.2023 99.7377,64.9253 101.1797,65.6923" id="Fill-15" fill="#221F20" sketch:type="MSShapeGroup"></path>
                <path d="M85.2161,83.7833 C81.1991,89.5313 80.5551,95.5873 85.1381,98.7913 C89.7221,101.9943 96.6951,99.9323 100.7121,94.1843 C104.7291,88.4363 105.8551,81.5913 99.6861,77.9753 C94.8621,75.1473 89.2331,78.0353 85.2161,83.7833" id="Fill-17" fill="#221F20" sketch:type="MSShapeGroup"></path>
                <path d="M107.1634,90.3958 C106.1654,92.6848 103.5014,93.7308 101.2124,92.7338 C98.9244,91.7358 97.8774,89.0718 98.8754,86.7828 C99.8724,84.4938 102.5364,83.4478 104.8254,84.4448 C107.1144,85.4428 108.1614,88.1068 107.1634,90.3958" id="Fill-19" fill="#221F20" sketch:type="MSShapeGroup"></path>
                <path d="M76.179,102.2741 C82.302,102.3891 83.754,97.0361 83.754,97.0361 L89.836,99.4551 C89.836,99.4551 87.538,103.5361 89.004,107.0731 L76.179,102.2741 Z" id="Fill-21" fill="#221F20" sketch:type="MSShapeGroup"></path>
                <path d="M87.475,113.8566 C87.475,113.8566 74.925,117.5216 74.925,106.6106 C74.925,106.6106 58.955,107.0726 59.37,119.0076 L56.498,133.6666 L61.476,150.6766 L64.416,150.6556 C64.416,150.6556 76.031,162.7426 92.73,166.0606 L92.011,162.2436 C92.011,162.2436 76.179,147.4956 93.327,139.3206 L94.967,123.0186 C94.967,123.0186 86.726,124.7406 87.475,113.8566" id="Fill-23" fill="#DAB27A" sketch:type="MSShapeGroup"></path>
                <path d="M77.1724,101.6525 C77.1724,101.6525 73.9914,109.3965 72.6784,110.0195" id="Stroke-25" stroke="#DAB27A" stroke-width="1.659" sketch:type="MSShapeGroup"></path>
                <path d="M90.3099,105.8358 C90.3099,105.8358 87.1289,111.2638 86.2999,115.7578" id="Stroke-27" stroke="#DAB27A" stroke-width="1.659" sketch:type="MSShapeGroup"></path>
            </g>
        </g>
    </g>
</svg>