<?xml version="1.0" encoding="UTF-8" standalone="no"?>
<svg width="181px" height="253px" viewBox="0 0 181 253" version="1.1" xmlns="http://www.w3.org/2000/svg" xmlns:xlink="http://www.w3.org/1999/xlink" xmlns:sketch="http://www.bohemiancoding.com/sketch/ns">
    <!-- Generator: Sketch 3.5.2 (25235) - http://www.bohemiancoding.com/sketch -->
    <title>4</title>
    <desc>Created with Sketch.</desc>
    <defs></defs>
    <g id="Welcome" stroke="none" stroke-width="1" fill="none" fill-rule="evenodd" sketch:type="MSPage">
        <g id="Relevé---HD" sketch:type="MSArtboardGroup" transform="translate(-387.000000, -1864.000000)">
            <g id="4" sketch:type="MSLayerGroup" transform="translate(387.133650, 1864.867281)">
                <path d="M168,252 L12,252 C5.373,252 0,245.553 0,237.6 L0,14.4 C0,6.447 5.373,0 12,0 L168,0 C174.627,0 180,6.447 180,14.4 L180,237.6 C180,245.553 174.627,252 168,252" id="Fill-1" fill="#DAB27A" sketch:type="MSShapeGroup"></path>
                <path d="M163.4835,18.48 C164.2035,18.48 164.8025,18.081 164.8025,17.211 L164.8025,16.332 L162.1645,16.332 L162.1645,17.211 C162.1645,18.081 162.7545,18.48 163.4835,18.48 L163.4835,18.48 Z M160.6555,18.57 C159.9555,19.16 159.4565,19.83 159.3855,20.429 L159.1755,20.429 L159.1755,18.78 L161.8045,16.801 L161.8045,16.332 L160.5545,16.332 C159.5555,16.332 159.3855,16.452 159.3855,17.281 L159.1755,17.281 L159.1755,14.583 L159.3855,14.583 C159.3855,15.412 159.5555,15.532 160.5545,15.532 L163.8035,15.532 C164.8025,15.532 164.9625,15.412 164.9625,14.583 L165.1725,14.583 L165.1725,17.221 C165.1725,18.61 164.4135,19.37 163.4835,19.37 C162.6145,19.37 161.9235,18.72 161.8045,17.59 L160.6555,18.57 Z" id="Fill-3" fill="#221F20" sketch:type="MSShapeGroup"></path>
                <path d="M161.4649,23.4009 C161.7839,23.5109 162.2749,23.3409 162.2749,22.6809 C162.2749,22.2519 161.9539,21.8819 161.4649,21.7419 L161.4649,23.4009 Z M159.4259,22.9809 C159.4259,23.3109 159.6149,23.7909 159.8859,24.0809 L159.6649,24.2599 C159.2959,23.9109 159.0059,23.3009 159.0059,22.7319 C159.0059,21.6319 159.8349,20.8819 160.8449,20.8819 C161.9039,20.8819 162.6739,21.8019 162.6739,22.7319 C162.6739,23.6209 161.9539,24.3309 161.0949,24.0899 L161.0949,21.6819 C160.1549,21.5619 159.4259,21.9519 159.4259,22.9809 L159.4259,22.9809 Z" id="Fill-5" fill="#221F20" sketch:type="MSShapeGroup"></path>
                <path d="M159.1758,24.8121 L159.3858,24.8121 C159.3858,25.4821 159.5558,25.6021 160.5548,25.6021 L163.7128,25.6021 C164.7128,25.6021 164.8828,25.4821 164.8828,24.8121 L165.0928,24.8121 L165.3428,26.3121 L160.5548,26.3121 C159.5558,26.3121 159.3858,26.4421 159.3858,27.1011 L159.1758,27.1011 L159.1758,24.8121 Z" id="Fill-7" fill="#221F20" sketch:type="MSShapeGroup"></path>
                <path d="M161.4649,30.3004 C161.7839,30.4104 162.2749,30.2404 162.2749,29.5804 C162.2749,29.1514 161.9539,28.7814 161.4649,28.6414 L161.4649,30.3004 Z M159.4259,29.8804 C159.4259,30.2104 159.6149,30.6904 159.8859,30.9804 L159.6649,31.1594 C159.2959,30.8104 159.0059,30.2004 159.0059,29.6314 C159.0059,28.5314 159.8349,27.7814 160.8449,27.7814 C161.9039,27.7814 162.6739,28.7014 162.6739,29.6314 C162.6739,30.5204 161.9539,31.2304 161.0949,30.9894 L161.0949,28.5814 C160.1549,28.4614 159.4259,28.8514 159.4259,29.8804 L159.4259,29.8804 Z" id="Fill-9" fill="#221F20" sketch:type="MSShapeGroup"></path>
                <path d="M161.7149,34.5806 L158.9959,33.4506 L158.9959,33.2516 L161.7149,32.0316 C162.1449,31.8416 162.3039,31.6826 162.3039,31.3426 L162.5039,31.3426 L162.5039,33.1206 L162.3039,33.1206 C162.3039,32.6616 162.1939,32.6016 161.7149,32.8016 L160.1149,33.5116 L161.7149,34.1806 C162.1449,34.3606 162.3039,34.3306 162.3039,33.8916 L162.5039,33.8916 L162.5039,35.2896 L162.3039,35.2896 C162.3039,34.9396 162.1539,34.7606 161.7149,34.5806" id="Fill-11" fill="#221F20" sketch:type="MSShapeGroup"></path>
                <path d="M163.8428,38.3502 L163.2538,36.9812 L163.3228,36.9302 L164.1938,37.8602 C164.3428,38.0302 164.4328,38.1302 164.4328,38.3002 C164.4328,38.4902 164.2628,38.5792 164.1428,38.5792 C163.9928,38.5792 163.8828,38.4302 163.8428,38.3502 L163.8428,38.3502 Z M161.4648,38.1602 C161.7838,38.2702 162.2748,38.1002 162.2748,37.4402 C162.2748,37.0102 161.9538,36.6412 161.4648,36.5002 L161.4648,38.1602 Z M159.4258,37.7402 C159.4258,38.0702 159.6148,38.5492 159.8858,38.8392 L159.6648,39.0192 C159.2958,38.6692 159.0058,38.0602 159.0058,37.4912 C159.0058,36.3912 159.8348,35.6412 160.8448,35.6412 C161.9048,35.6412 162.6738,36.5612 162.6738,37.4912 C162.6738,38.3792 161.9538,39.0892 161.0948,38.8492 L161.0948,36.4412 C160.1548,36.3212 159.4258,36.7102 159.4258,37.7402 L159.4258,37.7402 Z" id="Fill-13" fill="#221F20" sketch:type="MSShapeGroup"></path>
                <path d="M44.467,227.8308 C43.073,226.2838 42.662,223.8218 42.78,221.8058 C42.998,218.0468 44.038,214.2908 45.323,210.7658 C46.821,206.6578 49.468,203.0438 50.99,199.0388 C53.46,192.5428 55.929,186.0468 58.399,179.5508 C59.985,175.3798 61.561,171.2058 63.156,167.0388 C65.078,162.0138 63.995,157.9008 64.53,152.7208 C65.863,139.8048 70.073,126.9508 73.481,114.4618 C76.009,105.1998 80.291,95.5648 76.886,85.9228 C73.967,77.6558 69.485,77.0778 62.526,72.9938 C57.258,69.9038 50.873,65.9438 52.975,59.5668 C52.975,59.5668 59.855,43.7468 65.559,40.8428 L67.076,34.6888 C67.705,33.1798 67.261,33.5008 68.741,32.8708 C70.209,32.2448 73.606,32.0528 74.89,33.1408 C77.294,35.1788 75.423,39.3438 73.958,40.8398 C73.958,40.8398 74.282,36.9018 60.937,58.8208 C60.937,58.8208 59.336,61.1868 62.004,61.8778 C62.004,61.8778 70.173,65.6438 79.596,69.6078 C79.942,69.7528 81.775,69.4378 82.227,69.3438 C84.621,68.8448 86.819,67.5148 89.216,66.9578 C92.841,66.1168 96.634,65.9948 100.301,66.6278 C98.957,59.7728 98.443,52.0098 97.098,45.1548 C96.786,43.5618 96.375,41.8108 95.048,40.8748 C94.026,40.1538 91.847,39.9718 90.61,40.1558 C78.721,41.9178 70.336,41.6138 58.99,44.0928 C57.44,44.4318 56.588,43.8858 55.81,42.5028 C54.734,40.5918 55.483,37.4888 56.946,36.2078 C59.048,34.3658 58.998,34.3018 61.525,34.4518 L66.458,35.1038 L72.405,34.8278 C79.292,33.7678 86.319,33.1628 93.287,33.6018 C96.885,33.8278 102.179,33.7718 104.122,37.3308 C105.572,39.9848 106.014,43.3698 106.558,46.3078 C107.137,49.4358 107.572,52.5888 107.998,55.7408 C108.681,60.7888 109.817,65.8228 110.413,70.8668 C110.851,74.5658 110.568,78.3268 109.8,81.9628 C108.957,85.9528 107.218,89.3348 105.781,93.0688 C100.437,106.9658 109.031,118.3718 112.204,131.2818 C113.627,137.0708 114.501,142.9998 115.205,148.9138 C115.76,153.5648 116.208,158.2288 116.521,162.9028 C116.68,165.2818 116.694,167.6798 116.889,170.0538 C117.059,172.1308 118.228,173.8428 119.097,175.7058 C119.965,177.5638 120.832,179.4218 121.699,181.2798 C123.469,185.0738 125.239,188.8668 127.009,192.6598 C130.872,200.9378 135.278,209.0148 136.728,218.1488 C137.204,221.1438 137.842,225.1108 136.05,227.8308 L132.18,227.8308 C131.806,227.2268 131.502,226.6788 131.279,225.9638 C130.808,224.4468 130.444,222.8798 130.167,221.3158 C129.688,218.6148 127.502,216.3158 125.026,215.2978 C123.286,214.5828 120.616,213.6878 120.007,211.6658 C119.12,208.7238 123.178,207.6708 122.746,204.8098 C122.157,200.9288 119.065,198.7988 116.741,195.9348 C115.274,194.1268 113.903,192.2398 112.657,190.2728 C109.323,185.0088 107.463,179.6158 106.182,173.5778 C104.84,167.2548 100.991,161.5148 99.579,155.2088 C98.003,148.1748 98.46,139.9558 94.088,134.0308 C86.537,123.7948 85.401,145.5768 82.984,152.3048 C80.646,158.8118 76.669,164.2918 74.172,170.7388 C73.812,171.6638 73.948,172.7028 73.808,173.6698 C73.649,174.7748 73.394,175.8718 73.102,176.9488 C72.546,178.9998 71.773,181.0508 70.925,182.9538 C69.176,186.8818 66.865,190.5998 64.334,194.0238 C62.792,196.1098 60.828,197.8938 59.523,200.1528 C58.173,202.4878 57.365,205.1288 57.418,207.8398 C57.449,209.4328 59.062,210.0088 58.732,211.6838 C58.209,214.3408 54.452,215.1218 52.654,216.6708 C50.504,218.5238 49.047,221.2348 48.582,224.0258 C48.438,224.8908 48.159,226.6288 47.645,227.8308 L44.467,227.8308 Z" id="Fill-15" fill="#221F20" sketch:type="MSShapeGroup"></path>
                <path d="M80.4862,70.6548 C86.6112,67.1548 81.7692,63.1818 81.7692,63.1818 L92.2822,61.3818 C92.2822,61.3818 89.5572,64.3618 95.0482,66.3148 L80.4862,70.6548 Z" id="Fill-17" fill="#221F20" sketch:type="MSShapeGroup"></path>
                <path d="M94.9132,55.3034 C94.0502,62.2634 89.3002,64.3724 83.7502,63.6844 C78.2012,62.9964 74.4012,56.7964 75.2642,49.8364 C76.1272,42.8774 81.3262,37.7934 86.8762,38.4814 C92.4252,39.1694 95.7762,48.3434 94.9132,55.3034" id="Fill-19" fill="#221F20" sketch:type="MSShapeGroup"></path>
                <path d="M70.7606,51.7697 C70.4536,54.2477 72.2126,56.5047 74.6906,56.8127 C77.1686,57.1197 79.4256,55.3597 79.7336,52.8827 C80.0406,50.4047 78.2806,48.1467 75.8036,47.8397 C73.3256,47.5327 71.0676,49.2917 70.7606,51.7697" id="Fill-21" fill="#221F20" sketch:type="MSShapeGroup"></path>
                <path d="M92.2752,142.0298 C92.2752,142.0298 99.8612,118.0078 111.3652,114.8278 L110.0412,80.7188 C110.0412,80.7188 102.4512,77.1218 100.5462,68.7398 C100.5462,68.7398 93.0832,76.5218 81.7392,74.0488 C81.7392,74.0488 84.7442,80.5318 76.5162,84.9258 L73.1992,115.4928 C73.1992,115.4928 88.5782,127.4638 88.1632,143.2288 L92.2752,142.0298 Z" id="Fill-23" fill="#DAB27A" sketch:type="MSShapeGroup"></path>
                <path d="M79.5957,67.8096 C79.5957,67.8096 82.1877,71.6816 83.0867,77.0746" id="Stroke-25" stroke="#DAB27A" stroke-width="1.659" sketch:type="MSShapeGroup"></path>
            </g>
        </g>
    </g>
</svg>