<?xml version="1.0" encoding="UTF-8" standalone="no"?>
<svg width="181px" height="253px" viewBox="0 0 181 253" version="1.1" xmlns="http://www.w3.org/2000/svg" xmlns:xlink="http://www.w3.org/1999/xlink" xmlns:sketch="http://www.bohemiancoding.com/sketch/ns">
    <!-- Generator: Sketch 3.5.2 (25235) - http://www.bohemiancoding.com/sketch -->
    <title>5</title>
    <desc>Created with Sketch.</desc>
    <defs></defs>
    <g id="Welcome" stroke="none" stroke-width="1" fill="none" fill-rule="evenodd" sketch:type="MSPage">
        <g id="Relevé---HD" sketch:type="MSArtboardGroup" transform="translate(-387.000000, -2507.000000)">
            <g id="5" sketch:type="MSLayerGroup" transform="translate(387.133650, 2507.789156)">
                <path d="M168,252 L12,252 C5.373,252 0,245.553 0,237.6 L0,14.4 C0,6.447 5.373,0 12,0 L168,0 C174.627,0 180,6.447 180,14.4 L180,237.6 C180,245.553 174.627,252 168,252" id="Fill-1" fill="#DAB27A" sketch:type="MSShapeGroup"></path>
                <path d="M163.4827,18.48 C164.2027,18.48 164.8017,18.081 164.8017,17.211 L164.8017,16.332 L162.1637,16.332 L162.1637,17.211 C162.1637,18.081 162.7537,18.48 163.4827,18.48 L163.4827,18.48 Z M160.6547,18.57 C159.9547,19.16 159.4557,19.83 159.3847,20.429 L159.1747,20.429 L159.1747,18.78 L161.8037,16.801 L161.8037,16.332 L160.5537,16.332 C159.5547,16.332 159.3847,16.452 159.3847,17.281 L159.1747,17.281 L159.1747,14.583 L159.3847,14.583 C159.3847,15.412 159.5547,15.532 160.5537,15.532 L163.8027,15.532 C164.8017,15.532 164.9617,15.412 164.9617,14.583 L165.1717,14.583 L165.1717,17.221 C165.1717,18.61 164.4127,19.37 163.4827,19.37 C162.6137,19.37 161.9227,18.72 161.8037,17.59 L160.6547,18.57 Z" id="Fill-3" fill="#221F20" sketch:type="MSShapeGroup"></path>
                <path d="M161.4641,23.4009 C161.7831,23.5109 162.2741,23.3409 162.2741,22.6809 C162.2741,22.2519 161.9531,21.8819 161.4641,21.7419 L161.4641,23.4009 Z M159.4251,22.9809 C159.4251,23.3109 159.6141,23.7909 159.8851,24.0809 L159.6641,24.2599 C159.2951,23.9109 159.0051,23.3009 159.0051,22.7319 C159.0051,21.6319 159.8341,20.8819 160.8441,20.8819 C161.9031,20.8819 162.6731,21.8019 162.6731,22.7319 C162.6731,23.6209 161.9531,24.3309 161.0941,24.0899 L161.0941,21.6819 C160.1541,21.5619 159.4251,21.9519 159.4251,22.9809 L159.4251,22.9809 Z" id="Fill-5" fill="#221F20" sketch:type="MSShapeGroup"></path>
                <path d="M159.175,24.8121 L159.385,24.8121 C159.385,25.4821 159.555,25.6021 160.554,25.6021 L163.712,25.6021 C164.712,25.6021 164.882,25.4821 164.882,24.8121 L165.092,24.8121 L165.342,26.3121 L160.554,26.3121 C159.555,26.3121 159.385,26.4421 159.385,27.1011 L159.175,27.1011 L159.175,24.8121 Z" id="Fill-7" fill="#221F20" sketch:type="MSShapeGroup"></path>
                <path d="M161.4641,30.3004 C161.7831,30.4104 162.2741,30.2404 162.2741,29.5804 C162.2741,29.1514 161.9531,28.7814 161.4641,28.6414 L161.4641,30.3004 Z M159.4251,29.8804 C159.4251,30.2104 159.6141,30.6904 159.8851,30.9804 L159.6641,31.1594 C159.2951,30.8104 159.0051,30.2004 159.0051,29.6314 C159.0051,28.5314 159.8341,27.7814 160.8441,27.7814 C161.9031,27.7814 162.6731,28.7014 162.6731,29.6314 C162.6731,30.5204 161.9531,31.2304 161.0941,30.9894 L161.0941,28.5814 C160.1541,28.4614 159.4251,28.8514 159.4251,29.8804 L159.4251,29.8804 Z" id="Fill-9" fill="#221F20" sketch:type="MSShapeGroup"></path>
                <path d="M161.7141,34.5806 L158.9951,33.4506 L158.9951,33.2516 L161.7141,32.0316 C162.1441,31.8416 162.3031,31.6826 162.3031,31.3426 L162.5031,31.3426 L162.5031,33.1206 L162.3031,33.1206 C162.3031,32.6616 162.1931,32.6016 161.7141,32.8016 L160.1141,33.5116 L161.7141,34.1806 C162.1441,34.3606 162.3031,34.3306 162.3031,33.8916 L162.5031,33.8916 L162.5031,35.2896 L162.3031,35.2896 C162.3031,34.9396 162.1531,34.7606 161.7141,34.5806" id="Fill-11" fill="#221F20" sketch:type="MSShapeGroup"></path>
                <path d="M163.842,38.3502 L163.253,36.9812 L163.322,36.9302 L164.193,37.8602 C164.342,38.0302 164.432,38.1302 164.432,38.3002 C164.432,38.4902 164.262,38.5792 164.142,38.5792 C163.992,38.5792 163.882,38.4302 163.842,38.3502 L163.842,38.3502 Z M161.464,38.1602 C161.783,38.2702 162.274,38.1002 162.274,37.4402 C162.274,37.0102 161.953,36.6412 161.464,36.5002 L161.464,38.1602 Z M159.425,37.7402 C159.425,38.0702 159.614,38.5492 159.885,38.8392 L159.664,39.0192 C159.295,38.6692 159.005,38.0602 159.005,37.4912 C159.005,36.3912 159.834,35.6412 160.844,35.6412 C161.904,35.6412 162.673,36.5612 162.673,37.4912 C162.673,38.3792 161.953,39.0892 161.094,38.8492 L161.094,36.4412 C160.154,36.3212 159.425,36.7102 159.425,37.7402 L159.425,37.7402 Z" id="Fill-13" fill="#221F20" sketch:type="MSShapeGroup"></path>
                <path d="M52.8258,42.0724 L50.9668,44.0644 C51.5238,43.4674 52.2258,42.7144 52.8258,42.0724 L52.8258,42.0724 Z M53.7918,41.0384 L53.2728,41.5934 C53.4778,41.3744 53.6538,41.1854 53.7918,41.0384 L53.7918,41.0384 Z M50.9248,44.1094 L50.1188,44.9724 C50.2738,44.8054 50.5618,44.4974 50.9248,44.1094 L50.9248,44.1094 Z M103.4128,67.5674 L103.0308,68.0344 C103.1608,67.8754 103.2878,67.7204 103.4128,67.5674 L103.4128,67.5674 Z M104.3768,66.3894 L103.7128,67.2004 C103.9698,66.8874 104.2018,66.6034 104.3768,66.3894 L104.3768,66.3894 Z M104.6848,66.0134 L104.3848,66.3804 C104.5248,66.2094 104.6288,66.0824 104.6848,66.0134 L104.6848,66.0134 Z M101.6438,69.7294 L101.1388,70.3464 C101.2638,70.1934 101.4378,69.9814 101.6438,69.7294 L101.6438,69.7294 Z M89.9228,229.1464 C94.8258,224.9344 90.4808,207.8274 89.9658,204.9374 C89.3928,201.7204 90.5628,197.5734 90.8568,194.3964 C91.1088,191.6654 90.7528,186.6154 90.6978,183.8744 C90.5718,177.4834 90.3748,174.2894 89.3128,167.9754 C88.8358,165.1434 89.6818,164.2134 90.4948,162.4314 C91.6438,162.9584 92.7858,163.5004 93.9118,164.0784 C98.0228,166.1894 102.3848,168.8854 106.9328,168.0634 C112.7788,167.0064 113.0148,158.5414 113.0148,158.5414 C113.0148,158.5414 113.9138,152.1104 110.5948,142.2924 C110.5948,142.2924 109.6748,129.3064 107.2308,120.1724 C107.4818,119.6904 107.7228,119.2054 107.9498,118.7144 C107.9618,118.7024 107.9698,118.6944 107.9698,118.6944 L107.9868,118.6324 C111.2278,111.5954 112.0798,103.6334 110.4758,95.8654 C109.7868,92.5274 108.6828,89.2844 107.2438,86.1954 C107.5798,86.1234 107.9138,86.0554 108.2528,85.9774 C110.9218,85.3664 114.1588,84.3944 116.8268,83.7774 C118.1818,83.4644 120.1068,83.0734 121.0518,81.9474 C122.3988,80.3454 120.4738,78.6944 119.2828,77.7514 C117.5458,76.3754 115.8558,74.9624 114.1578,73.5354 C111.9358,71.6674 109.7148,69.8004 107.4928,67.9324 L104.7328,65.9544 C103.4388,65.1404 102.1278,64.3794 100.9628,63.3864 C98.9498,61.6704 97.0478,59.8314 95.0858,58.0584 C92.5998,56.7964 90.5928,58.5884 89.4338,60.6994 C88.9778,61.5294 88.1538,62.5834 88.4918,63.5854 C88.8628,64.6854 90.3238,64.8354 90.7908,65.8784 C91.1638,66.7074 92.1568,67.8524 92.9798,68.2644 C93.8548,68.7024 94.9078,68.5644 95.8518,68.6004 C96.8378,68.6374 97.8798,69.1644 98.7738,69.6394 C98.9838,69.7514 100.9758,70.5454 100.9238,70.6084 C100.9248,70.6074 100.9788,70.5414 101.0638,70.4374 L100.9238,70.6084 L110.5428,77.4874 L103.9378,80.2554 C101.0788,76.0394 97.0018,72.8724 92.0318,72.1914 C90.9718,72.0464 89.8708,72.0144 88.7328,72.1094 C88.5398,72.1254 88.3478,72.1554 88.1568,72.1844 C86.0988,71.8394 84.8058,71.0464 83.9828,70.2374 C85.5668,67.1124 85.3078,63.5494 81.9228,59.9164 C77.6518,55.3304 69.8728,52.2034 65.3438,54.3074 L54.0958,40.7124 L53.9818,40.8334 C54.0488,40.7624 54.0958,40.7124 54.0958,40.7124 C52.8568,39.8154 51.5988,38.9714 50.4998,37.9034 C48.6038,36.0604 46.8248,34.1014 44.9828,32.2044 C42.5848,30.7834 40.4648,32.4414 39.1708,34.4724 C38.6618,35.2714 37.7708,36.2694 38.0428,37.2914 C38.3408,38.4124 39.7888,38.6574 40.1888,39.7284 C40.5058,40.5794 41.4228,41.7874 42.2168,42.2514 C43.0618,42.7464 44.1208,42.6764 45.0608,42.7744 C46.0418,42.8754 47.0478,43.4694 47.9088,44.0014 C48.1118,44.1264 50.0468,45.0484 49.9918,45.1084 L61.3498,59.8624 C60.8298,62.3734 61.2708,65.2274 62.6208,67.8924 C62.4548,68.0094 62.2848,68.1204 62.1318,68.2634 C60.3048,69.9654 60.2038,72.8254 61.9048,74.6524 C63.6068,76.4794 66.4678,76.5814 68.2938,74.8794 C68.4688,74.7174 68.6118,74.5364 68.7548,74.3554 C71.4218,75.8814 74.3388,76.4434 76.9258,75.9544 C77.6078,76.6524 79.1918,78.5854 79.4978,81.6124 C79.4438,82.3174 79.4458,83.0294 79.4978,83.7434 C79.4968,83.7554 79.4968,83.7654 79.4998,83.7734 C79.7948,87.7374 81.5878,91.7644 83.5448,94.9964 C85.6208,98.4224 89.1068,100.3044 90.0928,104.3604 C90.3728,105.5124 90.4988,106.6714 90.5088,107.8264 C90.2268,114.8424 85.3528,120.3764 85.3528,120.3764 C82.0978,123.7174 75.8528,132.1764 77.1698,146.8554 C74.2408,146.6144 71.3058,146.4694 68.4238,146.3474 C68.1298,144.7004 66.5788,143.4594 66.5788,143.4594 C63.5578,141.2784 61.7598,142.7954 58.5478,143.6594 C56.0248,144.3384 53.1768,143.6544 51.2388,141.9014 C50.6118,141.3354 50.0138,140.6324 49.0658,140.7274 C47.8988,140.8434 47.2018,142.0244 47.3738,143.1854 C47.6328,144.9274 49.1998,145.9174 50.6668,146.7104 C59.4768,151.4684 69.1328,154.3564 78.5868,157.7054 C78.6308,161.0894 79.5008,165.1164 79.0008,168.4234 C78.1968,173.7484 77.9178,179.2364 78.1128,184.6134 C78.2568,188.5704 78.5838,192.7544 79.9178,196.5164 C81.0488,199.7044 82.6988,202.9084 82.7498,206.3634 C82.8148,210.8344 78.9668,225.1544 83.9328,229.1464 L89.9228,229.1464 Z" id="Fill-15" fill="#221F20" sketch:type="MSShapeGroup"></path>
                <path d="M95.8941,139.6363 C95.8941,139.6363 99.1161,120.5803 81.4151,122.5163 L86.6631,98.8223 C86.6631,98.8223 99.9961,89.0503 88.7691,79.6463 C88.7691,79.6463 95.9641,72.9763 94.4721,70.6203 C94.4721,70.6203 119.5831,85.7313 120.1361,93.4753 L107.6901,121.8253 C107.6901,121.8253 106.7771,132.9703 95.8941,139.6363" id="Fill-17" fill="#DAB27A" sketch:type="MSShapeGroup"></path>
                <path d="M100.1686,153.0635 C100.1686,153.0635 97.4046,148.8955 97.7336,145.1965 C97.7336,145.1965 97.7126,138.9995 96.4166,138.9995 L95.8936,139.6365 C95.8936,139.6365 95.7286,148.8805 93.9996,150.2535 C93.9996,150.2535 98.4896,151.7865 100.1686,153.0635" id="Fill-19" fill="#030404" sketch:type="MSShapeGroup"></path>
                <path d="M77.9581,81.168 C77.9581,81.168 80.4471,76.812 91.4411,81.168" id="Stroke-21" stroke="#DAB27A" stroke-width="1.659" sketch:type="MSShapeGroup"></path>
                <path d="M110.5427,77.4872 C110.5427,77.4872 104.5097,79.2322 100.7757,81.8312 C100.7757,81.8312 90.8877,81.2372 86.5317,82.2052 C86.5317,82.2052 83.6527,90.5902 86.3937,91.1252 C86.3937,91.1252 97.1497,90.3642 101.3907,89.3272 C101.3907,89.3272 118.8707,83.8042 120.1367,82.6292 L116.6797,79.2322 L110.5427,77.4872 Z" id="Fill-23" fill="#221F20" sketch:type="MSShapeGroup"></path>
            </g>
        </g>
    </g>
</svg>