<?xml version="1.0" encoding="UTF-8" standalone="no"?>
<svg width="181px" height="253px" viewBox="0 0 181 253" version="1.1" xmlns="http://www.w3.org/2000/svg" xmlns:xlink="http://www.w3.org/1999/xlink" xmlns:sketch="http://www.bohemiancoding.com/sketch/ns">
    <!-- Generator: Sketch 3.5.2 (25235) - http://www.bohemiancoding.com/sketch -->
    <title>6</title>
    <desc>Created with Sketch.</desc>
    <defs></defs>
    <g id="Welcome" stroke="none" stroke-width="1" fill="none" fill-rule="evenodd" sketch:type="MSPage">
        <g id="Relevé---HD" sketch:type="MSArtboardGroup" transform="translate(-136.000000, -1543.000000)">
            <g id="6" sketch:type="MSLayerGroup" transform="translate(136.133650, 1543.406343)">
                <path d="M168,252 L12,252 C5.373,252 0,245.553 0,237.6 L0,14.4 C0,6.447 5.373,0 12,0 L168,0 C174.627,0 180,6.447 180,14.4 L180,237.6 C180,245.553 174.627,252 168,252" id="Fill-1" fill="#DAB27A" sketch:type="MSShapeGroup"></path>
                <path d="M158.1599,87.8219 C150.5559,85.4749 140.9709,88.4089 133.0729,87.8999 C126.8809,87.5009 118.1229,82.8789 112.1549,81.8359 C106.9409,80.9239 105.5859,85.9589 104.8009,90.7979 C103.7449,97.3059 103.1369,103.3339 105.6659,109.2599 C108.8139,116.6389 111.2129,124.2179 114.1759,131.6359 C116.5869,137.6699 118.7769,143.8049 120.5999,150.0429 C121.7009,153.8149 122.7649,157.6119 123.4009,161.4939 C123.7699,163.7469 123.6779,166.0639 124.1529,168.2999 C124.5489,170.1609 125.4779,171.7179 126.3859,173.3589 C127.7269,175.7809 129.1129,178.1789 130.4469,180.6059 C133.9219,186.9259 137.2909,193.3139 140.3579,199.8429 C142.8809,205.2129 145.6939,212.0969 146.6419,218.1849 C146.9019,220.0089 147.5049,228.6419 143.6699,227.1439 C142.7529,226.7859 142.1789,225.8839 141.7229,225.0119 C140.2769,222.2489 140.3319,217.9929 137.1119,216.6059 C135.4359,215.8849 133.3669,216.1369 131.6899,215.3359 C129.5459,214.3129 128.8929,210.9369 130.3049,209.2079 C130.8779,208.5059 131.6359,208.1059 131.9179,207.2719 C132.8779,204.4219 130.2549,201.1639 128.4169,199.2529 C116.4419,186.7979 113.2619,172.9689 113.2619,172.9689 C110.7189,167.3309 107.8489,162.4739 104.8619,157.0459 C102.5099,152.7709 100.1759,148.4799 98.0179,144.1029 C97.2409,142.5279 96.4519,140.9449 95.7939,139.3149 C94.5999,136.3599 92.6669,135.8499 92.5209,139.2549 C92.5209,139.2549 96.3629,151.6059 96.4109,172.9699 C96.4109,172.9699 101.5409,190.9119 98.4169,202.4249 C97.7039,210.0999 97.9039,213.4369 100.0539,219.1979 C101.2359,222.3679 101.3049,223.9759 96.6329,223.9759 L78.4079,223.9759 C78.4079,223.9759 77.2719,221.4049 83.2969,219.7439 C83.2969,219.7439 90.8539,217.7389 90.4099,213.9529 C88.9499,202.8469 87.3849,191.7489 86.0439,180.6289 C85.4559,175.7559 83.8249,171.2569 82.3469,166.5999 C80.6919,161.3849 79.0369,156.1699 77.3819,150.9549 C77.0569,149.9309 76.7309,148.9069 76.4069,147.8819 C75.5609,144.0949 75.0069,140.1949 74.7549,136.3249 C74.0149,125.0079 79.5729,113.8949 77.5189,102.3639 C76.8609,98.6749 75.6949,94.8739 75.4049,91.1359 C75.0369,86.4009 78.9669,78.9819 70.9809,81.8159 C67.3449,83.1049 64.5329,84.5889 60.9739,86.0309 C54.6079,88.6109 46.0819,88.0519 39.2689,88.6819 C34.5209,88.6819 28.4079,89.5279 23.9309,91.5409 L18.9899,85.8329 C22.5159,85.5209 24.8579,84.6649 27.9109,84.2699 C30.8039,83.8969 33.6719,83.0009 36.5059,82.3249 C41.0779,81.2339 45.6159,79.8259 50.3109,79.4259 C52.5909,79.2309 56.0559,79.6109 58.1819,78.7549 C65.6989,75.7269 73.1399,72.2519 81.0049,70.2199 C82.4109,69.8559 83.8309,69.5389 85.2679,69.2789 C90.1749,68.3889 95.2799,67.9389 100.2509,68.5319 C105.0709,69.1079 109.9859,70.7969 114.2989,72.8809 C119.0599,75.1819 124.2109,78.6759 129.7009,79.3119 C133.0059,79.6949 135.7779,79.9999 139.0869,80.3489 C144.9929,80.9719 150.2849,81.2489 156.1909,81.8719" id="Fill-3" fill="#221F20" sketch:type="MSShapeGroup"></path>
                <path d="M26.1128,90.6454 C26.1028,90.5644 24.1568,91.4654 23.9308,91.5414 C22.9718,91.8644 21.8728,92.2584 21.1678,92.9494 C20.4928,93.6104 19.8698,94.4704 18.9498,94.8054 C18.0858,95.1194 16.5708,95.0544 15.7128,94.7544 C14.6338,94.3774 13.5208,95.3354 12.4678,94.8494 C11.5068,94.4054 11.3078,93.0834 11.0178,92.1814 C10.2808,89.8884 10.3588,87.1994 12.9838,86.2604 C15.6198,86.0544 18.2638,85.9364 20.8928,85.6534 C22.4158,85.4894 23.8688,85.0604 25.3498,84.6794 C25.3498,84.6794 26.1118,90.6354 26.1128,90.6454" id="Fill-5" fill="#221F20" sketch:type="MSShapeGroup"></path>
                <path d="M154.2151,87.0487 C154.2121,86.9667 156.1811,87.5367 156.4081,87.6097 C157.3411,87.9087 158.5761,88.5777 159.3811,89.1467 C160.1531,89.6927 160.9051,90.4417 161.8661,90.6267 C162.7701,90.7997 164.2551,90.4937 165.0541,90.0617 C166.0591,89.5177 167.3111,90.2867 168.2731,89.6387 C169.1511,89.0477 169.1371,87.7107 169.2791,86.7747 C169.6421,84.3927 169.1381,81.7507 166.3971,81.2417 C163.7611,81.4567 161.1331,81.7617 158.4921,81.9007 C156.9621,81.9817 155.4601,81.7887 153.9361,81.6487 C153.9361,81.6487 154.2151,87.0377 154.2151,87.0487" id="Fill-7" fill="#221F20" sketch:type="MSShapeGroup"></path>
                <path d="M86.2361,69.1069 C90.3591,66.7539 89.5151,62.0969 89.5151,62.0969 L98.9661,62.0969 C98.9661,62.0969 98.1221,66.7539 102.2451,69.1069 L86.2361,69.1069 Z" id="Fill-9" fill="#221F20" sketch:type="MSShapeGroup"></path>
                <path d="M84.2388,54.4055 C84.3398,61.4175 88.8328,64.0305 94.4238,63.9505 C100.0158,63.8695 104.4668,58.1195 104.3658,51.1075 C104.2638,44.0955 99.6488,38.4765 94.0568,38.5575 C88.4658,38.6375 84.1378,47.3935 84.2388,54.4055" id="Fill-11" fill="#221F20" sketch:type="MSShapeGroup"></path>
                <path d="M108.8873,51.1882 C108.9233,53.6842 106.9293,55.7372 104.4323,55.7742 C101.9363,55.8102 99.8833,53.8152 99.8473,51.3192 C99.8103,48.8222 101.8053,46.7692 104.3013,46.7332 C106.7983,46.6972 108.8513,48.6922 108.8873,51.1882" id="Fill-13" fill="#221F20" sketch:type="MSShapeGroup"></path>
                <path d="M94.8951,137.7047 C94.8951,137.7047 100.1461,117.4837 110.4851,121.7947 L116.1231,118.0857 L108.7241,83.5827 C108.7241,83.5827 105.2671,82.9597 103.8841,76.0457 C103.8841,76.0457 91.7841,84.2737 80.3401,76.0457 C80.3401,76.0457 81.1701,81.4557 75.3641,82.9767 L67.4451,99.2777 L76.3521,120.9137 C76.3521,120.9137 90.2821,128.4447 92.5211,139.2547 L94.8951,137.7047 Z" id="Fill-15" fill="#DAB27A" sketch:type="MSShapeGroup"></path>
                <path d="M80.7395,68.263 C80.7395,68.263 81.4325,79.019 80.7395,79.952" id="Stroke-17" stroke="#DAB27A" stroke-width="1.659" sketch:type="MSShapeGroup"></path>
                <path d="M103.2577,68.263 C103.2577,68.263 103.2577,79.174 103.9357,80.471" id="Stroke-19" stroke="#DAB27A" stroke-width="1.659" sketch:type="MSShapeGroup"></path>
                <path d="M164.2491,21.4237 L164.2491,21.2137 L164.4491,21.1637 C164.9781,21.0247 165.2081,20.9247 165.2081,20.0047 L165.2081,18.6947 L160.9801,18.6947 C159.9811,18.6947 159.8121,18.8247 159.8121,19.6547 L159.6021,19.6547 L159.6021,16.9457 L159.8121,16.9457 C159.8121,17.7767 159.9811,17.9057 160.9801,17.9057 L165.2081,17.9057 L165.2081,16.5967 C165.2081,15.6777 164.9781,15.5767 164.4491,15.4377 L164.2491,15.3877 L164.2491,15.1777 L165.5991,15.2677 L165.5991,21.3337 L164.2491,21.4237 Z" id="Fill-21" fill="#221F20" sketch:type="MSShapeGroup"></path>
                <path d="M161.8907,23.5897 C162.2097,23.6997 162.7007,23.5297 162.7007,22.8697 C162.7007,22.4407 162.3797,22.0707 161.8907,21.9307 L161.8907,23.5897 Z M159.8517,23.1697 C159.8517,23.4997 160.0407,23.9797 160.3117,24.2697 L160.0907,24.4487 C159.7217,24.0997 159.4317,23.4897 159.4317,22.9207 C159.4317,21.8207 160.2607,21.0707 161.2707,21.0707 C162.3297,21.0707 163.0997,21.9907 163.0997,22.9207 C163.0997,23.8097 162.3797,24.5197 161.5207,24.2787 L161.5207,21.8707 C160.5807,21.7507 159.8517,22.1407 159.8517,23.1697 L159.8517,23.1697 Z" id="Fill-23" fill="#221F20" sketch:type="MSShapeGroup"></path>
                <path d="M163.0997,28.0809 C163.0997,28.9799 162.4597,29.3799 161.6107,29.3799 L160.9807,29.3799 C159.9817,29.3799 159.8117,29.4999 159.8117,30.1699 L159.6017,30.1699 L159.6017,27.8809 L159.8117,27.8809 C159.8117,28.5299 159.9817,28.6699 160.9807,28.6699 L161.5607,28.6699 C162.2097,28.6699 162.6297,28.4399 162.6297,27.8409 C162.6297,27.2909 162.1797,26.6909 161.6307,26.6909 L160.9807,26.6909 C159.9517,26.6909 159.8117,26.7709 159.8117,27.3909 L159.6017,27.3909 L159.6017,25.1919 L159.8117,25.1919 C159.8117,25.8519 159.9817,25.9809 160.9807,25.9809 L161.4807,25.9809 C162.4807,25.9809 162.6397,25.8519 162.6397,25.1919 L162.8497,25.1919 L163.0997,26.5209 C162.9997,26.5709 162.5897,26.6609 162.3797,26.6909 C162.7197,26.9609 163.0997,27.4209 163.0997,28.0809" id="Fill-25" fill="#221F20" sketch:type="MSShapeGroup"></path>
                <path d="M161.9102,33.7997 C162.3802,33.6187 162.7002,33.2397 162.7002,32.7897 C162.7002,32.0107 162.0702,31.6507 161.2702,31.6507 C160.4712,31.6507 159.8312,32.0107 159.8312,32.7897 C159.8312,33.2397 160.1512,33.6187 160.6212,33.7997 L161.9102,33.7997 Z M164.1392,33.7997 C165.1392,33.7997 165.3082,33.6797 165.3082,33.0097 L165.5182,33.0097 L165.7682,34.5087 L161.0602,34.5087 C160.0612,34.5087 159.8912,34.6387 159.8912,35.2987 L159.6812,35.2987 L159.4312,33.9697 C159.5312,33.9187 159.8822,33.8397 160.0412,33.8097 C159.6912,33.5287 159.4312,33.1297 159.4312,32.5797 C159.4312,31.6307 160.2612,30.8407 161.2702,30.8407 C162.2802,30.8407 163.0992,31.6307 163.0992,32.5797 C163.0992,33.0797 162.8802,33.4997 162.5102,33.7997 L164.1392,33.7997 Z" id="Fill-27" fill="#221F20" sketch:type="MSShapeGroup"></path>
                <path d="M164.2589,38.8006 L163.6689,37.4306 L163.7389,37.3806 L164.6089,38.3106 C164.7589,38.4806 164.8489,38.5796 164.8489,38.7496 C164.8489,38.9406 164.6789,39.0296 164.5589,39.0296 C164.4089,39.0296 164.2989,38.8796 164.2589,38.8006 L164.2589,38.8006 Z M159.4319,39.1796 C159.5309,39.1296 159.8919,39.0496 160.0719,39.0206 C159.8119,38.7706 159.4319,38.2906 159.4319,37.7106 C159.4319,36.7906 160.0809,36.4716 160.9309,36.4716 L161.5609,36.4716 C162.5599,36.4716 162.7299,36.3516 162.7299,35.6816 L162.9299,35.6816 L162.9299,37.1816 L160.9809,37.1816 C160.3309,37.1816 159.9109,37.4016 159.9109,37.9406 C159.9109,38.3306 160.2809,39.0206 160.9009,39.0206 L161.5609,39.0206 C162.5599,39.0206 162.7299,38.8906 162.7299,38.2206 L162.9299,38.2206 L162.9299,39.7196 L161.0609,39.7196 C160.0619,39.7196 159.8919,39.8496 159.8919,40.5196 L159.6819,40.5196 L159.4319,39.1796 Z" id="Fill-29" fill="#221F20" sketch:type="MSShapeGroup"></path>
            </g>
        </g>
    </g>
</svg>