<?xml version="1.0" encoding="UTF-8" standalone="no"?>
<svg width="181px" height="253px" viewBox="0 0 181 253" version="1.1" xmlns="http://www.w3.org/2000/svg" xmlns:xlink="http://www.w3.org/1999/xlink" xmlns:sketch="http://www.bohemiancoding.com/sketch/ns">
    <!-- Generator: Sketch 3.5.2 (25235) - http://www.bohemiancoding.com/sketch -->
    <title>7</title>
    <desc>Created with Sketch.</desc>
    <defs></defs>
    <g id="Welcome" stroke="none" stroke-width="1" fill="none" fill-rule="evenodd" sketch:type="MSPage">
        <g id="Relevé---HD" sketch:type="MSArtboardGroup" transform="translate(-387.000000, -1543.000000)">
            <g id="7" sketch:type="MSLayerGroup" transform="translate(387.133650, 1543.406343)">
                <path d="M168,252 L12,252 C5.373,252 0,245.553 0,237.6 L0,14.4 C0,6.447 5.373,0 12,0 L168,0 C174.627,0 180,6.447 180,14.4 L180,237.6 C180,245.553 174.627,252 168,252" id="Fill-1" fill="#DAB27A" sketch:type="MSShapeGroup"></path>
                <path d="M66.087,90.8543 C62.013,94.6303 62.486,103.4783 62.486,103.4783 L70.697,108.1833 C70.697,108.1833 69.457,100.2793 77.835,99.4123 L66.087,90.8543 Z" id="Fill-3" fill="#221F20" sketch:type="MSShapeGroup"></path>
                <path d="M55.2854,111.7121 C56.0844,104.7451 60.8144,102.5921 66.3704,103.2281 C71.9264,103.8651 75.7824,110.0301 74.9834,116.9971 C74.1854,123.9641 69.0334,129.0961 63.4774,128.4591 C57.9224,127.8221 54.4864,118.6791 55.2854,111.7121" id="Fill-5" fill="#221F20" sketch:type="MSShapeGroup"></path>
                <path d="M79.4914,117.3663 C79.7754,114.8863 77.9954,112.6443 75.5154,112.3603 C73.0344,112.0763 70.7934,113.8563 70.5084,116.3363 C70.2244,118.8173 72.0044,121.0583 74.4854,121.3423 C76.9654,121.6273 79.2074,119.8463 79.4914,117.3663" id="Fill-7" fill="#221F20" sketch:type="MSShapeGroup"></path>
                <path d="M80.8191,97.9748 C80.8191,97.9748 72.4801,104.2868 66.6741,93.4508 C63.1451,89.5118 63.5291,89.3368 62.6131,87.0518 C61.4071,84.0428 60.3661,80.9308 58.8351,78.5118 C55.6771,73.5198 51.8271,68.9188 48.6621,63.9298 C47.1261,61.5068 46.3221,60.1338 44.7901,57.7068 C42.6751,54.3578 40.1811,50.0928 39.2391,46.1688 C38.2801,42.1668 37.9671,38.0508 37.3001,33.9978 C37.5841,31.2248 40.1771,30.5068 42.5801,30.6748 C43.5241,30.7408 44.8561,30.6178 45.5161,31.4438 C46.2821,32.4018 47.1391,36.8768 46.8271,38.0498 C46.5241,39.1888 45.9041,40.2178 45.5221,41.3338 C43.3061,47.8118 50.9211,55.3538 54.4711,60.1358 C58.8821,66.0768 63.7451,71.6458 68.7191,77.1198 C72.7681,73.6318 78.3091,71.9378 83.6171,72.5648 C85.8071,72.8238 88.0041,73.4568 90.1831,73.1158 C92.1481,72.8078 93.8991,71.7358 95.5681,70.6538 C106.1661,63.7868 109.0511,58.0728 122.1591,55.4068 C122.1921,55.3968 122.2221,55.3938 122.2531,55.3868 C122.3671,55.3638 122.4751,55.3398 122.5901,55.3178 C124.1441,55.0838 125.3961,55.3268 126.7991,55.2578 C129.4401,55.1288 132.0701,54.8348 134.7071,54.6288 C137.0811,54.4448 137.9281,57.4888 137.7291,59.3438 C137.2161,64.1358 130.7601,64.7158 127.6611,62.5078 C126.8581,61.9358 125.7111,61.7168 124.7131,61.5468 C124.4781,61.5068 120.9051,61.4568 120.9071,61.5388 C117.7961,62.6168 115.0491,64.7928 112.4311,66.7468 C112.1801,66.9338 111.9301,67.1218 111.6771,67.3078 C110.2251,68.3728 100.1281,77.1938 98.9321,76.6538 C109.6721,81.4968 117.1911,91.8728 120.8731,103.0648 C124.5541,114.2558 126.4801,125.7158 125.9461,137.4858 C125.4521,148.3628 122.6421,152.8288 126.1851,163.1248 C130.1851,174.7498 130.0251,191.3868 133.1801,201.1628 C134.4961,205.2418 135.1361,209.7088 134.3421,213.9578 C133.9711,215.9408 133.6111,220.7778 131.4871,221.1828 C130.0011,221.4668 129.4061,220.9038 129.1361,220.0768 C128.7441,218.8758 128.5571,215.9608 128.5021,214.7088 C128.3931,212.2178 128.5231,209.3788 127.0001,207.2488 C124.9211,204.3408 120.2171,203.8118 118.9061,200.4868 C117.8711,197.8598 120.1981,194.5458 123.0211,194.6278 C123.0211,194.6278 122.2491,190.4648 120.6851,186.2498 C118.8481,181.3008 116.1021,175.6338 114.9801,166.9658 C114.9801,166.9658 105.2451,146.3498 106.7841,133.3208 C103.8991,140.1138 100.3851,146.6838 96.2421,152.7958 C94.6781,155.1038 92.7151,156.7588 91.6221,159.3738 C90.6661,161.6608 90.2541,164.1408 89.5821,166.5158 C88.2951,171.0658 87.3821,175.7108 86.5971,180.3708 C84.9801,189.9638 83.7011,199.1788 81.3471,208.6358 C80.8481,210.6438 79.1191,214.9398 77.9581,216.6728 C77.2841,217.6778 77.2571,217.9568 75.8451,217.8538 C74.6401,217.7648 74.2681,215.9728 74.0731,215.0508 C73.8081,213.8028 73.8841,212.5028 74.0121,211.2438 C74.2781,208.5978 74.9441,205.8828 74.4421,203.2248 C74.0711,201.2608 73.0031,199.5098 72.2681,197.6508 C71.5341,195.7918 71.1601,193.5938 72.1501,191.8578 C73.1411,190.1218 75.9481,189.4558 77.1471,191.0548 C80.6601,181.2418 76.8891,170.1278 79.5211,160.0428 C80.5971,155.9198 82.7001,152.1548 84.5711,148.3268 C88.9231,139.4248 92.0941,130.0018 95.2531,120.6098 C95.7681,119.0778 96.2901,117.4808 96.0841,115.8778 C95.9081,114.5068 95.2141,113.2658 94.7321,111.9698 C92.8481,106.9058 94.5171,100.7298 98.6961,97.3038 C99.3511,96.7678 94.6211,94.2968 94.1851,94.1828 C92.3041,93.6948 90.1171,93.8178 88.3921,94.7678 C86.0361,96.0638 83.4711,97.3108 80.8191,97.9748" id="Fill-9" fill="#221F20" sketch:type="MSShapeGroup"></path>
                <path d="M97.9456,77.258 C97.9456,77.258 86.8616,96.181 82.0626,97.617 C77.2646,99.054 81.1606,101.545 81.1606,101.545 L84.2026,101.822 C86.8966,105.095 89.5896,108.369 92.2826,111.642 C93.1046,112.641 93.9576,113.619 94.6266,114.731 C95.7406,116.582 97.0606,118.306 98.5396,119.879 C99.2796,120.665 100.0596,121.413 100.8756,122.121 C101.0416,122.265 102.7786,123.64 102.8136,123.37 C102.9256,122.503 102.6966,121.655 102.6606,120.792 C102.5956,119.244 102.6176,117.69 102.7456,116.146 C103.0406,112.565 103.8726,108.681 106.2646,105.878 C109.3366,102.279 114.1656,102.145 118.4476,103.278 C119.3906,103.528 120.3186,103.833 121.2316,104.177 L142.6996,110.396 L107.8506,77.716 L102.6266,74.574 L97.9456,77.258 Z" id="Fill-11" fill="#DAB27A" sketch:type="MSShapeGroup"></path>
                <path d="M68.7186,77.1194 C68.7186,77.1194 77.7726,75.6854 77.7726,82.4324 C77.7726,84.4744 87.1226,75.3584 91.8816,72.6524 L84.2026,66.4194 L69.4756,74.5254 L68.7186,77.1194 Z" id="Fill-13" fill="#DAB27A" sketch:type="MSShapeGroup"></path>
                <path d="M78.6277,81.4931 C78.6277,81.4931 66.0677,87.1771 73.9507,101.0001" id="Stroke-15" stroke="#DAB27A" stroke-width="1.659" sketch:type="MSShapeGroup"></path>
                <path d="M71.2491,75.9615 C71.2491,75.9615 62.4691,78.1045 63.1831,91.4495" id="Stroke-17" stroke="#DAB27A" stroke-width="1.659" sketch:type="MSShapeGroup"></path>
                <path d="M159.7112,21.0741 C159.9502,21.0241 160.1902,20.8641 160.2802,20.7341 C159.7512,20.2241 159.4312,19.5751 159.4312,18.8761 C159.4312,17.1861 160.8602,15.8071 162.5992,15.8071 C164.3382,15.8071 165.7682,17.1861 165.7682,18.8761 C165.7682,19.5751 165.4572,20.2241 164.9182,20.7341 C165.0182,20.8641 165.2372,21.0241 165.4872,21.0741 L165.4872,21.2741 L163.2882,21.2741 L163.2882,21.0741 C164.5882,20.7951 165.3772,20.0251 165.3772,18.9161 C165.3772,17.3161 163.8382,16.7361 162.5992,16.7361 C161.3592,16.7361 159.8302,17.3161 159.8302,18.9161 C159.8302,20.0251 160.6302,20.7951 161.9092,21.0741 L161.9092,21.2741 L159.7112,21.2741 L159.7112,21.0741 Z" id="Fill-19" fill="#221F20" sketch:type="MSShapeGroup"></path>
                <path d="M161.4201,24.5262 C161.2001,23.5772 160.8701,23.1462 160.4301,23.1462 C160.1101,23.1462 159.9211,23.3672 159.9211,23.6172 C159.9211,23.8262 159.9901,24.0662 160.4001,24.5262 L161.4201,24.5262 Z M159.4901,25.2252 C159.4901,24.8362 159.7111,24.5952 160.0701,24.5462 C159.6311,24.0562 159.4711,23.6962 159.4711,23.2972 C159.4711,22.8072 159.7801,22.3972 160.3111,22.3972 C161.1601,22.3972 161.5291,23.3862 161.7301,24.5262 C162.4801,24.5262 162.7791,24.4252 162.7791,23.8562 C162.7791,23.6272 162.6191,23.2872 162.2991,23.2872 C162.1001,23.2872 161.9491,23.1362 161.9491,22.9472 C161.9491,22.7472 162.1001,22.5972 162.2991,22.5972 C162.7791,22.5972 163.0991,23.2262 163.0991,23.8662 C163.0991,24.8362 162.6891,25.2352 161.7391,25.2352 L160.2311,25.2352 C159.9811,25.2352 159.8411,25.3152 159.8411,25.4652 C159.8411,25.5652 159.9211,25.6752 159.9901,25.7452 L159.8011,25.8852 C159.6011,25.6952 159.4901,25.4452 159.4901,25.2252 L159.4901,25.2252 Z" id="Fill-21" fill="#221F20" sketch:type="MSShapeGroup"></path>
                <path d="M160.9797,30.3748 C159.9207,30.3748 159.8107,30.4448 159.8107,31.0048 L159.6007,31.0048 L159.6007,29.0458 L159.8107,29.0458 C159.8107,29.5958 159.9207,29.6758 160.9797,29.6758 L161.5597,29.6758 C162.2087,29.6758 162.6287,29.4758 162.6287,28.9558 C162.6287,28.6058 162.2497,27.9268 161.6297,27.9268 L160.9797,27.9268 C159.9407,27.9268 159.8107,27.9968 159.8107,28.5468 L159.6007,28.5468 L159.6007,26.4278 L159.8107,26.4278 C159.8107,27.0868 159.9807,27.2168 160.9797,27.2168 L161.4797,27.2168 C162.4797,27.2168 162.6387,27.0868 162.6387,26.4278 L162.8487,26.4278 L163.0987,27.7568 C162.9997,27.8068 162.5887,27.8958 162.3787,27.9268 C162.7187,28.1958 163.0987,28.6458 163.0987,29.2268 C163.0987,29.8358 162.8087,30.1458 162.3487,30.2848 C162.6787,30.5158 163.0987,31.0948 163.0987,31.6848 C163.0987,32.5738 162.4587,32.8338 161.6097,32.8338 L160.9797,32.8338 C159.9807,32.8338 159.8107,32.9638 159.8107,33.6238 L159.6007,33.6238 L159.6007,31.5048 L159.8107,31.5048 C159.8107,32.0548 159.9207,32.1248 160.9797,32.1248 L161.5597,32.1248 C162.2087,32.1248 162.6287,31.9348 162.6287,31.4148 C162.6287,31.0748 162.2497,30.3748 161.6297,30.3748 L160.9797,30.3748 Z" id="Fill-23" fill="#221F20" sketch:type="MSShapeGroup"></path>
                <path d="M160.6301,35.3573 C160.1511,35.5373 159.8301,35.9073 159.8301,36.3673 C159.8301,37.1463 160.4701,37.5053 161.2701,37.5053 C162.0691,37.5053 162.6991,37.1463 162.6991,36.3673 C162.6991,35.9073 162.3791,35.5373 161.9091,35.3573 L160.6301,35.3573 Z M159.4311,34.8573 L159.4311,34.6473 L164.1381,34.6473 C165.1381,34.6473 165.3081,34.5173 165.3081,33.8583 L165.5181,33.8583 L165.7681,35.3573 L162.5091,35.3573 C162.8791,35.6573 163.0991,36.0773 163.0991,36.5763 C163.0991,37.5263 162.2791,38.3053 161.2701,38.3053 C160.2601,38.3053 159.4311,37.5263 159.4311,36.5763 C159.4311,36.0463 159.6911,35.5863 160.1011,35.2963 L159.4311,34.8573 Z" id="Fill-25" fill="#221F20" sketch:type="MSShapeGroup"></path>
                <path d="M162.009,42.1161 C162.009,41.9261 162.179,41.7661 162.369,41.7661 C162.579,41.7661 162.699,41.6461 162.699,41.4461 C162.699,41.2171 162.329,40.6771 161.53,40.6771 L160.98,40.6771 C159.981,40.6771 159.811,40.7971 159.811,41.4671 L159.601,41.4671 L159.601,39.1781 L159.811,39.1781 C159.811,39.8371 159.981,39.9671 160.98,39.9671 L161.48,39.9671 C162.48,39.9671 162.639,39.8371 162.639,39.1781 L162.849,39.1781 L163.099,40.5071 C162.999,40.5561 162.589,40.6461 162.379,40.6771 C162.78,40.8771 163.099,41.3261 163.099,41.7261 C163.099,42.2761 162.729,42.5151 162.48,42.5151 C162.259,42.5151 162.009,42.4261 162.009,42.1161" id="Fill-27" fill="#221F20" sketch:type="MSShapeGroup"></path>
                <path d="M161.8899,45.5594 C162.2089,45.6694 162.6999,45.4994 162.6999,44.8394 C162.6999,44.4104 162.3789,44.0404 161.8899,43.9004 L161.8899,45.5594 Z M159.8509,45.1394 C159.8509,45.4694 160.0399,45.9494 160.3109,46.2394 L160.0899,46.4184 C159.7209,46.0694 159.4309,45.4594 159.4309,44.8904 C159.4309,43.7904 160.2599,43.0404 161.2699,43.0404 C162.3289,43.0404 163.0989,43.9604 163.0989,44.8904 C163.0989,45.7794 162.3789,46.4894 161.5199,46.2484 L161.5199,43.8404 C160.5799,43.7204 159.8509,44.1104 159.8509,45.1394 L159.8509,45.1394 Z" id="Fill-29" fill="#221F20" sketch:type="MSShapeGroup"></path>
            </g>
        </g>
    </g>
</svg>