<?xml version="1.0" encoding="UTF-8" standalone="no"?>
<svg width="181px" height="253px" viewBox="0 0 181 253" version="1.1" xmlns="http://www.w3.org/2000/svg" xmlns:xlink="http://www.w3.org/1999/xlink" xmlns:sketch="http://www.bohemiancoding.com/sketch/ns">
    <!-- Generator: Sketch 3.5.2 (25235) - http://www.bohemiancoding.com/sketch -->
    <title>8</title>
    <desc>Created with Sketch.</desc>
    <defs></defs>
    <g id="Welcome" stroke="none" stroke-width="1" fill="none" fill-rule="evenodd" sketch:type="MSPage">
        <g id="Relevé---HD" sketch:type="MSArtboardGroup" transform="translate(-386.000000, -2186.000000)">
            <g id="8" sketch:type="MSLayerGroup" transform="translate(386.133650, 2186.328218)">
                <path d="M168,252 L12,252 C5.373,252 0,245.553 0,237.6 L0,14.4 C0,6.447 5.373,0 12,0 L168,0 C174.627,0 180,6.447 180,14.4 L180,237.6 C180,245.553 174.627,252 168,252" id="Fill-1" fill="#DAB27A" sketch:type="MSShapeGroup"></path>
                <path d="M78.4659,38.1093 C78.3869,38.1313 78.2439,34.3963 78.2249,34.1593 C78.1429,33.1503 78.8599,32.5333 79.2169,31.6143 C79.5579,30.7323 80.1019,29.8213 80.0459,28.8433 C79.9949,27.9253 79.3359,26.5593 78.7219,25.8893 C77.9509,25.0463 78.3909,23.6453 77.5289,22.8693 C76.7419,22.1623 75.4479,22.5013 74.5059,22.5913 C72.1079,22.8183 69.6669,23.9513 69.8409,26.7333 C70.6919,29.2373 71.6269,31.7123 72.4049,34.2403 C72.8549,35.7043 73.2559,37.5643 73.4909,39.0753 C73.4909,39.0753 78.4559,38.1123 78.4659,38.1093" id="Fill-3" fill="#221F20" sketch:type="MSShapeGroup"></path>
                <path d="M78.3292,36.9985 C78.3852,37.3665 78.4092,37.7415 78.4662,38.1095 L82.3912,63.5905 C83.8122,68.6575 86.3032,76.0025 88.0632,80.9635 C88.1062,81.0845 88.6142,82.8025 88.7142,82.8005 C92.7272,82.6935 96.9512,82.7385 100.8582,83.7565 C106.0572,85.1105 110.9782,87.5475 116.1422,89.0965 C122.2212,90.9205 128.3042,92.7295 134.3862,94.5445 C137.9822,95.3165 141.5772,96.0885 145.1732,96.8605 C150.8992,98.0905 155.8912,98.7085 160.6012,102.4595 L159.6252,102.1975 L157.4472,105.6145 C155.3212,103.7015 146.3222,102.3305 143.6542,101.8715 C140.4432,101.3175 137.1922,100.5465 133.9512,100.1995 C133.9482,100.1985 109.2152,97.5525 109.1572,97.5465 C107.0302,97.3225 104.3122,101.9845 103.5362,103.6005 C100.5572,109.8015 105.3262,117.9245 106.5142,125.1845 C107.7602,132.7965 102.0102,139.9105 93.2422,141.9865 C93.8552,149.2145 94.1502,158.3995 94.1102,165.6485 C94.0892,169.4435 95.6632,171.9355 96.5152,175.4455 C100.0152,189.8625 97.3132,195.5275 95.3582,205.2415 C94.8562,207.7335 97.6672,208.5935 98.9892,210.1745 C101.6562,213.3615 97.2622,214.6865 96.1022,217.1625 C95.2492,218.9815 96.2772,221.0075 96.3562,222.8875 C96.4412,224.9045 96.0732,227.1055 94.7422,228.6945 L92.0692,228.6945 C90.1172,226.2165 89.0432,218.5105 88.7312,215.4125 C88.3322,211.4565 88.1352,207.4785 88.2382,203.5035 C88.3702,198.4525 87.6802,193.4945 87.2492,188.4965 C86.9502,185.0305 87.5202,181.4265 86.6432,178.0245 C86.3222,176.7805 85.6822,175.5465 85.2432,174.3375 C83.7622,170.2505 82.4602,166.0955 81.3682,161.8885 C78.7852,151.9405 76.6532,140.5335 79.6172,130.4335 C79.8032,129.7995 80.0112,129.1715 80.2452,128.5535 C81.2742,125.8325 81.2492,122.8245 80.3292,120.0645 L74.3602,102.1565 C74.3602,102.1565 65.0402,105.4185 58.4582,102.0545 C56.6962,101.3935 54.9472,100.7375 53.1862,100.0775 C49.5832,99.0295 46.2562,96.8975 42.5212,96.1725 C39.1432,95.5155 38.3122,97.2745 35.3922,98.1005 C33.0642,98.7595 31.1562,97.2005 30.6482,94.9915 C30.0302,92.3045 25.5222,92.8375 23.5312,92.7945 C22.1492,92.7645 21.3732,92.8585 20.1612,92.1085 C19.3722,91.6215 19.1122,90.1615 19.7802,89.2775 C22.9952,85.0255 28.7332,86.0165 32.1682,86.4975 C34.1792,86.7795 36.1852,87.1125 38.1792,87.4945 C41.5112,88.1325 44.5832,89.3265 47.9852,89.6775 C50.3112,89.9175 52.6362,90.1575 54.9622,90.3975 C59.4632,90.8625 59.5822,90.8745 64.0832,91.3385 C64.3102,91.3625 68.8032,92.0355 69.0072,91.9075 C69.0072,91.9075 76.8572,87.4635 81.3202,92.3695 L82.9412,88.7775 C81.4942,83.2275 79.4112,78.6825 77.9662,73.1325 C76.8132,68.7025 76.0372,63.0885 75.5152,58.4415 C74.9522,53.4285 74.4772,48.4015 73.9462,43.3835 C73.6492,40.5735 73.7242,41.2755 73.4262,38.4655" id="Fill-5" fill="#221F20" sketch:type="MSShapeGroup"></path>
                <path d="M88.4218,83.8952 C92.3908,81.8542 94.2878,76.5042 94.2878,76.5042 L103.5418,78.4272 C103.5418,78.4272 101.7678,82.8162 105.3258,85.9582 L88.4218,83.8952 Z" id="Fill-7" fill="#221F20" sketch:type="MSShapeGroup"></path>
                <path d="M90.687,67.9004 C89.36,74.7864 93.226,78.2594 98.717,79.3174 C104.209,80.3764 109.736,75.6524 111.064,68.7664 C112.391,61.8804 109.016,55.4394 103.525,54.3814 C98.033,53.3224 92.014,61.0144 90.687,67.9004" id="Fill-9" fill="#221F20" sketch:type="MSShapeGroup"></path>
                <path d="M115.4745,69.7654 C115.0015,72.2174 112.6315,73.8214 110.1795,73.3484 C107.7285,72.8764 106.1235,70.5054 106.5965,68.0544 C107.0695,65.6024 109.4395,63.9984 111.8915,64.4704 C114.3425,64.9434 115.9475,67.3134 115.4745,69.7654" id="Fill-11" fill="#221F20" sketch:type="MSShapeGroup"></path>
                <path d="M80.7707,91.8314 C81.4407,92.5584 82.0957,93.2994 82.7477,94.0414 C84.3847,95.9054 85.9877,97.7994 87.5567,99.7214 C89.6147,102.2434 91.6157,104.8134 93.5217,107.4524 C95.4697,110.1474 97.3327,112.9144 98.9667,115.8124 C100.3077,118.1904 101.5807,120.7094 102.2137,123.3824 C102.5127,124.6454 102.7647,125.9784 102.8467,127.2974 C102.9017,128.1934 102.9337,129.0564 102.5957,129.8974 C102.0217,131.3274 100.9887,132.6024 99.9137,133.6864 C98.1387,135.4764 95.1767,137.7034 92.4997,136.6324 C88.3547,134.9724 81.5547,123.7384 80.3297,120.0644 L80.3297,126.3984 C80.3297,126.3984 86.3967,144.1684 93.4607,144.8254 C100.5237,145.4824 110.3857,135.3064 107.8607,126.0004 C107.8607,126.0004 104.1097,103.3024 109.3057,98.4124 C109.3057,98.4124 99.1407,99.5704 103.5657,89.6134 C103.5657,89.6134 90.0957,93.4284 89.7387,87.9704 C89.7387,87.9704 83.1397,84.9074 80.7707,91.8314" id="Fill-13" fill="#DAB27A" sketch:type="MSShapeGroup"></path>
                <path d="M105.3258,84.5658 C105.3258,84.5658 101.5958,91.3078 101.5958,93.2778" id="Stroke-15" stroke="#DAB27A" stroke-width="1.659" sketch:type="MSShapeGroup"></path>
                <path d="M89.7389,81.8 C89.7389,81.8 88.4279,88.3 89.2529,90.167" id="Stroke-17" stroke="#DAB27A" stroke-width="1.659" sketch:type="MSShapeGroup"></path>
                <path d="M154.3543,103.9928 C154.3743,103.9348 155.6773,104.8928 155.8333,104.9828 C156.4943,105.3658 157.3953,105.8708 157.8123,106.4868 C158.2123,107.0778 158.5443,107.8068 159.1743,108.1928 C159.7663,108.5548 160.8963,108.7338 161.5753,108.6418 C162.4303,108.5248 163.1093,109.4008 163.9613,109.1988 C164.7383,109.0148 165.0843,108.0668 165.4333,107.4438 C166.3233,105.8588 166.6693,103.8578 164.8693,102.7698 C162.9503,102.2208 161.0133,101.7368 159.1113,101.1328 C158.0093,100.7838 156.8283,100.2478 155.7893,99.7438 C155.7893,99.7438 154.3573,103.9848 154.3543,103.9928" id="Fill-19" fill="#221F20" sketch:type="MSShapeGroup"></path>
                <path d="M164.4571,17.9552 L162.0481,16.9162 L162.0481,19.0052 L164.4571,17.9552 Z M160.5691,16.2762 C160.0291,16.0362 159.8101,16.2262 159.8101,17.0562 L159.6001,17.0562 L159.6001,14.7172 L159.8101,14.7172 C159.8101,15.5572 159.9791,15.6062 160.6791,15.9162 L165.7671,18.1152 L165.7671,18.2452 L160.6791,20.4542 C159.9791,20.7642 159.8101,20.8132 159.8101,21.6432 L159.6001,21.6432 L159.6001,18.8752 L159.8101,18.8752 C159.8101,19.7042 160.0201,19.8932 160.5691,19.6542 L161.6791,19.1752 L161.6791,16.7562 L160.5691,16.2762 Z" id="Fill-21" fill="#221F20" sketch:type="MSShapeGroup"></path>
                <path d="M162.5782,21.547 L162.8172,21.547 C162.9482,22.147 163.3782,22.366 164.0272,22.436 L164.0272,22.776 L162.9282,22.776 L162.9282,23.646 L162.5782,23.646 L162.5782,22.776 L160.5582,22.776 C160.0792,22.776 159.8292,22.905 159.8292,23.226 C159.8292,23.405 159.9592,23.646 160.1802,23.875 L160.0102,24.045 C159.6702,23.766 159.4302,23.325 159.4302,22.996 C159.4302,22.446 159.7792,22.067 160.5582,22.067 L162.5782,22.067 L162.5782,21.547 Z" id="Fill-23" fill="#221F20" sketch:type="MSShapeGroup"></path>
                <path d="M162.5782,24.4972 L162.8172,24.4972 C162.9482,25.0972 163.3782,25.3162 164.0272,25.3862 L164.0272,25.7262 L162.9282,25.7262 L162.9282,26.5962 L162.5782,26.5962 L162.5782,25.7262 L160.5582,25.7262 C160.0792,25.7262 159.8292,25.8552 159.8292,26.1762 C159.8292,26.3552 159.9592,26.5962 160.1802,26.8252 L160.0102,26.9952 C159.6702,26.7162 159.4302,26.2752 159.4302,25.9462 C159.4302,25.3962 159.7792,25.0172 160.5582,25.0172 L162.5782,25.0172 L162.5782,24.4972 Z" id="Fill-25" fill="#221F20" sketch:type="MSShapeGroup"></path>
                <path d="M164.0772,28.6867 C164.0772,28.4467 164.2772,28.2467 164.5272,28.2467 C164.7662,28.2467 164.9672,28.4467 164.9672,28.6867 C164.9672,28.9257 164.7662,29.1257 164.5272,29.1257 C164.2772,29.1257 164.0772,28.9257 164.0772,28.6867 L164.0772,28.6867 Z M159.5992,27.5467 L159.8092,27.5467 C159.8092,28.2067 159.9792,28.3357 160.9782,28.3357 L161.4782,28.3357 C162.4782,28.3357 162.6382,28.2067 162.6382,27.5467 L162.8482,27.5467 L163.0982,29.0457 L160.9782,29.0457 C159.9792,29.0457 159.8092,29.1657 159.8092,29.8357 L159.5992,29.8357 L159.5992,27.5467 Z" id="Fill-27" fill="#221F20" sketch:type="MSShapeGroup"></path>
                <path d="M162.5782,30.3078 L162.8172,30.3078 C162.9482,30.9078 163.3782,31.1268 164.0272,31.1968 L164.0272,31.5368 L162.9282,31.5368 L162.9282,32.4068 L162.5782,32.4068 L162.5782,31.5368 L160.5582,31.5368 C160.0792,31.5368 159.8292,31.6658 159.8292,31.9868 C159.8292,32.1658 159.9592,32.4068 160.1802,32.6358 L160.0102,32.8058 C159.6702,32.5268 159.4302,32.0858 159.4302,31.7568 C159.4302,31.2068 159.7792,30.8278 160.5582,30.8278 L162.5782,30.8278 L162.5782,30.3078 Z" id="Fill-29" fill="#221F20" sketch:type="MSShapeGroup"></path>
                <path d="M159.4297,36.6652 C159.5297,36.6152 159.8897,36.5352 160.0697,36.5062 C159.8097,36.2562 159.4297,35.7762 159.4297,35.1962 C159.4297,34.2762 160.0787,33.9572 160.9287,33.9572 L161.5587,33.9572 C162.5577,33.9572 162.7277,33.8372 162.7277,33.1672 L162.9277,33.1672 L162.9277,34.6672 L160.9787,34.6672 C160.3287,34.6672 159.9087,34.8872 159.9087,35.4262 C159.9087,35.8162 160.2797,36.5062 160.8987,36.5062 L161.5587,36.5062 C162.5577,36.5062 162.7277,36.3762 162.7277,35.7062 L162.9277,35.7062 L162.9277,37.2052 L161.0587,37.2052 C160.0597,37.2052 159.8897,37.3352 159.8897,38.0052 L159.6797,38.0052 L159.4297,36.6652 Z" id="Fill-31" fill="#221F20" sketch:type="MSShapeGroup"></path>
                <path d="M161.9082,41.6359 C162.3782,41.4549 162.6982,41.0749 162.6982,40.6259 C162.6982,39.8469 162.0682,39.4869 161.2682,39.4869 C160.4692,39.4869 159.8292,39.8469 159.8292,40.6259 C159.8292,41.0749 160.1492,41.4549 160.6192,41.6359 L161.9082,41.6359 Z M164.1372,41.6359 C165.1372,41.6359 165.3062,41.5159 165.3062,40.8459 L165.5162,40.8459 L165.7662,42.3449 L161.0582,42.3449 C160.0592,42.3449 159.8892,42.4749 159.8892,43.1349 L159.6792,43.1349 L159.4292,41.8059 C159.5292,41.7549 159.8802,41.6759 160.0392,41.6459 C159.6892,41.3649 159.4292,40.9659 159.4292,40.4159 C159.4292,39.4669 160.2592,38.6769 161.2682,38.6769 C162.2782,38.6769 163.0972,39.4669 163.0972,40.4159 C163.0972,40.9159 162.8782,41.3359 162.5082,41.6359 L164.1372,41.6359 Z" id="Fill-33" fill="#221F20" sketch:type="MSShapeGroup"></path>
                <path d="M161.8887,46.3254 C162.2077,46.4354 162.6987,46.2654 162.6987,45.6054 C162.6987,45.1764 162.3777,44.8064 161.8887,44.6664 L161.8887,46.3254 Z M159.8497,45.9054 C159.8497,46.2354 160.0387,46.7154 160.3097,47.0054 L160.0887,47.1844 C159.7197,46.8354 159.4297,46.2254 159.4297,45.6564 C159.4297,44.5564 160.2587,43.8064 161.2687,43.8064 C162.3277,43.8064 163.0977,44.7264 163.0977,45.6564 C163.0977,46.5454 162.3777,47.2554 161.5187,47.0144 L161.5187,44.6064 C160.5787,44.4864 159.8497,44.8764 159.8497,45.9054 L159.8497,45.9054 Z" id="Fill-35" fill="#221F20" sketch:type="MSShapeGroup"></path>
            </g>
        </g>
    </g>
</svg>