<?xml version="1.0" encoding="UTF-8" standalone="no"?>
<svg width="181px" height="253px" viewBox="0 0 181 253" version="1.1" xmlns="http://www.w3.org/2000/svg" xmlns:xlink="http://www.w3.org/1999/xlink" xmlns:sketch="http://www.bohemiancoding.com/sketch/ns">
    <!-- Generator: Sketch 3.5.2 (25235) - http://www.bohemiancoding.com/sketch -->
    <title>9</title>
    <desc>Created with Sketch.</desc>
    <defs></defs>
    <g id="Welcome" stroke="none" stroke-width="1" fill="none" fill-rule="evenodd" sketch:type="MSPage">
        <g id="Relevé---HD" sketch:type="MSArtboardGroup" transform="translate(-144.000000, -2507.000000)">
            <g id="9" sketch:type="MSLayerGroup" transform="translate(144.516462, 2507.789156)">
                <path d="M168,252 L12,252 C5.373,252 0,245.553 0,237.6 L0,14.4 C0,6.447 5.373,0 12,0 L168,0 C174.627,0 180,6.447 180,14.4 L180,237.6 C180,245.553 174.627,252 168,252" id="Fill-1" fill="#DAB27A" sketch:type="MSShapeGroup"></path>
                <path d="M83.2133,230.8715 C81.5873,229.2315 79.8283,225.2805 81.1433,215.1245 L81.5423,175.7705 C81.5423,175.7705 71.1553,162.7865 76.5483,129.4255 C76.5483,129.4255 58.7693,107.8515 57.7703,89.0735 C55.4243,89.0175 50.1133,87.8375 48.5333,89.8055 C47.2053,91.4605 46.3673,92.9665 44.0463,93.2445 C42.5823,93.4205 39.9043,93.5225 39.4713,91.6485 C41.0563,89.0165 42.1433,85.7715 45.2353,84.7395 C49.3723,83.3575 53.5003,81.9545 57.6263,80.5415 C60.2663,79.6365 61.4673,76.0015 63.8123,74.4655 C69.2183,70.9225 77.5833,70.3175 83.1403,72.8925 L89.7333,66.7005 C91.9683,60.5805 95.3993,55.9905 97.3113,49.7645 L100.6823,33.3935 L106.7603,33.3935 L103.9493,49.7645 L97.1043,67.6925 L85.9373,90.6715 C85.9373,90.6715 81.7423,102.2585 94.9263,106.0535 C100.4533,107.9605 105.9663,109.9065 111.4643,111.8905 C115.3593,113.2955 119.2523,114.7105 123.1083,116.2195 C125.4633,117.1405 128.0533,118.9155 130.7433,119.0545 C134.2593,119.2355 136.0553,115.9865 138.7083,114.3755 C142.0113,112.3695 146.0873,113.4225 149.6623,112.4455 C152.3323,111.7165 154.7953,109.0705 157.6393,109.0795 C160.3423,109.0895 162.0213,111.2325 160.4503,113.6435 C157.2653,118.5295 150.8133,116.5865 147.2643,120.4365 C145.4553,122.4005 143.7233,124.4995 141.6053,126.1465 C138.8903,128.2575 136.9013,128.2035 133.5573,128.2795 C126.6133,128.4375 119.6833,128.9275 112.7433,129.1935 C109.0763,129.3345 105.4083,129.4725 101.7403,129.6085 C99.3403,129.6965 96.6283,129.0005 96.0163,131.8675 C94.3563,139.6465 93.6143,147.7415 92.4243,155.6065 C91.7933,159.7745 91.1623,163.9425 90.5323,168.1115 C90.4063,168.9395 91.1813,170.5205 91.3623,171.3345 C92.0143,174.2585 92.4453,177.2335 92.6923,180.2185 C93.0653,184.7425 92.8513,189.3015 92.1903,193.7885 C91.6913,197.1745 90.0443,200.3145 89.7733,203.7495 C89.6693,205.0755 89.7123,206.7955 90.6853,207.8355 C92.7443,210.0365 93.6143,212.3535 92.2323,215.2235 C91.1073,217.5595 88.7073,218.6015 88.2173,221.3365 C87.8623,223.3195 89.1513,228.4905 87.6993,230.8715 L83.2133,230.8715 Z" id="Fill-3" fill="#221F20" sketch:type="MSShapeGroup"></path>
                <path d="M65.0555,75.1005 C67.9595,71.3645 66.3135,66.2595 66.3135,66.2595 L75.7085,65.2335 C75.7085,65.2335 73.5945,69.5665 79.7305,71.8455 L65.0555,75.1005 Z" id="Fill-5" fill="#221F20" sketch:type="MSShapeGroup"></path>
                <path d="M60.0229,58.5266 C60.5049,65.5226 65.1329,67.8876 70.7119,67.5036 C76.2909,67.1186 80.4229,61.1356 79.9399,54.1386 C79.4579,47.1426 74.5439,41.7836 68.9649,42.1676 C63.3859,42.5526 59.5409,51.5306 60.0229,58.5266" id="Fill-7" fill="#221F20" sketch:type="MSShapeGroup"></path>
                <path d="M84.4601,53.9742 C84.6321,56.4652 82.7521,58.6232 80.2611,58.7952 C77.7701,58.9672 75.6121,57.0872 75.4401,54.5962 C75.2681,52.1052 77.1481,49.9472 79.6391,49.7752 C82.1301,49.6032 84.2881,51.4832 84.4601,53.9742" id="Fill-9" fill="#221F20" sketch:type="MSShapeGroup"></path>
                <path d="M100.3353,35.0801 C100.4143,35.1001 100.5883,32.5121 100.5983,32.2741 C100.6433,31.2631 100.6713,30.0951 100.2813,29.1891 C99.9073,28.3211 99.3313,27.4301 99.3503,26.4511 C99.3683,25.5311 99.9753,24.1421 100.5643,23.4501 C101.3043,22.5791 100.8123,21.1951 101.6463,20.3881 C102.4063,19.6521 103.7113,19.9441 104.6573,19.9981 C107.0613,20.1381 109.5423,21.1801 109.4703,23.9671 C108.7133,26.5001 107.8703,29.0081 107.1853,31.5631 C106.7893,33.0421 106.4103,35.0931 106.2313,36.6121 C106.2313,36.6121 100.3453,35.0831 100.3353,35.0801" id="Fill-11" fill="#221F20" sketch:type="MSShapeGroup"></path>
                <path d="M48.2716,86.6454 C48.2166,86.6094 47.7426,88.2834 47.6696,88.4624 C47.3616,89.2234 47.0236,90.1094 47.0766,90.9084 C47.2426,93.4234 46.2866,94.2064 44.6896,96.1714 C42.5406,98.8144 36.7146,95.0354 38.6316,92.4124 C39.8976,90.6804 40.6686,88.4354 42.4376,87.2214 C44.1666,86.0344 44.1436,87.2264 44.6926,86.1124 C44.6926,86.1124 48.2646,86.6404 48.2716,86.6454" id="Fill-13" fill="#221F20" sketch:type="MSShapeGroup"></path>
                <path d="M97.4075,130.5092 C97.4075,130.5092 84.6615,116.0222 96.5655,103.5592 L88.3355,85.7362 C88.3355,85.7362 76.3785,85.9322 79.9785,75.1002 C79.9785,75.1002 75.0045,87.0542 63.1115,79.6722 C63.1115,79.6722 57.6255,80.5412 56.7505,93.0322 L65.0555,124.2862 L76.5485,129.4262 C76.5485,129.4262 86.3645,135.4282 96.5655,133.4132 L97.4075,130.5092 Z" id="Fill-15" fill="#DAB27A" sketch:type="MSShapeGroup"></path>
                <path d="M82.1956,70.7679 C82.1956,70.7679 77.7586,78.5119 76.6576,84.3199" id="Stroke-17" stroke="#DAB27A" stroke-width="1.659" sketch:type="MSShapeGroup"></path>
                <path d="M65.4107,72.1681 C65.4107,72.1681 63.0537,78.7311 62.2987,82.3321" id="Stroke-19" stroke="#DAB27A" stroke-width="1.659" sketch:type="MSShapeGroup"></path>
                <path d="M164.0324,17.9552 L161.6234,16.9162 L161.6234,19.0052 L164.0324,17.9552 Z M160.1444,16.2762 C159.6044,16.0362 159.3854,16.2262 159.3854,17.0562 L159.1754,17.0562 L159.1754,14.7172 L159.3854,14.7172 C159.3854,15.5572 159.5544,15.6062 160.2544,15.9162 L165.3424,18.1152 L165.3424,18.2452 L160.2544,20.4542 C159.5544,20.7642 159.3854,20.8132 159.3854,21.6432 L159.1754,21.6432 L159.1754,18.8752 L159.3854,18.8752 C159.3854,19.7042 159.5954,19.8932 160.1444,19.6542 L161.2544,19.1752 L161.2544,16.7562 L160.1444,16.2762 Z" id="Fill-21" fill="#221F20" sketch:type="MSShapeGroup"></path>
                <path d="M162.1535,21.547 L162.3925,21.547 C162.5235,22.147 162.9535,22.366 163.6025,22.436 L163.6025,22.776 L162.5035,22.776 L162.5035,23.646 L162.1535,23.646 L162.1535,22.776 L160.1335,22.776 C159.6545,22.776 159.4045,22.905 159.4045,23.226 C159.4045,23.405 159.5345,23.646 159.7555,23.875 L159.5855,24.045 C159.2455,23.766 159.0055,23.325 159.0055,22.996 C159.0055,22.446 159.3545,22.067 160.1335,22.067 L162.1535,22.067 L162.1535,21.547 Z" id="Fill-23" fill="#221F20" sketch:type="MSShapeGroup"></path>
                <path d="M162.1535,24.4972 L162.3925,24.4972 C162.5235,25.0972 162.9535,25.3162 163.6025,25.3862 L163.6025,25.7262 L162.5035,25.7262 L162.5035,26.5962 L162.1535,26.5962 L162.1535,25.7262 L160.1335,25.7262 C159.6545,25.7262 159.4045,25.8552 159.4045,26.1762 C159.4045,26.3552 159.5345,26.5962 159.7555,26.8252 L159.5855,26.9952 C159.2455,26.7162 159.0055,26.2752 159.0055,25.9462 C159.0055,25.3962 159.3545,25.0172 160.1335,25.0172 L162.1535,25.0172 L162.1535,24.4972 Z" id="Fill-25" fill="#221F20" sketch:type="MSShapeGroup"></path>
                <path d="M163.6526,28.6867 C163.6526,28.4467 163.8526,28.2467 164.1026,28.2467 C164.3416,28.2467 164.5426,28.4467 164.5426,28.6867 C164.5426,28.9257 164.3416,29.1257 164.1026,29.1257 C163.8526,29.1257 163.6526,28.9257 163.6526,28.6867 L163.6526,28.6867 Z M159.1746,27.5467 L159.3846,27.5467 C159.3846,28.2067 159.5546,28.3357 160.5536,28.3357 L161.0536,28.3357 C162.0536,28.3357 162.2136,28.2067 162.2136,27.5467 L162.4236,27.5467 L162.6736,29.0457 L160.5536,29.0457 C159.5546,29.0457 159.3846,29.1657 159.3846,29.8357 L159.1746,29.8357 L159.1746,27.5467 Z" id="Fill-27" fill="#221F20" sketch:type="MSShapeGroup"></path>
                <path d="M162.1535,30.3078 L162.3925,30.3078 C162.5235,30.9078 162.9535,31.1268 163.6025,31.1968 L163.6025,31.5368 L162.5035,31.5368 L162.5035,32.4068 L162.1535,32.4068 L162.1535,31.5368 L160.1335,31.5368 C159.6545,31.5368 159.4045,31.6658 159.4045,31.9868 C159.4045,32.1658 159.5345,32.4068 159.7555,32.6358 L159.5855,32.8058 C159.2455,32.5268 159.0055,32.0858 159.0055,31.7568 C159.0055,31.2068 159.3545,30.8278 160.1335,30.8278 L162.1535,30.8278 L162.1535,30.3078 Z" id="Fill-29" fill="#221F20" sketch:type="MSShapeGroup"></path>
                <path d="M159.0051,36.6652 C159.1051,36.6152 159.4651,36.5352 159.6451,36.5062 C159.3851,36.2562 159.0051,35.7762 159.0051,35.1962 C159.0051,34.2762 159.6541,33.9572 160.5041,33.9572 L161.1341,33.9572 C162.1331,33.9572 162.3031,33.8372 162.3031,33.1672 L162.5031,33.1672 L162.5031,34.6672 L160.5541,34.6672 C159.9041,34.6672 159.4841,34.8872 159.4841,35.4262 C159.4841,35.8162 159.8551,36.5062 160.4741,36.5062 L161.1341,36.5062 C162.1331,36.5062 162.3031,36.3762 162.3031,35.7062 L162.5031,35.7062 L162.5031,37.2052 L160.6341,37.2052 C159.6351,37.2052 159.4651,37.3352 159.4651,38.0052 L159.2551,38.0052 L159.0051,36.6652 Z" id="Fill-31" fill="#221F20" sketch:type="MSShapeGroup"></path>
                <path d="M161.4836,41.6359 C161.9536,41.4549 162.2736,41.0749 162.2736,40.6259 C162.2736,39.8469 161.6436,39.4869 160.8436,39.4869 C160.0446,39.4869 159.4046,39.8469 159.4046,40.6259 C159.4046,41.0749 159.7246,41.4549 160.1946,41.6359 L161.4836,41.6359 Z M163.7126,41.6359 C164.7126,41.6359 164.8816,41.5159 164.8816,40.8459 L165.0916,40.8459 L165.3416,42.3449 L160.6336,42.3449 C159.6346,42.3449 159.4646,42.4749 159.4646,43.1349 L159.2546,43.1349 L159.0046,41.8059 C159.1046,41.7549 159.4556,41.6759 159.6146,41.6459 C159.2646,41.3649 159.0046,40.9659 159.0046,40.4159 C159.0046,39.4669 159.8346,38.6769 160.8436,38.6769 C161.8536,38.6769 162.6726,39.4669 162.6726,40.4159 C162.6726,40.9159 162.4536,41.3359 162.0836,41.6359 L163.7126,41.6359 Z" id="Fill-33" fill="#221F20" sketch:type="MSShapeGroup"></path>
                <path d="M161.4641,46.3254 C161.7831,46.4354 162.2741,46.2654 162.2741,45.6054 C162.2741,45.1764 161.9531,44.8064 161.4641,44.6664 L161.4641,46.3254 Z M159.4251,45.9054 C159.4251,46.2354 159.6141,46.7154 159.8851,47.0054 L159.6641,47.1844 C159.2951,46.8354 159.0051,46.2254 159.0051,45.6564 C159.0051,44.5564 159.8341,43.8064 160.8441,43.8064 C161.9031,43.8064 162.6731,44.7264 162.6731,45.6564 C162.6731,46.5454 161.9531,47.2554 161.0941,47.0144 L161.0941,44.6064 C160.1541,44.4864 159.4251,44.8764 159.4251,45.9054 L159.4251,45.9054 Z" id="Fill-35" fill="#221F20" sketch:type="MSShapeGroup"></path>
                <path d="M161.4836,53.3156 C161.9536,53.1346 162.2736,52.7546 162.2736,52.3056 C162.2736,51.5266 161.6436,51.1666 160.8436,51.1666 C160.0446,51.1666 159.4046,51.5266 159.4046,52.3056 C159.4046,52.7546 159.7246,53.1346 160.1946,53.3156 L161.4836,53.3156 Z M163.7126,53.3156 C164.7126,53.3156 164.8816,53.1956 164.8816,52.5256 L165.0916,52.5256 L165.3416,54.0246 L160.6336,54.0246 C159.6346,54.0246 159.4646,54.1546 159.4646,54.8146 L159.2546,54.8146 L159.0046,53.4856 C159.1046,53.4346 159.4556,53.3556 159.6146,53.3256 C159.2646,53.0446 159.0046,52.6456 159.0046,52.0956 C159.0046,51.1466 159.8346,50.3566 160.8436,50.3566 C161.8536,50.3566 162.6726,51.1466 162.6726,52.0956 C162.6726,52.5956 162.4536,53.0156 162.0836,53.3156 L163.7126,53.3156 Z" id="Fill-37" fill="#221F20" sketch:type="MSShapeGroup"></path>
                <path d="M161.4641,58.0051 C161.7831,58.1151 162.2741,57.9451 162.2741,57.2851 C162.2741,56.8561 161.9531,56.4861 161.4641,56.3461 L161.4641,58.0051 Z M159.4251,57.5851 C159.4251,57.9151 159.6141,58.3951 159.8851,58.6851 L159.6641,58.8641 C159.2951,58.5151 159.0051,57.9051 159.0051,57.3361 C159.0051,56.2361 159.8341,55.4861 160.8441,55.4861 C161.9031,55.4861 162.6731,56.4061 162.6731,57.3361 C162.6731,58.2251 161.9531,58.9351 161.0941,58.6941 L161.0941,56.2861 C160.1541,56.1661 159.4251,56.5561 159.4251,57.5851 L159.4251,57.5851 Z" id="Fill-39" fill="#221F20" sketch:type="MSShapeGroup"></path>
                <path d="M161.5832,62.5451 C161.5832,62.3551 161.7532,62.1951 161.9432,62.1951 C162.1532,62.1951 162.2732,62.0751 162.2732,61.8751 C162.2732,61.6461 161.9032,61.1061 161.1042,61.1061 L160.5542,61.1061 C159.5552,61.1061 159.3852,61.2261 159.3852,61.8961 L159.1752,61.8961 L159.1752,59.6071 L159.3852,59.6071 C159.3852,60.2661 159.5552,60.3961 160.5542,60.3961 L161.0542,60.3961 C162.0542,60.3961 162.2132,60.2661 162.2132,59.6071 L162.4232,59.6071 L162.6732,60.9361 C162.5732,60.9851 162.1632,61.0751 161.9532,61.1061 C162.3542,61.3061 162.6732,61.7551 162.6732,62.1551 C162.6732,62.7051 162.3032,62.9441 162.0542,62.9441 C161.8332,62.9441 161.5832,62.8551 161.5832,62.5451" id="Fill-41" fill="#221F20" sketch:type="MSShapeGroup"></path>
                <path d="M161.5832,66.4748 C161.5832,66.2848 161.7532,66.1248 161.9432,66.1248 C162.1532,66.1248 162.2732,66.0048 162.2732,65.8048 C162.2732,65.5758 161.9032,65.0358 161.1042,65.0358 L160.5542,65.0358 C159.5552,65.0358 159.3852,65.1558 159.3852,65.8258 L159.1752,65.8258 L159.1752,63.5368 L159.3852,63.5368 C159.3852,64.1958 159.5552,64.3258 160.5542,64.3258 L161.0542,64.3258 C162.0542,64.3258 162.2132,64.1958 162.2132,63.5368 L162.4232,63.5368 L162.6732,64.8658 C162.5732,64.9148 162.1632,65.0048 161.9532,65.0358 C162.3542,65.2358 162.6732,65.6848 162.6732,66.0848 C162.6732,66.6348 162.3032,66.8738 162.0542,66.8738 C161.8332,66.8738 161.5832,66.7848 161.5832,66.4748" id="Fill-43" fill="#221F20" sketch:type="MSShapeGroup"></path>
                <path d="M163.6526,68.6056 C163.6526,68.3656 163.8526,68.1656 164.1026,68.1656 C164.3416,68.1656 164.5426,68.3656 164.5426,68.6056 C164.5426,68.8446 164.3416,69.0446 164.1026,69.0446 C163.8526,69.0446 163.6526,68.8446 163.6526,68.6056 L163.6526,68.6056 Z M159.1746,67.4656 L159.3846,67.4656 C159.3846,68.1256 159.5546,68.2546 160.5536,68.2546 L161.0536,68.2546 C162.0536,68.2546 162.2136,68.1256 162.2136,67.4656 L162.4236,67.4656 L162.6736,68.9646 L160.5536,68.9646 C159.5546,68.9646 159.3846,69.0846 159.3846,69.7546 L159.1746,69.7546 L159.1746,67.4656 Z" id="Fill-45" fill="#221F20" sketch:type="MSShapeGroup"></path>
                <path d="M163.2629,72.6154 L163.8419,71.2354 C163.8819,71.1554 163.9919,71.0064 164.1419,71.0064 C164.2619,71.0064 164.4319,71.0954 164.4319,71.2854 C164.4319,71.4554 164.3519,71.5654 164.2019,71.7354 L163.3229,72.6654 L163.2629,72.6154 Z M161.4639,72.9444 C161.7839,73.0544 162.2739,72.8854 162.2739,72.2244 C162.2739,71.7954 161.9529,71.4264 161.4639,71.2854 L161.4639,72.9444 Z M159.4249,72.5244 C159.4249,72.8544 159.6149,73.3344 159.8849,73.6244 L159.6639,73.8034 C159.2949,73.4544 159.0049,72.8444 159.0049,72.2754 C159.0049,71.1764 159.8339,70.4264 160.8439,70.4264 C161.9039,70.4264 162.6729,71.3454 162.6729,72.2754 C162.6729,73.1644 161.9529,73.8744 161.0939,73.6344 L161.0939,71.2254 C160.1549,71.1054 159.4249,71.4954 159.4249,72.5244 L159.4249,72.5244 Z" id="Fill-47" fill="#221F20" sketch:type="MSShapeGroup"></path>
                <path d="M161.5832,77.4845 C161.5832,77.2945 161.7532,77.1345 161.9432,77.1345 C162.1532,77.1345 162.2732,77.0145 162.2732,76.8145 C162.2732,76.5855 161.9032,76.0455 161.1042,76.0455 L160.5542,76.0455 C159.5552,76.0455 159.3852,76.1655 159.3852,76.8355 L159.1752,76.8355 L159.1752,74.5465 L159.3852,74.5465 C159.3852,75.2055 159.5552,75.3355 160.5542,75.3355 L161.0542,75.3355 C162.0542,75.3355 162.2132,75.2055 162.2132,74.5465 L162.4232,74.5465 L162.6732,75.8755 C162.5732,75.9245 162.1632,76.0145 161.9532,76.0455 C162.3542,76.2455 162.6732,76.6945 162.6732,77.0945 C162.6732,77.6445 162.3032,77.8835 162.0542,77.8835 C161.8332,77.8835 161.5832,77.7945 161.5832,77.4845" id="Fill-49" fill="#221F20" sketch:type="MSShapeGroup"></path>
                <path d="M161.4641,80.9279 C161.7831,81.0379 162.2741,80.8679 162.2741,80.2079 C162.2741,79.7789 161.9531,79.4089 161.4641,79.2689 L161.4641,80.9279 Z M159.4251,80.5079 C159.4251,80.8379 159.6141,81.3179 159.8851,81.6079 L159.6641,81.7869 C159.2951,81.4379 159.0051,80.8279 159.0051,80.2589 C159.0051,79.1589 159.8341,78.4089 160.8441,78.4089 C161.9031,78.4089 162.6731,79.3289 162.6731,80.2589 C162.6731,81.1479 161.9531,81.8579 161.0941,81.6169 L161.0941,79.2089 C160.1541,79.0889 159.4251,79.4789 159.4251,80.5079 L159.4251,80.5079 Z" id="Fill-51" fill="#221F20" sketch:type="MSShapeGroup"></path>
            </g>
        </g>
    </g>
</svg>