<?xml version="1.0" encoding="UTF-8" standalone="no"?>
<svg width="308px" height="618px" viewBox="0 0 308 618" version="1.1" xmlns="http://www.w3.org/2000/svg" xmlns:xlink="http://www.w3.org/1999/xlink" xmlns:sketch="http://www.bohemiancoding.com/sketch/ns">
    <!-- Generator: Sketch 3.4.4 (17249) - http://www.bohemiancoding.com/sketch -->
    <title>Page 1</title>
    <desc>Created with Sketch.</desc>
    <defs></defs>
    <g id="Welcome" stroke="none" stroke-width="1" fill="none" fill-rule="evenodd" sketch:type="MSPage">
        <g id="Portolio" sketch:type="MSArtboardGroup" transform="translate(-612.000000, -822.000000)">
            <g id="Addams" sketch:type="MSLayerGroup" transform="translate(517.000000, 822.000000)">
                <g id="Page-1" transform="translate(97.625000, -70.862111)" sketch:type="MSShapeGroup">
                    <path d="M232.556927,602.190598 L232.556927,701.625557" id="Stroke-1" stroke="#FEFEFE" stroke-width="6" stroke-linecap="round"></path>
                    <path d="M330.985995,356.566596 L233.677403,602.19133" id="Stroke-3" stroke="#FEFEFE" stroke-width="6" stroke-linecap="round"></path>
                    <path d="M330.985995,356.566596 L184.573991,505.805041" id="Stroke-4" stroke="#FEFEFE" stroke-width="6" stroke-linecap="round"></path>
                    <path d="M330.985995,356.566596 L41.3414477,473.923929" id="Stroke-5" stroke="#FEFEFE" stroke-width="6" stroke-linecap="round"></path>
                    <g id="Group-122">
                        <path d="M191.264759,413.178169 C208.459508,414.316388 222.506876,427.02345 226.121195,445.191036 C227.454287,451.884935 227.080023,458.527596 225.312072,464.650555" id="Stroke-6" stroke="#FEFEFE" stroke-width="6" stroke-linecap="round"></path>
                        <path d="M173.320769,354.890742 C189.674316,360.461062 201.0555,376.732836 200.075285,395.248109 C199.715279,402.070103 197.993666,406.293591 194.771432,411.757774" id="Stroke-8" stroke="#FEFEFE" stroke-width="6" stroke-linecap="round"></path>
                        <path d="M225.344152,464.702891 C242.168202,460.881989 260.061576,468.864162 268.462908,485.28233 C271.556822,491.328433 273.602798,496.547405 273.567153,502.930215" id="Stroke-10" stroke="#FEFEFE" stroke-width="6" stroke-linecap="round"></path>
                        <path d="M273.566084,502.930947 C290.464986,494.015508 311.723171,497.382587 325.15746,512.472223 C330.108435,518.031563 333.419779,524.531489 335.120006,531.353483" id="Stroke-12" stroke="#FEFEFE" stroke-width="6" stroke-linecap="round"></path>
                        <path d="M136.173125,434.558387 C159.937095,436.13213 180.692697,453.801974 185.69001,478.91233 C187.529249,488.160817 187.015973,497.343426 184.574348,505.805041" id="Stroke-16" stroke="#FEFEFE" stroke-width="6" stroke-linecap="round"></path>
                        <path d="M107.317742,354.015302 C130.197736,361.807161 145.325123,382.613512 143.956387,408.518059 C143.45024,418.059335 140.655737,426.919876 136.153878,434.561681" id="Stroke-18" stroke="#FEFEFE" stroke-width="6" stroke-linecap="round"></path>
                        <path d="M184.818867,505.007922 C208.279861,499.679154 233.227217,510.808813 244.939893,533.701289 C249.256402,542.133625 251.273862,549.010517 251.220396,557.914977" id="Stroke-20" stroke="#FEFEFE" stroke-width="6" stroke-linecap="round"></path>
                        <path d="M250.841498,558.868006 C274.370217,546.453733 303.969138,552.320502 322.675199,573.328145 C329.568782,581.068767 334.181138,590.123281 336.547911,599.616979" id="Stroke-22" stroke="#FEFEFE" stroke-width="6" stroke-linecap="round"></path>
                        <path d="M257.77928,386.227998 C266.936268,386.835536 273.109839,393.913721 275.034624,403.586753 C275.743943,407.151464 275.544336,410.690557 274.60333,413.951499" id="Stroke-28" stroke="#FEFEFE" stroke-width="6" stroke-linecap="round"></path>
                        <path d="M246.918501,355.504868 C255.626372,358.469361 261.685881,367.135929 261.165476,376.995614 C260.972998,380.626203 259.910802,384.000602 258.196317,386.906537" id="Stroke-30" stroke="#FEFEFE" stroke-width="6"></path>
                        <path d="M274.620082,413.97785 C283.577463,411.942964 293.10515,416.192071 297.578494,424.935496 C299.228819,428.15618 299.998733,431.611095 299.977347,435.011113" id="Stroke-32" stroke="#FEFEFE" stroke-width="6"></path>
                        <path d="M300.297431,434.333671 C309.294021,429.586822 320.61461,431.380158 327.768395,439.413568 C330.406064,442.374402 332.166886,445.836637 333.072248,449.467226" id="Stroke-34" stroke="#FEFEFE" stroke-width="6"></path>
                        <path d="M0.548830728,353.377021 L335.432962,355.968207" id="Stroke-38" stroke="#FEFEFE" stroke-width="6" stroke-linecap="round"></path>
                        <path d="M335.431536,355.967476 L99.399389,248.363691" id="Stroke-40" stroke="#FEFEFE" stroke-width="6" stroke-linecap="round"></path>
                        <path d="M335.431536,355.967476 L173.321839,178.69444" id="Stroke-42" stroke="#FEFEFE" stroke-width="6" stroke-linecap="round"></path>
                        <path d="M335.431536,355.967476 L211.111791,0.0160148727" id="Stroke-44" stroke="#FEFEFE" stroke-width="6" stroke-linecap="round"></path>
                        <path d="M286.004118,214.446594 C284.353793,232.05788 270.267216,242.418967 252.466516,245.555474 C245.907988,246.711992 239.452829,246.119094 233.550154,244.113486" id="Stroke-46" stroke="#FEFEFE" stroke-width="6" stroke-linecap="round"></path>
                        <path d="M342.032124,194.213745 C336.093805,210.822227 319.897093,221.988485 301.90035,220.400102 C295.274098,219.814523 291.62057,219.06791 286.405828,215.591035" id="Stroke-48" stroke="#FEFEFE" stroke-width="6" stroke-linecap="round"></path>
                        <path d="M233.4974,244.142765 C236.687554,261.530799 228.353946,279.639826 212.107332,287.746434 C206.122676,290.729227 202.265976,292.665297 196.053197,292.427406" id="Stroke-50" stroke="#FEFEFE" stroke-width="6" stroke-linecap="round"></path>
                        <path d="M194.765017,292.426308 C202.90971,310.048573 198.9639,331.758911 183.850771,345.073512 C178.283151,349.977735 171.849378,353.16914 165.158967,354.702625" id="Stroke-52" stroke="#FEFEFE" stroke-width="6" stroke-linecap="round"></path>
                        <path d="M265.651652,153.579326 C263.370425,177.91745 245.516259,198.665243 220.914651,202.998527 C211.853902,204.597889 202.932166,203.781738 194.773215,201.003898" id="Stroke-54" stroke="#FEFEFE" stroke-width="6" stroke-linecap="round"></path>
                        <path d="M346.893276,125.754446 C338.588184,148.99095 315.925619,164.611267 290.753704,162.386067 C281.482655,161.566257 272.945875,158.42243 265.649513,153.558465" id="Stroke-56" stroke="#FEFEFE" stroke-width="6" stroke-linecap="round"></path>
                        <path d="M329.083309,58.9442846 C320.678413,82.4479581 294.936191,100.754619 269.46843,98.5037999 C260.090448,97.6766697 249.443534,93.5556581 242.061626,88.6331354" id="Stroke-58" stroke="#FEFEFE" stroke-width="6" stroke-linecap="round"></path>
                        <path d="M195.540277,201.282414 C199.98867,225.525381 188.365105,250.782132 165.713234,262.080145 C157.368933,266.241415 148.500663,268.027431 139.835564,267.690723" id="Stroke-60" stroke="#FEFEFE" stroke-width="6" stroke-linecap="round"></path>
                        <path d="M139.884753,267.304973 C151.226729,291.840729 145.730398,322.07124 124.689642,340.608473 C116.937035,347.437787 107.979654,351.884527 98.6622675,354.01457" id="Stroke-62" stroke="#FEFEFE" stroke-width="6" stroke-linecap="round"></path>
                        <path d="M308.659554,278.022165 C307.779143,287.398747 300.899818,295.391899 291.422032,297.064459 C287.932468,297.679317 284.492805,297.364568 281.348989,296.295887" id="Stroke-64" stroke="#FEFEFE" stroke-width="6"></path>
                        <path d="M281.3219,296.311624 C283.022127,305.571091 278.580863,315.214843 269.933586,319.529828 C266.746997,321.118211 263.357237,321.798946 260.049457,321.670851" id="Stroke-68" stroke="#FEFEFE" stroke-width="6"></path>
                        <path d="M260.697468,322.021832 C265.035364,331.405734 262.932358,342.967258 254.887468,350.056422 C251.921873,352.665908 248.496468,354.367747 244.932051,355.183898" id="Stroke-70" stroke="#FEFEFE" stroke-width="6"></path>
                        <path d="M226.259495,725.18486 C226.141869,725.18486 226.024243,725.159241 225.906617,725.111663 C212.850157,719.394949 204.666255,711.910518 201.583034,702.866984 C198.186144,692.897503 202.327997,684.823834 202.506218,684.487126 C202.741469,684.036962 203.286825,683.868608 203.725249,684.11016 C204.160108,684.351711 204.324071,684.911671 204.088819,685.358175 C204.038917,685.453331 200.146574,693.113435 203.29039,702.292385 C206.209647,710.812558 214.05493,717.916362 226.612372,723.413484 C227.068617,723.614777 227.278918,724.156437 227.086439,724.624901 C226.940298,724.976248 226.608807,725.18486 226.259495,725.18486" id="Fill-80" fill="#58595C"></path>
                        <path d="M241.097807,725.18486 C240.748494,725.18486 240.417004,724.976248 240.270862,724.624901 C240.078384,724.156437 240.288685,723.614777 240.74493,723.413484 C253.302372,717.916362 261.147654,710.812558 264.066912,702.292385 C267.214293,693.102456 263.307691,685.435032 263.268483,685.358175 C263.036795,684.911671 263.197194,684.351711 263.635618,684.11016 C264.070477,683.872268 264.615832,684.036962 264.851084,684.487126 C265.029305,684.823834 269.171158,692.897503 265.774268,702.866984 C262.691047,711.910518 254.507145,719.394949 241.450685,725.111663 C241.333059,725.159241 241.215433,725.18486 241.097807,725.18486" id="Fill-92" fill="#BABDBF"></path>
                        <path d="M41.0943967,521.409987 L41.0943967,474.69177" id="Stroke-96" stroke="#FEFEFE" stroke-width="6" stroke-linecap="round"></path>
                        <path d="M25.8373019,536.336394 C25.8373019,545.127397 32.7772223,552.25682 41.342517,552.25682 L41.342517,520.415967 C32.7772223,520.415967 25.8373019,527.54539 25.8373019,536.336394" id="Fill-98" fill="#58595C"></path>
                        <path d="M30.9629339,560.282179 C30.9629339,566.167247 35.610934,570.939715 41.342517,570.939715 L41.342517,549.624643 C35.610934,549.624643 30.9629339,554.397111 30.9629339,560.282179" id="Fill-100" fill="#58595C"></path>
                        <path d="M18.2718263,579.918836 C18.0365747,579.918836 17.8013232,579.82002 17.6337956,579.626047 C17.5126054,579.483312 14.6575071,576.108913 15.7553477,571.025356 C17.1169551,564.734043 23.7574644,558.900213 35.4950905,553.688561 C35.926385,553.494588 36.4289678,553.69954 36.6178819,554.142384 C36.8032316,554.588888 36.6036243,555.10493 36.1723298,555.298903 C28.4838817,558.7099 18.995403,564.26924 17.4341882,571.365724 C16.5074397,575.570913 18.8171821,578.345093 18.9134214,578.462209 C19.2235257,578.828195 19.1914459,579.380835 18.8385686,579.699244 C18.6746054,579.845639 18.4714336,579.918836 18.2718263,579.918836" id="Fill-102" fill="#58595C"></path>
                        <path d="M2.62296513,571.814058 C2.23800807,571.814058 1.8922596,571.546888 1.79602033,571.147962 C1.76037616,570.997907 0.936995768,567.378298 3.89902652,563.220687 C5.96638853,560.322072 9.35258493,557.8846 13.9720697,555.985128 C19.7963275,553.584254 27.6024013,552.03613 37.1657329,551.381014 C37.6362359,551.351735 38.0425795,551.714062 38.0746593,552.197164 C38.106739,552.680267 37.7502973,553.101152 37.2797942,553.130431 C16.4386465,554.557779 8.40088552,559.934126 5.32479342,564.194212 C2.80475042,567.682067 3.42852344,570.613621 3.45703877,570.734397 C3.56397129,571.20652 3.27881791,571.678643 2.8225725,571.788439 C2.75484857,571.806738 2.69068906,571.814058 2.62296513,571.814058" id="Fill-104" fill="#58595C"></path>
                        <path d="M34.2824757,546.511193 C34.1719788,546.511193 34.0579174,546.489234 33.9474205,546.441656 C21.5218619,540.999432 13.7336102,533.880988 10.8036592,525.276638 C7.57073274,515.79026 11.5129782,508.104536 11.6805058,507.782468 C11.9050641,507.357923 12.4219046,507.196889 12.8389415,507.427461 C13.2524139,507.658032 13.4092482,508.188713 13.1846899,508.613258 C13.1383525,508.704755 9.43492297,515.991552 12.4254691,524.727658 C15.2021501,532.834266 22.6696043,539.597702 34.617531,544.827654 C35.0523899,545.017967 35.2555616,545.534008 35.0702119,545.976852 C34.9311997,546.3099 34.6139665,546.511193 34.2824757,546.511193" id="Fill-106" fill="#58595C"></path>
                        <path d="M31.6202125,549.354179 C28.4657032,549.354179 25.4288197,549.010151 22.527384,548.325756 C18.2714698,547.319292 14.3114022,545.580855 10.7505494,543.150702 C4.67321795,539.011391 1.90366573,534.352379 1.78603996,534.158406 C1.54365959,533.741181 1.67554303,533.20318 2.07832218,532.954309 C2.48110133,532.705438 3.00507067,532.837194 3.25101546,533.250759 C3.27596638,533.298337 5.98135908,537.818274 11.7628439,541.737993 C15.1490403,544.03273 18.9201938,545.679671 22.9658074,546.627577 C28.0344087,547.817034 33.5592555,547.915851 39.3906421,546.916707 C39.8540164,546.836189 40.2960041,547.161918 40.3708569,547.637701 C40.449274,548.117143 40.1356053,548.567307 39.6686667,548.647824 C36.920501,549.119947 34.2293659,549.354179 31.6202125,549.354179" id="Fill-108" fill="#58595C"></path>
                        <path d="M56.8466628,536.336394 C56.8466628,545.127397 49.903178,552.25682 41.3414477,552.25682 L41.3414477,520.415967 C49.903178,520.415967 56.8466628,527.54539 56.8466628,536.336394" id="Fill-110" fill="#A6A9AB"></path>
                        <path d="M51.7213872,560.282179 C51.7213872,566.167247 47.0733871,570.939715 41.3418041,570.939715 L41.3418041,549.624643 C47.0733871,549.624643 51.7213872,554.397111 51.7213872,560.282179" id="Fill-112" fill="#A6A9AB"></path>
                        <path d="M64.4099998,579.919568 C64.206828,579.919568 64.0072206,579.846371 63.8432574,579.699976 C63.4903801,579.377908 63.4583004,578.825267 63.7684047,578.46294 C63.8717728,578.338505 66.1743863,575.564325 65.2512023,571.366456 C64.3886133,567.450397 60.439239,561.481152 46.5130607,555.295975 C46.0782018,555.105662 45.8785944,554.58962 46.0675085,554.143116 C46.2528582,553.700272 46.7554411,553.49532 47.1903,553.685633 C58.927926,558.900945 65.5684354,564.734775 66.9264784,571.022428 C68.0243189,576.105985 65.1727851,579.484044 65.0480305,579.623119 C64.8805029,579.820752 64.6452513,579.919568 64.4099998,579.919568" id="Fill-114" fill="#A6A9AB"></path>
                        <path d="M80.0592174,571.81662 C79.9914934,571.81662 79.9237695,571.8093 79.8560456,571.791001 C79.3962357,571.677545 79.1182112,571.201762 79.2287081,570.733299 C79.2572235,570.601544 79.8774321,567.677309 77.3609535,564.193114 C74.2848614,559.933028 66.243536,554.556681 45.4059527,553.132993 C44.9318852,553.100054 44.5790079,552.682829 44.6075232,552.196066 C44.639603,551.712964 45.0459466,551.354297 45.5164496,551.379916 C55.0833456,552.035032 62.885855,553.583157 68.7101128,555.98403 C73.3295976,557.887162 76.7193584,560.320974 78.7867204,563.223249 C81.7451867,567.3772 80.9253708,570.996809 80.8897266,571.150524 C80.7934873,571.549449 80.4441744,571.81662 80.0592174,571.81662" id="Fill-116" fill="#A6A9AB"></path>
                        <path d="M48.4018454,546.511193 C48.0703546,546.511193 47.7531215,546.3099 47.6141092,545.976852 C47.4287595,545.534008 47.6319313,545.017967 48.0667902,544.827654 C60.0147169,539.597702 67.482171,532.834266 70.2588521,524.727658 C73.2529626,515.980573 69.5352754,508.686455 69.4996312,508.613258 C69.2750729,508.188713 69.4319073,507.654373 69.8489441,507.427461 C70.2624165,507.196889 70.779257,507.357923 71.0038153,507.782468 C71.1713429,508.104536 75.1135884,515.79026 71.8806619,525.276638 C68.9507109,533.880988 61.1624592,540.999432 48.7369006,546.441656 C48.6264037,546.489234 48.5123423,546.511193 48.4018454,546.511193" id="Fill-118" fill="#A6A9AB"></path>
                        <path d="M51.0637522,549.354179 C48.4545988,549.354179 45.7634637,549.119947 43.015298,548.647824 C42.5483594,548.567307 42.2346907,548.117143 42.3131078,547.637701 C42.3879606,547.161918 42.8299483,546.836189 43.2933226,546.916707 C49.1247092,547.915851 54.649556,547.817034 59.7181573,546.627577 C63.7637709,545.679671 67.5349244,544.03273 70.9211208,541.737993 C73.9401822,539.692127 76.0930903,537.496206 77.3655872,536.013959 C78.7521455,534.403617 79.4258204,533.261738 79.4329492,533.250759 C79.678894,532.837194 80.2028634,532.705438 80.6056425,532.954309 C81.0084217,533.20318 81.1403051,533.741181 80.8979247,534.158406 C80.780299,534.352379 78.0107468,539.011391 71.9334153,543.150702 C68.3725625,545.580855 64.4124949,547.319292 60.1565807,548.325756 C57.255145,549.010151 54.2146971,549.354179 51.0637522,549.354179" id="Fill-120" fill="#A6A9AB"></path>
                    </g>
                </g>
            </g>
        </g>
    </g>
</svg>