<?xml version="1.0" encoding="UTF-8" standalone="no"?>
<svg width="24px" height="16px" viewBox="0 0 24 16" version="1.1" xmlns="http://www.w3.org/2000/svg" xmlns:xlink="http://www.w3.org/1999/xlink" xmlns:sketch="http://www.bohemiancoding.com/sketch/ns">
    <!-- Generator: Sketch 3.4.4 (17249) - http://www.bohemiancoding.com/sketch -->
    <title>Behance</title>
    <desc>Created with Sketch.</desc>
    <defs></defs>
    <g id="Welcome" stroke="none" stroke-width="1" fill="none" fill-rule="evenodd" sketch:type="MSPage">
        <g id="Home-Copy" sketch:type="MSArtboardGroup" transform="translate(-1261.000000, -50.000000)" fill="#4D4D4D">
            <g id="Nav-Bar" sketch:type="MSLayerGroup" transform="translate(52.000000, 33.000000)">
                <g id="Behance" transform="translate(1208.957031, 17.727273)" sketch:type="MSShapeGroup">
                    <path d="M9.74169231,6.95554252 C9.74169231,6.95554252 11.9510769,6.78756598 11.9510769,4.15296188 C11.9510769,1.51835777 10.1436923,0.233665689 7.85261538,0.233665689 L0.316153846,0.233665689 L0.316153846,14.9578886 L7.85353846,14.9578886 C7.85353846,14.9578886 12.4550769,15.1042815 12.4550769,10.6111437 C12.4550769,10.6111437 12.6544615,6.95554252 9.74169231,6.95554252 L9.74169231,6.95554252 Z M7.31123077,2.84950147 L7.85261538,2.84950147 C7.85261538,2.84950147 8.87676923,2.84950147 8.87676923,4.38193548 C8.87676923,5.91343109 8.27446154,6.13536657 7.59092308,6.13536657 L3.63784615,6.13536657 L3.63784615,2.84950147 L7.31123077,2.84950147 L7.31123077,2.84950147 Z M7.64123077,12.3415836 L3.63784615,12.3415836 L3.63784615,8.4058651 L7.85353846,8.4058651 C7.85353846,8.4058651 9.38076923,8.38568915 9.38076923,10.4281525 C9.38076923,12.1501466 8.23984615,12.3284457 7.64123077,12.3415836 L7.64123077,12.3415836 Z" id="Fill-59"></path>
                    <path d="M18.5912308,3.97935484 C13.0218462,3.97935484 13.026,9.63612903 13.026,9.63612903 C13.026,9.63612903 12.6433846,15.2656891 18.5912308,15.2656891 C18.5912308,15.2656891 23.5467692,15.5533138 23.5467692,11.3492082 L20.9981538,11.3492082 C20.9981538,11.3492082 21.0816923,12.9337243 18.6761538,12.9337243 C18.6761538,12.9337243 16.1261538,13.1068622 16.1261538,10.3704399 L23.6326154,10.3704399 C23.6326154,10.3704399 24.4532308,3.97935484 18.5912308,3.97935484 L18.5912308,3.97935484 Z M16.098,8.4058651 C16.098,8.4058651 16.4104615,6.13630499 18.648,6.13630499 C20.8850769,6.13630499 20.856,8.4058651 20.856,8.4058651 L16.098,8.4058651 L16.098,8.4058651 Z" id="Fill-60"></path>
                    <path d="M15.4744615,1.09982405 L21.4504615,1.09982405 L21.4504615,2.91237537 L15.4744615,2.91237537 L15.4744615,1.09982405 Z" id="Fill-61"></path>
                </g>
            </g>
        </g>
    </g>
</svg>