<?xml version="1.0" encoding="UTF-8"?>
<svg width="25px" height="24px" viewBox="0 0 25 24" version="1.1" xmlns="http://www.w3.org/2000/svg" xmlns:xlink="http://www.w3.org/1999/xlink">
    <!-- Generator: Sketch 41.2 (35397) - http://www.bohemiancoding.com/sketch -->
    <title>A4 Copy</title>
    <desc>Created with Sketch.</desc>
    <defs></defs>
    <g id="Page-1" stroke="none" stroke-width="1" fill="none" fill-rule="evenodd">
        <g id="A4-Copy" fill="#4D4D4D">
            <g id="note-text-2-01" transform="translate(4.000000, 3.000000)">
                <g id="Layer_1">
                    <path d="M11,7 L16.5,7 L11,1.5 L11,7 L11,7 Z M2,0 L12,0 L18,6 L18,16 C18,17.1 17.1,18 16,18 L2,18 C0.9,18 0,17.1 0,16 L0,2 C0,0.9 0.9,0 2,0 L2,0 Z M2,9 L2,11 L16,11 L16,9 L2,9 L2,9 Z M2,13 L2,15 L11,15 L11,13 L2,13 Z" id="Shape"></path>
                </g>
            </g>
        </g>
    </g>
</svg>