<svg xmlns="http://www.w3.org/2000/svg" viewBox="0 0 38 45.73"><defs><style>.cls-1{fill:#424143;}</style></defs><title>Asset 1</title><g id="Layer_2" data-name="Layer 2"><g id="Layer_1-2" data-name="Layer 1"><path class="cls-1" d="M34.79,16.3H27.15v-15A1.34,1.34,0,0,0,25.81,0H12.19a1.34,1.34,0,0,0-1.34,1.34v15H3.21a1.34,1.34,0,0,0-.94,2.28L18.06,34.37a1.34,1.34,0,0,0,1.89,0L35.74,18.58A1.34,1.34,0,0,0,34.79,16.3Zm1,29.43H2.25A2.25,2.25,0,0,1,0,43.48V43a2.25,2.25,0,0,1,2.25-2.25h33.5A2.25,2.25,0,0,1,38,43v.5A2.25,2.25,0,0,1,35.75,45.73Z"/></g></g></svg>