<?xml version="1.0" encoding="UTF-8" standalone="no"?>
<svg width="25px" height="24px" viewBox="0 0 25 24" version="1.1" xmlns="http://www.w3.org/2000/svg" xmlns:xlink="http://www.w3.org/1999/xlink" xmlns:sketch="http://www.bohemiancoding.com/sketch/ns">
    <!-- Generator: Sketch 3.4.4 (17249) - http://www.bohemiancoding.com/sketch -->
    <title>GitHub</title>
    <desc>Created with Sketch.</desc>
    <defs></defs>
    <g id="Welcome" stroke="none" stroke-width="1" fill="none" fill-rule="evenodd" sketch:type="MSPage">
        <g id="Home-Copy" sketch:type="MSArtboardGroup" transform="translate(-1199.000000, -46.000000)" fill="#4D4D4D">
            <g id="Nav-Bar" sketch:type="MSLayerGroup" transform="translate(52.000000, 33.000000)">
                <g id="GitHub" transform="translate(1147.957031, 13.727273)" sketch:type="MSShapeGroup">
                    <path d="M11.8537358,0 C5.30716981,0 0,5.24486713 0,11.7178182 C0,16.8915245 3.39532075,21.2824615 8.10656604,22.8332308 C8.70022642,22.9397483 8.91622642,22.5767832 8.91622642,22.2675245 C8.91622642,21.9895944 8.90716981,21.2524755 8.89992453,20.2745734 C5.60286792,20.9826014 4.90777358,18.7045594 4.90777358,18.7045594 C4.368,17.3516084 3.5909434,16.9922238 3.5909434,16.9922238 C2.51501887,16.2640559 3.67290566,16.2788252 3.67290566,16.2788252 C4.86339623,16.3620699 5.48920755,17.4858741 5.48920755,17.4858741 C6.54566038,19.276979 8.26324528,18.7578182 8.93932075,18.4588531 C9.04573585,17.7011469 9.35184906,17.1869091 9.69056604,16.8933147 C7.05826415,16.5988252 4.29101887,15.5909371 4.29101887,11.1024336 C4.29101887,9.82511888 4.75381132,8.77784615 5.51049057,7.95972028 C5.38913208,7.66254545 4.9829434,6.47205594 5.62732075,4.85818182 C5.62732075,4.85818182 6.62173585,4.54355245 8.88724528,6.06030769 C9.83275472,5.79983217 10.848,5.66959441 11.8550943,5.66511888 C12.8617358,5.66959441 13.8760755,5.79983217 14.8215849,6.06030769 C17.0861887,4.54355245 18.0806038,4.85818182 18.0806038,4.85818182 C18.7258868,6.47205594 18.3196981,7.66254545 18.1969811,7.95972028 C18.9554717,8.77784615 19.416,9.82511888 19.416,11.1024336 C19.416,15.6039161 16.6433208,16.5943497 14.0028679,16.8848112 C14.4276226,17.2464336 14.808,17.9598322 14.808,19.0532028 C14.808,20.6196364 14.7935094,21.8830769 14.7935094,22.2675245 C14.7935094,22.5803636 15.0076981,22.9442238 15.6086038,22.8296503 C20.3144151,21.2788811 23.7079245,16.8897343 23.7079245,11.7178182 C23.7079245,5.24486713 18.4021132,0 11.8537358,0" id="Fill-75"></path>
                </g>
            </g>
        </g>
    </g>
</svg>