<?xml version="1.0" encoding="UTF-8" standalone="no"?>
<svg width="91px" height="90px" viewBox="0 0 91 90" version="1.1" xmlns="http://www.w3.org/2000/svg" xmlns:xlink="http://www.w3.org/1999/xlink" xmlns:sketch="http://www.bohemiancoding.com/sketch/ns">
    <!-- Generator: Sketch 3.4.4 (17249) - http://www.bohemiancoding.com/sketch -->
    <title>Fill 54 + Fill 55</title>
    <desc>Created with Sketch.</desc>
    <defs></defs>
    <g id="Welcome" stroke="none" stroke-width="1" fill="none" fill-rule="evenodd" sketch:type="MSPage">
        <g id="Home-Copy" sketch:type="MSArtboardGroup" transform="translate(-1092.000000, -1572.000000)" fill="#4D4D4D">
            <g id="Fill-54-+-Fill-55" sketch:type="MSLayerGroup" transform="translate(1092.957031, 1572.281250)">
                <path d="M1.46319005,29.5088246 L19.9407433,29.5088246 L19.9407433,88.8670738 L1.46319005,88.8670738 L1.46319005,29.5088246 Z M10.7080488,0 C16.6164172,0 21.4056711,4.79620493 21.4056711,10.6941468 C21.4056711,16.5990397 16.6164172,21.3952446 10.7080488,21.3952446 C4.78056513,21.3952446 0,16.5990397 0,10.6941468 C0,4.79620493 4.78056513,0 10.7080488,0 L10.7080488,0 Z" id="Fill-54" sketch:type="MSShapeGroup"></path>
                <path d="M31.5246209,29.5088246 L49.2184464,29.5088246 L49.2184464,37.6206668 L49.470421,37.6206668 C51.9310826,32.9513181 57.9576184,28.0334703 66.9383383,28.0334703 C85.6157335,28.0334703 89.0703912,40.3211387 89.0703912,56.3084885 L89.0703912,88.8670738 L70.6275931,88.8670738 L70.6275931,60.0081698 C70.6275931,53.1179696 70.4920482,44.262368 61.0334455,44.262368 C51.4253958,44.262368 49.9622058,51.7607826 49.9622058,59.4990074 L49.9622058,88.8670738 L31.5246209,88.8670738 L31.5246209,29.5088246" id="Fill-55" sketch:type="MSShapeGroup"></path>
            </g>
        </g>
    </g>
</svg>