<?xml version="1.0" encoding="UTF-8"?>
<svg width="25px" height="24px" viewBox="0 0 25 24" version="1.1" xmlns="http://www.w3.org/2000/svg" xmlns:xlink="http://www.w3.org/1999/xlink">
    <!-- Generator: Sketch 41.2 (35397) - http://www.bohemiancoding.com/sketch -->
    <title>A4</title>
    <desc>Created with Sketch.</desc>
    <defs>
        <polygon id="path-1" points="4.60344086 0.0287265077 0 0.0287265077 0 9.62585316 0 19.2229798 4.60344086 19.2229798 4.60344086 0.0287265077"></polygon>
        <polygon id="path-3" points="12.488172 13.1752508 12.488172 0.0360053296 0.112774194 0.0360053296 0.112774194 13.1752508 12.488172 13.1752508"></polygon>
    </defs>
    <g id="Page-1" stroke="none" stroke-width="1" fill="none" fill-rule="evenodd">
        <g id="A4">
            <g id="Page-1" transform="translate(3.000000, 2.000000)">
                <g id="Group-3" transform="translate(0.000000, 0.187284)">
                    <mask id="mask-2" fill="white">
                        <use xlink:href="#path-1"></use>
                    </mask>
                    <g id="Clip-2"></g>
                    <path d="M2.3027957,0.0287049088 C3.57333333,0.0287049088 4.60344086,1.0645871 4.60344086,2.33848892 C4.60344086,3.61390266 3.57333333,4.64978485 2.3027957,4.64978485 C1.02817204,4.64978485 0,3.61390266 0,2.33848892 C0,1.0645871 1.02817204,0.0287049088 2.3027957,0.0287049088 L2.3027957,0.0287049088 Z M0.314623656,19.2229798 L4.2883871,19.2229798 L4.2883871,6.40231781 L0.314623656,6.40231781 L0.314623656,19.2229798 Z" id="Fill-1" fill="#4D4D4D" mask="url(#mask-2)"></path>
                </g>
                <g id="Group-6" transform="translate(6.666667, 6.234970)">
                    <mask id="mask-4" fill="white">
                        <use xlink:href="#path-3"></use>
                    </mask>
                    <g id="Clip-5"></g>
                    <path d="M0.112774194,0.35458878 L3.91793548,0.35458878 L3.91793548,2.10668976 L3.97212903,2.10668976 C4.50116129,1.09802216 5.79750538,0.0360053296 7.72868817,0.0360053296 C11.7454624,0.0360053296 12.4882581,2.69007546 12.4882581,6.14308808 L12.4882581,13.1752508 L8.52223656,13.1752508 L8.52223656,6.94203058 C8.52223656,5.45386788 8.49298925,3.54107125 6.4587957,3.54107125 C4.39255914,3.54107125 4.07772043,5.16077111 4.07772043,6.83209229 L4.07772043,13.1752508 L0.112774194,13.1752508 L0.112774194,0.35458878" id="Fill-4" fill="#4D4D4D" mask="url(#mask-4)"></path>
                </g>
            </g>
        </g>
    </g>
</svg>