<?xml version="1.0" encoding="UTF-8" standalone="no"?>
<svg width="62px" height="55px" viewBox="0 0 62 55" version="1.1" xmlns="http://www.w3.org/2000/svg" xmlns:xlink="http://www.w3.org/1999/xlink" xmlns:sketch="http://www.bohemiancoding.com/sketch/ns">
    <!-- Generator: Sketch 3.4.4 (17249) - http://www.bohemiancoding.com/sketch -->
    <title>C.</title>
    <desc>Created with Sketch.</desc>
    <defs></defs>
    <g id="Welcome" stroke="none" stroke-width="1" fill="none" fill-rule="evenodd" sketch:type="MSPage">
        <g id="Home-Copy" sketch:type="MSArtboardGroup" transform="translate(-52.000000, -139.000000)" fill="#4D4D4D">
            <path d="M75.937,193.192141 C82.652,193.192141 88.34,190.585141 92.606,185.608141 L86.444,178.340141 C83.916,181.026141 80.598,183.159141 76.411,183.159141 C68.827,183.159141 63.929,176.997141 63.929,166.411141 C63.929,156.062141 69.538,149.821141 76.569,149.821141 C80.282,149.821141 83.047,151.559141 85.654,153.929141 L91.816,146.503141 C88.34,142.948141 82.968,139.788141 76.332,139.788141 C63.297,139.788141 52,149.742141 52,166.806141 C52,184.107141 62.902,193.192141 75.937,193.192141 L75.937,193.192141 Z M106.194,193.192141 C110.223,193.192141 113.225,190.032141 113.225,185.924141 C113.225,181.737141 110.223,178.577141 106.194,178.577141 C102.165,178.577141 99.163,181.737141 99.163,185.924141 C99.163,190.032141 102.165,193.192141 106.194,193.192141 L106.194,193.192141 Z" id="C." sketch:type="MSShapeGroup"></path>
        </g>
    </g>
</svg>