<?xml version="1.0" encoding="UTF-8" standalone="no"?>
<svg width="25px" height="20px" viewBox="0 0 25 20" version="1.1" xmlns="http://www.w3.org/2000/svg" xmlns:xlink="http://www.w3.org/1999/xlink" xmlns:sketch="http://www.bohemiancoding.com/sketch/ns">
    <!-- Generator: Sketch 3.4.4 (17249) - http://www.bohemiancoding.com/sketch -->
    <title>Mail</title>
    <desc>Created with Sketch.</desc>
    <defs></defs>
    <g id="Welcome" stroke="none" stroke-width="1" fill="none" fill-rule="evenodd" sketch:type="MSPage">
        <g id="Home-Copy" sketch:type="MSArtboardGroup" transform="translate(-1137.000000, -49.000000)" fill="#4D4D4D">
            <g id="Nav-Bar" sketch:type="MSLayerGroup" transform="translate(52.000000, 33.000000)">
                <g id="Mail" transform="translate(1085.957031, 16.727273)" sketch:type="MSShapeGroup">
                    <path d="M2.4,-1.98951966e-13 C1.08,-1.98951966e-13 0.012,1.06875 0.012,2.375 L0,16.625 C0,17.93125 1.08,19 2.4,19 L21.6,19 C22.92,19 24,17.93125 24,16.625 L24,2.375 C24,1.06875 22.92,-1.98951966e-13 21.6,-1.98951966e-13 L2.4,-1.98951966e-13 Z M21.6,16.625 L2.4,16.625 L2.4,4.75 L12,10.6875 L21.6,4.75 L21.6,16.625 L21.6,16.625 Z M12,8.3125 L2.4,2.375 L21.6,2.375 L12,8.3125 L12,8.3125 Z" id="Shape"></path>
                </g>
            </g>
        </g>
    </g>
</svg>