<?xml version="1.0" encoding="UTF-8" standalone="no"?>
<svg width="24px" height="20px" viewBox="0 0 24 20" version="1.1" xmlns="http://www.w3.org/2000/svg" xmlns:xlink="http://www.w3.org/1999/xlink" xmlns:sketch="http://www.bohemiancoding.com/sketch/ns">
    <!-- Generator: Sketch 3.4.4 (17249) - http://www.bohemiancoding.com/sketch -->
    <title>Twitter</title>
    <desc>Created with Sketch.</desc>
    <defs></defs>
    <g id="Welcome" stroke="none" stroke-width="1" fill="none" fill-rule="evenodd" sketch:type="MSPage">
        <g id="Home-Copy" sketch:type="MSArtboardGroup" transform="translate(-1324.000000, -49.000000)" fill="#4D4D4D">
            <g id="Nav-Bar" sketch:type="MSLayerGroup" transform="translate(52.000000, 33.000000)">
                <g id="Twitter" transform="translate(1271.957031, 16.727273)" sketch:type="MSShapeGroup">
                    <path d="M23.4432914,2.23582967 C22.5804827,2.61571711 21.6532784,2.87206017 20.6808104,2.98681302 C21.6738103,2.39639111 22.4376923,1.46263609 22.7956016,0.348422959 C21.867464,0.894887122 20.8385331,1.29235767 19.7424068,1.50659383 C18.8646657,0.578854079 17.6140831,0 16.230976,0 C13.5748878,0 11.4208992,2.13542092 11.4208992,4.76918385 C11.4208992,5.14351874 11.4638297,5.50674852 11.5450242,5.85563419 C7.5482928,5.65759299 4.00466424,3.75908117 1.63182368,0.87221418 C1.2183848,1.57785165 0.980867424,2.39639111 0.980867424,3.27091885 C0.980867424,4.92465545 1.82967706,6.38544068 3.11992369,7.24007177 C2.33177665,7.21601068 1.59029314,7.00038638 0.941670058,6.64363459 L0.941670058,6.70378729 C0.941670058,9.01411376 2.60009195,10.9417765 4.79934418,11.3799658 C4.3966379,11.4887034 3.97059986,11.5483934 3.53196267,11.5483934 C3.2230501,11.5483934 2.92067041,11.5173916 2.62762344,11.4614033 C3.23938233,13.3566761 5.01539633,14.7346357 7.11992158,14.7744291 C5.47503211,16.053368 3.40130478,16.8159192 1.14605632,16.8159192 C0.758749016,16.8159192 0.376108061,16.7927836 0,16.7492885 C2.12832366,18.1013362 4.65655377,18.8911874 7.37377119,18.8911874 C16.2202434,18.8911874 21.0578517,11.6252037 21.0578517,5.322126 C21.0578517,5.11575596 21.0522521,4.91031134 21.0443193,4.7039413 C21.9822562,4.03300732 22.7970015,3.19272034 23.4432914,2.23582967" id="Fill-57"></path>
                </g>
            </g>
        </g>
    </g>
</svg>